<svg width="59" height="48" viewBox="0 0 59 48" fill="none" xmlns="http://www.w3.org/2000/svg">
<path d="M47.6399 18.4296C46.8744 16.5425 46.0774 14.6696 45.2542 12.8109C45.1965 12.6788 45.1126 12.5891 45.0183 12.5184C47.6923 9.44721 49.2967 5.60234 49.26 1.32818C49.2548 0.662992 48.4736 0.394088 47.9807 0.596946C42.1712 0.261994 36.0523 1.08758 30.1956 1.02625C23.3374 0.960203 16.4426 0.318606 9.58439 0.512028C9.32223 0.521464 9.13347 0.634687 9.01288 0.780933C8.64585 0.799803 8.30504 0.997944 8.26834 1.42725C7.97996 5.02679 7.89607 9.12169 10.051 12.3297C10.0406 12.3533 10.0301 12.3721 10.0301 12.3957C9.75218 15.0848 9.21212 17.7502 8.61964 20.411C3.38163 19.8118 1.89779 25.2748 1.13752 29.1197C0.136063 34.1675 -0.414478 38.9607 6.36504 40.2108C6.41223 40.2203 6.44893 40.2108 6.49612 40.2108C6.77926 41.1827 7.18299 42.0932 7.77547 42.8904C12.9139 49.7546 25.4242 46.8391 33.1475 47.2967C40.1892 47.7166 50.2667 48.344 52.2644 40.6307C52.3273 40.3948 52.3536 40.1448 52.4007 39.9042C63.3224 40.0316 58.2207 16.802 47.6399 18.4201V18.4296ZM9.9252 1.78107C22.2783 3.09257 35.1557 3.03596 47.5455 2.18207C47.1208 10.9333 40.2312 16.1934 31.2495 17.9531C31.2023 17.0426 31.1604 16.1368 31.1499 15.2263C31.1446 14.7074 30.7566 14.363 30.1694 14.4054C28.6017 14.5234 27.0339 14.6036 25.4609 14.6366C24.9052 14.646 24.6011 15.0423 24.5748 15.4292C24.5696 15.4527 24.5539 15.4716 24.5539 15.4999C24.4962 16.4623 24.4752 17.42 24.449 18.3824C19.8087 17.8965 15.1894 15.7594 12.2689 12.6269C9.52672 9.67837 9.64731 5.39477 9.9252 1.78107ZM29.5821 19.925C29.5926 20.5997 29.5926 21.2696 29.5821 21.9442C28.4286 21.9536 27.2699 21.9819 26.1216 22.0385C26.1216 21.3545 26.1164 20.6657 26.1059 19.9817C27.2804 20.043 28.4444 20.0241 29.5874 19.925H29.5821ZM26.0692 18.505C26.0534 17.7219 26.022 16.9341 25.98 16.1509C27.1493 16.1274 28.3238 16.0613 29.4878 15.967C29.5035 16.7265 29.5192 17.4813 29.5454 18.2409C29.0893 18.3069 28.6384 18.3729 28.1717 18.4201C27.4796 18.4909 26.777 18.5145 26.0692 18.505ZM6.53282 30.3746C6.16055 32.724 5.75158 35.6961 6.11336 38.4181C1.63039 37.0972 2.03936 33.8986 2.87828 30.0868C3.57563 26.9118 3.96888 22.0433 8.29455 21.8829C7.65488 24.704 6.98374 27.5299 6.53282 30.3699V30.3746ZM43.5397 45.3719C39.6806 46.0324 35.6066 45.6502 31.7214 45.4191C24.9471 45.0134 12.7723 47.9713 9.03385 41.1732C6.76877 37.0595 8.34699 31.0775 9.07055 26.7184C9.76266 22.5811 11.3828 18.3494 11.5663 14.1412C14.8119 17.4011 19.6409 19.2787 24.4175 19.8496C24.4018 20.8403 24.3913 21.8262 24.3913 22.8217C24.3913 23.2085 24.7269 23.6756 25.2145 23.6425C26.9553 23.5293 28.6908 23.5246 30.4315 23.5293C30.9192 23.5293 31.3177 23.1944 31.3386 22.7556C31.3858 21.7413 31.3648 20.7365 31.3281 19.7269C36.2044 18.9721 40.6244 16.8444 43.8543 13.7261C46.9897 21.2413 50.4345 29.0159 50.6443 37.1396C50.7648 41.7959 48.6151 44.5039 43.5449 45.3719H43.5397ZM52.6105 38.2436C52.8621 34.4176 51.6562 30.3085 50.6233 26.7845C49.9312 24.4304 49.1027 22.1046 48.1957 19.8024C55.4733 21.1799 60.706 35.9367 52.6105 38.2483V38.2436Z" fill="#37464F"/>
<path d="M21.3922 48.0089C15.8187 48.0089 10.3919 47.2352 7.34557 43.1592C6.81076 42.4468 6.40178 41.6213 6.08719 40.6447C-1.38968 39.1728 -0.225681 33.323 0.623725 29.0394C1.19 26.1899 2.49032 19.6277 8.20022 19.9013C8.72454 17.5189 9.23314 14.9809 9.50578 12.4145C7.45043 9.23007 7.44519 5.23896 7.7493 1.38938C7.79124 0.851575 8.18449 0.445859 8.75076 0.337354C8.97097 0.153366 9.25411 0.0448611 9.5687 0.0354258C13.648 -0.0777971 17.8006 0.101473 21.8117 0.276025C24.5644 0.393965 27.4115 0.521341 30.2061 0.549647C32.7124 0.573235 35.3288 0.431706 37.856 0.294895C41.175 0.115625 44.6041 -0.0683619 47.9021 0.110908C48.3006 -0.00703278 48.7725 0.0495787 49.1447 0.261872C49.5485 0.493035 49.7844 0.875163 49.7844 1.3139C49.8211 5.38993 48.4002 9.24894 45.6789 12.5041C45.6999 12.5418 45.7209 12.5796 45.7366 12.6173C46.5651 14.4902 47.2991 16.2216 47.9807 17.8963C50.66 17.6463 53.2397 18.8776 55.2846 21.3921C58.9391 25.888 60.1241 33.356 57.8171 37.3754C56.7527 39.2341 55.0381 40.2626 52.8412 40.3617C52.8202 40.4843 52.7993 40.6117 52.7626 40.7344C50.6705 48.8015 40.1526 48.1788 33.1895 47.7636H33.1056C31.1971 47.6457 28.9844 47.74 26.6407 47.8438C24.9209 47.9193 23.1435 47.9948 21.3817 47.9948L21.3922 48.0089ZM6.47519 39.7437C6.47519 39.7437 6.51713 39.7437 6.54335 39.7437L6.91038 39.772L7.00476 40.0928C7.29838 41.1023 7.69162 41.9279 8.21595 42.6261C11.9019 47.5466 19.7091 47.2069 26.604 46.9097C28.9792 46.8059 31.2181 46.7069 33.1895 46.8248H33.2734C40.2784 47.2447 49.8683 47.8155 51.7559 40.5268C51.7926 40.3853 51.8135 40.2437 51.8398 40.1022C51.8555 40.0078 51.8712 39.9182 51.8869 39.8239L51.9656 39.4276H52.4113C52.4375 39.4323 52.4689 39.4323 52.4952 39.4323C54.4771 39.4323 55.9609 38.5973 56.9047 36.9461C59.0125 33.2711 57.8433 26.1239 54.4561 21.9535C53.1034 20.2929 50.8435 18.4106 47.7395 18.8823L47.3096 18.9484L47.1575 18.5804C46.434 16.8019 45.658 14.9667 44.7771 12.9711C44.7561 12.9287 44.7299 12.8957 44.688 12.8626L44.3105 12.5701L44.6198 12.2163C47.3568 9.06967 48.7829 5.30501 48.7515 1.32334C48.7515 1.2054 48.6991 1.11576 48.5942 1.05915C48.4631 0.983668 48.3058 0.983668 48.2114 1.02141L48.0908 1.0733L47.9598 1.06387C44.688 0.875163 41.2536 1.06387 37.9294 1.24314C35.3812 1.37995 32.7543 1.52148 30.2009 1.49789C27.3905 1.46958 24.5329 1.34692 21.7697 1.22427C17.7796 1.04971 13.6479 0.870445 9.61065 0.983668C9.53724 0.983668 9.49006 1.00726 9.44811 1.05915L9.3013 1.23842L9.05487 1.25257C8.81892 1.26673 8.80843 1.38938 8.80319 1.46015C8.50432 5.21538 8.50432 9.1027 10.5125 12.0842L10.6331 12.2635L10.5544 12.4947C10.2608 15.2828 9.70503 17.9907 9.144 20.5052L9.04962 20.9345L8.56724 20.8779C4.04757 20.3637 2.53751 24.7982 1.66713 29.2045C0.623725 34.4741 0.309131 38.5973 6.43849 39.7437C6.45422 39.7437 6.46994 39.7437 6.48567 39.7437H6.47519ZM10.5597 12.3956C10.5597 12.4192 10.5597 12.4428 10.5544 12.4711C10.5544 12.4522 10.5597 12.4239 10.5597 12.3956ZM38.6478 46.2115C36.7759 46.2115 34.9041 46.0936 33.0584 45.9756C32.597 45.9473 32.1409 45.919 31.6847 45.8907C30.0331 45.7916 28.0302 45.8954 25.9119 46.0087C19.5047 46.3483 11.5244 46.7729 8.562 41.3807C6.53286 37.6962 7.46616 32.6012 8.21595 28.511C8.33654 27.8647 8.44665 27.242 8.54627 26.6523C8.81892 25.0294 9.23838 23.3688 9.64211 21.7601C10.2765 19.2503 10.9267 16.6556 11.0421 14.1222L11.0945 12.9617L11.9544 13.825C14.8749 16.7547 19.4417 18.7785 24.4857 19.3777L24.9471 19.4343V19.8542C24.9262 20.8401 24.9157 21.8308 24.9157 22.8168C24.9157 22.9206 24.9786 23.0527 25.0625 23.1188C25.1202 23.1706 25.1621 23.1659 25.1779 23.1659C26.9658 23.0527 28.759 23.048 30.4368 23.0527C30.6466 23.0527 30.8091 22.9159 30.8196 22.7319C30.8668 21.7035 30.8406 20.6892 30.8091 19.7409L30.7934 19.3305L31.2443 19.2597C35.9789 18.5285 40.3203 16.448 43.4768 13.4004L44.0535 12.8438L44.8767 14.8157C47.8759 21.9724 50.9746 29.3743 51.1686 37.1207C51.2997 42.0883 48.8354 44.9378 43.6393 45.8294C41.9982 46.1077 40.3256 46.2068 38.653 46.2068L38.6478 46.2115ZM30.2219 44.9047C30.7567 44.9047 31.2653 44.9189 31.7529 44.9472C32.209 44.9755 32.6704 45.0038 33.1319 45.0321C36.5557 45.2491 40.1001 45.4803 43.4348 44.9095C48.1695 44.098 50.2301 41.7062 50.1095 37.149C49.9155 29.5583 46.8482 22.2366 43.8805 15.1507L43.6446 14.5846C40.4934 17.3916 36.3512 19.3352 31.8525 20.1136C31.8787 20.9628 31.8944 21.8591 31.8525 22.7696C31.821 23.4584 31.1919 23.9962 30.4211 23.9962C28.759 23.9915 26.992 23.9962 25.2408 24.1047C24.9104 24.1283 24.5906 24.0198 24.3337 23.8075C24.0348 23.5575 23.8513 23.1754 23.8566 22.8121C23.8566 21.9582 23.867 21.1043 23.8775 20.2552C19.2268 19.623 14.985 17.8209 12.0016 15.2356C11.7814 17.5001 11.2098 19.7645 10.6541 21.9677C10.2556 23.5575 9.84135 25.1992 9.57395 26.7891C9.47433 27.3882 9.35897 28.0156 9.23838 28.662C8.51481 32.62 7.60773 37.5452 9.49006 40.9608C12.1484 45.7916 19.4208 45.4048 25.8385 45.0651C27.38 44.9849 28.8639 44.9047 30.2114 44.9047H30.2219ZM6.73211 39.1021L5.95086 38.8709C0.74432 37.3377 1.64092 33.2711 2.36448 30.0018C2.44313 29.6385 2.52178 29.2517 2.60043 28.8507C3.2034 25.7795 4.02659 21.5761 8.27362 21.4204L8.94476 21.3968L8.60919 22.8782C8.04292 25.3549 7.45568 27.9166 7.05719 30.4452C6.64297 33.0588 6.30216 35.828 6.63773 38.3661L6.73211 39.1021ZM7.63395 22.4347C4.81308 22.9725 4.18913 26.1711 3.62811 29.0111C3.54946 29.4168 3.47081 29.8083 3.39216 30.181C2.60567 33.7381 2.30681 36.4036 5.51043 37.7056C5.31119 35.2808 5.63103 32.7285 6.01378 30.3084C6.41751 27.7515 7.00476 25.1756 7.57627 22.6847L7.63395 22.4347ZM52.0442 38.9039L52.0862 38.2199C52.3326 34.4646 51.1529 30.4499 50.1147 26.907C49.4908 24.7841 48.7043 22.5149 47.7028 19.9579L47.3935 19.1654L48.3058 19.3399C53.203 20.2646 56.931 26.5202 57.2088 31.5539C57.4133 35.2289 55.7932 37.833 52.7731 38.6963L52.0442 38.9039ZM49.0346 20.5241C49.884 22.7508 50.5761 24.7652 51.1319 26.6617C52.1229 30.0489 53.2397 33.8561 53.1663 37.5405C55.9714 36.3234 56.2598 33.3513 56.1602 31.601C55.919 27.2655 52.8937 21.9346 49.0346 20.5241ZM25.5921 22.5385V22.0431C25.5921 21.3591 25.5816 20.6703 25.5763 19.9862V19.4815L26.1321 19.5098C27.2489 19.5711 28.3972 19.5522 29.5297 19.4532L30.096 19.406L30.1065 19.9155C30.117 20.609 30.117 21.293 30.1065 21.9535L30.096 22.4111H29.5874C28.3133 22.4253 27.186 22.4583 26.1479 22.5102L25.5973 22.5385H25.5921ZM26.6302 20.4769C26.6302 20.8307 26.6302 21.1892 26.6355 21.5431C27.3905 21.51 28.1875 21.4912 29.0579 21.477C29.0579 21.1326 29.0579 20.7882 29.0579 20.4344C28.2451 20.4863 27.4324 20.5005 26.625 20.4722L26.6302 20.4769ZM26.4362 18.9767C26.3104 18.9767 26.1846 18.9767 26.0587 18.9767L25.5554 18.9672L25.5449 18.5144C25.5239 17.7359 25.4977 16.9528 25.4557 16.1744L25.4295 15.6932L25.9696 15.6838C27.0077 15.6649 28.1455 15.6036 29.4459 15.5045L30.0069 15.462L30.0174 15.9668C30.0331 16.7217 30.0488 17.4812 30.075 18.236L30.0855 18.6512L29.5035 18.7361C29.0841 18.7974 28.6646 18.854 28.2399 18.9012C27.6684 18.9625 27.0759 18.9908 26.4415 18.9908L26.4362 18.9767ZM26.5254 16.6084C26.5463 17.0849 26.5673 17.5614 26.5778 18.0332C27.1179 18.0332 27.6212 18.0001 28.1088 17.953C28.4077 17.9199 28.7066 17.8822 29.0054 17.8397C28.9949 17.3868 28.9844 16.9339 28.974 16.4763C28.0931 16.5377 27.2804 16.5848 26.5254 16.6037V16.6084ZM24.9576 18.9059L24.3861 18.8493C19.5204 18.3398 14.8434 16.1272 11.8652 12.9287C9.02865 9.8811 9.1073 5.55976 9.40092 1.74792L9.43762 1.25257L9.98292 1.30918C21.2926 2.51218 33.9131 2.64427 47.4983 1.70546L48.0856 1.66301L48.0594 2.1961C47.6557 10.4991 41.563 16.4056 31.3492 18.4058L30.7409 18.5238L30.7147 17.9624C30.6728 17.0613 30.6256 16.1367 30.6151 15.2215C30.6151 15.0941 30.5732 14.995 30.505 14.9337C30.4211 14.8629 30.2953 14.8582 30.2061 14.8676C28.5126 14.995 26.9606 15.0705 25.461 15.0988C25.1202 15.1035 25.0887 15.4102 25.0887 15.4479L25.0677 15.5611C25.0153 16.4905 24.9891 17.4529 24.9681 18.3823L24.9524 18.9012L24.9576 18.9059ZM10.4129 2.3046C10.1664 5.80508 10.2031 9.66409 12.6727 12.3201C15.3625 15.212 19.5414 17.2547 23.9404 17.8444C23.9614 17.0613 23.9876 16.264 24.0296 15.4762L24.0558 15.3441C24.124 14.7591 24.6116 14.1789 25.4505 14.1647C26.9291 14.1364 28.4549 14.0609 30.1275 13.9383C30.5417 13.9052 30.9349 14.0137 31.2181 14.2496C31.5064 14.4855 31.669 14.8346 31.6742 15.2262C31.6847 15.9385 31.7109 16.6603 31.7476 17.3727C40.8761 15.4054 46.392 10.0981 46.9898 2.69616C33.782 3.57836 21.4866 3.45098 10.4181 2.31404L10.4129 2.3046Z" fill="#37464F"/>
<path d="M40.2362 28.0157C32.8275 26.8977 25.2353 28.8272 17.727 27.9308C17.2289 27.8695 16.9615 28.2799 17.0192 28.6432C17.0139 28.662 17.0034 28.6762 16.9982 28.6951C16.2746 32.3984 16.6836 36.0404 18.8648 39.2814C20.9883 42.4375 25.7963 43.3857 29.5715 43.6358C38.1127 44.2019 41.1958 35.3658 40.792 29.1102C40.9965 28.6809 40.8549 28.1101 40.2362 28.0157ZM29.8022 41.8667C22.9807 41.8384 19.6722 38.2718 18.8071 33.3985C25.3821 33.5354 32.062 33.1768 38.6633 33.1721C37.73 37.6019 35.4649 41.8903 29.8022 41.8667ZM38.9569 31.4973C32.4133 31.4502 25.0413 30.6246 18.6393 32.1531C18.5607 31.285 18.5449 30.384 18.5974 29.4546C25.0466 31.1435 32.5339 29.6292 39.1719 29.6056C39.1194 30.2189 39.0513 30.8557 38.9569 31.4973Z" fill="#37464F"/>
<path d="M30.3526 44.1406C30.0852 44.1406 29.8073 44.1311 29.5347 44.1123C24.0293 43.749 20.186 42.1639 18.419 39.5315C16.3269 36.4273 15.6768 32.757 16.4842 28.6196V28.5866C16.4842 28.2752 16.6048 27.9686 16.8408 27.7563C17.0925 27.5298 17.428 27.426 17.8003 27.4685C21.3605 27.8931 25.0203 27.6666 28.5594 27.4496C32.4237 27.2138 36.4191 26.9637 40.3253 27.5534C40.7238 27.6148 41.0489 27.8176 41.2376 28.1195C41.4264 28.4309 41.4578 28.8225 41.3267 29.1857C41.547 32.9834 40.514 38.5125 36.87 41.7393C35.0716 43.3339 32.8851 44.1406 30.3579 44.1406H30.3526ZM17.5067 28.8319C16.7621 32.7145 17.3704 36.1536 19.3156 39.0408C21.3185 42.0224 26.0217 42.9329 29.6133 43.1688C32.1773 43.3339 34.3637 42.6309 36.1307 41.0647C39.3396 38.2247 40.5193 33.0259 40.2729 29.1385V29.03L40.3148 28.931C40.3725 28.8083 40.3725 28.6621 40.32 28.5771C40.2991 28.5394 40.2624 28.5017 40.1523 28.4875C36.3666 27.9167 32.4342 28.1573 28.6328 28.3932C25.0412 28.6149 21.329 28.8413 17.664 28.4073C17.6115 28.4026 17.6011 28.412 17.5906 28.4215C17.5591 28.4498 17.5329 28.5158 17.5434 28.5866L17.5591 28.6857L17.5067 28.8413V28.8319ZM16.5367 28.4734C16.5367 28.4734 16.5367 28.4781 16.5367 28.4828V28.4734ZM29.8493 42.3385H29.8021C23.3896 42.3101 19.3051 39.1635 18.2932 33.474L18.1935 32.9126L18.8227 32.9268C22.6398 33.007 26.567 32.9174 30.3631 32.8277C33.0896 32.7664 35.9052 32.7004 38.6632 32.7004H39.2976L39.1823 33.2617C37.9134 39.2861 34.7779 42.3385 29.8545 42.3385H29.8493ZM29.8021 41.3949H29.844C34.1016 41.3949 36.7809 38.8568 38.0183 33.6439C35.4753 33.6533 32.8904 33.7146 30.3841 33.7712C26.7872 33.8514 23.075 33.9411 19.431 33.8798C20.2174 37.418 22.6923 41.3619 29.7968 41.3949H29.8021ZM18.1621 32.7522L18.1097 32.1908C18.0258 31.2709 18.0153 30.3415 18.0677 29.431L18.1044 28.8366L18.7388 29.0017C23.0698 30.134 27.9565 29.7896 32.6754 29.4499C34.8304 29.2989 37.0587 29.1385 39.1613 29.1338H39.7276L39.6856 29.6433C39.6279 30.3227 39.5545 30.9501 39.4706 31.5587L39.413 31.9738H38.9463C37.3419 31.9597 35.727 31.9031 34.0177 31.8417C28.8635 31.6625 23.5312 31.4738 18.7703 32.6107L18.1621 32.757V32.7522ZM19.0954 30.0632C19.0849 30.5585 19.0954 31.0586 19.1216 31.554C23.872 30.535 29.0523 30.7189 34.0649 30.8935C35.6011 30.9454 37.0587 30.9973 38.4954 31.0162C38.5373 30.7142 38.5688 30.4029 38.6003 30.0774C36.7179 30.1057 34.7937 30.2425 32.7645 30.3887C28.1767 30.7142 23.4368 31.0492 19.0954 30.0632Z" fill="#37464F"/>
</svg>
