<svg width="55" height="56" viewBox="0 0 55 56" fill="none" xmlns="http://www.w3.org/2000/svg">
<path d="M27.2767 11.6045C27.1721 11.5744 27.0627 11.5543 26.9333 11.5644C19.4181 12.2062 10.5243 17.8421 10.5293 26.4364C10.5393 34.7399 16.9744 44.2067 25.8781 44.6529C34.2792 45.0741 41.8889 38.9669 42.9689 30.3575C44.2828 19.8679 37.2056 13.3244 27.5255 11.5995C27.4309 11.5844 27.3563 11.5995 27.2767 11.5995V11.6045ZM23.4693 21.322C23.4693 21.322 23.5141 21.3621 23.539 21.3821C23.4992 21.3621 23.4594 21.3521 23.4195 21.332C23.4345 21.332 23.4494 21.322 23.4693 21.3169V21.322ZM26.1419 19.2712C26.2713 19.0154 26.351 18.7597 26.3758 18.509C26.4107 18.5441 26.4405 18.5842 26.4754 18.6243C26.998 19.1508 26.6446 19.3464 26.0822 19.5269C26.1071 19.4416 26.1369 19.3564 26.1469 19.2712H26.1419ZM30.5465 42.3414C21.6677 45.2647 13.5702 36.2191 12.5051 28.1914C12.1368 25.4436 12.8535 22.9716 14.2172 20.8607C15.6058 22.1242 14.2869 24.6363 15.9094 26.1506C17.6115 27.7401 19.8063 28.3318 21.7423 29.5402C22.0708 30.8238 21.7224 31.3303 21.1451 32.3231C20.7569 32.995 20.9311 33.8724 21.4238 34.4391C22.7526 35.9433 22.4988 38.7462 23.0313 40.6917C23.2453 41.4739 24.4448 41.7196 24.828 40.9274C25.4899 39.5786 26.2763 38.3351 27.1323 37.1166C28.5657 36.1138 29.7651 34.5193 28.6652 32.7693C27.9187 31.591 26.5451 31.0595 25.1664 30.9392C24.7185 30.6684 24.2905 30.4227 23.9322 30.2021C23.8923 30.182 23.8575 30.177 23.8177 30.1569C23.7829 29.7257 23.7182 29.2995 23.6186 28.9235C23.5589 28.7129 23.4444 28.5725 23.32 28.4571C23.3051 27.7351 23.1209 27.0732 22.4988 26.6019C22.1902 26.3662 21.8866 26.1907 21.5233 26.0453C21.1401 25.8949 20.7519 25.7344 20.3637 25.584C19.01 24.7968 19.0598 23.7889 20.513 22.5655C21.9812 22.5003 23.1159 23.117 24.181 24.0045C24.9027 24.6213 25.9677 24.6714 26.7242 24.1098C27.1224 23.814 27.2418 23.4781 27.1771 22.9917C27.1174 22.5855 27.0179 22.4201 26.7889 22.0641C26.0922 20.986 25.8881 21.5175 26.993 21.3571C27.7594 21.2468 28.8245 20.8958 28.9837 19.9732C29.138 19.0355 29.2774 18.2583 28.5109 17.5764C27.6151 16.7791 25.9379 14.8336 27.5454 13.6252C27.5554 13.6252 27.5554 13.6202 27.5603 13.6152C29.6954 14.0314 31.6763 14.6381 33.4431 15.5206C33.4331 15.6108 33.4182 15.6961 33.4281 15.7913C33.6621 17.3507 34.5231 18.7597 34.8764 20.2991C35.0506 21.0412 34.3588 21.6379 33.5476 22.1794C32.7811 22.2847 32.0197 22.4 31.2682 22.6156C30.9098 22.7209 30.7207 22.9616 30.6361 23.2324C30.5764 23.2875 30.5166 23.3276 30.4669 23.4028C28.1377 26.8376 34.0751 27.339 32.4377 30.3425C32.1242 30.9141 32.4029 31.6111 33.025 31.8016C33.9009 32.0724 34.7769 32.2479 35.6727 32.3782C35.2497 32.8997 34.757 33.3911 34.3389 33.8875C33.7915 34.5343 34.1299 35.5672 35.0357 35.5773C35.618 36.0586 36.2003 36.535 36.7826 37.0113C36.8274 37.4074 37.0563 37.6682 37.34 37.8136C35.4637 39.8844 33.0997 41.499 30.5565 42.3364L30.5465 42.3414ZM33.3634 26.286C33.4132 26.3963 33.468 26.5066 33.5725 26.5919C33.677 26.6721 33.7616 26.7724 33.8512 26.8576C33.5974 26.647 33.3087 26.4314 33.02 26.2108C33.1295 26.2559 33.244 26.281 33.3634 26.291V26.286ZM38.9326 35.1862C39.0521 35.2112 39.1715 35.2062 39.291 35.1862C39.1914 35.3516 39.077 35.5221 38.9724 35.6826C38.9575 35.5171 38.9476 35.3516 38.9326 35.1862ZM39.3706 20.8857C39.5995 21.2768 39.8086 21.683 40.0126 22.1092C39.938 22.0239 39.8583 21.9538 39.7588 21.9136C39.6443 21.5677 39.5099 21.2217 39.3706 20.8857ZM35.9962 17.4761C35.9315 17.3106 35.8668 17.1351 35.8021 16.9646C35.9514 17.075 36.1007 17.1853 36.2401 17.3056C36.1505 17.3507 36.0709 17.4059 35.9962 17.4761ZM40.9333 24.5661C40.8736 24.511 40.8039 24.4659 40.7293 24.4257C40.58 23.8692 40.4406 23.3126 40.3063 22.756C40.5103 23.2424 40.6994 23.7388 40.8686 24.2703C40.8935 24.3656 40.9134 24.4608 40.9383 24.5611L40.9333 24.5661Z" fill="#37464F"/>
<path d="M26.6992 44.9238C26.4254 44.9238 26.1467 44.9188 25.868 44.9037C21.6575 44.6931 17.6859 42.4668 14.6749 38.646C11.8878 35.106 10.2853 30.6534 10.2803 26.4365C10.2753 17.9726 18.9103 12.0007 26.9132 11.3188C27.0625 11.3037 27.1968 11.3288 27.3014 11.3538H27.3163C27.381 11.3488 27.4656 11.3388 27.5602 11.3538C38.4497 13.2893 44.4469 20.5849 43.2176 30.3877C42.1774 38.6861 35.0056 44.9238 26.6992 44.9238ZM27.0028 11.8101C27.0028 11.8101 26.9729 11.8101 26.958 11.8101C19.174 12.472 10.778 18.2534 10.7829 26.4315C10.7929 36.5701 18.756 44.0413 25.8979 44.3973C34.284 44.8084 41.6897 38.631 42.7298 30.3175C43.6655 22.8614 40.1518 14.0916 27.4905 11.8402C27.4557 11.8402 27.4158 11.8402 27.3661 11.8402H27.2566H27.2168C27.1521 11.8202 27.0874 11.8051 27.0077 11.8051L27.0028 11.8101ZM27.0923 43.1538C24.8627 43.1538 22.633 42.4768 20.5128 41.133C16.2426 38.4304 12.923 33.2407 12.2611 28.2266C11.9077 25.5941 12.495 23.072 14.008 20.7253L14.1673 20.4797L14.3813 20.6752C15.1278 21.3521 15.1726 22.3349 15.2174 23.2876C15.2622 24.2503 15.3119 25.2481 16.0784 25.9652C17.1136 26.9329 18.318 27.5095 19.5921 28.1263C20.3486 28.4923 21.13 28.8684 21.8715 29.3297L21.9561 29.3848L21.981 29.4801C22.3195 30.8038 21.9661 31.4055 21.4336 32.3181L21.3539 32.4535C21.0006 33.0602 21.2146 33.8274 21.6078 34.2737C22.5335 35.3266 22.7276 36.9211 22.9117 38.4655C23.0063 39.2427 23.0909 39.9798 23.2701 40.6216C23.3596 40.9525 23.6931 41.133 23.9618 41.1581C24.1012 41.1681 24.4396 41.1631 24.6039 40.8172C25.1961 39.6087 25.9327 38.3853 26.9281 36.9713L26.9878 36.9111C27.819 36.3295 29.6256 34.7751 28.451 32.9048C27.6149 31.5911 26.0173 31.2651 25.1414 31.1899H25.0817L25.0319 31.1548C24.8328 31.0345 24.6387 30.9192 24.4546 30.8139C24.2157 30.6735 23.9967 30.5431 23.7926 30.4177C23.7578 30.4077 23.7329 30.3977 23.708 30.3877L23.5736 30.3275L23.5637 30.1771C23.5289 29.7308 23.4642 29.3297 23.3746 28.9887C23.3348 28.8533 23.2701 28.753 23.1456 28.6427L23.066 28.5675V28.4572C23.0511 27.675 22.8271 27.1635 22.3394 26.7975C22.0308 26.5669 21.7521 26.4064 21.4236 26.276L21.0553 26.1306C20.7915 26.0253 20.5278 25.92 20.264 25.8147C19.5473 25.3986 19.174 24.9272 19.1293 24.3957C19.0745 23.7639 19.4727 23.0971 20.3436 22.365L20.4083 22.3098H20.4929C22.205 22.2246 23.4442 23.067 24.3301 23.8041C24.9722 24.3506 25.9078 24.3857 26.5648 23.8993C26.8783 23.6637 26.9729 23.428 26.9181 23.0168C26.8684 22.6708 26.7937 22.5455 26.5698 22.1895C26.3209 21.8084 26.1517 21.648 26.077 21.5778C25.9626 21.4725 25.9277 21.3571 25.9825 21.2418C26.0372 21.1265 26.1368 21.0814 26.296 21.1064C26.3806 21.1215 26.5847 21.1516 26.948 21.0964C27.4357 21.0262 28.5804 20.7755 28.7248 19.9181C28.8791 18.9955 28.9885 18.3386 28.3316 17.7519C27.9135 17.3809 26.5598 16.0672 26.6146 14.7785C26.6345 14.247 26.8883 13.7907 27.3661 13.4247L27.4407 13.3344L27.59 13.3595C29.8844 13.8058 31.8304 14.4376 33.5375 15.285L33.6917 15.3602L33.6669 15.6009C33.6619 15.656 33.6569 15.7011 33.6619 15.7463C33.7863 16.5686 34.0899 17.3458 34.4134 18.1681C34.6722 18.835 34.9459 19.5219 35.1052 20.234C35.3142 21.1415 34.498 21.8285 33.6718 22.375L33.5673 22.4151C32.8805 22.5104 32.0792 22.6257 31.3227 22.8413C31.0888 22.9115 30.9295 23.062 30.8599 23.2926L30.84 23.3578L30.7305 23.4531C30.6907 23.4831 30.6707 23.5032 30.6558 23.5283C29.5509 25.1579 30.4567 26.0053 31.5019 26.983C32.4425 27.8605 33.5076 28.8533 32.6366 30.4528C32.5222 30.6584 32.5072 30.8991 32.5918 31.1097C32.6765 31.3203 32.8556 31.4808 33.0746 31.5459C33.861 31.7866 34.6921 31.9671 35.6875 32.1176L36.1205 32.1827L35.8418 32.5237C35.5979 32.8195 35.3391 33.1104 35.0753 33.3962C34.8763 33.6118 34.6821 33.8274 34.503 34.038C34.2939 34.2837 34.2392 34.6297 34.3686 34.9105C34.4831 35.1662 34.717 35.3116 35.0156 35.3166H35.1002L36.9914 36.871L37.0014 36.9713C37.0313 37.242 37.1756 37.4476 37.4244 37.583L37.7081 37.7334L37.4891 37.9741C35.5233 40.1402 33.1393 41.7297 30.5961 42.5671C29.4315 42.9532 28.247 43.1437 27.0625 43.1437L27.0923 43.1538ZM14.2519 21.2769C12.933 23.438 12.4303 25.7546 12.7538 28.1614C13.4008 33.0352 16.6259 38.0794 20.7816 40.7068C23.8971 42.6824 27.2516 43.1638 30.4717 42.1008C32.8506 41.3186 35.0903 39.8544 36.9566 37.8588C36.7426 37.6733 36.6032 37.4276 36.5485 37.1468L34.9409 35.823C34.488 35.7879 34.1198 35.5322 33.9356 35.1261C33.7316 34.6698 33.8112 34.1182 34.1446 33.7221C34.3338 33.5015 34.5279 33.2859 34.7319 33.0652C34.8862 32.8948 35.0405 32.7243 35.1948 32.5538C34.3636 32.4134 33.642 32.2479 32.9502 32.0373C32.5819 31.927 32.2932 31.6613 32.1489 31.3103C32.0046 30.9593 32.0294 30.5581 32.2186 30.2222C32.9004 28.9687 32.1041 28.2266 31.1784 27.3641C30.1183 26.3713 28.9139 25.2481 30.2577 23.2625C30.3124 23.1823 30.3721 23.1322 30.4219 23.092C30.5563 22.736 30.825 22.4853 31.1983 22.38C31.9697 22.1594 32.7611 22.0391 33.4528 21.9438C34.3885 21.312 34.7369 20.8407 34.6274 20.3643C34.4731 19.6874 34.2093 19.0205 33.9555 18.3687C33.637 17.5564 33.3085 16.719 33.1741 15.8315C33.1642 15.7764 33.1642 15.7212 33.1692 15.6761C31.5666 14.8989 29.75 14.3172 27.6149 13.891C27.2964 14.1568 27.1371 14.4576 27.1222 14.8186C27.0874 15.6711 27.8986 16.709 28.675 17.3959C29.541 18.1681 29.3917 19.0606 29.2324 20.0083C29.0234 21.2067 27.6249 21.5276 27.0326 21.6129C26.948 21.6229 26.8684 21.6329 26.7987 21.6379C26.8634 21.7232 26.9331 21.8184 27.0028 21.9338C27.2466 22.3098 27.3661 22.5104 27.4258 22.9617C27.5054 23.5584 27.3362 23.9745 26.8734 24.3155C26.0372 24.9423 24.8378 24.8921 24.0216 24.2002C22.8271 23.1973 21.7919 22.7812 20.6124 22.8163C19.9305 23.4029 19.6021 23.9244 19.6419 24.3606C19.6717 24.7166 19.9604 25.0576 20.4929 25.3685C20.7268 25.4587 20.9906 25.564 21.2544 25.6693L21.6177 25.8147C21.981 25.9601 22.3095 26.1457 22.6479 26.4014C23.2352 26.8426 23.5289 27.4644 23.5637 28.3469C23.6682 28.4572 23.7877 28.6177 23.8573 28.8533C23.9469 29.1843 24.0116 29.5653 24.0514 29.9815C24.2605 30.1119 24.4794 30.2423 24.7134 30.3776C24.8826 30.4779 25.0617 30.5832 25.2459 30.6935C26.8933 30.849 28.1773 31.5409 28.8741 32.634C29.8446 34.1734 29.2623 35.9133 27.3113 37.2972C26.3458 38.6761 25.6291 39.8645 25.0518 41.0378C24.8428 41.464 24.4048 41.7047 23.9171 41.6595C23.3795 41.6094 22.9266 41.2484 22.7923 40.757C22.6031 40.0801 22.5136 39.3229 22.419 38.5257C22.2448 37.0565 22.0607 35.5372 21.2345 34.6046C20.6323 33.9126 20.5029 32.9248 20.9259 32.1978L21.0056 32.0624C21.5082 31.2 21.772 30.7537 21.5232 29.7007C20.8314 29.2745 20.0898 28.9185 19.3781 28.5775C18.1239 27.9758 16.8299 27.3541 15.74 26.3312C14.8242 25.4738 14.7695 24.3255 14.7197 23.3076C14.6849 22.5355 14.65 21.7984 14.2519 21.2669V21.2769ZM38.7931 36.4247L38.7234 35.7077C38.7085 35.5422 38.6985 35.3718 38.6836 35.2013L38.6637 34.8754L38.9822 34.9405C39.0668 34.9556 39.1514 34.9556 39.246 34.9405L39.7935 34.8403L39.5048 35.3166C39.4351 35.4319 39.3605 35.5473 39.2908 35.6576L38.7981 36.4247H38.7931ZM33.6917 27.0432C33.5175 26.8978 33.3284 26.7524 33.1343 26.602L31.4671 25.3083L33.1144 25.9702C33.199 26.0053 33.2886 26.0253 33.3881 26.0354L33.5325 26.0504L33.5922 26.1858C33.632 26.276 33.6669 26.3513 33.7266 26.3964C33.8012 26.4565 33.8659 26.5167 33.9257 26.5819C33.9555 26.612 33.9854 26.6421 34.0202 26.6722L33.6917 27.0482V27.0432ZM41.3662 25.3133L40.759 24.7517C40.7192 24.7166 40.6694 24.6815 40.6146 24.6514L40.5151 24.6013L40.4852 24.491C40.3359 23.9344 40.1966 23.3778 40.0572 22.8163L40.2513 22.7511L39.8233 22.2697C39.7636 22.1995 39.7088 22.1594 39.6591 22.1393L39.5546 22.0942L39.5197 21.9839C39.4202 21.678 39.2958 21.3571 39.1415 20.971L39.5844 20.7454C39.7935 21.1014 40.0025 21.4975 40.2364 21.9889L40.9829 23.5584L40.8137 23.3728C40.9182 23.6536 41.0128 23.9244 41.0974 24.1952C41.1173 24.2654 41.1322 24.3305 41.1472 24.3957L41.3662 25.3083V25.3133ZM24.6188 22.1193L23.3298 21.5727L22.5235 21.2619L23.494 21.0613L23.6284 21.1365L23.6135 21.1516H23.6284H23.6383C23.6632 21.1716 23.6831 21.1917 23.708 21.2167L24.6138 22.1243L24.6188 22.1193ZM25.7038 19.908L25.8431 19.4517C25.873 19.3565 25.8929 19.2963 25.8979 19.2462L25.9228 19.1559C26.0422 18.9152 26.1119 18.6896 26.1268 18.484L26.1716 17.9625L26.5499 18.3286C26.5747 18.3536 26.5996 18.3837 26.6245 18.4138C26.7489 18.5492 27.0475 18.845 26.9679 19.181C26.8883 19.5069 26.525 19.6473 26.1617 19.7676L25.7087 19.913L25.7038 19.908ZM35.8965 17.8923L35.7671 17.5664C35.7124 17.431 35.6626 17.2957 35.6128 17.1603L35.2744 16.2627L35.9513 16.7591C36.1056 16.8694 36.2549 16.9898 36.4042 17.1101L36.6978 17.3558L36.3544 17.5263C36.2947 17.5564 36.23 17.6015 36.1653 17.6617L35.9015 17.8923H35.8965Z" fill="#37464F"/>
<path d="M2.94881 17.8221C10.897 0.0969992 34.5722 -0.976035 47.1887 11.9605C46.5168 12.3316 45.84 12.6876 45.1432 13.0235C44.322 13.4096 44.6057 14.3824 45.2477 14.7133C45.3224 14.8437 45.4269 14.969 45.5812 15.0643C47.8108 16.4583 49.9459 17.9976 52.2552 19.2512C52.9072 19.6122 53.7284 19.1659 53.7334 18.3987C53.7632 15.4554 54.1315 12.5271 53.9524 9.58382C53.9125 8.87181 53.1411 8.30019 52.4742 8.7264C51.5883 9.293 50.7024 9.8596 49.8116 10.4112C36.1748 -4.55114 9.19485 -3.2976 0.395645 16.3179C-0.380755 18.0528 2.16245 19.567 2.94881 17.8221Z" fill="#37464F"/>
<path d="M52.7431 19.6271C52.5341 19.6271 52.325 19.577 52.1359 19.4717C50.603 18.6393 49.1249 17.6666 47.6915 16.7289C46.945 16.2426 46.2034 15.7512 45.4469 15.2798C45.2976 15.1846 45.1732 15.0592 45.0687 14.9038C44.6556 14.6631 44.3769 14.1918 44.3868 13.7405C44.3968 13.3293 44.6307 12.9884 45.0338 12.7978C45.5813 12.5371 46.1536 12.2412 46.7758 11.9053C40.2162 5.34174 30.4763 2.28811 21.279 3.93777C12.9824 5.42197 6.55721 10.391 3.1729 17.9323C2.73991 18.9001 1.83908 19.0154 1.14231 18.6945C0.291259 18.3084 -0.305973 17.2755 0.166835 16.2225C3.97916 7.71846 11.6387 1.95717 21.1744 0.412805C31.7853 -1.30204 42.7494 2.40343 49.8515 10.0852C50.6727 9.57371 51.4889 9.05223 52.3001 8.53577C52.6933 8.28506 53.1064 8.26501 53.4797 8.45554C53.8878 8.66614 54.1715 9.10237 54.1964 9.56368C54.3058 11.4039 54.2063 13.2641 54.1117 15.0592C54.052 16.1523 53.9923 17.2805 53.9823 18.3936C53.9823 18.8349 53.7534 19.226 53.3801 19.4466C53.1811 19.5619 52.9621 19.6221 52.7431 19.6221V19.6271ZM26.2609 2.99009C34.1145 2.99009 41.8735 6.15404 47.363 11.785L47.592 12.0206L47.3033 12.1811C46.5568 12.5922 45.8849 12.9432 45.2429 13.2491C45.004 13.3594 44.8845 13.5299 44.8795 13.7505C44.8746 14.0363 45.0737 14.3472 45.3524 14.4926L45.4171 14.5277L45.4519 14.5929C45.5216 14.7082 45.6012 14.7935 45.7007 14.8586C46.4572 15.335 47.2038 15.8214 47.9553 16.3128C49.3787 17.2454 50.8469 18.2131 52.3648 19.0355C52.6037 19.1658 52.8874 19.1608 53.1213 19.0254C53.3453 18.8951 53.4747 18.6644 53.4797 18.3987C53.4896 17.2755 53.5543 16.1423 53.6141 15.0442C53.7086 13.2591 53.8082 11.4189 53.6987 9.60379C53.6837 9.31297 53.5046 9.0422 53.2507 8.91183C53.1263 8.84665 52.8775 8.76642 52.6037 8.94693C51.693 9.52858 50.817 10.0902 49.9361 10.6367L49.7619 10.747L49.6226 10.5966C42.6399 2.91488 31.7703 -0.790598 21.2541 0.909208C11.8825 2.42349 4.36736 8.07948 0.624713 16.4231C0.266374 17.2203 0.734205 17.9474 1.35134 18.2332C1.80922 18.4438 2.41143 18.4187 2.72 17.7217C6.16901 10.025 12.7286 4.95565 21.1894 3.43635C22.8666 3.1355 24.5637 2.99009 26.2559 2.99009H26.2609Z" fill="#37464F"/>
<path d="M51.255 38.3551C42.1024 55.6941 20.2935 57.3739 7.45302 43.4595C8.41357 42.8027 9.35918 42.1258 10.2401 41.3536C10.7079 40.9424 10.5785 40.08 10.041 39.7992C7.44804 38.4253 4.92972 36.9311 2.496 35.2814C1.82909 34.8301 1.06762 35.4469 1.01785 36.1388C0.773982 39.3379 0.306151 42.5169 0.574905 45.726C0.604767 46.0419 0.749098 46.2825 0.943198 46.438C1.21195 46.789 1.67481 46.9795 2.16255 46.6937C3.08328 46.1572 4.00401 45.6207 4.91479 45.0741C18.9447 60.9741 43.7 59.0135 53.7982 39.8644C54.694 38.1696 52.1458 36.6653 51.25 38.3601L51.255 38.3551Z" fill="#37464F"/>
<path d="M28.028 55.995C19.3781 55.995 10.9323 52.1742 4.87038 45.39C4.13877 45.8263 3.40219 46.2525 2.67058 46.6837L2.29233 46.9043C1.7598 47.2152 1.16755 47.0999 0.769392 46.6085C0.515568 46.3979 0.361284 46.092 0.326445 45.741C0.117414 43.264 0.346353 40.772 0.570315 38.3602C0.639992 37.613 0.709669 36.8609 0.764415 36.1138C0.799253 35.6475 1.10285 35.1962 1.52091 34.9906C1.88422 34.8101 2.29233 34.8402 2.63076 35.0709C4.9749 36.6603 7.4335 38.1345 10.1559 39.5736C10.4893 39.7491 10.7183 40.1051 10.768 40.5213C10.8128 40.9224 10.6785 41.3035 10.4047 41.5442C9.53874 42.3013 8.63294 42.9582 7.83165 43.5047C14.0727 50.1385 22.8719 53.4278 31.4223 52.2996C39.7487 51.2015 46.8955 46.077 51.0314 38.2448C51.554 37.257 52.5493 37.2119 53.2511 37.588C54.0374 38.0092 54.555 38.9669 54.0175 39.9847C49.3293 48.8699 41.1273 54.6312 31.5168 55.7894C30.3522 55.9298 29.1827 56 28.0181 56L28.028 55.995ZM4.96992 44.7482L5.1043 44.9037C11.8779 52.5804 21.7322 56.4613 31.4671 55.288C40.9133 54.1498 48.9759 48.4838 53.5845 39.7441C53.9678 39.017 53.5895 38.3301 53.0221 38.0242C52.5145 37.7534 51.8376 37.7835 51.4743 38.4705C47.2638 46.453 39.9776 51.6678 31.492 52.7859C22.6878 53.9492 13.6347 50.5245 7.26926 43.625L7.07018 43.4094L7.30907 43.244C8.15515 42.6673 9.14058 41.9704 10.0762 41.153C10.2256 41.0227 10.3002 40.8021 10.2703 40.5664C10.2405 40.3207 10.1061 40.1051 9.92196 40.0048C7.18465 38.5557 4.71112 37.0715 2.35205 35.472C2.10818 35.3065 1.88422 35.3567 1.73989 35.4269C1.48109 35.5522 1.28202 35.848 1.26211 36.1389C1.20238 36.891 1.13768 37.6431 1.06303 38.3952C0.844046 40.782 0.615107 43.254 0.819161 45.6859C0.839069 45.9115 0.93363 46.097 1.09289 46.2224L1.13768 46.2675C1.22727 46.3828 1.55575 46.7388 2.03851 46.458L2.41178 46.2374C3.20311 45.7761 3.99942 45.3098 4.78577 44.8385L4.95996 44.7332L4.96992 44.7482Z" fill="#37464F"/>
</svg>
