<svg width="46" height="46" viewBox="0 0 46 46" fill="none" xmlns="http://www.w3.org/2000/svg">
<g clip-path="url(#clip0_61_4213)">
<path d="M1.51584 14.6357C1.18001 14.6486 0.745158 14.8882 0.693492 15.2605C0.357663 17.5372 1.91625 18.6584 3.5179 20.0321C6.13134 22.266 8.64576 24.5983 11.1903 26.905C11.2204 26.9306 11.2506 26.9478 11.2807 26.9692C9.6145 29.6738 8.62423 32.9647 7.72438 35.956C7.31536 37.3212 5.24871 41.7633 7.10869 42.8931C8.80076 43.9244 11.6467 40.856 12.8565 40.0044C15.8446 37.8989 18.8498 35.7934 21.7 33.5039C23.2414 36.491 26.2768 38.8404 28.8386 40.8817C30.0011 41.8103 31.1765 42.739 32.382 43.612C33.2689 44.2496 34.595 45.5078 35.8307 45.3495C37.893 45.0799 37.5529 41.8617 37.2946 40.4666C36.6444 36.936 36.0245 32.6908 34.5477 29.3614C34.5649 29.3485 34.5821 29.34 34.595 29.3271C37.1439 27.0933 39.6325 24.7909 42.1383 22.5099C42.9778 21.7439 46.0003 20.015 45.2253 18.4958C44.4934 17.0622 40.4204 17.1563 39.0598 17.0023C36.3129 16.6899 33.4024 16.3518 30.6167 16.6171C29.493 12.9839 28.0248 9.41477 26.6815 5.85426C26.139 4.42064 25.1961 0.787368 23.2113 0.650425C22.5138 0.60335 22.1737 0.984223 21.7603 1.46352C20.6581 2.74736 19.8745 4.49767 18.9876 5.93129C17.1879 8.84133 15.3796 11.777 14.2171 15.0038C10.0967 14.2934 5.66635 14.4902 1.52015 14.64L1.51584 14.6357ZM14.4969 16.3646C14.7682 16.3518 14.9705 16.1721 15.0739 15.9581C16.344 13.7927 17.5538 11.5973 18.8627 9.45329C19.4913 8.41766 22.1521 3.03837 23.2156 3.15391C24.5675 3.30369 25.8333 8.57172 26.2854 9.79565C27.2068 12.2949 28.055 14.8283 29.1141 17.2719C29.1572 17.3703 29.2131 17.4473 29.282 17.5115C29.3423 17.6271 29.4413 17.7212 29.5877 17.7426C31.7878 18.1107 34.0482 18.0893 36.2699 18.2861C37.751 18.4188 39.2321 18.5814 40.7045 18.7996C41.2858 18.881 41.867 18.9751 42.444 19.0778C42.8185 19.356 43.1285 19.3859 43.3739 19.172C43.2749 19.2576 43.1673 19.3603 43.0295 19.4801C42.5731 19.8952 42.1167 20.306 41.6604 20.7211C40.7476 21.5471 39.8305 22.373 38.9178 23.2032C37.0922 24.8594 35.2581 26.5027 33.4627 28.1888C33.1441 28.4884 33.1613 28.8478 33.3335 29.1217C33.3335 29.1303 33.3292 29.1388 33.3292 29.1517C33.3034 31.5953 34.1343 34.1544 34.6553 36.5338C34.9438 37.8604 35.2925 39.187 35.525 40.5222C35.6413 41.1941 35.9556 42.2426 35.68 42.9059C35.7833 43.5307 35.6283 43.6377 35.2279 43.2354C34.8361 43.0086 34.4616 42.7604 34.0956 42.4908C31.9773 41.0015 29.9408 39.3497 27.9732 37.6721C26.0099 36.0031 24.3479 34.0217 22.4105 32.3399C22.2468 31.9975 21.8249 31.7493 21.4417 31.9975C20.3826 32.6951 8.22382 41.4765 8.08604 41.3054C7.84493 41.0101 8.90409 38.1685 9.03756 37.7021C9.35616 36.5552 9.6963 35.4125 10.0623 34.2785C10.876 31.7493 12.0299 29.2758 12.6413 26.691C12.6628 26.5926 12.6542 26.5027 12.6327 26.4257C12.68 26.1946 12.624 25.9421 12.3959 25.7195C10.6823 24.0548 8.89548 22.4672 7.10008 20.8923C6.05384 19.9765 2.82902 18.055 2.38986 16.3176C6.42842 16.2491 10.4928 16.5743 14.5099 16.3646H14.4969Z" fill="#37464F"/>
<path d="M35.6107 46C34.431 46 33.3116 45.1356 32.4763 44.4851C32.3084 44.3524 32.1491 44.2326 32.0027 44.1256C30.7584 43.2269 29.5228 42.2426 28.4335 41.3782L28.1579 41.1599C25.7856 39.2727 23.1205 37.1544 21.5059 34.4754C18.9097 36.5253 16.1757 38.451 13.5235 40.3169L13.2264 40.5266C12.9982 40.6892 12.6839 40.9545 12.3223 41.2626C10.8024 42.5508 8.50329 44.4979 6.76817 43.4409C4.76612 42.2212 6.04054 38.7206 6.80262 36.628C6.92748 36.2813 7.03512 35.9861 7.0997 35.7721C7.94358 32.9562 8.8994 29.7851 10.4451 27.1019C10.0016 26.6953 9.55384 26.2931 9.11037 25.8908C7.15567 24.1105 5.13208 22.2661 3.08697 20.5201L2.75545 20.2376C1.24421 18.9581 -0.318685 17.64 0.0429778 15.1707C0.14631 14.4646 0.856718 14.0196 1.48102 13.9982L2.0192 13.9768C5.91138 13.8355 9.93272 13.69 13.7818 14.2806C14.9788 11.1609 16.7311 8.33214 18.4232 5.59328C18.703 5.13965 18.97 4.65607 19.2541 4.14682C19.8526 3.07267 20.4683 1.96001 21.2562 1.0442C21.6824 0.552065 22.212 -0.0641785 23.241 0.0085725C25.3766 0.158354 26.4099 3.15398 27.0299 4.94708C27.1203 5.20385 27.1978 5.43494 27.271 5.62751C27.5939 6.47913 27.9211 7.33074 28.2526 8.18664C29.2257 10.7115 30.2332 13.3134 31.0641 15.9325C33.6991 15.7485 36.3814 16.0523 38.9776 16.3476L39.1197 16.3647C39.3608 16.3904 39.7096 16.4118 40.1143 16.4332C42.7062 16.5787 45.0872 16.8269 45.7933 18.2049C46.6587 19.8953 44.5231 21.4958 43.2487 22.4501C42.9602 22.6641 42.7148 22.8481 42.5684 22.985L40.9582 24.4572C39.1197 26.1347 37.2253 27.8679 35.3223 29.5412C36.5106 32.417 37.122 35.8577 37.6688 38.9132C37.7549 39.4054 37.841 39.8847 37.9271 40.3554C38.151 41.5793 38.3921 43.8175 37.4621 45.0842C37.0875 45.5935 36.5493 45.9101 35.9121 45.9915C35.8131 46.0043 35.7098 46.0129 35.6107 46.0129V46ZM22.1604 32.9776L22.2766 33.2087C23.6974 35.9689 26.496 38.1943 28.9674 40.1585L29.2429 40.3768C30.3193 41.237 31.542 42.2084 32.7605 43.09C32.9198 43.2012 33.0877 43.3339 33.2729 43.4751C33.9962 44.0357 34.9864 44.806 35.7485 44.7076C36.0413 44.6691 36.2566 44.545 36.4245 44.3182C36.8895 43.6848 36.9756 42.2897 36.6613 40.5779C36.5752 40.1072 36.4891 39.6236 36.3987 39.1315C35.8432 36.0075 35.2146 32.4641 33.9747 29.6567C34.0349 31.2829 34.4526 32.9776 34.8573 34.6252C35.0037 35.2243 35.1501 35.8149 35.2792 36.3969C35.3739 36.8248 35.473 37.2528 35.572 37.6807C35.7787 38.5709 35.9939 39.4952 36.1532 40.4153C36.1748 40.5394 36.2006 40.6721 36.2307 40.8176C36.3685 41.4766 36.5321 42.2854 36.3298 42.9702C36.3685 43.2868 36.3685 43.8046 35.9121 44.0357C35.4342 44.2797 35.0123 43.9373 34.8185 43.749C34.431 43.5222 34.0565 43.2697 33.6948 43.0044C31.8736 41.7205 29.9103 40.1799 27.5422 38.16C26.5089 37.2827 25.5531 36.3113 24.6274 35.3784C23.8309 34.5738 23.0085 33.7393 22.156 32.9819L22.1604 32.9776ZM11.7841 27.38C10.1867 29.9991 9.2094 33.26 8.34399 36.1358C8.2751 36.3669 8.15885 36.6879 8.02108 37.0645C7.51733 38.4425 6.34193 41.6735 7.44414 42.3453C8.37843 42.9145 10.402 41.2027 11.4827 40.2826C11.8702 39.9531 12.2017 39.6707 12.4816 39.4781L12.7787 39.2684C15.616 37.2699 18.5523 35.2029 21.2949 32.999L21.8073 32.5882C21.8073 32.5882 21.7815 32.5539 21.7686 32.5454C21.3983 32.7936 20.0119 33.7821 18.2596 35.0275C16.3006 36.4226 13.8593 38.1643 11.9089 39.5252C10.8369 40.2784 10.0361 40.8304 9.45481 41.2156C8.38274 41.9345 7.98233 42.2041 7.5733 41.7034C7.25039 41.3054 7.29345 40.8176 8.21052 38.1087C8.30093 37.8348 8.37413 37.6251 8.40427 37.5224C8.73148 36.3455 9.08023 35.1858 9.43759 34.0731C9.75189 33.0931 10.1222 32.1089 10.4795 31.1588C10.9445 29.9221 11.4224 28.6468 11.7841 27.3715V27.38ZM22.9138 31.9291C23.8395 32.7379 24.7092 33.6195 25.5531 34.4754C26.4572 35.3912 27.3958 36.3413 28.3861 37.1843C30.7283 39.1785 32.6572 40.6978 34.4612 41.9645C34.6808 42.1271 34.9046 42.2812 35.1285 42.4267C35.1673 42.0458 35.0553 41.498 34.9649 41.0744C34.9305 40.916 34.9003 40.7662 34.8788 40.6336C34.7281 39.7477 34.5171 38.8447 34.3105 37.9717C34.2071 37.5395 34.1081 37.1073 34.0134 36.6708C33.8885 36.0973 33.7465 35.5153 33.6001 34.929C33.1437 33.076 32.6744 31.1631 32.6701 29.2673C32.4376 28.7409 32.5581 28.1418 33.0059 27.7224C34.4052 26.4043 35.8562 25.0948 37.2554 23.8281L38.4696 22.7283C39.1197 22.1377 39.7742 21.5471 40.4243 20.9608L41.8882 19.6385C41.4619 19.5657 41.0314 19.4973 40.6051 19.4374C39.2403 19.2362 37.8022 19.0693 36.2049 18.9281C35.417 18.8596 34.6076 18.8168 33.824 18.774C32.3945 18.697 30.9177 18.62 29.4754 18.376C29.1783 18.3247 28.9286 18.1621 28.7607 17.9053C28.6574 17.794 28.5756 17.6657 28.5153 17.5287C27.7274 15.7142 27.0514 13.827 26.397 12.0039C26.1602 11.3406 25.9191 10.6773 25.6779 10.0182C25.5832 9.7572 25.4584 9.35065 25.3034 8.83711C24.3777 5.76874 23.6673 4.08263 23.1851 3.8173C22.4359 4.26236 20.6104 7.60891 19.999 8.73013C19.745 9.20087 19.5426 9.57318 19.4091 9.78716C18.5997 11.1138 17.8118 12.4918 17.0497 13.8227C16.5847 14.6358 16.1154 15.4532 15.6418 16.262C15.4222 16.7071 15.0089 16.9852 14.531 17.0109C12.1845 17.135 9.79925 17.0751 7.4915 17.0195C6.15679 16.9852 4.79195 16.9553 3.4228 16.9553C4.11168 17.8668 5.44208 18.8468 6.3979 19.5529C6.84998 19.8867 7.24178 20.1734 7.51733 20.4131C9.23092 21.9152 11.0651 23.5414 12.8389 25.2617C13.1618 25.5784 13.3212 25.9892 13.2824 26.4043C13.3039 26.5498 13.2996 26.6953 13.2652 26.8408C12.8777 28.4756 12.2792 30.0761 11.6937 31.621C11.3406 32.5582 10.979 33.5254 10.6733 34.4754C10.3202 35.571 9.98008 36.7136 9.65717 37.8733C9.62703 37.9846 9.54523 38.2199 9.44189 38.5238C9.33426 38.849 9.12759 39.4524 8.95968 40.0088C10.9402 38.665 15.052 35.7379 17.5104 33.9875C19.3144 32.7037 20.7395 31.6852 21.0797 31.4627C21.3854 31.2615 21.747 31.2016 22.0958 31.3C22.4316 31.3942 22.7287 31.6253 22.9138 31.9291ZM43.0076 18.6671C43.0076 18.6671 42.9559 18.6756 42.943 18.6842L43.7998 19.6428L41.2983 21.9023C40.6482 22.4929 39.9981 23.0792 39.3479 23.6698L38.1295 24.7696C36.7345 26.032 35.2921 27.3373 33.8972 28.6468C33.8326 28.7067 33.8412 28.7238 33.8713 28.7709L33.9876 28.9549V28.972L34.1899 28.818C36.1791 27.0719 38.1682 25.2574 40.0885 23.5029L41.703 22.0307C41.8968 21.8553 42.168 21.6541 42.478 21.4188C43.365 20.7512 45.0226 19.5144 44.648 18.7826C44.2217 17.9481 41.2983 17.7855 40.0497 17.7127C39.6278 17.6871 39.2618 17.6699 38.9863 17.6357L38.8442 17.6186C36.1446 17.3147 33.359 16.9981 30.6939 17.2505C31.7573 17.3747 32.8423 17.4346 33.8972 17.4902C34.6937 17.533 35.516 17.5758 36.3255 17.6485C37.9443 17.794 39.4082 17.9609 40.7946 18.1664C41.3801 18.2519 41.9743 18.3461 42.5555 18.4488L42.7062 18.4745L42.8268 18.5643C42.9559 18.6585 43.0162 18.6713 43.0162 18.6713C43.0162 18.6713 43.0119 18.6713 43.0076 18.6713V18.6671ZM34.1727 28.8351C34.1727 28.8351 34.1727 28.8351 34.1684 28.8393C34.1684 28.8393 34.1684 28.8393 34.1727 28.8351ZM7.24178 15.1322C5.51527 15.1322 3.78446 15.1964 2.07518 15.2563L1.53699 15.2777C1.45518 15.2777 1.34324 15.3419 1.32171 15.3804C1.07199 17.1179 2.18712 18.0636 3.59932 19.2576L3.93515 19.5443C5.99318 21.3032 8.02538 23.1519 9.98869 24.9408C10.5312 25.4372 11.078 25.9336 11.6248 26.43L11.9692 26.6739C11.9778 26.644 11.9864 26.6097 11.9908 26.5798L11.9606 26.4642L11.9821 26.2973C11.9821 26.2759 11.9951 26.2417 11.9262 26.1775C10.1738 24.4786 8.3569 22.8652 6.65623 21.3717C6.42373 21.1663 6.05346 20.8924 5.62291 20.58C4.15043 19.4973 2.13545 18.0123 1.74796 16.476L1.5499 15.6928L2.36364 15.68C4.08585 15.65 5.82957 15.6928 7.51733 15.7356C9.79925 15.7913 12.163 15.8469 14.4578 15.7271C14.4578 15.7271 14.4664 15.7185 14.475 15.7014L14.0961 15.6372C11.8702 15.252 9.55814 15.1408 7.23317 15.1408L7.24178 15.1322ZM29.8026 17.1264C29.906 17.1436 30.0093 17.1607 30.1083 17.1735L29.9921 16.8012C29.1439 14.0581 28.0804 11.3064 27.0514 8.64454C26.7199 7.78865 26.3884 6.93275 26.0654 6.07686C25.9879 5.87572 25.9061 5.63179 25.8114 5.36219C25.3335 3.97136 24.438 1.378 23.1549 1.28813C22.8105 1.26246 22.6641 1.38656 22.2422 1.8787C21.5404 2.69608 20.9548 3.74883 20.3908 4.76734C20.1109 5.26804 19.8268 5.78585 19.5297 6.26515C17.8333 9.00829 16.081 11.8456 14.9228 14.9225C15.2586 14.3448 15.5902 13.7628 15.926 13.1808C16.6924 11.8413 17.4846 10.459 18.3026 9.11528C18.4232 8.91842 18.6169 8.55895 18.8623 8.11388C21.2605 3.71031 22.2938 2.4008 23.2841 2.51206C24.5499 2.65328 25.4067 4.71171 26.539 8.46052C26.6811 8.93126 26.806 9.34209 26.8878 9.5689C27.1332 10.2322 27.37 10.8955 27.6111 11.5631C28.2612 13.3691 28.9329 15.2349 29.7036 17.0152L29.8026 17.1264Z" fill="#37464F"/>
</g>
<defs>
<clipPath id="clip0_61_4213">
<rect width="46" height="46" fill="white"/>
</clipPath>
</defs>
</svg>
