<svg width="122" height="113" viewBox="0 0 122 113" fill="none" xmlns="http://www.w3.org/2000/svg">
<g clip-path="url(#clip0_110_1030)">
<path d="M74.6193 56.9467C69.9384 58.8674 65.1804 60.4366 60.413 61.978C59.7956 62.1092 59.424 62.4915 59.0649 62.9835C53.0085 67.3001 60.2424 46.4617 60.1718 44.3661C55.5248 42.3441 50.6897 40.704 46.1296 38.4934C44.4097 37.527 45.9707 35.5202 47.5869 35.756C69.6554 33.7069 91.8197 32.737 113.923 31.0533C128.807 29.4741 116.197 36.8497 111.514 40.864C101.955 47.2437 94.8682 56.4568 85.8756 63.4392C83.5562 65.647 77.2116 58.2049 74.6203 56.947L74.6193 56.9467ZM116.522 34.3563C116.481 34.3004 116.439 34.2454 116.398 34.1895C100.649 40.5555 84.3658 45.228 67.9601 49.5945C73.4823 53.6497 78.8699 57.7732 84.5544 61.5796C95.426 52.8189 105.188 42.6491 116.522 34.3563ZM104.009 36.2016C103.998 36.1474 103.987 36.0944 103.975 36.0413C90.386 38.7208 76.6889 41.0466 63.2219 44.2613C61.447 45.0333 60.6306 54.287 59.9093 56.6379C62.0581 54.5216 63.0666 51.1791 65.0945 48.8805C77.6731 43.7523 91.1525 40.6893 104.009 36.2026L104.009 36.2016ZM96.9915 35.159C96.9719 35.102 96.9536 35.0443 96.934 34.9874C81.264 35.928 65.5895 36.5287 49.9483 37.835C52.0998 38.8281 54.1711 39.5318 56.3357 40.4368C58.5257 41.0633 60.6332 42.8942 62.9886 42.2656C74.217 39.4645 85.6629 37.5341 96.9915 35.159ZM66.1206 50.7512C64.5268 53.6851 62.9459 56.5942 61.3432 59.5439C65.2694 58.3067 69.142 57.0856 73.2102 55.8035C70.7452 54.047 68.4262 52.3945 66.1217 50.7516L66.1206 50.7512Z" fill="#37464F"/>
<path d="M31.0207 75.7139C25.6482 87.8918 9.1125 89.2726 1.93628 77.9251C1.68826 77.4846 1.63832 76.8846 1.65871 76.362C1.76339 75.7284 2.83828 75.2531 3.06532 76.134C8.61108 85.7135 24.1794 85.2576 28.7854 75.023C22.8964 73.1063 17.3833 65.7595 22.3178 60.2252C30.3523 54.3289 33.7707 67.9762 31.7048 73.8132C40.8112 75.8897 48.8424 72.3475 55.3447 66.2904C55.9311 68.0919 53.5005 69.7423 52.3519 70.9131C46.4172 75.8116 38.4749 77.2766 31.0207 75.7139ZM29.549 73.1689C30.4259 69.7318 30.5459 66.5266 29.0819 63.4161C28.0328 60.8022 24.4625 59.3948 23.0564 62.5182C20.9802 67.2907 25.15 71.6436 29.5486 73.1699L29.549 73.1689Z" fill="#37464F"/>
</g>
<defs>
<clipPath id="clip0_110_1030">
<rect width="99.096" height="85.7348" fill="white" transform="translate(27.293) rotate(18.5627)"/>
</clipPath>
</defs>
</svg>
