<svg width="52" height="52" viewBox="0 0 52 52" fill="none" xmlns="http://www.w3.org/2000/svg">
<path d="M23.0574 19.5366C24.5733 18.3814 23.0835 15.7728 21.5414 16.949C20.0463 18.0886 18.1226 18.5748 16.6066 17.1843C15.1847 15.8774 13.0571 17.9945 14.4842 19.3066C16.9359 21.5597 20.4384 21.5336 23.0521 19.5419L23.0574 19.5366Z" fill="#37464F"/>
<path d="M18.8337 21.2671C17.1975 21.2671 15.5927 20.6764 14.3119 19.4949C13.8519 19.0715 13.6689 18.5278 13.7944 17.9685C13.9355 17.3464 14.4583 16.7923 15.0961 16.5884C15.6972 16.4002 16.3141 16.5466 16.7898 16.9857C18.5358 18.5906 20.585 17.3464 21.3848 16.7348C21.8552 16.3741 22.3832 16.2905 22.8642 16.4891C23.4287 16.7243 23.8522 17.3203 23.9358 18.0103C24.0247 18.6951 23.7633 19.3224 23.2144 19.7406C21.8814 20.7548 20.3445 21.2618 18.8337 21.2618V21.2671ZM15.6084 17.0328C15.4881 17.0328 15.3679 17.0537 15.2477 17.0903C14.7824 17.2366 14.4008 17.6339 14.3015 18.0835C14.244 18.3449 14.2597 18.7369 14.6622 19.1133C16.9361 21.2043 20.3236 21.2932 22.8955 19.3329C23.434 18.9251 23.4496 18.3762 23.4131 18.0887C23.3503 17.5921 23.0471 17.1478 22.6551 16.9857C22.3466 16.855 22.0173 16.9178 21.6932 17.1635C19.8061 18.601 17.8353 18.6794 16.4238 17.383C16.1782 17.1582 15.8959 17.0432 15.5979 17.0432L15.6084 17.0328Z" fill="#37464F"/>
<path d="M37.8672 18.7996C39.2002 17.3987 37.0778 15.2711 35.7448 16.6773C34.4797 18.0103 32.6763 18.0939 31.2387 16.9282C29.7541 15.7154 27.616 17.8273 29.1163 19.0506C31.7823 21.22 35.3998 21.3977 37.862 18.7996H37.8672Z" fill="#37464F"/>
<path d="M33.5076 20.9744C31.9603 20.9744 30.3606 20.4046 28.9544 19.2546C28.4892 18.873 28.2801 18.3763 28.3637 17.8431C28.4631 17.2263 28.944 16.6722 29.587 16.4265C30.2143 16.186 30.8782 16.2958 31.4009 16.7244C32.7496 17.8222 34.3806 17.7334 35.5516 16.4944C35.9855 16.0344 36.5396 15.8567 37.1094 15.9978C37.7367 16.1494 38.2856 16.6774 38.4738 17.3152C38.6463 17.9059 38.4947 18.5123 38.0503 18.9775C36.7905 20.3053 35.1752 20.9692 33.5024 20.9692L33.5076 20.9744ZM30.2561 16.829C30.0575 16.829 29.8902 16.876 29.7752 16.9179C29.3099 17.0956 28.9492 17.5033 28.8813 17.9268C28.8238 18.2666 28.9649 18.5854 29.2838 18.8468C32.0021 21.0581 35.4523 20.964 37.6792 18.6168C37.9981 18.2823 38.1026 17.8745 37.9824 17.4615C37.8465 16.9963 37.4492 16.6147 36.9944 16.5049C36.7225 16.4422 36.32 16.4474 35.9384 16.8551C34.5845 18.2823 32.6294 18.392 31.0768 17.127C30.7893 16.8917 30.5018 16.8238 30.2561 16.8238V16.829Z" fill="#37464F"/>
<path d="M36.0113 30.4885C31.662 38.0057 21.5468 37.3 16.7218 30.8649C15.5769 29.3332 12.9684 30.8283 14.1342 32.3809C20.2608 40.5463 33.016 41.6597 38.6042 32.0045C39.5765 30.3265 36.9837 28.8157 36.0166 30.4937L36.0113 30.4885Z" fill="#37464F"/>
<path d="M26.8479 39.14C21.9026 39.14 17.0149 36.6622 13.9202 32.5377C13.2772 31.6804 13.617 30.8335 14.2339 30.3735C15.0023 29.7985 16.2203 29.7671 16.9313 30.7133C19.3882 33.9857 23.3768 35.8676 27.3445 35.6324C30.9463 35.418 33.9416 33.5466 35.787 30.363C36.1058 29.8089 36.6181 29.5005 37.2193 29.5005C37.8727 29.5005 38.5314 29.8821 38.8607 30.4519C39.1639 30.9799 39.1535 31.5758 38.8294 32.1352C36.3881 36.3538 32.4466 38.8316 27.7261 39.1139C27.4334 39.1296 27.1406 39.14 26.8531 39.14H26.8479ZM15.4467 30.4833C15.1225 30.4833 14.7984 30.593 14.5475 30.7865C14.1502 31.0844 13.8888 31.6176 14.3436 32.2188C17.5168 36.4479 22.6345 38.8891 27.6947 38.5859C32.2322 38.3141 36.0274 35.9303 38.3746 31.8686C38.6673 31.3667 38.5523 30.959 38.4059 30.708C38.1707 30.2951 37.6898 30.018 37.2193 30.018C36.9318 30.018 36.524 30.1226 36.2418 30.6192C34.3076 33.9596 31.1606 35.9251 27.3759 36.1499C23.2409 36.3956 19.0746 34.43 16.5131 31.0217C16.2308 30.6453 15.8387 30.4885 15.4467 30.4885V30.4833Z" fill="#37464F"/>
<path d="M51.6632 21.6903C50.6647 7.84261 36.1165 -1.48852 23.2777 0.539758C10.0259 2.74055 -1.54781 13.2792 0.496149 27.7281C2.64466 42.9141 14.4275 52.8987 29.901 51.1265C43.8428 49.5269 52.6094 34.7069 51.6684 21.6903H51.6632ZM48.4273 28.7789C46.6918 40.4206 36.1165 48.335 24.8303 48.4448C11.819 48.565 3.87313 36.5888 3.3347 24.8321C2.77535 12.8088 13.4134 5.20271 24.0775 3.43058C38.861 1.0991 50.5445 14.5548 48.4273 28.7736V28.7789Z" fill="#37464F"/>
<path d="M26.4244 51.5919C12.8224 51.5919 2.28373 42.2085 0.239767 27.7648C-1.88784 12.7514 10.5014 2.39566 23.2357 0.278515C30.0314 -0.793128 37.4859 1.26652 43.1891 5.78833C48.3801 9.91285 51.4852 15.5481 51.9295 21.6696C52.4053 28.2353 50.4554 35.2245 46.5818 40.8337C42.4102 46.8819 36.4979 50.6301 29.9321 51.3828C28.7455 51.5187 27.5745 51.5867 26.4297 51.5867L26.4244 51.5919ZM26.8426 0.524209C25.656 0.524209 24.4798 0.613077 23.3193 0.79604C10.8307 2.87137 -1.32326 13.0075 0.757292 27.6917C2.93194 43.0554 14.903 52.5851 29.8694 50.8705C41.1922 49.5689 52.5464 37.5456 51.4016 21.7114C50.9677 15.7415 47.9357 10.2317 42.8598 6.2013C38.2491 2.54203 32.4622 0.524209 26.8426 0.524209ZM24.6262 48.7063C16.9731 48.7063 12.0174 44.6654 9.19975 41.2571C5.5823 36.8817 3.34492 30.9014 3.06786 24.8427C2.49806 12.443 13.5386 4.92056 24.0355 3.17456C30.711 2.1186 37.3082 4.26189 42.1384 9.05553C47.3189 14.189 49.7654 21.5755 48.6833 28.8156C47.0104 40.0391 36.754 48.5913 24.8301 48.7011C24.7621 48.7011 24.6941 48.7011 24.6262 48.7011V48.7063ZM27.3654 3.43594C26.2885 3.43594 25.2064 3.51958 24.1191 3.69209C13.8418 5.39626 3.03649 12.7357 3.59061 24.8165C4.2911 40.0286 14.9396 48.1836 24.6628 48.1836C24.715 48.1836 24.7726 48.1836 24.8248 48.1836C36.4979 48.0738 46.5295 39.715 48.1657 28.7424C49.2217 21.6643 46.8275 14.4451 41.7672 9.42669C37.8414 5.53741 32.7236 3.43594 27.3654 3.43594Z" fill="#37464F"/>
</svg>
