<svg width="75" height="81" viewBox="0 0 75 81" fill="none" xmlns="http://www.w3.org/2000/svg">
<g clip-path="url(#clip0_110_992)">
<path d="M44.5663 62.2411C46.0266 66.6049 52.8501 66.0467 54.0275 70.6336C54.1896 72.5894 57.9132 80.2116 56.2502 80.9758C54.15 81.4945 52.2256 73.3596 51.2941 71.6425C48.961 68.1351 42.7628 67.8266 42.0995 62.8597C38.4915 63.48 34.8447 64.3787 31.1617 64.1771C28.5292 63.9987 28.1411 61.246 27.6193 59.1817C23.8043 45.1391 20.1557 31.049 16.9652 16.8505C16.3873 13.7101 14.6002 8.95077 18.7834 7.67651C27.646 4.58694 36.8855 2.32189 46.2509 1.52063C49.9261 1.21478 50.3445 5.53983 51.1708 8.1857C52.4956 13.6334 53.7722 19.094 55.053 24.552C55.7181 26.3837 57.7252 27.4201 58.774 29.0485C63.6836 35.3491 65.601 43.3772 67.4373 51.0037C67.577 54.8187 73.7933 72.4369 71.3808 73.6276C69.5065 73.7025 68.9631 66.4714 68.2136 64.8026C65.0981 53.1189 63.9561 39.9412 56.2511 30.2082C57.0541 34.4927 57.952 38.7592 58.7516 43.0446C58.7654 44.2637 59.703 44.9547 60.0902 46.0291C60.1963 47.7212 58.4704 46.8846 57.7899 46.135C55.3342 44.1491 52.8061 42.2606 50.0624 40.6891C47.6387 39.4493 45.1934 37.7546 42.4048 37.6254C40.3606 38.0751 42.8387 41.816 43.3139 42.9688C46.1241 47.8375 49.902 52.0591 53.8507 56.0318C54.4519 56.809 56.1597 57.3621 55.7448 58.5347C55.4783 59.2265 54.5355 59.1386 53.9145 58.9362C51.1483 60.9143 47.7284 61.2365 44.5681 62.2411H44.5663ZM56.145 41.7678C53.1925 29.475 51.188 17.0495 47.6991 4.90745C46.5666 1.66796 23.4825 8.33044 20.2489 9.72962C18.8947 10.3026 18.7671 10.4947 19.0853 11.9145C20.9251 20.1744 22.9228 28.3963 24.8988 36.6242C26.6593 44.5747 28.7845 52.4348 30.7356 60.3379C31.0504 62.5608 34.0719 61.0728 35.5511 61.047C40.8618 59.8313 46.1042 58.7707 51.3493 57.2208C47.0108 52.6554 42.316 48.0667 39.8491 42.1693C35.6443 29.2432 51.6667 38.1044 56.1459 41.7678H56.145Z" fill="#37464F"/>
<path d="M6.61017 32.4767C4.81868 32.4758 -1.73054 34.255 0.433558 30.527C3.82591 28.3283 8.35939 28.0147 12.3132 27.9087C13.2819 28.0371 13.8951 28.6695 14.0124 29.4767C13.9409 32.8334 8.90969 31.8616 6.60241 32.3931C6.60499 32.4216 6.60758 32.4491 6.61017 32.4776V32.4767Z" fill="#37464F"/>
<path d="M67.2971 1.48708C66.4044 4.76792 63.4847 7.28369 61.6734 10.126C60.7134 11.1108 59.3135 13.3982 57.7549 12.3152C56.2351 10.5843 59.0418 8.43215 59.7836 6.8486C61.2412 5.35292 65.5505 -3.44796 67.2971 1.48708Z" fill="#37464F"/>
<path d="M15.7633 36.2064C15.1629 39.3218 10.4595 44.2681 7.7598 45.9559C6.26071 46.6856 4.83925 45.1176 5.74664 43.7063C7.09047 42.271 14.5057 31.4928 15.7633 36.2064Z" fill="#37464F"/>
<path d="M72.8222 26.9015C69.1547 26.5163 65.1586 26.4948 61.749 24.9285C58.3601 20.5604 70.22 23.4612 72.058 23.245C75.1494 23.1459 76.4069 26.2019 72.8214 26.9015H72.8222Z" fill="#37464F"/>
<path d="M3.71872 18.4091C5.85695 18.4444 17.1337 20.0572 12.539 23.5681C9.10612 23.9799 5.60078 22.2525 2.26708 21.4969C0.249609 20.3459 1.8936 18.4151 3.71959 18.4091H3.71872Z" fill="#37464F"/>
<path d="M60.7559 18.0653C54.8493 16.7393 66.1528 12.6822 67.6752 11.9697C69.4986 10.8815 72.3475 12.3281 70.5276 14.4338C67.6622 16.3327 64.0577 17.1339 60.7568 18.0653H60.7559Z" fill="#37464F"/>
<path d="M29.1843 10.8824C28.0337 11.265 26.0886 10.6972 27.4342 9.33765C30.1917 8.0453 33.2891 7.50252 36.1863 6.54963C37.3301 6.29977 39.5942 5.87933 39.8245 7.48098C39.7236 10.0183 31.3803 10.0984 29.1903 10.9195C29.1886 10.9074 29.1869 10.8954 29.1851 10.8833L29.1843 10.8824Z" fill="#37464F"/>
</g>
<defs>
<clipPath id="clip0_110_992">
<rect width="75" height="81" fill="white"/>
</clipPath>
</defs>
</svg>
