<svg width="82" height="88" viewBox="0 0 82 88" fill="none" xmlns="http://www.w3.org/2000/svg">
<g clip-path="url(#clip0_110_1009)">
<path d="M41.6844 53.5047C38.832 48.2821 34.7831 43.3441 34.0642 37.3126C33.9088 31.9874 38.695 30.0295 42.2911 34.1112C45.7493 37.59 47.7073 42.2025 50.3657 46.2713C51.4757 43.3281 55.0942 43.0002 57.2597 45.0414C57.7494 41.0022 60.9784 40.9958 63.6857 43.4131C63.5086 40.8571 65.5899 37.7872 68.4663 39.3627C73.4185 42.9393 78.7737 52.8321 80.5289 58.7097C81.3143 61.2408 80.8519 63.893 80.3558 66.4474C79.6954 69.7802 80.9897 73 81.6445 76.2247C81.7447 76.6592 81.6269 76.9062 81.3207 77.0337C79.7355 77.5684 77.913 69.118 78.0949 67.7614C78.5205 64.2522 79.2859 60.6515 77.816 57.2665C77.3424 54.7675 65.4152 32.4147 65.4866 44.0786C65.8937 45.8424 66.7705 47.3786 67.7819 48.8522C68.4527 49.5713 69.0185 51.6086 67.3699 51.069C65.1868 48.9396 63.9774 45.8769 61.416 44.0665C58.764 42.1632 58.4723 46.6674 59.6456 48.1883C60.1706 49.6026 63.7891 53.4374 62.2792 54.5911C59.9774 55.1267 57.1595 44.7408 53.5931 45.7326C49.4592 47.4491 55.22 54.2455 56.2074 56.8432C56.5112 57.4638 56.4735 57.928 56.1393 58.126C55.0036 58.5132 54.2166 56.2716 53.5747 55.5187C50.1909 49.9842 47.1238 44.2549 43.5101 38.8656C42.2166 37.2044 39.3121 32.3209 36.9951 34.5842C35.7713 36.3601 36.2738 38.7726 37.0745 40.6166C40.5167 48.222 45.6299 54.8925 49.5746 62.2285C49.9048 62.7826 49.799 63.2981 49.6636 63.8248C49.0561 65.2367 47.6536 61.8349 47.0252 61.4677C45.4808 59.695 43.906 57.9408 42.1332 56.387C40.9511 55.6141 41.0232 55.7304 40.5439 56.7991C40.1977 57.5712 40.1416 58.3625 40.2498 59.1827C42.9491 77.3848 53.1242 71.9538 59.2 79.5688C60.201 80.9759 64.3645 86.2458 63.2088 87.6208C62.8338 87.8444 62.3489 87.3842 62.1581 87.0018C60.2731 84.1195 58.5965 81.0624 55.9974 78.7518C55.2473 78.0094 54.3304 77.4971 53.3126 77.1756C49.3222 75.8912 45.101 74.1089 42.4794 70.6966C40.2121 67.6564 38.4409 64.1303 38.041 60.3116C37.8006 57.7452 38.2189 53.2666 41.6852 53.5055L41.6844 53.5047Z" fill="#37464F"/>
<path d="M62.9967 88C62.9205 88 62.8428 87.9888 62.7635 87.9655C62.3812 87.8541 62.047 87.4853 61.8803 87.163C61.5308 86.629 61.1838 86.0806 60.848 85.5507C59.3814 83.2352 57.865 80.842 55.7837 78.9907L55.7708 78.9787C55.0904 78.3052 54.2305 77.8009 53.215 77.4802C50.7498 76.6865 48.848 75.9032 47.2274 75.0141C45.0916 73.8419 43.455 72.4934 42.224 70.8915C39.5993 67.3726 38.0853 63.8249 37.7215 60.3445C37.5235 58.2359 37.7944 55.4923 39.1456 54.1068C39.6858 53.5528 40.355 53.2442 41.1412 53.1856C40.4849 52.0159 39.766 50.8437 39.0687 49.706C36.7197 45.8745 34.2905 41.913 33.7463 37.3511L33.7439 37.3222C33.6678 34.7077 34.785 32.624 36.6588 31.884C38.5598 31.1335 40.7525 31.884 42.5253 33.8923C44.9032 36.2864 46.5967 39.2384 48.234 42.0934C48.9017 43.2576 49.5893 44.4554 50.3162 45.6035C50.886 44.5372 51.8277 43.8124 53.0203 43.5366C54.3787 43.2223 55.8686 43.5647 57.0315 44.4337C57.3946 42.6298 58.3138 41.9138 59.0568 41.6332C60.283 41.1706 61.8602 41.5827 63.3678 42.7356C63.48 41.2468 64.2493 39.7852 65.3425 39.0853C66.3179 38.4607 67.4824 38.4591 68.6196 39.0821L68.6533 39.1037C73.8699 42.8711 79.1675 53.0341 80.8353 58.6191C81.6127 61.1238 81.2208 63.6749 80.6702 66.5099C80.1845 68.9601 80.8016 71.4126 81.3987 73.7858C81.5943 74.5627 81.7962 75.3652 81.9573 76.159C82.1216 76.8829 81.769 77.1964 81.4436 77.3319L81.4227 77.3399C81.2248 77.4065 80.9138 77.4249 80.5604 77.1331C79.6515 76.3827 78.895 73.8547 78.5247 72.414C78.0086 70.4056 77.6872 68.3884 77.777 67.7214C77.8315 67.2692 77.894 66.8042 77.9541 66.3544C78.3532 63.359 78.766 60.2619 77.5221 57.398L77.5077 57.3652L77.5013 57.3299C77.3161 56.3526 75.2436 52.1097 72.9482 48.307C68.7895 41.4184 67.1065 41.0167 66.6906 41.056C66.1135 41.1121 65.8001 42.1728 65.8074 44.0433C66.2345 45.8641 67.1706 47.3946 68.0338 48.6542C68.5395 49.213 69.022 50.4549 68.61 51.1003C68.469 51.3208 68.1083 51.6503 67.2708 51.3761L67.2003 51.3528L67.1466 51.3007C66.2041 50.3811 65.4339 49.2851 64.6893 48.2252C63.6947 46.8093 62.6665 45.3445 61.2311 44.3303C60.5899 43.8701 60.1035 43.806 59.7829 44.1387C59.1001 44.8458 59.1666 47.0442 59.8999 47.9943L59.9296 48.0328L59.9464 48.0785C60.0922 48.4722 60.5419 49.1312 61.0171 49.8287C62.2417 51.6254 63.7661 53.8607 62.4741 54.8477L62.4196 54.8894L62.3523 54.9046C61.1029 55.1964 59.9544 53.2418 58.6232 50.9808C57.1317 48.4473 55.4415 45.5762 53.6983 46.038C53.0948 46.293 52.7181 46.669 52.5474 47.1861C51.98 48.9011 53.7777 51.9117 55.0904 54.1109C55.7099 55.1491 56.2461 56.0471 56.5034 56.7165C57.0508 57.8486 56.4897 58.2936 56.3038 58.4034L56.2758 58.4203L56.2445 58.4307C55.1762 58.7955 54.4533 57.5584 53.8722 56.5658C53.6767 56.2315 53.4915 55.9156 53.332 55.728L53.3024 55.6871C52.061 53.6571 50.8428 51.5669 49.6646 49.5465C47.633 46.0613 45.5324 42.4582 43.2506 39.0548C43.0743 38.8279 42.8748 38.5513 42.6448 38.2322C42.0886 37.4609 41.3969 36.5012 40.6451 35.7187C39.8092 34.848 39.0655 34.379 38.4348 34.3245C38.0028 34.2868 37.6125 34.4407 37.2414 34.7943C35.9992 36.6311 36.7862 39.1494 37.3688 40.4915C39.3797 44.9348 42.0164 49.1408 44.5666 53.2081C46.3635 56.0743 48.222 59.0392 49.8546 62.073C50.2353 62.7176 50.1287 63.3085 49.9748 63.9074L49.9588 63.9539C49.7808 64.3676 49.5252 64.4727 49.3416 64.4871C48.7374 64.5376 48.1836 63.6693 47.5977 62.7521C47.3501 62.3641 47.0102 61.8325 46.8644 61.7475L46.8187 61.7211L46.7842 61.681C45.3184 59.9981 43.7371 58.2238 41.9395 56.646C41.6958 56.4864 41.3152 56.2395 41.1821 56.2138C41.1236 56.2812 41.0242 56.5065 40.9369 56.7069C40.9064 56.7767 40.8728 56.8528 40.8367 56.933C40.5418 57.5913 40.456 58.2936 40.5682 59.1434C41.3384 64.3348 42.7994 68.0276 45.0363 70.4281C47.0223 72.5599 49.3449 73.4779 51.8045 74.4496C54.4757 75.5055 57.2383 76.5967 59.4519 79.3708L59.4623 79.3852C59.5753 79.544 59.7316 79.7564 59.9135 80.0025C60.6132 80.9518 61.7833 82.5401 62.6304 84.0185C63.7444 85.9627 64.0065 87.1742 63.4551 87.8292L63.4207 87.8701L63.3742 87.8974C63.258 87.9671 63.1305 88.0016 62.9975 88.0016L62.9967 88ZM56.2164 78.5169C58.3619 80.4267 59.9015 82.8568 61.3906 85.2075C61.728 85.7407 62.0766 86.2915 62.4269 86.8262L62.4453 86.8583C62.5591 87.086 62.7787 87.3025 62.9438 87.3506C62.9694 87.3578 62.9887 87.3602 63.0031 87.3586C63.1474 87.1085 63.2427 86.3757 62.0742 84.3352C61.2455 82.888 60.0882 81.3182 59.3974 80.381C59.2171 80.1364 59.0608 79.924 58.9454 79.762C56.84 77.1267 54.2794 76.1149 51.5697 75.0445C46.7177 73.1276 41.7015 71.1448 39.9343 59.2308C39.8068 58.2655 39.9118 57.4293 40.2532 56.6684C40.2885 56.5891 40.3214 56.5153 40.3518 56.4464C40.561 55.9709 40.6868 55.6839 40.997 55.5917C41.3312 55.4923 41.6598 55.6927 42.3114 56.1192L42.3474 56.1465C44.1699 57.7444 45.764 59.5299 47.2411 61.224C47.4903 61.3996 47.7508 61.7948 48.1403 62.405C48.4304 62.8595 49.0299 63.7976 49.2839 63.8441C49.2968 63.8321 49.3256 63.7992 49.3625 63.719C49.4915 63.2155 49.558 62.8227 49.3024 62.3929L49.2952 62.3809C47.6722 59.3639 45.8185 56.4063 44.0257 53.5472C41.4642 49.4615 38.8154 45.2371 36.7846 40.7497C36.1442 39.2753 35.2899 36.4964 36.7333 34.4031L36.7509 34.3774L36.7734 34.3558C37.2847 33.8555 37.8633 33.6302 38.4917 33.6839C40.2701 33.8378 42.0132 36.2559 43.1665 37.8562C43.3965 38.1745 43.5945 38.4495 43.7652 38.6692L43.7788 38.6876C46.0741 42.1111 48.1819 45.7262 50.22 49.2234C51.3925 51.2342 52.6043 53.3139 53.8378 55.3319C54.0293 55.562 54.2225 55.8923 54.4268 56.2419C54.8804 57.0172 55.4423 57.9785 56.0033 57.8342C56.1796 57.6939 56.0802 57.309 55.9223 56.9859L55.9103 56.9587C55.6747 56.3397 55.1497 55.4594 54.5406 54.4396C53.0884 52.0063 51.2803 48.9781 51.9391 46.9849C52.1707 46.2842 52.6861 45.7638 53.4715 45.4375L53.5084 45.4247C55.7324 44.8058 57.5621 47.9133 59.1762 50.6553C60.1972 52.3903 61.3497 54.3522 62.1399 54.2905C62.8252 53.6178 61.4234 51.5613 60.4882 50.1895C59.9849 49.4511 59.5481 48.8105 59.3637 48.3471C58.5342 47.219 58.3547 44.6951 59.3221 43.6929C59.6466 43.357 60.3744 42.9249 61.6038 43.8076C63.1273 44.8843 64.1884 46.3948 65.2143 47.8556C65.9268 48.8706 66.6633 49.9193 67.5393 50.7868C67.7076 50.8349 67.9841 50.8886 68.0698 50.7547C68.2566 50.4621 67.9641 49.5184 67.5481 49.0727L67.5185 49.0358C66.6649 47.7923 65.6278 46.1142 65.175 44.1531L65.167 44.1187V44.0834C65.1526 41.7142 65.631 40.5148 66.6288 40.4178C66.6665 40.4146 66.705 40.4122 66.7443 40.4122C68.1957 40.4122 70.4662 42.9545 73.4972 47.9751C75.8375 51.8515 77.8852 56.0623 78.124 57.1727C79.4231 60.1913 78.9992 63.3671 78.5904 66.4386C78.5303 66.8867 78.4686 67.3501 78.4141 67.8023C78.346 68.3114 78.6241 70.2196 79.1466 72.2544C79.7341 74.5426 80.4161 76.1822 80.9691 76.6384C81.107 76.7523 81.1791 76.7434 81.2104 76.7346C81.3081 76.6937 81.4099 76.636 81.3322 76.2985L81.3306 76.2905C81.1719 75.5103 80.9715 74.7134 80.7776 73.9421C80.1629 71.5008 79.5281 68.9769 80.0419 66.3864C80.5756 63.6397 80.9571 61.1719 80.223 58.8067C79.3197 55.7833 77.5253 51.8716 75.4215 48.3391C73.03 44.3239 70.4998 41.2348 68.2958 39.6361C67.3662 39.1334 66.4654 39.1302 65.6904 39.6265C64.6116 40.3176 63.9031 41.9018 64.0065 43.3931L64.061 44.1796L63.4735 43.6552C61.9949 42.3348 60.4297 41.804 59.286 42.2353C58.3531 42.5873 57.7624 43.5719 57.5797 45.0832L57.5036 45.7133L57.0419 45.278C55.9856 44.2822 54.5014 43.8557 53.1678 44.1636C51.9936 44.4354 51.1056 45.2251 50.6672 46.3876L50.4444 46.9785L50.099 46.4501C49.2431 45.1401 48.4488 43.7555 47.6802 42.4157C46.0613 39.5944 44.3879 36.6768 42.0661 34.3413L42.0525 34.3269C40.4648 32.5254 38.5373 31.8367 36.896 32.4845C35.2835 33.1211 34.3225 34.9627 34.3867 37.2926C34.9172 41.7086 37.3063 45.6059 39.6169 49.3733C40.4127 50.6714 41.2358 52.0143 41.9683 53.3548L42.2488 53.8687L41.6646 53.8286C40.8159 53.7701 40.1418 54.009 39.6065 54.5582C38.8203 55.364 38.0805 57.2922 38.3618 60.2851C38.7137 63.6461 40.1859 67.0864 42.7377 70.5082C45.3713 73.9365 49.6117 75.6499 53.4122 76.8733C54.5214 77.2237 55.4655 77.7785 56.2181 78.5209L56.2164 78.5169Z" fill="#37464F"/>
<path d="M12.0203 40.1716C8.42737 41.428 7.8904 38.1536 6.53436 35.6706C4.56921 31.2265 2.15285 26.9299 0.509882 22.3624C-0.2555 19.824 1.4043 19.3742 3.35983 18.4851C15.1988 13.0885 26.9785 7.46665 39.1468 2.8574C41.479 2.00273 41.8421 5.22015 42.8487 6.62802C45.2723 10.9599 47.1252 15.7335 50.0369 19.7382C52.0958 21.6047 44.9677 23.6892 43.816 24.6698C33.2225 29.8307 22.7773 35.4028 12.0211 40.1716H12.0203ZM47.659 20.2377C44.7978 15.0777 42.2877 9.85026 39.4177 4.8305C27.0794 10.6512 14.7828 16.0277 2.14563 21.1237C4.86254 26.5339 7.57463 31.9232 10.0415 37.4513C10.3565 38.1255 10.5063 38.1865 11.206 37.9884C23.2173 31.8054 35.5139 26.1899 47.659 20.2385V20.2377Z" fill="#37464F"/>
<path d="M10.5781 40.7689C9.84642 40.7689 9.21888 40.5316 8.68031 40.0554C7.91894 39.3811 7.44448 38.3436 6.94277 37.246C6.72558 36.7706 6.50038 36.2791 6.25273 35.8237L6.24071 35.7997C5.52341 34.1786 4.73158 32.547 3.9662 30.9691C2.6334 28.2224 1.25491 25.3826 0.207418 22.4706L0.201808 22.4546C-0.577199 19.8705 1.02249 19.1658 2.71595 18.4202C2.88265 18.3464 3.05335 18.2718 3.22647 18.1933C5.2942 17.2512 7.39479 16.2851 9.42646 15.3519C19.039 10.9342 28.9785 6.36587 39.0319 2.55836C41.0067 1.83518 41.7785 3.61346 42.398 5.04218C42.6296 5.57614 42.8484 6.08045 43.1073 6.44284L43.1265 6.4725C43.9888 8.01346 44.7903 9.6338 45.5661 11.2012C46.9686 14.0362 48.4192 16.9666 50.2754 19.525C50.713 19.9355 50.7555 20.3436 50.713 20.6154C50.5166 21.8621 48.1556 22.9284 46.0726 23.8689C45.171 24.2761 44.3198 24.661 44.0217 24.9143L43.9904 24.9408L43.9536 24.9584C40.3968 26.691 36.7959 28.5006 33.3144 30.2508C26.4235 33.7135 19.2987 37.295 12.1482 40.4651L12.1241 40.4747C11.5631 40.6711 11.0478 40.7697 10.5765 40.7697L10.5781 40.7689ZM6.82176 35.5287C7.07822 36.0001 7.30583 36.498 7.52623 36.9799C8.49838 39.1077 9.26697 40.789 11.9021 39.8734C19.0342 36.7113 26.1478 33.1355 33.0283 29.6775C36.5009 27.9321 40.0914 26.1274 43.641 24.398C44.0217 24.0917 44.8143 23.7334 45.8105 23.2836C47.4551 22.5412 49.9396 21.4187 50.0814 20.5143C50.0991 20.4005 50.0919 20.2201 49.821 19.9748L49.7961 19.9523L49.7769 19.9259C47.8807 17.317 46.4124 14.3521 44.9931 11.4834C44.2237 9.92884 43.4278 8.32053 42.5767 6.79881C42.2834 6.38431 42.0541 5.85515 41.8113 5.29553C41.0948 3.64553 40.5659 2.67782 39.2563 3.15727C29.227 6.95596 19.2979 11.5195 9.69494 15.9323C7.66247 16.8664 5.56108 17.8325 3.49255 18.7753C3.31703 18.8555 3.14392 18.9317 2.97481 19.0062C1.2477 19.7671 0.204212 20.2265 0.814113 22.2605C1.84958 25.1372 3.21925 27.9594 4.54324 30.6877C5.30943 32.2664 6.10126 33.8987 6.82176 35.5271V35.5287ZM10.6759 38.4046C10.2535 38.4046 10.0219 38.1673 9.75104 37.5868C7.32266 32.1445 4.60816 26.7407 1.98342 21.5149L1.70292 20.9569L2.0259 20.827C14.6864 15.7223 26.8731 10.3947 39.2811 4.54109L39.5488 4.41441L39.6955 4.67177C41.2703 7.42658 42.7642 10.296 44.2092 13.0709C45.4074 15.3719 46.6464 17.7515 47.9392 20.0822L48.1027 20.3772L47.7997 20.5256C43.3453 22.7079 38.7963 24.8807 34.3979 26.9821C26.8058 30.6084 18.9557 34.3589 11.3523 38.2723L11.3235 38.2867L11.293 38.2955C11.047 38.3653 10.8458 38.4038 10.6759 38.4038V38.4046ZM2.58852 21.2904C5.20684 26.5026 7.91172 31.892 10.3345 37.3198C10.5693 37.8233 10.5741 37.8329 11.0879 37.6878C18.6912 33.7745 26.5349 30.0279 34.1222 26.4032C38.4196 24.3499 42.8604 22.2293 47.2155 20.0974C45.978 17.8541 44.7911 15.574 43.641 13.3659C42.2441 10.6825 40.8007 7.91084 39.2859 5.24582C27.0647 11.0064 15.0534 16.257 2.58852 21.2904Z" fill="#37464F"/>
<path d="M55.9427 15.7504C54.6964 16.4623 52.8892 15.3375 54.2701 14.134C58.8904 11.9276 63.5636 9.22171 68.5021 7.92609C73.0431 9.79737 57.4718 15.2501 55.9507 15.7776C55.9483 15.768 55.9451 15.7592 55.9427 15.7496V15.7504Z" fill="#37464F"/>
<path d="M55.0755 16.2867C54.5273 16.2867 53.9759 16.0855 53.6577 15.6373C53.5143 15.4353 53.1192 14.7121 54.0592 13.8927L54.0921 13.8638L54.1314 13.8454C55.2109 13.3299 56.3161 12.7759 57.3844 12.2395C60.9349 10.4588 64.6063 8.6172 68.4204 7.61661L68.5246 7.58936L68.6239 7.63024C69.318 7.91647 69.6634 8.31654 69.649 8.81924C69.6065 10.3097 65.9719 12.08 63.2406 13.2818C60.1975 14.6215 56.9717 15.7632 56.0556 16.0815L55.7351 16.1929L55.7335 16.1881C55.5259 16.2531 55.3007 16.2867 55.0755 16.2867ZM54.4487 14.4042C54.1971 14.6319 53.9615 14.9574 54.1803 15.2653C54.4423 15.6349 55.1997 15.8057 55.7832 15.4722L56.135 15.2709L56.1622 15.3647C57.3596 14.9438 60.2464 13.8991 62.9817 12.6957C64.781 11.9036 66.2084 11.178 67.2254 10.5382C68.8179 9.5368 69.0022 8.99001 69.007 8.8016C69.0134 8.56909 68.7409 8.3871 68.4757 8.26523C64.7642 9.25459 61.1593 11.0633 57.6714 12.8128C56.6135 13.3435 55.5203 13.8919 54.4479 14.4042H54.4487Z" fill="#37464F"/>
<path d="M51.697 12.5963C49.2365 12.5385 51.8757 9.90561 52.5353 9.079C53.7623 8.16821 62.1118 -2.85744 62.5349 1.22106C59.5744 5.43666 55.4381 9.04773 51.697 12.5963Z" fill="#37464F"/>
<path d="M51.8222 12.9202L51.69 12.917C51.0192 12.9009 50.5928 12.6989 50.4229 12.3157C50.0791 11.5404 50.9526 10.4299 51.9585 9.265C52.0907 9.11186 52.2053 8.97957 52.2855 8.87855L52.3119 8.84568L52.3456 8.82083C52.6213 8.61638 53.3898 7.73927 54.2795 6.72265C57.7185 2.79648 60.6838 -0.416927 62.1304 0.0440789C62.5456 0.176368 62.7892 0.561207 62.8541 1.18737L62.8661 1.30683L62.7972 1.40465C60.2703 5.0029 56.9074 8.15057 53.6551 11.1948C53.0821 11.7312 52.489 12.286 51.9176 12.828L51.8214 12.9194L51.8222 12.9202ZM52.7615 9.3099C52.6766 9.41492 52.5676 9.5408 52.4433 9.68511C51.9945 10.2054 50.8012 11.5885 51.0088 12.0567C51.06 12.1721 51.2636 12.2483 51.5754 12.2708C52.1172 11.7576 52.6758 11.2349 53.2167 10.7282C56.4145 7.73526 59.7205 4.64051 62.2009 1.13927C62.1665 0.927607 62.0928 0.706324 61.9357 0.656615C61.7217 0.588467 60.9964 0.649399 58.8886 2.68264C57.4909 4.03118 55.9769 5.75895 54.7611 7.14678C53.805 8.23796 53.1061 9.0365 52.7615 9.3099Z" fill="#37464F"/>
<path d="M70.4123 22.934C68.8976 23.1513 53.9394 22.1243 58.8467 19.2388C62.5606 19.5891 66.2536 20.2963 69.9579 20.7781C71.7564 20.7709 72.3286 22.453 70.4123 22.934Z" fill="#37464F"/>
<path d="M69.7432 23.282C68.5362 23.282 66.2128 23.1417 63.8878 22.8314C59.9864 22.3103 57.9275 21.5927 57.5925 20.6378C57.3937 20.0694 57.7608 19.5049 58.684 18.9622L58.7738 18.9092L58.8772 18.9189C61.1629 19.1345 63.4751 19.4897 65.7103 19.8337C67.1096 20.0485 68.5562 20.2714 69.9796 20.4566C70.8668 20.4598 71.8125 20.8976 71.9175 21.7354C71.9856 22.275 71.6466 22.9541 70.4909 23.2443L70.4581 23.2507C70.3178 23.2708 70.0718 23.2812 69.7432 23.2812V23.282ZM58.9213 19.5675C58.3843 19.8978 58.1214 20.2081 58.1975 20.4253C58.2504 20.5769 58.5374 20.9786 60.0457 21.4267C61.0379 21.721 62.3595 21.9799 63.9728 22.1956C66.9429 22.5925 69.764 22.6935 70.3515 22.6189C70.9678 22.4602 71.3236 22.1539 71.2812 21.8164C71.2371 21.466 70.7578 21.098 69.9604 21.0988H69.9387L69.9171 21.0964C68.4801 20.9096 67.0223 20.6851 65.6125 20.4686C63.4206 20.1319 61.1549 19.7831 58.9213 19.5683V19.5675Z" fill="#37464F"/>
<mask id="path-11-outside-1_110_1009" maskUnits="userSpaceOnUse" x="4.94972" y="6.53978" width="39.9524" height="27.7124" fill="black">
<rect fill="white" x="4.94972" y="6.53978" width="39.9524" height="27.7124"/>
<path d="M14.1273 31.9797C12.3972 32.7771 10.7163 31.8176 9.77444 29.7742C8.16709 26.2868 8.58666 21.3202 11.4474 20.0016C13.3682 19.1163 15.0185 20.6185 15.2269 22.7191L14.396 23.1021C14.1937 21.2299 13.0188 20.1858 11.7928 20.7509C9.53139 21.7931 9.06394 26.1543 10.5332 29.342C11.2929 30.9903 12.5287 31.8081 13.8501 31.1991C14.8718 30.7282 15.3805 29.5027 15.4787 28.1031L16.3042 28.1025C16.2857 29.5315 15.7075 31.2514 14.1273 31.9797ZM21.6003 26.1901C22.2542 25.8887 22.7662 24.3479 22.9295 22.5879L23.3062 23.4053C23.3087 24.8081 22.8259 26.484 21.8586 26.9298C21.0822 27.2877 20.6759 26.7647 20.5043 26.464C20.4307 26.8778 20.292 27.6519 19.3248 28.0977C18.3576 28.5435 17.3302 27.9269 16.8467 26.878C15.9928 25.0253 16.3523 22.795 17.9734 22.0479C18.5864 21.7653 19.3469 21.9103 19.6998 22.2101L19.63 21.4495L20.3657 21.1104C20.7688 25.5328 20.9736 26.4789 21.6003 26.1901ZM19.1492 27.2867C20.0892 26.8535 20.1424 25.392 19.7601 23.0577C19.4639 22.6657 18.8175 22.5177 18.2863 22.7625C17.0602 23.3276 16.9304 25.0886 17.596 26.5326C17.8722 27.132 18.4817 27.5944 19.1492 27.2867ZM27.7226 24.2271C27.0687 24.5285 26.458 24.3145 26.1378 23.6197C25.6418 22.5435 26.1927 20.8362 25.7971 19.9779C25.6276 19.6101 25.4035 19.4822 25.022 19.658C23.5235 20.3487 23.3889 23.3176 23.8727 25.8364L23.1234 26.1817C22.8647 24.1869 22.6195 22.1857 22.4289 20.1595L23.1236 19.8393L23.2643 21.327C23.4839 20.1192 24.028 19.2573 24.859 18.8743C25.5674 18.5478 26.2105 18.7964 26.5307 19.4912C26.9389 20.3766 26.4674 22.3281 26.863 23.1864C27.0074 23.4997 27.2326 23.5941 27.5051 23.4685C28.1862 23.1546 28.5925 21.5634 28.7934 19.8852L29.1702 20.7026C29.1726 22.1054 28.6625 23.7939 27.7226 24.2271ZM31.4849 21.6507C32.8744 21.0103 33.4431 19.3773 33.5718 17.6498L33.9611 18.4944C34.02 20.0198 33.3717 21.6234 31.6416 22.4208C30.511 22.942 29.255 22.5463 28.646 21.2249C27.8361 19.4676 28.2468 17.3128 29.6772 16.6536C30.8487 16.1136 31.9892 16.9754 32.1341 18.329L31.3848 18.6743C31.245 17.5826 30.5622 17.1045 29.922 17.3996C28.9547 17.8454 28.7873 19.5247 29.3775 20.8052C29.8358 21.7997 30.6948 22.0149 31.4849 21.6507ZM36.424 19.3743C37.8135 18.7339 38.3822 17.1009 38.5109 15.3734L38.9002 16.218C38.9591 17.7434 38.3108 19.347 36.5807 20.1444C35.1577 20.7838 33.9605 20.2289 33.4457 19.1119C32.598 17.2728 33.0151 15.1316 34.5136 14.441C35.5216 13.9764 36.3092 14.5383 36.6043 15.1786C37.3075 16.7043 36.194 18.3737 34.2336 18.8148C34.6408 19.519 35.3478 19.8703 36.424 19.3743ZM34.8065 15.1483C33.8802 15.5752 33.6155 16.936 33.9731 18.142C35.3488 17.9374 36.3751 16.6881 35.8665 15.5847C35.6907 15.2032 35.2697 14.9348 34.8065 15.1483ZM41.1946 15.3091L41.886 15.519C41.7765 16.4283 41.4552 17.8812 40.4262 18.372L40.4125 18.3783C39.1393 18.9486 38.5993 17.9918 38.3144 15.7612C38.1058 14.0901 37.8807 11.6668 37.6694 9.23721L38.4595 8.87305C38.678 11.7123 38.9051 14.0686 39.0877 15.5039C39.3172 17.3636 39.5548 17.9148 40.1678 17.6323C40.6854 17.3937 41.1114 16.2394 41.1946 15.3091Z"/>
</mask>
<path d="M14.1273 31.9797C12.3972 32.7771 10.7163 31.8176 9.77444 29.7742C8.16709 26.2868 8.58666 21.3202 11.4474 20.0016C13.3682 19.1163 15.0185 20.6185 15.2269 22.7191L14.396 23.1021C14.1937 21.2299 13.0188 20.1858 11.7928 20.7509C9.53139 21.7931 9.06394 26.1543 10.5332 29.342C11.2929 30.9903 12.5287 31.8081 13.8501 31.1991C14.8718 30.7282 15.3805 29.5027 15.4787 28.1031L16.3042 28.1025C16.2857 29.5315 15.7075 31.2514 14.1273 31.9797ZM21.6003 26.1901C22.2542 25.8887 22.7662 24.3479 22.9295 22.5879L23.3062 23.4053C23.3087 24.8081 22.8259 26.484 21.8586 26.9298C21.0822 27.2877 20.6759 26.7647 20.5043 26.464C20.4307 26.8778 20.292 27.6519 19.3248 28.0977C18.3576 28.5435 17.3302 27.9269 16.8467 26.878C15.9928 25.0253 16.3523 22.795 17.9734 22.0479C18.5864 21.7653 19.3469 21.9103 19.6998 22.2101L19.63 21.4495L20.3657 21.1104C20.7688 25.5328 20.9736 26.4789 21.6003 26.1901ZM19.1492 27.2867C20.0892 26.8535 20.1424 25.392 19.7601 23.0577C19.4639 22.6657 18.8175 22.5177 18.2863 22.7625C17.0602 23.3276 16.9304 25.0886 17.596 26.5326C17.8722 27.132 18.4817 27.5944 19.1492 27.2867ZM27.7226 24.2271C27.0687 24.5285 26.458 24.3145 26.1378 23.6197C25.6418 22.5435 26.1927 20.8362 25.7971 19.9779C25.6276 19.6101 25.4035 19.4822 25.022 19.658C23.5235 20.3487 23.3889 23.3176 23.8727 25.8364L23.1234 26.1817C22.8647 24.1869 22.6195 22.1857 22.4289 20.1595L23.1236 19.8393L23.2643 21.327C23.4839 20.1192 24.028 19.2573 24.859 18.8743C25.5674 18.5478 26.2105 18.7964 26.5307 19.4912C26.9389 20.3766 26.4674 22.3281 26.863 23.1864C27.0074 23.4997 27.2326 23.5941 27.5051 23.4685C28.1862 23.1546 28.5925 21.5634 28.7934 19.8852L29.1702 20.7026C29.1726 22.1054 28.6625 23.7939 27.7226 24.2271ZM31.4849 21.6507C32.8744 21.0103 33.4431 19.3773 33.5718 17.6498L33.9611 18.4944C34.02 20.0198 33.3717 21.6234 31.6416 22.4208C30.511 22.942 29.255 22.5463 28.646 21.2249C27.8361 19.4676 28.2468 17.3128 29.6772 16.6536C30.8487 16.1136 31.9892 16.9754 32.1341 18.329L31.3848 18.6743C31.245 17.5826 30.5622 17.1045 29.922 17.3996C28.9547 17.8454 28.7873 19.5247 29.3775 20.8052C29.8358 21.7997 30.6948 22.0149 31.4849 21.6507ZM36.424 19.3743C37.8135 18.7339 38.3822 17.1009 38.5109 15.3734L38.9002 16.218C38.9591 17.7434 38.3108 19.347 36.5807 20.1444C35.1577 20.7838 33.9605 20.2289 33.4457 19.1119C32.598 17.2728 33.0151 15.1316 34.5136 14.441C35.5216 13.9764 36.3092 14.5383 36.6043 15.1786C37.3075 16.7043 36.194 18.3737 34.2336 18.8148C34.6408 19.519 35.3478 19.8703 36.424 19.3743ZM34.8065 15.1483C33.8802 15.5752 33.6155 16.936 33.9731 18.142C35.3488 17.9374 36.3751 16.6881 35.8665 15.5847C35.6907 15.2032 35.2697 14.9348 34.8065 15.1483ZM41.1946 15.3091L41.886 15.519C41.7765 16.4283 41.4552 17.8812 40.4262 18.372L40.4125 18.3783C39.1393 18.9486 38.5993 17.9918 38.3144 15.7612C38.1058 14.0901 37.8807 11.6668 37.6694 9.23721L38.4595 8.87305C38.678 11.7123 38.9051 14.0686 39.0877 15.5039C39.3172 17.3636 39.5548 17.9148 40.1678 17.6323C40.6854 17.3937 41.1114 16.2394 41.1946 15.3091Z" fill="#37464F"/>
<path d="M15.2269 22.7191L15.4362 23.1732L15.7597 23.0241L15.7245 22.6697L15.2269 22.7191ZM14.396 23.1021L13.8989 23.1558L13.9736 23.8474L14.6053 23.5562L14.396 23.1021ZM15.4787 28.1031L15.4783 27.6031L15.0125 27.6034L14.9799 28.0681L15.4787 28.1031ZM16.3042 28.1025L16.8042 28.109L16.8108 27.6021L16.3039 27.6025L16.3042 28.1025ZM14.1273 31.9797L13.918 31.5256C13.1925 31.86 12.5029 31.8223 11.8875 31.4995C11.2568 31.1687 10.6672 30.5167 10.2285 29.565L9.77444 29.7742L9.32035 29.9835C9.8235 31.0752 10.5453 31.9247 11.423 32.3851C12.3161 32.8535 13.3321 32.8968 14.3366 32.4338L14.1273 31.9797ZM9.77444 29.7742L10.2285 29.565C9.4654 27.9092 9.18227 25.8928 9.43042 24.1449C9.68059 22.3828 10.4468 21.0134 11.6567 20.4557L11.4474 20.0016L11.2381 19.5475C9.58727 20.3084 8.71332 22.0816 8.44035 24.0043C8.16537 25.9412 8.47613 28.1519 9.32035 29.9835L9.77444 29.7742ZM11.4474 20.0016L11.6567 20.4557C12.4475 20.0912 13.1413 20.2226 13.6725 20.6354C14.2235 21.0636 14.6361 21.8279 14.7294 22.7685L15.2269 22.7191L15.7245 22.6697C15.6094 21.5097 15.0926 20.4726 14.2861 19.8458C13.4599 19.2038 12.3681 19.0267 11.2381 19.5475L11.4474 20.0016ZM15.2269 22.7191L15.0177 22.265L14.1867 22.648L14.396 23.1021L14.6053 23.5562L15.4362 23.1732L15.2269 22.7191ZM14.396 23.1021L14.8931 23.0484C14.783 22.0293 14.4022 21.1706 13.8125 20.6406C13.2009 20.0909 12.3887 19.9256 11.5835 20.2968L11.7928 20.7509L12.002 21.205C12.4228 21.011 12.8112 21.0852 13.1441 21.3844C13.4989 21.7032 13.8067 22.3026 13.8989 23.1558L14.396 23.1021ZM11.7928 20.7509L11.5835 20.2968C10.2206 20.9249 9.4929 22.4919 9.26837 24.1758C9.04042 25.8854 9.30345 27.8684 10.0791 29.5513L10.5332 29.342L10.9873 29.1327C10.2937 27.6278 10.0558 25.8364 10.2596 24.308C10.4668 22.7538 11.1035 21.6191 12.002 21.205L11.7928 20.7509ZM10.5332 29.342L10.0791 29.5513C10.485 30.432 11.0416 31.145 11.7277 31.5481C12.4355 31.964 13.2474 32.0274 14.0594 31.6532L13.8501 31.1991L13.6408 30.745C13.1313 30.9798 12.6647 30.9388 12.2343 30.6859C11.7822 30.4203 11.341 29.9003 10.9873 29.1327L10.5332 29.342ZM13.8501 31.1991L14.0594 31.6532C15.3361 31.0647 15.8753 29.5942 15.9775 28.1381L15.4787 28.1031L14.9799 28.0681C14.8857 29.4112 14.4075 30.3916 13.6408 30.745L13.8501 31.1991ZM15.4787 28.1031L15.4791 28.6031L16.3046 28.6025L16.3042 28.1025L16.3039 27.6025L15.4783 27.6031L15.4787 28.1031ZM16.3042 28.1025L15.8043 28.096C15.7869 29.4342 15.2465 30.9133 13.918 31.5256L14.1273 31.9797L14.3366 32.4338C16.1686 31.5894 16.7845 29.6287 16.8042 28.109L16.3042 28.1025ZM22.9295 22.5879L23.3836 22.3786L22.6038 20.6867L22.4317 22.5417L22.9295 22.5879ZM23.3062 23.4053L23.8062 23.4044L23.8061 23.2952L23.7603 23.196L23.3062 23.4053ZM20.5043 26.464L20.9385 26.2161L20.2538 25.0163L20.012 26.3765L20.5043 26.464ZM19.6998 22.2101L19.3761 22.5912L20.3097 23.3843L20.1977 22.1644L19.6998 22.2101ZM19.63 21.4495L19.4207 20.9954L19.0998 21.1433L19.1321 21.4952L19.63 21.4495ZM20.3657 21.1104L20.8636 21.065L20.7993 20.36L20.1564 20.6563L20.3657 21.1104ZM19.7601 23.0577L20.2536 22.9769L20.2336 22.8549L20.159 22.7562L19.7601 23.0577ZM21.6003 26.1901L21.8096 26.6442C22.0914 26.5143 22.3093 26.2769 22.4772 26.0244C22.6491 25.7658 22.7959 25.4501 22.9196 25.1045C23.1673 24.4125 23.3429 23.5443 23.4274 22.6341L22.9295 22.5879L22.4317 22.5417C22.3528 23.3915 22.1907 24.1737 21.9781 24.7674C21.8717 25.0647 21.7576 25.3006 21.6445 25.4707C21.5273 25.6469 21.4361 25.7152 21.391 25.736L21.6003 26.1901ZM22.9295 22.5879L22.4754 22.7972L22.8522 23.6146L23.3062 23.4053L23.7603 23.196L23.3836 22.3786L22.9295 22.5879ZM23.3062 23.4053L22.8062 23.4061C22.8074 24.0564 22.6951 24.7658 22.4773 25.3524C22.2527 25.9574 21.9535 26.3356 21.6494 26.4757L21.8586 26.9298L22.0679 27.3839C22.731 27.0783 23.1568 26.3956 23.4148 25.7004C23.6797 24.9869 23.8075 24.1569 23.8062 23.4044L23.3062 23.4053ZM21.8586 26.9298L21.6494 26.4757C21.3947 26.5931 21.2688 26.5469 21.1995 26.508C21.0973 26.4505 21.0084 26.3385 20.9385 26.2161L20.5043 26.464L20.07 26.7118C20.1719 26.8902 20.3719 27.1901 20.7098 27.3798C21.0807 27.5881 21.5461 27.6245 22.0679 27.3839L21.8586 26.9298ZM20.5043 26.464L20.012 26.3765C19.9753 26.5827 19.9327 26.8066 19.8111 27.0287C19.6959 27.2391 19.4982 27.4672 19.1155 27.6436L19.3248 28.0977L19.5341 28.5518C20.1187 28.2824 20.4739 27.9005 20.6883 27.5089C20.8962 27.1291 20.9597 26.759 20.9966 26.5515L20.5043 26.464ZM19.3248 28.0977L19.1155 27.6436C18.5022 27.9263 17.7227 27.5841 17.3008 26.6687L16.8467 26.878L16.3926 27.0873C16.9376 28.2697 18.2131 29.1606 19.5341 28.5518L19.3248 28.0977ZM16.8467 26.878L17.3008 26.6687C16.9147 25.8309 16.8096 24.9193 16.9712 24.1513C17.1319 23.3879 17.5459 22.7955 18.1827 22.502L17.9734 22.0479L17.7641 21.5938C16.7798 22.0474 16.2035 22.9438 15.9927 23.9454C15.7828 24.9425 15.9249 26.0724 16.3926 27.0873L16.8467 26.878ZM17.9734 22.0479L18.1827 22.502C18.3904 22.4062 18.6374 22.3778 18.8729 22.4068C19.1154 22.4368 19.2932 22.5208 19.3761 22.5912L19.6998 22.2101L20.0236 21.8291C19.7535 21.5996 19.3746 21.4612 18.9955 21.4144C18.6091 21.3667 18.1694 21.407 17.7641 21.5938L17.9734 22.0479ZM19.6998 22.2101L20.1977 22.1644L20.1279 21.4038L19.63 21.4495L19.1321 21.4952L19.2019 22.2558L19.6998 22.2101ZM19.63 21.4495L19.8393 21.9036L20.575 21.5645L20.3657 21.1104L20.1564 20.6563L19.4207 20.9954L19.63 21.4495ZM20.3657 21.1104L19.8677 21.1558C20.0682 23.3548 20.2227 24.7373 20.4128 25.5331C20.5032 25.9113 20.6233 26.2639 20.8407 26.4882C20.9668 26.6182 21.1324 26.7128 21.3324 26.7335C21.5194 26.7528 21.6843 26.7019 21.8096 26.6442L21.6003 26.1901L21.391 25.736C21.3596 25.7504 21.381 25.7331 21.4353 25.7388C21.5025 25.7457 21.5462 25.7792 21.5586 25.792C21.5622 25.7957 21.539 25.772 21.502 25.6833C21.4663 25.5978 21.4269 25.4744 21.3855 25.3008C21.2157 24.5901 21.0663 23.2884 20.8636 21.065L20.3657 21.1104ZM19.1492 27.2867L19.3585 27.7408C20.0595 27.4177 20.3554 26.7293 20.4471 25.9431C20.5387 25.1586 20.4459 24.1517 20.2536 22.9769L19.7601 23.0577L19.2667 23.1385C19.4566 24.298 19.5283 25.1891 19.4539 25.8272C19.3796 26.4635 19.1789 26.7225 18.94 26.8326L19.1492 27.2867ZM19.7601 23.0577L20.159 22.7562C19.7011 22.1503 18.79 21.9798 18.077 22.3084L18.2863 22.7625L18.4956 23.2166C18.8451 23.0555 19.2267 23.1811 19.3613 23.3592L19.7601 23.0577ZM18.2863 22.7625L18.077 22.3084C17.2685 22.6811 16.8568 23.4382 16.7372 24.2447C16.6183 25.0464 16.7749 25.9456 17.1419 26.7419L17.596 26.5326L18.0501 26.3234C17.7515 25.6756 17.6402 24.9724 17.7264 24.3913C17.8118 23.815 18.078 23.4091 18.4956 23.2166L18.2863 22.7625ZM17.596 26.5326L17.1419 26.7419C17.3145 27.1164 17.6005 27.4717 17.9808 27.6856C18.3773 27.9086 18.8655 27.9681 19.3585 27.7408L19.1492 27.2867L18.94 26.8326C18.7655 26.913 18.6152 26.8951 18.471 26.814C18.3106 26.7238 18.1537 26.5483 18.0501 26.3234L17.596 26.5326ZM23.8727 25.8364L24.082 26.2905L24.4375 26.1266L24.3637 25.7421L23.8727 25.8364ZM23.1234 26.1817L22.6276 26.2461L22.7151 26.9205L23.3327 26.6358L23.1234 26.1817ZM22.4289 20.1595L22.2196 19.7054L21.8979 19.8537L21.9311 20.2063L22.4289 20.1595ZM23.1236 19.8393L23.6214 19.7922L23.555 19.0899L22.9143 19.3852L23.1236 19.8393ZM23.2643 21.327L22.7665 21.3741L23.7562 21.4165L23.2643 21.327ZM28.7934 19.8852L29.2475 19.6759L28.5073 18.0698L28.297 19.8258L28.7934 19.8852ZM29.1702 20.7026L29.6702 20.7017L29.67 20.5925L29.6243 20.4933L29.1702 20.7026ZM27.7226 24.2271L27.5133 23.7731C27.282 23.8797 27.1057 23.8756 26.9803 23.8287C26.8546 23.7817 26.7093 23.6651 26.5919 23.4104L26.1378 23.6197L25.6837 23.829C25.8865 24.2691 26.2066 24.6069 26.6298 24.7653C27.0533 24.9237 27.5093 24.876 27.9319 24.6812L27.7226 24.2271ZM26.1378 23.6197L26.5919 23.4104C26.4029 23.0004 26.4021 22.4308 26.4294 21.7367C26.4421 21.4128 26.4598 21.0604 26.4471 20.738C26.4345 20.4183 26.3913 20.0725 26.2512 19.7686L25.7971 19.9779L25.343 20.1872C25.4008 20.3124 25.437 20.5019 25.4479 20.7774C25.4586 21.0501 25.4437 21.3527 25.4302 21.6975C25.4049 22.3407 25.3767 23.1629 25.6837 23.829L26.1378 23.6197ZM25.7971 19.9779L26.2512 19.7686C26.148 19.5448 25.983 19.2876 25.6936 19.1578C25.3856 19.0198 25.073 19.0839 24.8128 19.2039L25.022 19.658L25.2313 20.1121C25.2909 20.0846 25.3201 20.0805 25.3252 20.0801C25.3256 20.08 25.3077 20.0808 25.2845 20.0704C25.2637 20.061 25.2612 20.0528 25.274 20.0681C25.2883 20.0853 25.3126 20.1211 25.343 20.1872L25.7971 19.9779ZM25.022 19.658L24.8128 19.2039C23.8155 19.6636 23.3738 20.8172 23.2089 21.9921C23.0386 23.2052 23.1328 24.6348 23.3817 25.9307L23.8727 25.8364L24.3637 25.7421C24.1288 24.5192 24.0485 23.2049 24.1992 22.1311C24.3552 21.0192 24.7301 20.3431 25.2313 20.1121L25.022 19.658ZM23.8727 25.8364L23.6634 25.3823L22.9141 25.7276L23.1234 26.1817L23.3327 26.6358L24.082 26.2905L23.8727 25.8364ZM23.1234 26.1817L23.6193 26.1174C23.3608 24.1244 23.1165 22.1301 22.9267 20.1127L22.4289 20.1595L21.9311 20.2063C22.1225 22.2414 22.3686 24.2493 22.6276 26.2461L23.1234 26.1817ZM22.4289 20.1595L22.6381 20.6136L23.3329 20.2934L23.1236 19.8393L22.9143 19.3852L22.2196 19.7054L22.4289 20.1595ZM23.1236 19.8393L22.6258 19.8863L22.7665 21.3741L23.2643 21.327L23.762 21.28L23.6214 19.7922L23.1236 19.8393ZM23.2643 21.327L23.7562 21.4165C23.9592 20.3 24.4393 19.6183 25.0683 19.3284L24.859 18.8743L24.6497 18.4202C23.6168 18.8963 23.0085 19.9384 22.7723 21.2376L23.2643 21.327ZM24.859 18.8743L25.0683 19.3284C25.3247 19.2102 25.523 19.2149 25.6653 19.2681C25.8086 19.3216 25.9607 19.449 26.0767 19.7004L26.5307 19.4912L26.9848 19.2819C26.7805 18.8386 26.451 18.4942 26.0156 18.3314C25.5792 18.1682 25.1018 18.2118 24.6497 18.4202L24.859 18.8743ZM26.5307 19.4912L26.0767 19.7004C26.1392 19.8362 26.1819 20.0494 26.2001 20.3515C26.218 20.6474 26.2105 20.9793 26.2017 21.3367C26.1932 21.6841 26.1832 22.0578 26.2024 22.3995C26.2212 22.7341 26.2697 23.0936 26.4089 23.3957L26.863 23.1864L27.3171 22.9771C27.2585 22.85 27.2177 22.6438 27.2008 22.3435C27.1844 22.0501 27.1926 21.7198 27.2014 21.3613C27.21 21.0128 27.2192 20.6372 27.1983 20.2913C27.1778 19.9517 27.1263 19.5889 26.9848 19.2819L26.5307 19.4912ZM26.863 23.1864L26.4089 23.3957C26.5113 23.6178 26.6765 23.8376 26.9369 23.9507C27.2088 24.0687 27.4855 24.0281 27.7144 23.9226L27.5051 23.4685L27.2958 23.0144C27.2724 23.0252 27.2674 23.0232 27.2785 23.0225C27.2841 23.0221 27.2928 23.0222 27.3036 23.024C27.3144 23.0259 27.3252 23.0291 27.3352 23.0334C27.3559 23.0424 27.3628 23.0517 27.3582 23.0465C27.3527 23.0403 27.337 23.0204 27.3171 22.9771L26.863 23.1864ZM27.5051 23.4685L27.7144 23.9226C28.0093 23.7867 28.2271 23.5374 28.3896 23.2769C28.5556 23.011 28.6914 22.6892 28.8045 22.3441C29.0308 21.6531 29.1875 20.7994 29.2899 19.9447L28.7934 19.8852L28.297 19.8258C28.1984 20.6492 28.0515 21.4303 27.8541 22.0329C27.7554 22.3345 27.6494 22.5743 27.5413 22.7475C27.4298 22.9261 27.3414 22.9934 27.2958 23.0144L27.5051 23.4685ZM28.7934 19.8852L28.3394 20.0945L28.7161 20.9119L29.1702 20.7026L29.6243 20.4933L29.2475 19.6759L28.7934 19.8852ZM29.1702 20.7026L28.6702 20.7034C28.6713 21.3506 28.5531 22.063 28.3317 22.6527C28.1024 23.2633 27.8025 23.6398 27.5133 23.7731L27.7226 24.2271L27.9319 24.6812C28.5826 24.3813 29.0078 23.6968 29.2678 23.0042C29.5358 22.2906 29.6715 21.4573 29.6702 20.7017L29.1702 20.7026ZM33.5718 17.6498L34.0259 17.4405L33.2168 15.6851L33.0732 17.6127L33.5718 17.6498ZM33.9611 18.4944L34.4607 18.4751L34.4569 18.3756L34.4152 18.2851L33.9611 18.4944ZM32.1341 18.329L32.3434 18.7831L32.6695 18.6328L32.6313 18.2758L32.1341 18.329ZM31.3848 18.6743L30.8889 18.7378L30.9754 19.4136L31.5941 19.1284L31.3848 18.6743ZM31.4849 21.6507L31.6942 22.1048C33.3486 21.3423 33.9391 19.45 34.0704 17.687L33.5718 17.6498L33.0732 17.6127C32.9471 19.3046 32.4003 20.6783 31.2756 21.1966L31.4849 21.6507ZM33.5718 17.6498L33.1177 17.8591L33.507 18.7037L33.9611 18.4944L34.4152 18.2851L34.0259 17.4405L33.5718 17.6498ZM33.9611 18.4944L33.4615 18.5137C33.5144 19.8853 32.9388 21.2724 31.4324 21.9667L31.6416 22.4208L31.8509 22.8749C33.8047 21.9744 34.5256 20.1544 34.4607 18.4751L33.9611 18.4944ZM31.6416 22.4208L31.4324 21.9667C30.9765 22.1768 30.5185 22.1934 30.1235 22.0456C29.7302 21.8984 29.3564 21.5717 29.1001 21.0157L28.646 21.2249L28.1919 21.4342C28.5447 22.1996 29.1033 22.7314 29.7729 22.9821C30.4409 23.2321 31.1761 23.186 31.8509 22.8749L31.6416 22.4208ZM28.646 21.2249L29.1001 21.0157C28.739 20.2322 28.6535 19.3642 28.8104 18.6323C28.9678 17.8981 29.3532 17.3534 29.8865 17.1076L29.6772 16.6536L29.4679 16.1995C28.5708 16.6129 28.0357 17.4753 27.8326 18.4227C27.629 19.3723 27.743 20.4603 28.1919 21.4342L28.646 21.2249ZM29.6772 16.6536L29.8865 17.1076C30.3078 16.9135 30.6964 16.9739 31.0025 17.1898C31.3198 17.4136 31.5777 17.8293 31.6369 18.3822L32.1341 18.329L32.6313 18.2758C32.5455 17.475 32.1608 16.7831 31.5788 16.3726C30.9855 15.9541 30.2182 15.8537 29.4679 16.1995L29.6772 16.6536ZM32.1341 18.329L31.9248 17.8749L31.1756 18.2202L31.3848 18.6743L31.5941 19.1284L32.3434 18.7831L32.1341 18.329ZM31.3848 18.6743L31.8808 18.6108C31.8001 17.9808 31.5537 17.4534 31.1574 17.1297C30.7431 16.7912 30.2086 16.7169 29.7127 16.9455L29.922 17.3996L30.1312 17.8537C30.2755 17.7872 30.4026 17.8044 30.5248 17.9041C30.6649 18.0186 30.8298 18.2761 30.8889 18.7378L31.3848 18.6743ZM29.922 17.3996L29.7127 16.9455C29.01 17.2694 28.6712 18.001 28.5705 18.7201C28.4679 19.4533 28.5894 20.2897 28.9234 21.0145L29.3775 20.8052L29.8316 20.5959C29.5754 20.0402 29.4855 19.3967 29.5609 18.8587C29.6382 18.3066 29.8667 17.9756 30.1312 17.8537L29.922 17.3996ZM29.3775 20.8052L28.9234 21.0145C29.1979 21.6101 29.6185 22.0224 30.1384 22.2083C30.6543 22.3927 31.2031 22.3311 31.6942 22.1048L31.4849 21.6507L31.2756 21.1966C30.9766 21.3345 30.7009 21.3474 30.4751 21.2667C30.2535 21.1874 30.0154 20.9948 29.8316 20.5959L29.3775 20.8052ZM38.5109 15.3734L38.965 15.1641L38.1559 13.4087L38.0123 15.3362L38.5109 15.3734ZM38.9002 16.218L39.3998 16.1987L39.396 16.0992L39.3543 16.0087L38.9002 16.218ZM36.5807 20.1444L36.7856 20.6005L36.79 20.5985L36.5807 20.1444ZM34.2336 18.8148L34.1239 18.3269L33.4604 18.4762L33.8008 19.065L34.2336 18.8148ZM33.9731 18.142L33.4938 18.2842L33.6172 18.7005L34.0467 18.6366L33.9731 18.142ZM36.424 19.3743L36.6333 19.8284C38.2876 19.0659 38.8781 17.1736 39.0095 15.4105L38.5109 15.3734L38.0123 15.3362C37.8862 17.0282 37.3394 18.4018 36.2147 18.9202L36.424 19.3743ZM38.5109 15.3734L38.0568 15.5827L38.4461 16.4273L38.9002 16.218L39.3543 16.0087L38.965 15.1641L38.5109 15.3734ZM38.9002 16.218L38.4006 16.2373C38.4535 17.6088 37.8778 18.996 36.3714 19.6903L36.5807 20.1444L36.79 20.5985C38.7438 19.698 39.4647 17.878 39.3998 16.1987L38.9002 16.218ZM36.5807 20.1444L36.3758 19.6883C35.7642 19.9631 35.2452 19.9641 34.8446 19.8173C34.442 19.6698 34.1081 19.3546 33.8998 18.9026L33.4457 19.1119L32.9916 19.3212C33.2981 19.9862 33.8202 20.507 34.5006 20.7563C35.1831 21.0063 35.9742 20.9651 36.7856 20.6005L36.5807 20.1444ZM33.4457 19.1119L33.8998 18.9026C33.518 18.0744 33.4276 17.1899 33.5883 16.4523C33.7489 15.7159 34.1481 15.16 34.7229 14.8951L34.5136 14.441L34.3043 13.9869C33.3806 14.4126 32.822 15.2726 32.6113 16.2393C32.4008 17.2047 32.5257 18.3103 32.9916 19.3212L33.4457 19.1119ZM34.5136 14.441L34.7229 14.8951C35.1008 14.7209 35.3982 14.7508 35.6205 14.8511C35.8578 14.9582 36.0468 15.1636 36.1502 15.3879L36.6043 15.1786L37.0584 14.9693C36.8666 14.5533 36.5144 14.1575 36.032 13.9397C35.5348 13.7152 34.9344 13.6965 34.3043 13.9869L34.5136 14.441ZM36.6043 15.1786L36.1502 15.3879C36.4231 15.98 36.3495 16.5965 35.9999 17.129C35.6449 17.6695 34.9953 18.1309 34.1239 18.3269L34.2336 18.8148L34.3434 19.3026C35.4324 19.0575 36.3197 18.4637 36.8358 17.6779C37.3571 16.8839 37.4887 15.9029 37.0584 14.9693L36.6043 15.1786ZM34.2336 18.8148L33.8008 19.065C34.0484 19.4933 34.4152 19.8604 34.928 20.0216C35.4411 20.1829 36.0178 20.1121 36.6333 19.8284L36.424 19.3743L36.2147 18.9202C35.754 19.1325 35.4391 19.134 35.2279 19.0676C35.0163 19.0011 34.8261 18.8405 34.6665 18.5645L34.2336 18.8148ZM34.8065 15.1483L34.5972 14.6942C33.9555 14.99 33.585 15.5906 33.4235 16.2307C33.2617 16.8722 33.2926 17.6057 33.4938 18.2842L33.9731 18.142L34.4525 17.9999C34.296 17.4723 34.2804 16.9224 34.3932 16.4753C34.5063 16.0268 34.7313 15.7335 35.0158 15.6024L34.8065 15.1483ZM33.9731 18.142L34.0467 18.6366C34.8577 18.516 35.5761 18.0876 36.0232 17.5047C36.4739 16.9171 36.6697 16.1327 36.3206 15.3754L35.8665 15.5847L35.4124 15.794C35.572 16.1401 35.5089 16.5321 35.2297 16.8961C34.9468 17.2649 34.4642 17.5635 33.8996 17.6475L33.9731 18.142ZM35.8665 15.5847L36.3206 15.3754C36.1903 15.0926 35.9632 14.8366 35.6592 14.6919C35.3428 14.5414 34.9664 14.5241 34.5972 14.6942L34.8065 15.1483L35.0158 15.6024C35.1099 15.559 35.1755 15.5692 35.2294 15.5949C35.2957 15.6264 35.367 15.6953 35.4124 15.794L35.8665 15.5847ZM41.1946 15.3091L41.3399 14.8307L40.7514 14.652L40.6966 15.2646L41.1946 15.3091ZM41.886 15.519L42.3824 15.5788L42.4325 15.1624L42.0312 15.0406L41.886 15.519ZM40.4262 18.372L40.6355 18.8262L40.6414 18.8233L40.4262 18.372ZM40.4125 18.3783L40.6169 18.8347L40.6218 18.8324L40.4125 18.3783ZM38.3144 15.7612L37.8183 15.8232L37.8184 15.8246L38.3144 15.7612ZM37.6694 9.23721L37.4601 8.78312L37.1408 8.93029L37.1712 9.28055L37.6694 9.23721ZM38.4595 8.87305L38.958 8.83468L38.9028 8.11814L38.2502 8.41896L38.4595 8.87305ZM39.0877 15.5039L39.584 15.4427L39.5837 15.4408L39.0877 15.5039ZM41.1946 15.3091L41.0494 15.7876L41.7407 15.9974L41.886 15.519L42.0312 15.0406L41.3399 14.8307L41.1946 15.3091ZM41.886 15.519L41.3896 15.4593C41.3373 15.8936 41.2367 16.4332 41.0389 16.9113C40.8389 17.3947 40.5669 17.7509 40.2109 17.9207L40.4262 18.372L40.6414 18.8233C41.3144 18.5023 41.7176 17.8867 41.963 17.2936C42.2105 16.6952 42.3252 16.0538 42.3824 15.5788L41.886 15.519ZM40.4262 18.372L40.2169 17.9179L40.2032 17.9242L40.4125 18.3783L40.6218 18.8324L40.6354 18.8261L40.4262 18.372ZM40.4125 18.3783L40.2081 17.922C39.9437 18.0404 39.779 18.051 39.6807 18.0324C39.5957 18.0163 39.5019 17.9678 39.3951 17.8232C39.1509 17.4924 38.9534 16.8177 38.8104 15.6979L38.3144 15.7612L37.8184 15.8246C37.9603 16.9354 38.1752 17.8544 38.5906 18.4171C38.8135 18.7191 39.1113 18.9423 39.4946 19.0149C39.8645 19.085 40.2448 19.0013 40.6169 18.8346L40.4125 18.3783ZM38.3144 15.7612L38.8106 15.6993C38.6032 14.0387 38.3789 11.6242 38.1675 9.19387L37.6694 9.23721L37.1712 9.28055C37.3826 11.7094 37.6083 14.1415 37.8183 15.8232L38.3144 15.7612ZM37.6694 9.23721L37.8786 9.6913L38.6688 9.32714L38.4595 8.87305L38.2502 8.41896L37.4601 8.78312L37.6694 9.23721ZM38.4595 8.87305L37.9609 8.91141C38.1797 11.7538 38.4076 14.1196 38.5917 15.567L39.0877 15.5039L39.5837 15.4408C39.4027 14.0176 39.1763 11.6708 38.958 8.83468L38.4595 8.87305ZM39.0877 15.5039L38.5915 15.5652C38.7043 16.4789 38.8269 17.1685 39.0352 17.5921C39.1441 17.8134 39.3159 18.0457 39.6009 18.15C39.889 18.2554 40.1658 18.1837 40.3771 18.0863L40.1678 17.6323L39.9585 17.1782C39.8632 17.2221 39.8804 17.1874 39.9445 17.2109C40.0053 17.2331 39.9885 17.2644 39.9326 17.1508C39.8115 16.9045 39.7007 16.3886 39.584 15.4427L39.0877 15.5039ZM40.1678 17.6323L40.3771 18.0863C40.6149 17.9767 40.7995 17.7851 40.9388 17.5941C41.0823 17.3974 41.2044 17.1647 41.3055 16.9228C41.5071 16.4401 41.6465 15.869 41.6926 15.3537L41.1946 15.3091L40.6966 15.2646C40.6595 15.6796 40.5443 16.1506 40.3828 16.5373C40.3022 16.7302 40.2155 16.8888 40.131 17.0047C40.0422 17.1264 39.9795 17.1685 39.9585 17.1782L40.1678 17.6323Z" fill="#37464F" mask="url(#path-11-outside-1_110_1009)"/>
</g>
<defs>
<clipPath id="clip0_110_1009">
<rect width="82" height="88" fill="white"/>
</clipPath>
</defs>
</svg>
