<svg width="63" height="62" viewBox="0 0 63 62" fill="none" xmlns="http://www.w3.org/2000/svg">
<g clip-path="url(#clip0_110_1027)">
<path d="M7.57497 27.9841C5.28362 23.9799 8.93998 20.1255 13.0523 20.1946C18.7725 19.8076 23.7469 23.0312 27.8966 26.5764C26.0574 18.1503 17.7771 15.211 10.5891 12.5223C-1.41475 5.58645 20.7989 -1.47229 33.6063 21.5111C31.6595 11.9865 11.4656 4.2085 20.0243 0.248463C24.7951 -0.917272 29.3336 2.21888 32.6847 5.31374C32.6147 -2.90305 43.5434 2.40997 46.3608 6.20869C56.3517 16.3373 51.1441 32.0805 59.3429 42.9207C60.3786 44.2228 65.8128 51.6675 61.1139 50.1465C57.1427 44.8671 52.9123 39.3419 52.3623 32.5184C51.1883 22.1026 50.476 7.892 39.0855 3.50657C37.8299 3.03317 34.5528 2.55017 35.1604 4.78945C37.518 11.95 44.8393 17.7825 44.4957 25.7026C43.2449 28.5171 41.2492 24.9853 40.846 23.4623C39.1796 19.4408 37.3049 15.524 35.0087 11.8184C32.0061 7.0249 27.0096 1.1895 20.7557 2.24385C17.2942 3.06678 32.8364 12.2429 34.9415 19.4005C36.1846 21.1318 37.7935 29.46 33.5976 26.6427C31.2352 22.9764 29.7195 18.7581 26.6862 15.523C22.7869 11.2528 17.4037 7.54535 11.4051 7.77965C10.5498 7.87855 8.46674 8.45758 9.66281 9.53209C12.4802 11.6974 16.2076 12.2813 19.3629 13.834C25.2703 16.443 30.2916 22.2083 30.4577 28.8858C30.6065 30.3962 28.6569 31.102 27.8793 29.7625C23.9148 25.137 15.0662 19.3064 9.42571 23.9828C7.14012 27.2006 11.6479 28.0734 14.0343 27.5866C18.9309 27.1996 24.0003 29.4696 26.8916 33.4642C31.5395 39.5963 25.1483 47.5481 18.2705 47.3359C15.9311 47.4252 13.6791 46.9364 11.4704 46.2134C9.75592 45.5402 5.44585 43.9578 6.3885 47.406C10.5613 54.7528 22.4663 53.9837 29.6005 52.2091C33.4556 50.8302 37.1292 50.8341 40.0915 53.9942C41.3106 54.628 48.8845 63.6523 44.3114 61.7309C42.3838 59.1728 40.0608 56.9873 37.7061 54.8287C34.6593 51.898 30.5412 54.5569 27.0471 55.0639C20.1817 57.1217 -0.00269547 54.458 4.70863 43.8665C-3.17141 41.1481 -0.439461 28.2559 7.57497 27.9832V27.9841ZM14.0343 29.8864C18.2062 34.1998 18.0151 41.3228 11.8706 43.5852C28.2873 49.7029 31.9965 31.0607 14.0343 29.8864ZM8.65297 42.1035C18.1783 42.2908 15.8438 28.9213 7.40602 30.3722C-0.016134 32.0114 1.19433 41.9307 8.65297 42.1035Z" fill="#37464F"/>
</g>
<defs>
<clipPath id="clip0_110_1027">
<rect width="63" height="62" fill="white"/>
</clipPath>
</defs>
</svg>
