<svg xmlns="http://www.w3.org/2000/svg" width="444" height="444" viewBox="0 0 444 444">
  <g id="Group_2592" data-name="Group 2592" transform="translate(-10657 -740)">
    <circle id="Ellipse_10" data-name="Ellipse 10" cx="222" cy="222" r="222" transform="translate(10657 740)" fill="#ff5723"/>
    <g id="Group_2591" data-name="Group 2591" transform="translate(10518.681 -575.371)">
      <path id="Path_142" data-name="Path 142" d="M395.949,227.267V387.721a28.33,28.33,0,0,1-28.328,28.328H199.4a28.33,28.33,0,0,1-28.328-28.328V227.267A28.33,28.33,0,0,1,199.4,198.939h168.22a28.33,28.33,0,0,1,28.328,28.328M223.575,216.447a16.346,16.346,0,1,0,22.274,4.919,16.129,16.129,0,0,0-22.274-4.919m151.732,29.22a5.952,5.952,0,0,0-5.948-5.948H296.564a5.952,5.952,0,0,0-5.948,5.948v4.343a5.952,5.952,0,0,0,5.948,5.948h72.794a5.952,5.952,0,0,0,5.948-5.948v-4.343m-143.74,52.768a.6.6,0,0,1,1.06-.051,142.568,142.568,0,0,1,8.17,16.361c.9,2.07,3.232,6.13,4.848,7.16,6.453,4.1,12.028-1.04,12.442-7.625q.167-2.469-2.959-8.231c-4.141-7.645-8.029-15.926-9.978-23.824-2.131-8.584,2.707-11.311,10.493-12.644,3.949-.676,11.826-1.646,15.654-3.676q4.923-2.621,3.555-9.281c-.969-4.726-4.2-6.675-8.817-5.625-7.645,1.757-16.27,3.868-25.359,4.171q-17.193.591-26.207-.6-3.817-.5-15.068-3.343a20.23,20.23,0,0,0-5.959-.364,2.533,2.533,0,0,0-1.151.364,8.3,8.3,0,0,0-4.161,8.029c.192,4.838,3.343,6.635,7.907,7.625q7.862,1.712,18.784,4.423c6.443,1.6,6.2,8,4.646,13.149-2.676,8.887-8.16,19.178-11.745,26.793q-2.712,5.741,1.152,9.958a7.219,7.219,0,0,0,11.533-1.293q5.045-9.089,11.159-21.48m143.7-8.087a5.91,5.91,0,0,0-5.9-5.918l-72.713-.127a5.908,5.908,0,0,0-5.918,5.9l-.007,3.9a5.91,5.91,0,0,0,5.9,5.918l72.713.127a5.908,5.908,0,0,0,5.918-5.9l.007-3.9m-.094,53.593a5.711,5.711,0,0,0-5.716-5.716H195.008a5.711,5.711,0,0,0-5.716,5.716v4.444a5.711,5.711,0,0,0,5.716,5.716H369.459a5.71,5.71,0,0,0,5.716-5.716v-4.444m0,39.407a5.409,5.409,0,0,0-5.4-5.4H194.25a5.409,5.409,0,0,0-5.4,5.4v4.524a5.409,5.409,0,0,0,5.4,5.4H369.772a5.409,5.409,0,0,0,5.4-5.4Z" transform="translate(76.808 1229.877)" fill="#fff"/>
    </g>
  </g>
</svg>
