<svg id="Group_2594" data-name="Group 2594" xmlns="http://www.w3.org/2000/svg" xmlns:xlink="http://www.w3.org/1999/xlink" width="601.54" height="452.259" viewBox="0 0 601.54 452.259">
  <defs>
    <clipPath id="clip-path">
      <rect id="Rectangle_38" data-name="Rectangle 38" width="601.54" height="452.259" fill="none"/>
    </clipPath>
  </defs>
  <g id="Group_2577" data-name="Group 2577" clip-path="url(#clip-path)">
    <path id="Path_49" data-name="Path 49" d="M524.805,144.159c11.446-3.1,55.32-24.8,55.32-24.8s-2.861,11.445,3.815,20.029-1.759,58.285-2.235,59.362h93.516l6.482-77.961s-5.209,26.875.991,36.89,21.424-58.35,15.7-71.226-16.366-14.223-40.536-13.83c-7.769.126-14.344-5.245-13.027-12.9l1.552-9.034L624.953,52.6c.995,3.815-3.561,17.473-7.138,19.381s-35.544-5.074-48.9,7.326-33.621,31-33.621,31,9.777-45.544,12.4-56.512-3.1-23.606-6.2-25.037-.239,8.823-.239,8.823-5.722-11.922-13.591-15.261-6.915,9.776-2.384,15.737,10.253,13.591,10.253,13.591-23.368,44.113-27.9,65.811,5.723,29.806,17.168,26.706" transform="translate(-221.191 -9.509)" fill="#ef9f94"/>
    <path id="Path_50" data-name="Path 50" d="M663.828,331.044l-65,2.755h-52.84a35.09,35.09,0,0,0-34.249,27.407,114.936,114.936,0,0,0-2.918,24.939c0,27.9,9.311,153.39,9.311,153.39a24.283,24.283,0,0,1-21.125,21.645l-.4.047c-13.479,1.519-32.756,11.424,7.229,13.848,26.809,1.626,31.549,3.588,32.348-8.785.639-9.888-1.49-13.344,1.179-24.091l.506.07,28.654-154.693s36.467,7.153,59.358,5.007,42.637-21.6,37.949-61.538" transform="translate(-209.57 -144.557)" fill="#ef9f94"/>
    <path id="Path_51" data-name="Path 51" d="M581.24,331.044l-65,2.755H463.4a35.09,35.09,0,0,0-34.249,27.407,114.933,114.933,0,0,0-2.918,24.939c0,27.9,9.311,153.39,9.311,153.39a24.284,24.284,0,0,1-21.125,21.645l-.4.047c-13.479,1.519-32.757,11.424,7.229,13.848,26.808,1.626,31.549,3.588,32.348-8.785.639-9.888,1.684-24.021,1.684-24.021l28.654-154.693s36.467,7.153,59.358,5.007,42.637-21.6,37.949-61.538" transform="translate(-173.506 -144.557)" fill="#ef9f94"/>
    <path id="Path_52" data-name="Path 52" d="M557.718,278.565l-3.25,24.708s-56.839,1.246-76.868,2.755-34.694,21.538-34.694,44.071V478.86h45.066l7.273-72.708V478.86H542.8l9.193-111.712s57.01,4.53,74.823,0,26.4-25.633,26.04-39.225-6.28-60.476-6.28-60.476Z" transform="translate(-193.404 -116.787)" fill="#394b61"/>
    <path id="Path_53" data-name="Path 53" d="M640.946,305.809h98.4l-5.825-32.555-92.575,5.723Z" transform="translate(-279.882 -119.322)" fill="#ff5722"/>
    <path id="Path_54" data-name="Path 54" d="M715.3,169l-18.822,26.534s-69.149,6.438-84.648,10.318c-13.191,3.3-31.475,26.4-27.9,29.979s33.512-13.358,33.512-13.358a398.1,398.1,0,0,1,57.4,1.2c32.19,2.949,48.7-.244,55.071-10.974s9.5-69.413,2.077-78.038-45.951,7.982-45.951,7.982Z" transform="translate(-254.785 -57.719)" fill="#ef9f94"/>
    <path id="Path_55" data-name="Path 55" d="M450.41,740.941l-27.273,3.775a12.868,12.868,0,0,1-12.149-5.148h-14.32a7.186,7.186,0,0,0-7.136,8.034l60.878,4.369Z" transform="translate(-170.075 -322.948)" fill="#ff5722"/>
    <path id="Path_56" data-name="Path 56" d="M534.938,740.941l-27.273,3.775a12.868,12.868,0,0,1-12.149-5.148H481.2a7.186,7.186,0,0,0-7.136,8.034l60.878,4.369Z" transform="translate(-206.986 -322.948)" fill="#ff5722"/>
    <path id="Path_57" data-name="Path 57" d="M706.337,7.528s-9.2,9.582-5.627,33.189c3.16,20.858,28.79,8.969,30.848-.781S744,13.41,728.594,8.131s-22.257-.6-22.257-.6" transform="translate(-305.619 -2.453)" fill="#ef9f94"/>
    <rect id="Rectangle_17" data-name="Rectangle 17" width="16.065" height="62.985" transform="translate(212.183 439.959) rotate(-85.768)" fill="#2f3237"/>
    <path id="Path_58" data-name="Path 58" d="M630.5,547.15l-16.559-41.691V313.077a24.8,24.8,0,0,1,24.772-24.771h97.537a22.407,22.407,0,0,1,22.382,22.381V379.8h-137.6V504.1l16.058,40.431Zm-9.465-174.441h130.5V310.687A15.3,15.3,0,0,0,736.251,295.4H638.714a17.7,17.7,0,0,0-17.678,17.678Z" transform="translate(-268.09 -125.895)" fill="#2d2a26"/>
    <path id="Path_59" data-name="Path 59" d="M761.381,531.005H620.239v-7.093H754.287V444.431h7.094Z" transform="translate(-270.84 -194.07)" fill="#2d2a26"/>
    <path id="Path_60" data-name="Path 60" d="M582.966,676.941h-7.094V595.75a45.313,45.313,0,0,1,23.269-39.572l3.449,6.2a38.214,38.214,0,0,0-19.624,33.373Z" transform="translate(-251.466 -242.866)" fill="#2d2a26"/>
    <rect id="Rectangle_18" data-name="Rectangle 18" width="16.065" height="62.985" transform="translate(269.843 439.959) rotate(-85.768)" fill="#2f3237"/>
    <rect id="Rectangle_19" data-name="Rectangle 19" width="137.596" height="22.826" transform="translate(349.399 250.362)" fill="#2f3237"/>
    <path id="Path_61" data-name="Path 61" d="M701.428,18.564,715.134,6.253a22.356,22.356,0,0,0,4.905,13c4.909,5.91,14.55,10.423,14.55,10.423A27.884,27.884,0,0,0,737.527,16.8C737.5,2.487,725.182,1.245,719.085.172S700.24,2.8,701.428,18.564" transform="translate(-306.259 0)" fill="#2f3237"/>
    <path id="Path_62" data-name="Path 62" d="M755.93,77.385c-.393,3.548-3,6.171-5.819,5.858s-4.789-3.442-4.4-6.99,5.819-5.858,5.819-5.858,4.789,3.442,4.4,6.99" transform="translate(-325.61 -30.739)" fill="#2f3237"/>
    <path id="Path_63" data-name="Path 63" d="M759.316,57.865c-.393,3.548-3,6.171-5.819,5.858s-4.789-3.442-4.4-6.99,5.819-5.858,5.819-5.858,4.789,3.442,4.4,6.99" transform="translate(-327.088 -22.216)" fill="#2f3237"/>
    <path id="Path_64" data-name="Path 64" d="M644.339,110.446s-1.2,12.993,11.434,14.675,29.637-14.64,29.637-14.64,17.229-1.562,28.728.823,16.307,8.107,19.388,18.36,3.08,45.782,3.08,45.782l-43.874-2.6-2.557,12.947-75.524,8.844s.825-9.654-2.991-16.092a65.4,65.4,0,0,1-5.9-14.195l-10.368,5.862-18.306-38.656,17.366-13.106a46.29,46.29,0,0,1,30.9-9.243Z" transform="translate(-251.996 -47.645)" fill="#ff5722"/>
    <path id="Path_65" data-name="Path 65" d="M753.571,95.48c-.393,3.548-3,6.171-5.819,5.858s-4.789-3.442-4.4-6.99,5.82-5.858,5.82-5.858,4.789,3.442,4.4,6.99" transform="translate(-324.579 -38.641)" fill="#2f3237"/>
    <path id="Path_66" data-name="Path 66" d="M750.185,114.288c-.393,3.548-3,6.171-5.819,5.858s-4.789-3.442-4.4-6.99,5.819-5.858,5.819-5.858,4.789,3.442,4.4,6.99" transform="translate(-323.101 -46.854)" fill="#2f3237"/>
    <path id="Path_67" data-name="Path 67" d="M746.8,133.095c-.393,3.548-3,6.171-5.819,5.858s-4.789-3.442-4.4-6.989S742.4,126.1,742.4,126.1s4.789,3.443,4.4,6.99" transform="translate(-321.622 -55.066)" fill="#2f3237"/>
    <path id="Path_68" data-name="Path 68" d="M775.7,617.964A114.545,114.545,0,1,1,890.247,503.418,114.675,114.675,0,0,1,775.7,617.964m0-222A107.451,107.451,0,1,0,883.154,503.418,107.573,107.573,0,0,0,775.7,395.967" transform="translate(-288.707 -169.809)" fill="#8c9aa0"/>
    <path id="Path_69" data-name="Path 69" d="M791.309,613.436a94.411,94.411,0,1,1,94.411-94.411,94.518,94.518,0,0,1-94.411,94.411m0-183.755a89.344,89.344,0,1,0,89.344,89.344,89.446,89.446,0,0,0-89.344-89.344" transform="translate(-304.314 -185.416)" fill="#8c9aa0"/>
    <path id="Path_70" data-name="Path 70" d="M866.578,585.021a9.274,9.274,0,1,1-9.274-9.273,9.273,9.273,0,0,1,9.274,9.273" transform="translate(-370.309 -251.412)" fill="#8c9aa0"/>
    <rect id="Rectangle_20" data-name="Rectangle 20" width="5.067" height="91.877" transform="translate(484.461 241.731)" fill="#8c9aa0"/>
    <rect id="Rectangle_21" data-name="Rectangle 21" width="5.067" height="91.877" transform="matrix(0.766, -0.643, 0.643, 0.766, 425.996, 264.856)" fill="#8c9aa0"/>
    <rect id="Rectangle_22" data-name="Rectangle 22" width="5.067" height="91.878" transform="matrix(0.174, -0.985, 0.985, 0.174, 396.073, 320.149)" fill="#8c9aa0"/>
    <rect id="Rectangle_23" data-name="Rectangle 23" width="91.878" height="5.067" transform="translate(406.16 377.354) rotate(-30)" fill="#8c9aa0"/>
    <rect id="Rectangle_24" data-name="Rectangle 24" width="91.879" height="5.067" transform="translate(453.182 419.076) rotate(-69.99)" fill="#8c9aa0"/>
    <rect id="Rectangle_25" data-name="Rectangle 25" width="5.067" height="91.878" transform="translate(484.614 334.475) rotate(-20)" fill="#8c9aa0"/>
    <rect id="Rectangle_26" data-name="Rectangle 26" width="5.067" height="91.878" transform="matrix(0.5, -0.866, 0.866, 0.5, 485.728, 335.802)" fill="#8c9aa0"/>
    <rect id="Rectangle_27" data-name="Rectangle 27" width="91.878" height="5.067" transform="matrix(0.985, -0.174, 0.174, 0.985, 486.555, 331.114)" fill="#8c9aa0"/>
    <rect id="Rectangle_28" data-name="Rectangle 28" width="91.877" height="5.067" transform="translate(485.05 331.976) rotate(-49.992)" fill="#8c9aa0"/>
    <path id="Path_71" data-name="Path 71" d="M775.7,617.964A114.545,114.545,0,1,1,890.247,503.418,114.675,114.675,0,0,1,775.7,617.964m0-222A107.451,107.451,0,1,0,883.154,503.418,107.573,107.573,0,0,0,775.7,395.967" transform="translate(-288.707 -169.809)" fill="#8c9aa0"/>
    <path id="Path_72" data-name="Path 72" d="M790.524,613.664a95.424,95.424,0,1,1,95.425-95.425,95.533,95.533,0,0,1-95.425,95.425m0-183.755a88.331,88.331,0,1,0,88.331,88.331,88.431,88.431,0,0,0-88.331-88.331" transform="translate(-303.529 -184.631)" fill="#8c9aa0"/>
    <path id="Path_73" data-name="Path 73" d="M854.555,595.091a12.821,12.821,0,1,1,12.82-12.821,12.836,12.836,0,0,1-12.82,12.821m0-18.547a5.727,5.727,0,1,0,5.727,5.726,5.734,5.734,0,0,0-5.727-5.726" transform="translate(-367.56 -248.662)" fill="#8c9aa0"/>
    <rect id="Rectangle_29" data-name="Rectangle 29" width="7.094" height="91.877" transform="translate(483.447 241.731)" fill="#8c9aa0"/>
    <rect id="Rectangle_30" data-name="Rectangle 30" width="7.094" height="91.877" transform="matrix(0.766, -0.643, 0.643, 0.766, 425.219, 265.507)" fill="#8c9aa0"/>
    <rect id="Rectangle_31" data-name="Rectangle 31" width="7.095" height="91.878" transform="matrix(0.174, -0.985, 0.985, 0.174, 395.897, 321.148)" fill="#8c9aa0"/>
    <rect id="Rectangle_32" data-name="Rectangle 32" width="91.878" height="7.094" transform="translate(405.652 376.474) rotate(-29.998)" fill="#8c9aa0"/>
    <rect id="Rectangle_33" data-name="Rectangle 33" width="91.879" height="7.094" transform="translate(452.235 418.732) rotate(-69.997)" fill="#8c9aa0"/>
    <rect id="Rectangle_34" data-name="Rectangle 34" width="7.094" height="91.878" transform="translate(483.662 334.822) rotate(-20)" fill="#8c9aa0"/>
    <rect id="Rectangle_35" data-name="Rectangle 35" width="7.094" height="91.878" transform="matrix(0.5, -0.866, 0.866, 0.5, 485.221, 336.68)" fill="#8c9aa0"/>
    <rect id="Rectangle_36" data-name="Rectangle 36" width="91.878" height="7.095" transform="matrix(0.985, -0.174, 0.174, 0.985, 486.379, 330.115)" fill="#8c9aa0"/>
    <rect id="Rectangle_37" data-name="Rectangle 37" width="91.877" height="7.094" transform="matrix(0.643, -0.766, 0.766, 0.643, 484.276, 331.327)" fill="#8c9aa0"/>
    <path id="Path_74" data-name="Path 74" d="M627.649,751.718a27.788,27.788,0,1,1,27.788-27.787,27.82,27.82,0,0,1-27.788,27.787m0-48.482a20.694,20.694,0,1,0,20.694,20.695,20.718,20.718,0,0,0-20.694-20.695" transform="translate(-261.941 -303.984)" fill="#8c9aa0"/>
    <path id="Path_75" data-name="Path 75" d="M651.039,739.093a8.226,8.226,0,1,1-8.226-8.226,8.226,8.226,0,0,1,8.226,8.226" transform="translate(-277.105 -319.148)" fill="#8c9aa0"/>
    <path id="Path_76" data-name="Path 76" d="M232.82,420.842c-1.507-.528-5.722,1.07-17.981,4.976-9.551,3.044-11.447-5.469-28.855,3.017-12.37,6.031-12.393,17.464-22.2,32.438S105.992,548.26,92.573,571.006c-7.46,12.643-14.791,40.9-14.791,40.9A120.017,120.017,0,0,1,60.82,615.77c-33.193,4.677-53.493,3.168-58.872,8.449s-.484,7.175,25.68,7.175c23.134,0,42.312,1.987,58.8.666s76.244,2.426,93.589,2.855c7.332.181,15.589.5,15.589.5s-1.239-7.359-3.52-9.3c-9.053-7.716-29.169-2.515-29.169-2.515,16.093-20.195,10.561-41.373,10.561-41.373,10.4-2.993,15.3-8.347,17.54-13.371a53.057,53.057,0,0,0,1.621,14.125c3.25,12.461,8.171,52.438,8.171,52.438,3.018,0,15.039,1.394,15.339-.188.273-1.435,2.02-4.3-6.35-8.483-4.526-2.263.9-67.522,5.876-79.6,4.09-9.922,1.452-24-1.658-41.2a18.7,18.7,0,0,0,4.85-1.038c-3.489-3.3-5.658-9.241-5.658-9.241,2.734,1.32,7.261-.943,7.261-.943a34.245,34.245,0,0,1-4.951-4.715c-2.31-2.734-3.725-7.573-3.725-7.573,2.64,1.791,7.449,1.037,7.449,1.037l-3.345-4.046c-.665-.8-.96-2.454-1.03-4.472a29.852,29.852,0,0,1,7.845-20.906c1.749-1.94,3.628-4.027,5.839-6.352,10.457-11,7.345-25.776,4.271-26.853" transform="translate(0 -183.726)" fill="#fba64b"/>
    <path id="Path_77" data-name="Path 77" d="M277.538,691.932c10.4-2.993,15.3-8.347,17.54-13.371v.007h0l-20.055-6-.318-.064a29.411,29.411,0,0,0-32.376,17.2l-4.019,9.138c29.924-30.807,39.228-6.912,39.228-6.912" transform="translate(-104.063 -293.432)" fill="#ed913e"/>
    <path id="Path_78" data-name="Path 78" d="M299.421,681.672,272.681,667s5.908-12.385,6.474-12.385,30.931,16.372,30.931,16.372-4.635,8.26-10.666,10.686" transform="translate(-119.072 -285.85)" fill="#2f3237"/>
    <path id="Path_79" data-name="Path 79" d="M327.644,440.637a25.65,25.65,0,0,0-18.687,20.609,58.71,58.71,0,0,0-.787,6.784c-.357,8.369,5.478,7.265,10.013,6.279a11.925,11.925,0,0,1,3.306-.139,12.7,12.7,0,0,0,13.333-16.089q-.077-.27-.158-.545A87.924,87.924,0,0,0,327.644,440.637Z" transform="translate(-134.562 -192.413)" fill="#ffc38d"/>
    <path id="Path_80" data-name="Path 80" d="M405.713,421.087s1.7,5.3,6.817,2.514c0,0-.913-3.728-2.988-3.728a7.566,7.566,0,0,0-3.829,1.213" transform="translate(-177.163 -183.346)" fill="#2f3237"/>
    <path id="Path_81" data-name="Path 81" d="M225.135,555.358s38.525,22.408,38.9,24.294S239.2,628.563,237.7,628.563s-43.837-25.276-43.837-25.276Z" transform="translate(-84.652 -242.508)" fill="#ff5722"/>
    <path id="Path_82" data-name="Path 82" d="M193.859,619.579s3.3,1.968,8.078,4.8L259.3,606.361c2.89-5.7,4.847-9.881,4.74-10.417-.075-.379-1.7-1.591-4.232-3.276L199.327,611.2Z" transform="translate(-84.652 -258.8)" fill="#2f3237"/>
    <path id="Path_83" data-name="Path 83" d="M332.963,592.079c-.189.943-.7,10.7-.7,10.7s29.495.414,30.465.273-1.033-11.267-1.033-11.267Z" transform="translate(-145.091 -258.416)" fill="#2f3237"/>
    <path id="Path_84" data-name="Path 84" d="M325.3,596.395a134.761,134.761,0,0,1-15.092-.28,1.982,1.982,0,0,0-1.965,1.965,2,2,0,0,0,1.965,1.965,134.616,134.616,0,0,0,15.092.281,1.965,1.965,0,0,0,0-3.93" transform="translate(-134.6 -260.303)" fill="#2f3237"/>
    <path id="Path_85" data-name="Path 85" d="M261.054,607.612c-.343.039-41.624,11.9-43.48,12.517,0,0,1.34,2.408,1.974,2.337s42.78-12.321,43.163-12.722-1.314-2.17-1.657-2.131" transform="translate(-95.008 -265.326)" fill="#fff"/>
    <path id="Path_86" data-name="Path 86" d="M329.185,659.534s-.192-7.507-.316-13.542c0,0-12.7-12.573-12.446-17.6l2.924,25.857Z" transform="translate(-138.171 -274.399)" fill="#ed913e"/>
  </g>
</svg>
