<svg id="Group_2593" data-name="Group 2593" xmlns="http://www.w3.org/2000/svg" xmlns:xlink="http://www.w3.org/1999/xlink" width="596" height="522.527" viewBox="0 0 596 522.527">
  <defs>
    <clipPath id="clip-path">
      <rect id="Rectangle_39" data-name="Rectangle 39" width="596" height="522.527" fill="none"/>
    </clipPath>
    <clipPath id="clip-path-2">
      <path id="Path_124" data-name="Path 124" d="M120.92,119.618c.349,9.059,1.573,40.462,2.417,55.354.976,17.257-.675,29.163-6.687,32.49h0a140.614,140.614,0,0,1-.085,17.609l-3.312,48.886H216.058l-2-23.284a223.2,223.2,0,0,1,1.106-48.391l3.15-23.824s6.994-36.925-11.9-59.244c-4.031-1.877-16.572-2.972-16.572-2.972l-1.138,8.775a19.246,19.246,0,0,1-31.562,11.133c-7.744-6.706-14.656-14.044-16.469-20.056,0,0-12.448.835-19.748,3.522" transform="translate(-113.251 -116.096)" fill="none"/>
    </clipPath>
  </defs>
  <g id="Group_2580" data-name="Group 2580">
    <g id="Group_2579" data-name="Group 2579" clip-path="url(#clip-path)">
      <path id="Path_87" data-name="Path 87" d="M697.768,25.52s16.227,3.3,17.747,14.155-2.822,15.2,0,20.839,9.1,8.03,7.374,19.427-45.64,9.219-45.64,9.219Z" transform="translate(-329.929 -12.432)" fill="#c76211"/>
      <path id="Path_88" data-name="Path 88" d="M591.314,248.913a105,105,0,0,1,7.994-36.249c17.177,10.408,42.207,21.827,51.05,25.771C642.2,285.1,607.61,482.3,603.019,497.988c-.828,2.83-1.439,5.255-1.881,7.381h.052l.012.3c.4,10.281,11.616,18.721,11.737,18.743,0,0,5.788,12.192-.834,14.384-7.6,2.514-17.9-15.425-22.156-15.619-8.752-.4-6.716,13.331-6.716,5.739,0-9.493,8.081-280.006,8.081-280.006M701.22,497.988c2.923,9.988,3.173,15.938,2.8,20.365-.288,3.463,14.991,10.439,14.991,10.439S707.48,538.7,731.93,538.8c36.469.145-2.186-.037,1.563-14.384.031-.12-12.061-8.461-12.467-18.743l-8.1-256.759a105.014,105.014,0,0,0-10.2-41.173l-4.984-10.421c-14.327-23.444-9.985-42.113-3.907-49.927s3.473-18.235,3.473-18.235,39.942,19.754,50.361,22.576,19.754-4.559,15.629-24.313-25.4-59.913-25.4-59.913,5.21-6.946,9.334-12.372,4.993-17.367-2.17-14.327S732.7,54.7,732.7,54.7s2.6-9.334-.217-8.031-8.032,12.807-5.644,22.792,11.288,51.447,11.288,51.447-17.387-4.776-29.544-16.064-41.657-14.761-44.913-16.5-8.07-16.5-7.164-19.97l-19.51-1.737,1.414,8.224c1.2,6.973.078,6.5.039,3.251s6.205,36.716,6.205,36.716l-39.812,15.63,10.649,29.284c1.365,7.647.644,17.6-4.474,29.025l51,38.507-8,11.956c8.406,48.071,42.633,243.161,47.2,258.757" transform="translate(-284.028 -19.642)" fill="#ef9f94"/>
      <path id="Path_89" data-name="Path 89" d="M582.758,972.449s13.235,6.531,18.385,8.485,11.084-2.423,11.084-2.423,14.452,10.322,17.284,12.885.227,5.167-5.634,4.842c-3.836-.213-13.949-1.407-20.479-2.207a14.186,14.186,0,0,1-9.507-5.411l-5.181-6.709s-3.912,10.841-6.189,10.923.237-20.385.237-20.385" transform="translate(-283.317 -473.739)" fill="#2f3237"/>
      <path id="Path_90" data-name="Path 90" d="M817.831,972.449s13.235,6.531,18.385,8.485,11.083-2.423,11.083-2.423,14.452,10.322,17.284,12.885.227,5.167-5.634,4.842c-3.836-.213-13.949-1.407-20.479-2.207a14.188,14.188,0,0,1-9.507-5.411l-5.18-6.709s-3.912,10.841-6.189,10.923.237-20.385.237-20.385" transform="translate(-397.835 -473.739)" fill="#2f3237"/>
      <path id="Path_91" data-name="Path 91" d="M692.31,492.549l11.633,153.369H631.657L627.8,415.6l-22.25,230.316H530.066l41.679-244.86h92.474Z" transform="translate(-258.227 -195.38)" fill="#394b61"/>
      <path id="Path_92" data-name="Path 92" d="M599.023,165.582v53.647L656.2,262.4l-8.419,12.59s-48.021-20.839-65.387-34.732-9.552-56.873-9.552-77.713,14.979-34.081,37.337-36.034c25.455-2.225,22.837-10.657,22.8-13.907s5.856,37.351,5.856,37.351Z" transform="translate(-278.213 -54.765)" fill="#ef9f94"/>
      <path id="Path_93" data-name="Path 93" d="M691.718,140.953l-2.631,2.563a20.254,20.254,0,0,1-22.4,3.978l-12.2-5.456L634.639,274.346h80.523Z" transform="translate(-309.171 -68.667)" fill="#426cff"/>
      <path id="Path_94" data-name="Path 94" d="M740.266,113.555s10.073,121.779,12.678,151.518,11.071,85.745,11.071,85.745l42.33-3.256S786.807,240.326,781.38,224.045s-7.2-26.266-5.88-35.383,6.224-30.187,6.224-30.187,39.6,22.373,49.8,23.892,19.32-7.6,17.366-23.01S828.7,92.064,828.7,92.064l-25.18,8.683,8.683,39.942s-22.033-19.428-31.584-23.553-40.355-3.582-40.355-3.582" transform="translate(-360.628 -44.85)" fill="#fba64b"/>
      <path id="Path_95" data-name="Path 95" d="M621.331,137.476s-7.561,119.98-10.167,149.72-11.071,85.744-11.071,85.744l-42.329-3.256S577.3,262.449,582.729,246.169s7.2-26.266,5.88-35.383-6.225-30.187-6.225-30.187Z" transform="translate(-271.721 -66.973)" fill="#fba64b"/>
      <path id="Path_96" data-name="Path 96" d="M625.063,137.458s-5.052.5-17.207,0-30.609,8.838-35.167,18.932-5.209,39.4-6.078,48.082-3.907,34.3,5.21,43.849,64.254,39.725,64.254,39.725l12.808-29.74-54.7-36.9Z" transform="translate(-275.452 -66.955)" fill="#fba64b"/>
      <path id="Path_97" data-name="Path 97" d="M708.78,45.118a44.149,44.149,0,0,0,.57,7.83c1.52,6.295,1.878,10.251-1.52,18.017-3.039,6.946-11.939,4.776-15.2,3.256s-11.939-6.295-12.59-14.544-8.683-22.142,5.861-24.746,22.721,5.7,22.875,10.188" transform="translate(-329.929 -16.775)" fill="#ef9f94"/>
      <path id="Path_98" data-name="Path 98" d="M713.8,411.2l8.419-12.59-8.731-6.592-6.879,15.974Z" transform="translate(-344.233 -190.974)" fill="#ef9f94"/>
      <path id="Path_99" data-name="Path 99" d="M677.688,53.554c-4.124,7.163-.93,12.59,1.706,20.4S678.123,85.9,671.176,85.9s-14.538-3.049-14.538-3.049,10.57-14.968,6.073-36.458c-3.2-15.3,7.692-19.971,21.1-21.274,8.382-.814,14.983,5.389,16.605,10.176.973,2.872-1.68,5.25-1.68,5.25l-14.925-6.526s.938,7.268-6.125,19.537" transform="translate(-319.888 -12.201)" fill="#c76211"/>
      <path id="Path_100" data-name="Path 100" d="M729.053,404.868s10.68,4.3,12.373,6.946a13.994,13.994,0,0,1,1.953,5.644s4.342,9.769,4.559,11.722-4.776,2.388-4.776,2.388a5.772,5.772,0,0,1-2.388,2.822c-1,.428-7.349-1.96-11.58-3.645a9.6,9.6,0,0,1-5.352-5.333l-3.208-7.954Z" transform="translate(-351.064 -197.236)" fill="#ef9f94"/>
      <path id="Path_101" data-name="Path 101" d="M718.315,70.032a4.962,4.962,0,1,1-4.962-4.962,4.962,4.962,0,0,1,4.962,4.962" transform="translate(-345.101 -31.7)" fill="#2f3237"/>
      <path id="Path_102" data-name="Path 102" d="M744.579,70.032a4.962,4.962,0,1,1-4.962-4.962,4.962,4.962,0,0,1,4.962,4.962" transform="translate(-357.895 -31.7)" fill="#2f3237"/>
      <path id="Path_103" data-name="Path 103" d="M727.249,73.288a.935.935,0,0,0,.071-.1c-.093.194-.088.111-.024.037a2.451,2.451,0,0,1,.176-.181c.02-.019.114-.076.118-.1,0,.028-.186.132-.059.048.08-.052.158-.1.242-.15.037-.02.074-.039.112-.058.09-.044.169-.023-.045.017.08-.015.161-.057.24-.079l.123-.03c.027-.006.234-.037.049-.014-.17.021-.017,0,.019,0,.052,0,.105-.006.157-.007.082,0,.172.021.252.012-.078.008-.23-.038-.057,0,.042.008.083.017.123.027.092.023.182.053.272.084.134.046-.039-.007-.073-.032a.773.773,0,0,0,.113.055,2.6,2.6,0,0,1,.245.145c.029.019.146.111.023.011s.014.014.042.038a2.44,2.44,0,0,1,.18.177c.026.028.142.176.041.039s.018.031.03.048a1.038,1.038,0,1,0,1.792-1.048,3.524,3.524,0,0,0-5.956.021,1.045,1.045,0,0,0,.372,1.42,1.062,1.062,0,0,0,1.42-.372" transform="translate(-353.344 -34.389)" fill="#2d2b28"/>
      <path id="Path_104" data-name="Path 104" d="M707.218,70.074,703.06,68.71a1.046,1.046,0,0,0-1.276.725,1.061,1.061,0,0,0,.725,1.277l4.158,1.364a1.046,1.046,0,0,0,1.276-.725,1.061,1.061,0,0,0-.725-1.277" transform="translate(-341.867 -33.453)" fill="#2d2b28"/>
      <path id="Path_105" data-name="Path 105" d="M767.451,455.541a13.471,13.471,0,0,1-3.2.713,7.113,7.113,0,0,1-.332.677L965.133,742.542l3.016-2.126Z" transform="translate(-372.15 -221.922)" fill="#394b61"/>
      <path id="Path_106" data-name="Path 106" d="M205.317,11.5s8.977,12.193,5.721,33.684c-2.877,18.989-28.49,6.212-30.364-2.665s-9.64-25.665,4.382-30.47,20.262-.549,20.262-.549" transform="translate(-86.149 -4.757)" fill="#c76211"/>
      <path id="Path_107" data-name="Path 107" d="M35.862,176.8l26.1-22.186,5.686,32.165c-.123,4.2,6.961,31.776,5.9,35.991-1.645,6.542-3.329,16.736-5.012,29.474l1.436,1.031h85.78c-2.285-15.074-4.473-27.1-6.46-34.515-1.43-5.341,7.306-12.662,7.049-17.43-1.253-23.308,2.278-37.989,5.224-45.908l1.036-2.559,25.32,18.548h0l18.243,12.547c17.431,11.52,24.161,4.039,33.168-20.228L259.6,101.768l-16.243-6.238-30.183,51.21-29.8-31.024c-1.571-1.684-3.16-3.343-4.736-4.929l-.078-.082v0c-1.38-1.388-2.748-2.722-4.08-3.958-8.318-7.724-25.489-10.435-35.5-11.377A13.861,13.861,0,0,1,127.6,87.257c-2.081-4.646-4.187-10.036-3.706-11.88L100.7,73.64l1.414,8.225A11.452,11.452,0,0,1,91.668,95.413c-13.506,1.178-33.857,4.637-43.965,20.02-.211.321-35.034,37.016-35.034,37.016S23.552,185.819,35.862,176.8" transform="translate(-6.172 -35.875)" fill="#c76211"/>
      <path id="Path_108" data-name="Path 108" d="M23.39,192.913,8.732,208.185a28.88,28.88,0,0,0-1.083,39.051l36.893,44.038L59.7,282.73l-29.114-59.7Z" transform="translate(-0.276 -93.98)" fill="#c76211"/>
      <path id="Path_109" data-name="Path 109" d="M489.622,79.009c-3.473,2.623-14.327,2.966-14.327,2.966s6.512-11.814,3.436-11.7-2.892,3.358-7.668,7.012-8.574,16.386-8.574,16.386l16.242,6.238,16.075-10.227s11.748-16.92,11.748-19.41-13.458,6.11-16.932,8.734" transform="translate(-225.306 -34.017)" fill="#c76211"/>
      <path id="Path_110" data-name="Path 110" d="M92.843,368.049l.238.508A24.508,24.508,0,0,1,94.9,383.8c-1.271,6.3-3.147,14.146-4.8,15.29-2.822,1.954-16.063,6.729-17.366,5.536s-5.1-13.567-3.907-14.979,8.449-6.621,8.449-6.621l.406-6.432Z" transform="translate(-33.42 -179.299)" fill="#c76211"/>
      <path id="Path_111" data-name="Path 111" d="M207.479,15.6s2.329-10.592-6.915-14.73c-6.582-2.946-25.4,1.692-27.351,12.568s4.767,21.3,4.767,21.3a14.719,14.719,0,0,0,6.458-14.586l-.317-2.022s4.708.941,9.781-3.256a33.134,33.134,0,0,0,5.919-5.864s3.729,6.462,7.659,6.593" transform="translate(-84.209 0)" fill="#2f3237"/>
      <path id="Path_112" data-name="Path 112" d="M388.824,191.879l.592-.566-.229-.234Z" transform="translate(-189.42 -93.086)" fill="#fba64b"/>
      <path id="Path_113" data-name="Path 113" d="M215.161,202.284a223.2,223.2,0,0,0-1.106,48.391l2,23.284H113.251l3.312-48.886a140.613,140.613,0,0,0,.085-17.609h0c6.012-3.327,7.663-15.232,6.686-32.49-.843-14.892-2.068-46.3-2.416-55.354,7.3-2.686,19.748-3.521,19.748-3.521,1.813,6.011,8.725,13.349,16.469,20.055A19.246,19.246,0,0,0,188.7,125.02l1.139-8.775s12.54,1.094,16.572,2.971c18.9,22.319,11.9,59.245,11.9,59.245Z" transform="translate(-55.171 -56.558)" fill="#394b61"/>
      <path id="Path_114" data-name="Path 114" d="M191.264,35.345s2.457,14.056,6.178,17.42,11.568-3.419,11.568-3.419,3.3,3.422,7.835,2.606c0,0,.886,8.139.107,11.558s-4.035,5.7-9.9,6.024-12.211-.923-14.327-5.1-5.21-28.111-5.21-28.111Z" transform="translate(-91.352 -17.219)" fill="#2f3237"/>
      <path id="Path_115" data-name="Path 115" d="M111.585,449.748S79.938,591,50.768,715.791c-2.569,10.992-4.422,9.783-28.872,9.88-10.83.043-16.95-.82-19.885-2.112-5.964-6.592,9.036-9.425,12.5-10.044l.363-.066a22.107,22.107,0,0,0,17.921-20.9S48.836,509.271,61.775,423.916h85.78Z" transform="translate(-0.304 -206.515)" fill="#c76211"/>
      <path id="Path_116" data-name="Path 116" d="M193.934,423.916s12.448,89.652,13.814,97.9H153.977l-5.024-44.022-9.3,44.022H84.079l18.351-97.9Z" transform="translate(-40.96 -206.515)" fill="#426cff"/>
      <path id="Path_117" data-name="Path 117" d="M272.5,614.815l.708,6.665a189.428,189.428,0,0,1-5.014,67.574H256.469l-3.592-6.017a211.054,211.054,0,0,1-24.6-61.444l-1.54-6.778Z" transform="translate(-110.457 -299.514)" fill="#848484"/>
      <path id="Path_118" data-name="Path 118" d="M296.445,759.577l3.907,23.01H288.641l-3.907-23.01Z" transform="translate(-138.711 -370.036)" fill="#2f3237"/>
      <path id="Path_119" data-name="Path 119" d="M331.472,927.09l3.907,23.01H323.668l-3.907-23.01Z" transform="translate(-155.775 -451.642)" fill="#2f3237"/>
      <path id="Path_120" data-name="Path 120" d="M273.593,804.445h26.946l9.09,62.9H296.255l-11.662-17.47A66.355,66.355,0,0,1,273.593,804.445Z" transform="translate(-133.031 -391.894)" fill="#848484"/>
      <path id="Path_121" data-name="Path 121" d="M333.784,971.958s27.615,11.216,27.59,13.622.174,7.482,0,7.479-49.339,0-49.339,0l-3.321-21.1Z" transform="translate(-150.393 -473.5)" fill="#394b61"/>
      <path id="Path_122" data-name="Path 122" d="M27.663,971.958S.048,983.174.072,985.58s-.174,7.482,0,7.479,49.339,0,49.339,0l3.321-21.1Z" transform="translate(0 -473.5)" fill="#394b61"/>
    </g>
  </g>
  <g id="Group_2582" data-name="Group 2582" transform="translate(58.08 59.539)">
    <g id="Group_2581" data-name="Group 2581" clip-path="url(#clip-path-2)">
      <path id="Path_123" data-name="Path 123" d="M230.015,230.259H99.067v-4.066H230.015Zm0-18.612H99.067v4.066H230.015Zm0-14.546H99.067v4.066H230.015Z" transform="translate(-106.341 -155.558)" fill="#ec5029"/>
    </g>
  </g>
  <g id="Group_2584" data-name="Group 2584">
    <g id="Group_2583" data-name="Group 2583" clip-path="url(#clip-path)">
      <path id="Path_125" data-name="Path 125" d="M445.627,294.876s10.213,9.338,10.026,28.619c-.165,17.036-26.317,9.649-29.308,2.161s-12.673-21.025.041-27.3,19.241-3.478,19.241-3.478" transform="translate(-204.606 -143.348)" fill="#ef9f94"/>
      <path id="Path_126" data-name="Path 126" d="M414.808,297.66l.269-2.945c13.8-7.331,21.778-7.011,21.778-7.011s-2.989-7.1-12.147-5.68-17.581,6.534-16.35,14.462,9.092,5.732,6.449,1.173" transform="translate(-198.878 -137.3)" fill="#2f3237"/>
      <path id="Path_127" data-name="Path 127" d="M449.932,602.217l-.363-.067a19.977,19.977,0,0,1-4.408-1.37,20.223,20.223,0,0,1-11.723-19.171c.677-23.617-2.392-110.178-5.3-145.476-3.381-41.05-2.447-85.66-2.447-99.182s5.313-31.78,11.591-48.729,16.639-23.778,16.639-38.749v-54.02H435.571s-5.8,55.952-5.8,59.816-29.5,37.253-29.5,37.253a5.947,5.947,0,0,1-6.786-5.888V277.55l-19.953-1.931v1.931c.308,5.393,2.416,17.386-7.243,17.869S341.179,296.761,332,312.993s-21.249,54.2-21.249,68.054,18.351,71.326,18.351,71.326l17.386-4.346s-9.176-66.162-8.21-70.509,14.488-43.465,14.488-43.465,3.381,42.016,3.381,50.226,5.808,48.634,3.393,80.508c-1.857,24.511-10.264,84.021-8.913,110.141q.368,7.1.369,14.2v15.363c0,11.288,4.422,9.783,28.872,9.88,36.469.145,19.537-9.986,7.381-12.156l-.363-.067a20.617,20.617,0,0,1-10.285-5.273,22.445,22.445,0,0,1-6.69-19.155l21.006-172.192,22.368,175.715-.081,0c.127.691.236,1.348.334,1.987l.4,3.122c.651,6.672-.26,10.766-.26,18.138,0,11.288,4.422,9.783,28.872,9.88,36.468.145,19.537-9.986,7.38-12.156" transform="translate(-151.387 -95.217)" fill="#ef9f94"/>
      <path id="Path_128" data-name="Path 128" d="M387.253,960.642l19.948-.584,25.565,10.688a9.685,9.685,0,0,1,5.661,8.807c0,1.438,0,2.831.017,3.811.039,3.029-4.563,3.612-11.288,3.514s-37.777.909-40.593,0,.69-26.236.69-26.236" transform="translate(-187.785 -467.702)" fill="#394b61"/>
      <path id="Path_129" data-name="Path 129" d="M510.11,960.642l19.948-.584,25.565,10.688a9.686,9.686,0,0,1,5.661,8.807c0,1.438,0,2.831.016,3.811.038,3.029-4.563,3.612-11.288,3.514s-37.777.909-40.593,0,.69-26.236.69-26.236" transform="translate(-247.636 -467.702)" fill="#394b61"/>
      <path id="Path_130" data-name="Path 130" d="M467.338,604.233H389.321L385.468,790.6h34.246l8.616-164.1,18.842,164.1,36.092.923Z" transform="translate(-187.785 -294.358)" fill="#426cff"/>
      <path id="Path_131" data-name="Path 131" d="M449.02,277.8c-1.811-3.321-8.318,0-8.318,0s3.428-7.545-4.178-7.907-5.977,4.889-14.85,5.614c-7.125.582-8.21,6.808-8.362,9.243-2.312,1.356-4.019,4.187-3.228,8.625,1.087,6.1,7.5,12.1,7.5,12.1a6.653,6.653,0,0,0,3.913-8.144l-1.812-5.89s9.961-4.166,19.559-4.709,11.59-5.614,9.779-8.935" transform="translate(-199.681 -131.474)" fill="#2f3237"/>
      <path id="Path_132" data-name="Path 132" d="M367.69,300.68s11.772,14.782,18.638,14.131,10.909-15.538,10.909-15.538l24.943-34.965,7.163-55h25.724s-1.628,57.241-3.256,66.663-25.405,52.511-25.405,52.511l4.141,95.73H348.491l-1-76.9-9.651,39.124,9.37,59.635-26.735,6.356S303,400.773,304.626,386.121c1.073-9.664,9.513-41.426,15.135-61.932A28.138,28.138,0,0,1,343.418,303.7Z" transform="translate(-148.35 -101.969)" fill="#ff5722"/>
      <path id="Path_133" data-name="Path 133" d="M346.539,690.076s2.516,15.019,7.292,23.268,13.19,2.605,12.673-5.209-2.758-15.211.023-15.629,6.441,4.776,8.812,2.6S363.6,683.387,363.6,683.387Z" transform="translate(-168.82 -332.919)" fill="#ef9f94"/>
      <path id="Path_134" data-name="Path 134" d="M566.506,171.855s4.931-14.408,4.655-23.935-10.363-8.566-13.626-1.446-4.81,14.691-7.455,13.736-3.394-7.264-6.512-6.483,4.938,16.633,4.938,16.633Z" transform="translate(-264.456 -68.667)" fill="#ef9f94"/>
    </g>
  </g>
</svg>
