<?xml version="1.0" encoding="utf-8"?>
<!-- Generator: Adobe Illustrator 19.2.0, SVG Export Plug-In . SVG Version: 6.00 Build 0)  -->
<svg version="1.1" id="Layer_1" xmlns="http://www.w3.org/2000/svg" xmlns:xlink="http://www.w3.org/1999/xlink" x="0px" y="0px"
	 viewBox="0 0 586 119" style="enable-background:new 0 0 586 119;" xml:space="preserve">
<metadata><?xpacket begin="﻿" id="W5M0MpCehiHzreSzNTczkc9d"?>
<x:xmpmeta xmlns:x="adobe:ns:meta/" x:xmptk="Adobe XMP Core 5.6-c111 79.158366, 2015/09/25-01:12:00        ">
   <rdf:RDF xmlns:rdf="http://www.w3.org/1999/02/22-rdf-syntax-ns#">
      <rdf:Description rdf:about=""
            xmlns:ExtensisFontSense="http://www.extensis.com/meta/FontSense/">
         <ExtensisFontSense:slug>
            <rdf:Bag>
               <rdf:li>
                  <rdf:Description>
                     <ExtensisFontSense:Family>Filson Soft</ExtensisFontSense:Family>
                     <ExtensisFontSense:Version>1.001</ExtensisFontSense:Version>
                     <ExtensisFontSense:OutlineFileSize>0</ExtensisFontSense:OutlineFileSize>
                     <ExtensisFontSense:KerningChecksum>0</ExtensisFontSense:KerningChecksum>
                     <ExtensisFontSense:Foundry>--</ExtensisFontSense:Foundry>
                     <ExtensisFontSense:FontKind>OpenType - PS</ExtensisFontSense:FontKind>
                     <ExtensisFontSense:Checksum>943383082</ExtensisFontSense:Checksum>
                     <ExtensisFontSense:PostScriptName>FilsonSoftBook</ExtensisFontSense:PostScriptName>
                     <ExtensisFontSense:FontSense_1.2_Checksum>943383082</ExtensisFontSense:FontSense_1.2_Checksum>
                  </rdf:Description>
               </rdf:li>
            </rdf:Bag>
         </ExtensisFontSense:slug>
      </rdf:Description>
   </rdf:RDF>
</x:xmpmeta>
                                                                                                    
                                                                                                    
                                                                                                    
                                                                                                    
                                                                                                    
                                                                                                    
                                                                                                    
                                                                                                    
                                                                                                    
                                                                                                    
                                                                                                    
                                                                                                    
                                                                                                    
                                                                                                    
                                                                                                    
                                                                                                    
                                                                                                    
                                                                                                    
                                                                                                    
                                                                                                    
                           
<?xpacket end="w"?></metadata>
<style type="text/css">
	.st0{fill:#FF5722;}
	.st1{fill:#FFFFFF;}
	.st2{fill:#37474F;}
	.st3{fill:#FF7043;}
	.st4{opacity:0.6;fill:#FFFFFF;enable-background:new    ;}
	.st5{font-family:'FilsonSoftBook';}
	.st6{font-size:29.2659px;}
</style>
<g>
	<path class="st0" d="M71,49.2V27.8h-5c-1.1,0-1.6-0.7-1.6-1.8v-3.2c0-1.1,0.6-1.6,1.6-1.6h5.2l1.5-9.4c0.2-1.5,1.2-2.3,2.6-2.3H77
		c1.5,0,2.5,0.9,2.5,2.6v9.2h11.2c1.1,0,1.6,0.6,1.6,1.6v3.2c0,1.1-0.6,1.8-1.6,1.8H79.4v21.8c0,4.4,2.1,6.1,4.8,6.1
		c2.6,0,4.8-1.5,4.8-4.4c0-0.4,0-0.9-0.1-1.5c-0.1-1.2,0.4-1.9,1.5-1.9h3.7c0.9,0,1.8,0.5,1.9,1.5c0.4,1.4,0.4,2.9,0.4,3
		c0,6.1-4.4,10.7-12.3,10.7C77.4,63.2,71,59.8,71,49.2z"/>
	<path class="st0" d="M100.7,59.3V24.2c0-1.9,1.2-2.9,3-2.9h2.5c1.9,0,2.9,1.1,2.9,2.9v6.2c1.4-6.6,6.1-10.1,11-10.1l1.8,0.1
		c1.8,0.2,2,1.6,2,3.3v2.3c0,2-0.8,2.8-2.2,2.6c-0.7-0.1-1.5-0.2-2.2-0.2c-2.9,0-10.3,1.5-10.3,18.3v12.6c0,1.9-1.1,2.9-2.9,2.9
		h-2.5C101.8,62.2,100.7,61.2,100.7,59.3z"/>
	<path class="st0" d="M127.5,44.4V24.2c0-1.9,1.1-2.9,2.9-2.9h2.5c1.9,0,3,1.1,3,2.9v20.1c0,8.3,3.7,11.5,8.1,11.5
		c4.2,0,12.8-2.9,12.8-15.3V24.2c0-1.9,1.1-2.9,2.9-2.9h2.5c1.9,0,3,1.1,3,2.9v35.1c0,1.9-1.2,2.9-3,2.9h-2.5
		c-1.9,0-2.9-1.1-2.9-2.9v-5c-1.8,5.7-7,8.9-13.7,8.9C134.1,63.2,127.5,57.2,127.5,44.4z"/>
	<path class="st0" d="M171.7,41.9c0-11.9,9.4-21.5,22.1-21.5c10.3,0,19.8,6.1,20.8,19.2c0.2,2-0.9,3-2.8,3h-31.7
		c-0.2,7.6,6.1,13.2,15,13.2c4,0,7.6-1.1,11.1-3.4c1.5-0.9,2.8-0.9,4.2,0.5l0.6,0.7c1.3,1.4,1.3,3.2-0.6,4.7c-4.8,3.9-10.2,5-15.5,5
		C180.6,63.2,171.7,53.6,171.7,41.9z M206.3,36.4c-2.1-7.3-7.8-8.9-12.4-8.9c-4.8,0-10.7,1.9-13.2,8.9H206.3z"/>
	<path class="st1" d="M222.5,49.2V27.8h-5c-1.1,0-1.6-0.7-1.6-1.8v-3.2c0-1.1,0.6-1.6,1.6-1.6h5.2l1.5-9.4c0.2-1.5,1.2-2.3,2.6-2.3
		h1.8c1.5,0,2.5,0.9,2.5,2.6v9.2h11.2c1.1,0,1.6,0.6,1.6,1.6v3.2c0,1.1-0.6,1.8-1.6,1.8h-11.2v21.8c0,4.4,2.1,6.1,4.8,6.1
		c2.6,0,4.8-1.5,4.8-4.4c0-0.4,0-0.9-0.1-1.5c-0.1-1.2,0.4-1.9,1.5-1.9h3.7c0.9,0,1.8,0.5,1.9,1.5c0.4,1.4,0.4,2.9,0.4,3
		c0,6.1-4.4,10.7-12.3,10.7C228.9,63.2,222.5,59.8,222.5,49.2z"/>
	<path class="st1" d="M252.2,59.3V24.2c0-1.9,1.2-2.9,3-2.9h2.5c1.9,0,2.9,1.1,2.9,2.9v6.2c1.4-6.6,6.1-10.1,11-10.1l1.8,0.1
		c1.8,0.2,2,1.6,2,3.3v2.3c0,2-0.8,2.8-2.2,2.6c-0.7-0.1-1.5-0.2-2.2-0.2c-2.9,0-10.3,1.5-10.3,18.3v12.6c0,1.9-1.1,2.9-2.9,2.9
		h-2.5C253.3,62.2,252.2,61.2,252.2,59.3z"/>
	<path class="st1" d="M276,41.6c0-11.8,8.1-21.4,20.3-21.4c5.5,0,10.8,1.9,14.6,7.4v-3.5c0-1.9,1.2-2.9,3-2.9h2.5
		c1.9,0,2.9,1.1,2.9,2.9v35.1c0,1.9-1.1,2.9-2.9,2.9h-2.5c-1.9,0-3-1.1-3-2.9v-3.5c-3.9,5.5-9.1,7.4-14.6,7.4
		C284,63.2,276,53.5,276,41.6z M311.1,41.6c-0.1-8.1-5.6-14-13.7-14c-8.3,0-13,6.4-13,14c0,7.7,4.8,14,13,14
		C305.5,55.8,311,49.8,311.1,41.6z"/>
	<path class="st1" d="M339.4,59.9l-13.7-35.4c-0.7-2,0.1-3.4,2.3-3.4h2.7c1.8,0,2.8,0.7,3.4,2.3L345,52.9l10.9-29.4
		c0.7-1.6,1.8-2.3,3.4-2.3h2.7c2.2,0,3,1.3,2.3,3.4l-13.7,35.4c-0.7,1.5-1.8,2.3-3.5,2.3h-4.2C341.3,62.2,340.1,61.4,339.4,59.9z"/>
	<path class="st1" d="M366.1,41.9c0-11.9,9.4-21.5,22.1-21.5c10.3,0,19.8,6.1,20.8,19.2c0.2,2-0.9,3-2.8,3h-31.7
		c-0.2,7.6,6.1,13.2,15,13.2c4,0,7.6-1.1,11.1-3.4c1.5-0.9,2.8-0.9,4.2,0.5l0.6,0.7c1.3,1.4,1.3,3.2-0.6,4.7c-4.8,3.9-10.2,5-15.5,5
		C375,63.2,366.1,53.6,366.1,41.9z M400.8,36.4c-2.1-7.3-7.8-8.9-12.4-8.9c-4.8,0-10.7,1.9-13.2,8.9H400.8z"/>
	<path class="st1" d="M415.5,59.3V5.9c0-1.9,1.2-2.9,3-2.9h2.5c1.9,0,2.9,1.1,2.9,2.9v53.3c0,1.9-1.1,2.9-2.9,2.9h-2.6
		C416.6,62.2,415.5,61.2,415.5,59.3z"/>
	<path class="st1" d="M433.9,59.3V5.9c0-1.9,1.2-2.9,3-2.9h2.5c1.9,0,2.9,1.1,2.9,2.9v53.3c0,1.9-1.1,2.9-2.9,2.9h-2.5
		C435.1,62.2,433.9,61.2,433.9,59.3z"/>
	<path class="st1" d="M449,41.9c0-11.9,9.4-21.5,22.1-21.5c10.3,0,19.8,6.1,20.8,19.2c0.2,2-0.9,3-2.8,3h-31.7
		c-0.2,7.6,6.1,13.2,15,13.2c4,0,7.6-1.1,11.1-3.4c1.5-0.9,2.8-0.9,4.2,0.5l0.6,0.7c1.3,1.4,1.3,3.2-0.6,4.7c-4.8,3.9-10.2,5-15.5,5
		C457.9,63.2,449,53.6,449,41.9z M483.6,36.4c-2.1-7.3-7.8-8.9-12.4-8.9c-4.8,0-10.7,1.9-13.2,8.9H483.6z"/>
	<path class="st1" d="M498,59.3V24.2c0-1.9,1.2-2.9,3-2.9h2.5c1.9,0,2.9,1.1,2.9,2.9v6.2c1.4-6.6,6.1-10.1,11-10.1l1.8,0.1
		c1.8,0.2,2,1.6,2,3.3v2.3c0,2-0.8,2.8-2.2,2.6c-0.7-0.1-1.5-0.2-2.2-0.2c-2.9,0-10.3,1.5-10.3,18.3v12.6c0,1.9-1.1,2.9-2.9,2.9
		h-2.5C499.2,62.2,498,61.2,498,59.3z"/>
</g>
<g>
	<g>
		<path class="st0" d="M303.5,52.1c-0.1,0-0.2,0-0.4,0c-0.7-0.1-1.3-0.7-1.4-1.5l-1.3-11.9l-11.6,0.4c-0.7,0-1.4-0.5-1.6-1.2
			c-0.2-0.7,0-1.5,0.7-2l33-21.9c0.2-0.2,0.6-0.2,0.9-0.2c0.5,0,0.8,0.1,1.2,0.5c0.6,0.5,0.7,1.4,0.4,2.1l-18.5,35.1
			C304.7,51.7,304.1,52.1,303.5,52.1z"/>
		<path class="st2" d="M321.9,15.3L321.9,15.3 M321.9,15.3l-18.5,35.1L302,36.8l-13.1,0.4L321.9,15.3 M321.9,11.9h-0.1
			c-0.7,0-1.3,0.2-1.8,0.6l-33,21.9c-1.3,0.8-1.9,2.5-1.4,3.9s1.8,2.3,3.3,2.3h0.1l10-0.4l1.1,10.4c0.1,1.5,1.3,2.7,2.8,3
			c0.2,0,0.5,0.1,0.6,0.1c1.3,0,2.5-0.7,3-1.9l18.5-35c0.2-0.5,0.5-1.1,0.5-1.8C325.3,13.4,323.7,11.9,321.9,11.9L321.9,11.9
			L321.9,11.9z M321.9,18.7L321.9,18.7L321.9,18.7L321.9,18.7z"/>
	</g>
	<polyline class="st3" points="321.9,15.3 288.8,37.2 302,36.8 	"/>
</g>
<text transform="matrix(1 0 0 1 24.3937 99.9488)" class="st4 st5 st6">travel insurance designed by travellers</text>
</svg>
