<svg id="Layer_1" data-name="Layer 1" xmlns="http://www.w3.org/2000/svg" viewBox="0 0 390.3 51.5"><defs><style>.cls-1{fill:#ff5722;}.cls-2{fill:#37474f;}.cls-3{fill:#fff;}.cls-4{fill:#ff7043;}</style></defs><title>truetraveller-logo-white</title><path class="cls-1" d="M10.2,48.6V30.3H5.9a1.34,1.34,0,0,1-1.4-1.5V26.1a1.27,1.27,0,0,1,1.4-1.4h4.4l1.3-8a2.11,2.11,0,0,1,2.2-2h1.5a2,2,0,0,1,2.1,2.2v7.9H27a1.27,1.27,0,0,1,1.4,1.4v2.7A1.34,1.34,0,0,1,27,30.4H17.4V49c0,3.8,1.8,5.2,4.1,5.2s4.1-1.3,4.1-3.8a6.64,6.64,0,0,0-.1-1.3c-.1-1,.3-1.6,1.3-1.6H30a1.46,1.46,0,0,1,1.6,1.3,11.93,11.93,0,0,1,.3,2.6c0,5.2-3.8,9.1-10.5,9.1C15.7,60.5,10.2,57.6,10.2,48.6Z" transform="translate(-4.5 -9.1)"/><path class="cls-1" d="M35.6,57.2v-30a2.34,2.34,0,0,1,2.6-2.5h2.1a2.27,2.27,0,0,1,2.5,2.5v5.3c1.2-5.6,5.2-8.6,9.4-8.6l1.5.1c1.5.2,1.7,1.4,1.7,2.8v2c0,1.7-.7,2.4-1.9,2.2a12.25,12.25,0,0,0-1.9-.2c-2.5,0-8.8,1.3-8.8,15.6V57.2a2.27,2.27,0,0,1-2.5,2.5H38.2A2.3,2.3,0,0,1,35.6,57.2Z" transform="translate(-4.5 -9.1)"/><path class="cls-1" d="M58.5,44.5V27.2A2.27,2.27,0,0,1,61,24.7h2.1a2.34,2.34,0,0,1,2.6,2.5V44.4c0,7.1,3.2,9.8,6.9,9.8s10.9-2.5,10.9-13.1V27.2A2.27,2.27,0,0,1,86,24.7h2.1a2.34,2.34,0,0,1,2.6,2.5v30a2.34,2.34,0,0,1-2.6,2.5H86a2.27,2.27,0,0,1-2.5-2.5V52.9c-1.5,4.9-6,7.6-11.7,7.6C64.1,60.5,58.5,55.4,58.5,44.5Z" transform="translate(-4.5 -9.1)"/><path class="cls-1" d="M96.2,42.3c0-10.2,8-18.4,18.9-18.4,8.8,0,16.9,5.2,17.8,16.4a2.15,2.15,0,0,1-2.4,2.6H103.4c-.2,6.5,5.2,11.3,12.8,11.3a16.58,16.58,0,0,0,9.5-2.9,2.56,2.56,0,0,1,3.6.4l.5.6c1.1,1.2,1.1,2.7-.5,4a20.29,20.29,0,0,1-13.2,4.3C103.8,60.5,96.2,52.3,96.2,42.3Zm29.6-4.7c-1.8-6.2-6.7-7.6-10.6-7.6-4.1,0-9.1,1.6-11.3,7.6Z" transform="translate(-4.5 -9.1)"/><path class="cls-2" d="M139.6,48.6V30.3h-4.3a1.34,1.34,0,0,1-1.4-1.5V26.1a1.27,1.27,0,0,1,1.4-1.4h4.4l1.3-8a2.11,2.11,0,0,1,2.2-2h1.5a2,2,0,0,1,2.1,2.2v7.9h9.6a1.27,1.27,0,0,1,1.4,1.4v2.7a1.34,1.34,0,0,1-1.4,1.5h-9.6V49c0,3.8,1.8,5.2,4.1,5.2s4.1-1.3,4.1-3.8a6.64,6.64,0,0,0-.1-1.3c-.1-1,.3-1.6,1.3-1.6h3.2a1.46,1.46,0,0,1,1.6,1.3,11.93,11.93,0,0,1,.3,2.6c0,5.2-3.8,9.1-10.5,9.1C145.1,60.5,139.6,57.6,139.6,48.6Z" transform="translate(-4.5 -9.1)"/><path class="cls-2" d="M165,57.2v-30a2.34,2.34,0,0,1,2.6-2.5h2.1a2.27,2.27,0,0,1,2.5,2.5v5.3c1.2-5.6,5.2-8.6,9.4-8.6l1.5.1c1.5.2,1.7,1.4,1.7,2.8v2c0,1.7-.7,2.4-1.9,2.2a12.25,12.25,0,0,0-1.9-.2c-2.5,0-8.8,1.3-8.8,15.6V57.2a2.27,2.27,0,0,1-2.5,2.5h-2.1A2.3,2.3,0,0,1,165,57.2Z" transform="translate(-4.5 -9.1)"/><path class="cls-2" d="M185.3,42.1c0-10.1,6.9-18.3,17.3-18.3a14.41,14.41,0,0,1,12.5,6.3v-3a2.34,2.34,0,0,1,2.6-2.5h2.1a2.27,2.27,0,0,1,2.5,2.5v30a2.27,2.27,0,0,1-2.5,2.5h-2.1a2.34,2.34,0,0,1-2.6-2.5v-3a14.41,14.41,0,0,1-12.5,6.3C192.2,60.5,185.3,52.2,185.3,42.1Zm30,0c-.1-6.9-4.8-12-11.7-12-7.1,0-11.1,5.5-11.1,12s4.1,12,11.1,12S215.2,49.1,215.3,42.1Z" transform="translate(-4.5 -9.1)"/><path class="cls-2" d="M239.5,57.7,227.8,27.5c-.6-1.7.1-2.9,2-2.9h2.3a2.73,2.73,0,0,1,2.9,2l9.3,25.1,9.3-25.1a2.87,2.87,0,0,1,2.9-2h2.3c1.9,0,2.6,1.1,2,2.9L249.1,57.7a3,3,0,0,1-3,2h-3.6A3.13,3.13,0,0,1,239.5,57.7Z" transform="translate(-4.5 -9.1)"/><path class="cls-2" d="M262.3,42.3c0-10.2,8-18.4,18.9-18.4,8.8,0,16.9,5.2,17.8,16.4a2.15,2.15,0,0,1-2.4,2.6H269.5c-.2,6.5,5.2,11.3,12.8,11.3a16.58,16.58,0,0,0,9.5-2.9,2.56,2.56,0,0,1,3.6.4l.5.6c1.1,1.2,1.1,2.7-.5,4a20.29,20.29,0,0,1-13.2,4.3C269.9,60.5,262.3,52.3,262.3,42.3Zm29.6-4.7c-1.8-6.2-6.7-7.6-10.6-7.6-4.1,0-9.1,1.6-11.3,7.6Z" transform="translate(-4.5 -9.1)"/><path class="cls-2" d="M304.5,57.2V11.6a2.34,2.34,0,0,1,2.6-2.5h2.1a2.27,2.27,0,0,1,2.5,2.5V57.1a2.27,2.27,0,0,1-2.5,2.5H307A2.15,2.15,0,0,1,304.5,57.2Z" transform="translate(-4.5 -9.1)"/><path class="cls-2" d="M320.2,57.2V11.6a2.34,2.34,0,0,1,2.6-2.5h2.1a2.27,2.27,0,0,1,2.5,2.5V57.1a2.27,2.27,0,0,1-2.5,2.5h-2.1A2.23,2.23,0,0,1,320.2,57.2Z" transform="translate(-4.5 -9.1)"/><path class="cls-2" d="M333.1,42.3c0-10.2,8-18.4,18.9-18.4,8.8,0,16.9,5.2,17.8,16.4a2.15,2.15,0,0,1-2.4,2.6H340.3c-.2,6.5,5.2,11.3,12.8,11.3a16.58,16.58,0,0,0,9.5-2.9,2.56,2.56,0,0,1,3.6.4l.5.6c1.1,1.2,1.1,2.7-.5,4A20.29,20.29,0,0,1,353,60.6C340.7,60.5,333.1,52.3,333.1,42.3Zm29.6-4.7c-1.8-6.2-6.7-7.6-10.6-7.6-4.1,0-9.1,1.6-11.3,7.6Z" transform="translate(-4.5 -9.1)"/><path class="cls-2" d="M375,57.2v-30a2.34,2.34,0,0,1,2.6-2.5h2.1a2.27,2.27,0,0,1,2.5,2.5v5.3c1.2-5.6,5.2-8.6,9.4-8.6l1.5.1c1.5.2,1.7,1.4,1.7,2.8v2c0,1.7-.7,2.4-1.9,2.2a12.25,12.25,0,0,0-1.9-.2c-2.5,0-8.8,1.3-8.8,15.6V57.2a2.27,2.27,0,0,1-2.5,2.5h-2.1A2.34,2.34,0,0,1,375,57.2Z" transform="translate(-4.5 -9.1)"/><path class="cls-1" d="M208.8,51h-.3a1.49,1.49,0,0,1-1.2-1.3l-1.1-10.2-9.9.3a1.5,1.5,0,0,1-1.4-1,1.47,1.47,0,0,1,.6-1.7l28.2-18.7a1.08,1.08,0,0,1,.8-.2,1.28,1.28,0,0,1,1,.4,1.5,1.5,0,0,1,.3,1.8L210,50.4A1.56,1.56,0,0,1,208.8,51Z" transform="translate(-4.5 -9.1)"/><path class="cls-3" d="M224.5,19.6h0m0,0-15.8,30L207.5,38l-11.2.3,28.2-18.7m0-2.9h-.1a2.46,2.46,0,0,0-1.5.5L194.7,35.9a2.87,2.87,0,0,0,1.6,5.3h.1l8.5-.3.9,8.9a3,3,0,0,0,2.4,2.6,4.33,4.33,0,0,1,.5.1,2.88,2.88,0,0,0,2.6-1.6L227.1,21a3.31,3.31,0,0,0,.4-1.5,3,3,0,0,0-3-2.8Zm0,5.8Z" transform="translate(-4.5 -9.1)"/><polyline class="cls-4" points="220 10.5 191.8 29.2 203 28.9"/></svg>