<?xml version="1.0" encoding="utf-8"?>
<!-- Generator: Adobe Illustrator 26.3.1, SVG Export Plug-In . SVG Version: 6.00 Build 0)  -->
<svg version="1.1" id="Layer_1" xmlns="http://www.w3.org/2000/svg" xmlns:xlink="http://www.w3.org/1999/xlink" x="0px" y="0px"
	 viewBox="0 0 75.6 72.1" style="enable-background:new 0 0 75.6 72.1;" xml:space="preserve">
<style type="text/css">
	.st0{fill:#36474F;}
</style>
<g>
	<path class="st0" d="M4.9,18c3.2-5.4,7.5-9.7,13-13C23.4,1.7,29.5,0.1,36,0.1v7.2c-3.7,0-7.3,0.7-10.8,2.1v11.7H36v7.2H25.2v14.4
		H36v7.2H25.2v13c3.5,1.4,7.1,2.1,10.8,2.1v7.2c-6.5,0-12.6-1.6-18.1-4.9c-5.4-3.2-9.7-7.5-13-13C1.6,48.7,0,42.6,0,36.1
		C0,29.6,1.6,23.5,4.9,18z M18,28.3H8.1c-0.5,2.4-0.9,4.8-1,7.2c-0.1,2.4,0.2,4.8,1,7.2H18V28.3z M11.1,21.1H18v-7.4
		C15.1,15.6,12.8,18,11.1,21.1z M18,58.5v-8.6h-6.9C12.7,53.3,15,56.2,18,58.5L18,58.5z M57.6,21.7c3.3,0,6.3,0.8,9,2.4
		c2.8,1.6,4.9,3.8,6.6,6.6c1.6,2.8,2.4,5.8,2.4,9v10.8c0,0.9-0.4,1.7-1.2,2.3c-0.7,0.6-1.5,0.8-2.4,0.7h-3.6v15c0,1-0.4,1.7-1.2,2.3
		c-0.7,0.6-1.5,0.8-2.4,0.7H50.4c-0.9,0.1-1.7-0.1-2.4-0.7c-0.7-0.6-1.1-1.4-1.2-2.3v-15h-3.6c-0.9,0.1-1.7-0.1-2.4-0.7
		c-0.7-0.6-1.1-1.4-1.2-2.3V39.6c0-3.3,0.8-6.3,2.4-9c1.6-2.8,3.8-4.9,6.6-6.6C51.3,22.4,54.3,21.6,57.6,21.7L57.6,21.7z M68.4,10.9
		c0,2-0.5,3.8-1.5,5.4c-1,1.6-2.3,2.9-3.9,3.9c-1.6,1-3.4,1.4-5.4,1.4c-2,0-3.8-0.5-5.4-1.4c-1.7-1-3-2.3-3.9-3.9
		c-1-1.7-1.4-3.5-1.4-5.4c0-2,0.5-3.8,1.4-5.4c1-1.7,2.3-3,3.9-3.9c1.7-1,3.5-1.4,5.4-1.4c2,0,3.8,0.5,5.4,1.4c1.7,1,3,2.3,3.9,3.9
		C67.9,7.1,68.4,8.9,68.4,10.9L68.4,10.9z M68.4,39.7c0-2-0.5-3.8-1.4-5.4c-1-1.7-2.3-3-3.9-3.9c-1.7-1-3.5-1.4-5.4-1.4
		c-2,0-3.8,0.5-5.4,1.4c-1.7,1-3,2.3-3.9,3.9c-1,1.7-1.4,3.5-1.4,5.4v6.6h3.6c1.1,0.1,1.9,0.6,2.6,1.4c0.7,0.8,1,1.8,1,2.8v13.8h7.2
		V50.5c0-1.1,0.3-2,1-2.8c0.7-0.8,1.6-1.3,2.6-1.4h3.6V39.7z M57.6,14.5c1,0,1.9-0.4,2.6-1.1c0.7-0.7,1-1.6,1-2.6c0-1-0.3-1.9-1-2.6
		c-0.7-0.7-1.5-1-2.6-1c-1,0-1.9,0.3-2.6,1c-0.7,0.7-1,1.5-1,2.6c0,1,0.3,1.9,1,2.6C55.7,14.1,56.6,14.4,57.6,14.5L57.6,14.5z"/>
</g>
</svg>
