<svg height="90" viewBox="0 0 75 90" width="75" xmlns="http://www.w3.org/2000/svg"><g fill="none" fill-rule="evenodd" stroke="#ff5721" stroke-width="4" transform="translate(2 2)"><path d="m70.3633 50.8184c0 19.43-15.751 35.182-35.182 35.182-19.429 0-35.181-15.752-35.181-35.182 0-19.431 15.752-35.182 35.181-35.182 19.431 0 35.182 15.751 35.182 35.182z"/><path d="m62.5459 50.8184c0 15.112-12.252 27.363-27.364 27.363-15.113 0-27.364-12.251-27.364-27.363s12.251-27.364 27.364-27.364c15.112 0 27.364 12.252 27.364 27.364z"/><path d="m43 7.8184c0 4.317-3.5 7.818-7.818 7.818s-7.819-3.501-7.819-7.818c0-4.318 3.501-7.818 7.819-7.818s7.818 3.5 7.818 7.818z"/><path d="m39.3223 54.9658-19.35 11.056 11.057-19.349 19.35-11.056z"/><path d="m31.0293 46.6729 8.293 8.293"/><path d="m35.1816 23.4541v5.864"/><path d="m35.1816 72.3184v5.863"/><path d="m62.5459 50.8184h-5.863"/><path d="m13.6826 50.8184h-5.864"/></g></svg>