<svg id="Group_2569" data-name="Group 2569" xmlns="http://www.w3.org/2000/svg" xmlns:xlink="http://www.w3.org/1999/xlink" width="40" height="41.915" viewBox="0 0 40 41.915">
  <defs>
    <clipPath id="clip-path">
      <rect id="Rectangle_389" data-name="Rectangle 389" width="40" height="41.915" fill="none"/>
    </clipPath>
  </defs>
  <g id="Group_2568" data-name="Group 2568" clip-path="url(#clip-path)">
    <path id="Path_34" data-name="Path 34" d="M117.5,11.819l-1.341-1.341-8.64-8.64L106.18.5a1.7,1.7,0,0,0-1.2-.5H88.561A4.265,4.265,0,0,0,84.3,4.264V8.776h1.838V4.264a2.426,2.426,0,0,1,2.427-2.427h17.121V9.65a2.665,2.665,0,0,0,2.666,2.666h7.813V37.649a2.427,2.427,0,0,1-2.427,2.427H88.561a2.426,2.426,0,0,1-2.427-2.427V22.073H84.3V37.649a4.265,4.265,0,0,0,4.265,4.265h25.173A4.265,4.265,0,0,0,118,37.649V13.02a1.7,1.7,0,0,0-.5-1.2" transform="translate(-78 0.001)" fill="#37474f"/>
    <path id="Path_35" data-name="Path 35" d="M22.55,135.306v8.463a1.192,1.192,0,0,1-1.192,1.192H1.192A1.192,1.192,0,0,1,0,143.769v-8.463a1.192,1.192,0,0,1,1.192-1.192H21.359a1.192,1.192,0,0,1,1.192,1.192" transform="translate(0 -124.096)" fill="#37474f"/>
    <path id="Path_36" data-name="Path 36" d="M55.849,166.27a3.032,3.032,0,0,0-1.584-.354H52.372v6.011h1.066v-2.21H54.3a2.709,2.709,0,0,0,1.547-.412,1.761,1.761,0,0,0,.74-1.537,1.622,1.622,0,0,0-.74-1.5m-1.635,2.595h-.776v-2.1h.739c.893,0,1.36.254,1.36,1s-.427,1.1-1.324,1.1" transform="translate(-48.46 -153.523)" fill="#fff"/>
    <path id="Path_37" data-name="Path 37" d="M125.592,165.916h-1.6v6.011h1.658c1.787,0,2.875-1.04,2.875-3.03a2.658,2.658,0,0,0-2.93-2.981m-.07,5.147h-.467V166.78h.467c1.21,0,1.9.64,1.9,2.118s-.695,2.166-1.9,2.166" transform="translate(-114.728 -153.523)" fill="#fff"/>
    <path id="Path_38" data-name="Path 38" d="M204.533,166.813v-.9H200.9v6.011h1.066v-2.511h2.184v-.9h-2.184v-1.706Z" transform="translate(-185.895 -153.523)" fill="#fff"/>
    <rect id="Rectangle_386" data-name="Rectangle 386" width="19.944" height="1.494" transform="translate(13.194 27.223)" fill="#37474f"/>
    <rect id="Rectangle_387" data-name="Rectangle 387" width="19.944" height="1.494" transform="translate(13.194 30.659)" fill="#37474f"/>
    <rect id="Rectangle_388" data-name="Rectangle 388" width="19.944" height="1.494" transform="translate(13.194 34.095)" fill="#37474f"/>
  </g>
</svg>
