<svg xmlns="http://www.w3.org/2000/svg" width="35" height="35" viewBox="0 0 35 35">
  <path id="iconmonstr-instagram-11" d="M17.5,3.154c4.673,0,5.227.018,7.073.1,4.743.216,6.958,2.466,7.174,7.174.085,1.845.1,2.4.1,7.071s-.017,5.227-.1,7.071c-.217,4.7-2.427,6.958-7.174,7.174-1.846.085-2.4.1-7.073.1s-5.227-.017-7.071-.1c-4.754-.217-6.958-2.478-7.174-7.175-.085-1.845-.1-2.4-.1-7.071s.019-5.225.1-7.071c.217-4.706,2.427-6.958,7.174-7.174,1.846-.083,2.4-.1,7.071-.1ZM17.5,0c-4.753,0-5.348.02-7.214.1C3.93.4.4,3.923.106,10.284.02,12.152,0,12.747,0,17.5s.02,5.349.1,7.216C.4,31.071,3.923,34.6,10.284,34.9c1.868.085,2.463.1,7.216.1s5.349-.02,7.216-.1c6.35-.292,9.89-3.818,10.178-10.179C34.98,22.849,35,22.253,35,17.5s-.02-5.348-.1-7.214C34.609,3.936,31.079.4,24.717.106,22.849.02,22.253,0,17.5,0Zm0,8.514A8.987,8.987,0,1,0,26.486,17.5,8.987,8.987,0,0,0,17.5,8.514Zm0,14.82A5.833,5.833,0,1,1,23.333,17.5,5.833,5.833,0,0,1,17.5,23.333ZM26.842,6.059a2.1,2.1,0,1,0,2.1,2.1A2.1,2.1,0,0,0,26.842,6.059Z" fill="#ff5722"/>
</svg>
