<svg id="Group_2565" data-name="Group 2565" xmlns="http://www.w3.org/2000/svg" xmlns:xlink="http://www.w3.org/1999/xlink" width="69.976" height="70.653" viewBox="0 0 69.976 70.653">
  <defs>
    <clipPath id="clip-path">
      <rect id="Rectangle_385" data-name="Rectangle 385" width="69.976" height="70.653" fill="none" stroke="#ff5722" stroke-width="3"/>
    </clipPath>
  </defs>
  <g id="Group_2564" data-name="Group 2564" clip-path="url(#clip-path)">
    <path id="Path_30" data-name="Path 30" d="M26.158,56.085H6.718A2.718,2.718,0,0,1,4,53.367V6.718A2.718,2.718,0,0,1,6.718,4H64.571a2.718,2.718,0,0,1,2.718,2.718v44.02" transform="translate(-2.816 -2.816)" fill="none" stroke="#ff5722" stroke-linecap="round" stroke-linejoin="round" stroke-width="3"/>
    <path id="Path_31" data-name="Path 31" d="M116.844,98.8a16.067,16.067,0,1,1-15.617-16.505A16.067,16.067,0,0,1,116.844,98.8Z" transform="translate(-59.648 -57.938)" fill="none" stroke="#ff5722" stroke-linecap="round" stroke-linejoin="round" stroke-width="3"/>
    <line id="Line_141" data-name="Line 141" x2="3.161" y2="3.34" transform="translate(52.662 52.599)" fill="none" stroke="#ff5722" stroke-linecap="round" stroke-linejoin="round" stroke-width="3"/>
    <path id="Path_32" data-name="Path 32" d="M195.226,196.6h0a3.129,3.129,0,0,1-4.423-.122l-9.844-10.4,4.545-4.3,9.844,10.4A3.128,3.128,0,0,1,195.226,196.6Z" transform="translate(-127.412 -127.983)" fill="none" stroke="#ff5722" stroke-linecap="round" stroke-linejoin="round" stroke-width="3"/>
    <line id="Line_142" data-name="Line 142" y2="16.958" transform="translate(32.656 31.938)" fill="none" stroke="#ff5722" stroke-linecap="round" stroke-linejoin="round" stroke-width="3"/>
    <line id="Line_143" data-name="Line 143" x1="16.05" transform="translate(32.656 48.896)" fill="none" stroke="#ff5722" stroke-linecap="round" stroke-linejoin="round" stroke-width="3"/>
    <path id="Path_33" data-name="Path 33" d="M137.737,122.26l-5.831,5.3-4.542-1.779-3.067,5.335" transform="translate(-87.517 -86.083)" fill="none" stroke="#ff5722" stroke-linecap="round" stroke-linejoin="round" stroke-width="3"/>
    <line id="Line_144" data-name="Line 144" x2="2.12" transform="translate(6.332 7.24)" fill="none" stroke="#ff5722" stroke-linecap="round" stroke-linejoin="round" stroke-width="3"/>
    <line id="Line_145" data-name="Line 145" x2="2.12" transform="translate(12.972 7.24)" fill="none" stroke="#ff5722" stroke-linecap="round" stroke-linejoin="round" stroke-width="3"/>
    <line id="Line_146" data-name="Line 146" x2="2.12" transform="translate(19.612 7.24)" fill="none" stroke="#ff5722" stroke-linecap="round" stroke-linejoin="round" stroke-width="3"/>
    <line id="Line_147" data-name="Line 147" x2="13.93" transform="translate(6.332 43.276)" fill="none" stroke="#ff5722" stroke-linecap="round" stroke-linejoin="round" stroke-width="3"/>
    <line id="Line_148" data-name="Line 148" y2="6.359" transform="translate(8.451 33.283)" fill="none" stroke="#ff5722" stroke-linecap="round" stroke-linejoin="round" stroke-width="3"/>
    <line id="Line_149" data-name="Line 149" y2="14.232" transform="translate(13.902 25.409)" fill="none" stroke="#ff5722" stroke-linecap="round" stroke-linejoin="round" stroke-width="3"/>
    <line id="Line_150" data-name="Line 150" y2="9.388" transform="translate(19.353 30.254)" fill="none" stroke="#ff5722" stroke-linecap="round" stroke-linejoin="round" stroke-width="3"/>
  </g>
</svg>
