<svg xmlns="http://www.w3.org/2000/svg" width="34.676" height="23.993" viewBox="0 0 34.676 23.993">
  <path id="Path_79" data-name="Path 79" d="M1661.6,101.068l-.019-.212a5.322,5.322,0,0,0-5.407-5.321c-3.863-.207-7.775-.312-11.629-.312s-7.766.1-11.636.312a5.323,5.323,0,0,0-5.4,5.333l-.018.2a67.2,67.2,0,0,0,.019,12.515,5.322,5.322,0,0,0,5.407,5.321c3.863.207,7.776.312,11.629.312s7.766-.1,11.636-.312a5.324,5.324,0,0,0,5.4-5.333,67.158,67.158,0,0,0,.018-12.5m-20.378,11.452v-10.2l9.065,5.1Z" transform="translate(-1627.21 -95.223)" fill="#ff5722"/>
</svg>
