<svg xmlns="http://www.w3.org/2000/svg" width="204.623" height="49.176" viewBox="0 0 204.623 49.176">
  <g id="Group_2548" data-name="Group 2548" transform="translate(-57.633 -44)">
    <g id="Group_2651" data-name="Group 2651">
      <path id="Menu_One_Copy" data-name="Menu One Copy" d="M-99.992,0h.768a.743.743,0,0,0,.768-.544l.624-1.648H-93l.624,1.648a.78.78,0,0,0,.8.544h.768c.5,0,.7-.32.528-.784l-3.84-9.872A.773.773,0,0,0-94.9-11.2h-1.04a.773.773,0,0,0-.784.544L-100.52-.784C-100.7-.32-100.488,0-99.992,0Zm2.656-3.872,1.92-5.2,1.92,5.2ZM-74.552-11.2H-80.6a.607.607,0,0,0-.672.672V-.672A.607.607,0,0,0-80.6,0h.768a.607.607,0,0,0,.672-.672v-4h3.936a.631.631,0,0,0,.688-.688v-.32a.619.619,0,0,0-.688-.672H-79.16V-9.424h4.608a.631.631,0,0,0,.688-.688v-.416A.619.619,0,0,0-74.552-11.2Zm16.544,0h-6.048a.607.607,0,0,0-.672.672V-.672A.607.607,0,0,0-64.056,0h.768a.607.607,0,0,0,.672-.672v-4h3.936a.631.631,0,0,0,.688-.688v-.32a.619.619,0,0,0-.688-.672h-3.936V-9.424h4.608a.631.631,0,0,0,.688-.688v-.416A.619.619,0,0,0-58.008-11.2ZM-47.512,0h.768a.607.607,0,0,0,.672-.672v-9.856a.607.607,0,0,0-.672-.672h-.768a.607.607,0,0,0-.672.672V-.672A.607.607,0,0,0-47.512,0ZM-35.4,0h5.856a.619.619,0,0,0,.688-.672v-.416a.631.631,0,0,0-.688-.688H-33.96v-8.752a.607.607,0,0,0-.672-.672H-35.4a.607.607,0,0,0-.672.672V-.672A.607.607,0,0,0-35.4,0Zm16.064,0h.768A.607.607,0,0,0-17.9-.672v-9.856a.607.607,0,0,0-.672-.672h-.768a.607.607,0,0,0-.672.672V-.672A.607.607,0,0,0-19.336,0ZM-8.328,0h.768a.743.743,0,0,0,.768-.544l.624-1.648h4.832L-.712-.544A.78.78,0,0,0,.088,0H.856c.5,0,.7-.32.528-.784l-3.84-9.872A.773.773,0,0,0-3.24-11.2H-4.28a.773.773,0,0,0-.784.544L-8.856-.784C-9.032-.32-8.824,0-8.328,0Zm2.656-3.872,1.92-5.2,1.92,5.2ZM16.5-11.2H8.728a.607.607,0,0,0-.672.672v.416a.619.619,0,0,0,.672.688H11.56V-.672A.607.607,0,0,0,12.232,0h.752a.607.607,0,0,0,.672-.672V-9.424H16.5a.619.619,0,0,0,.672-.688v-.416A.607.607,0,0,0,16.5-11.2ZM32.776-9.424a.619.619,0,0,0,.672-.688v-.416a.607.607,0,0,0-.672-.672H26.744a.607.607,0,0,0-.672.672V-.672A.607.607,0,0,0,26.744,0h6.032a.607.607,0,0,0,.672-.672v-.416a.619.619,0,0,0-.672-.688H28.184v-2.9h3.9a.631.631,0,0,0,.688-.688v-.32a.619.619,0,0,0-.688-.672h-3.9V-9.424ZM54.728,0H55.5a.607.607,0,0,0,.672-.672V-4.48H60.84V-.672A.607.607,0,0,0,61.512,0h.768a.607.607,0,0,0,.672-.672v-9.856a.607.607,0,0,0-.672-.672h-.768a.607.607,0,0,0-.672.672v4.32H56.168v-4.32A.607.607,0,0,0,55.5-11.2h-.768a.607.607,0,0,0-.672.672V-.672A.607.607,0,0,0,54.728,0ZM77.336.176A4.229,4.229,0,0,0,81.88-4.208v-6.32a.607.607,0,0,0-.672-.672H80.44a.607.607,0,0,0-.672.672v6.32A2.334,2.334,0,0,1,77.336-1.68,2.334,2.334,0,0,1,74.9-4.208v-6.32a.607.607,0,0,0-.672-.672h-.768a.607.607,0,0,0-.672.672v6.32A4.229,4.229,0,0,0,77.336.176ZM97.848-5.776A2.48,2.48,0,0,0,99.8-8.224c0-1.856-1.616-2.976-3.84-2.976H92.392a.607.607,0,0,0-.672.672V-.672A.607.607,0,0,0,92.392,0h4.064c2.32,0,3.872-1.216,3.872-3.072A2.681,2.681,0,0,0,97.848-5.776ZM95.864-9.5c1.008,0,1.824.528,1.824,1.488,0,.832-.656,1.648-2.32,1.648H93.832V-9.5Zm.544,7.776H93.832V-4.912h1.9c1.744,0,2.48.848,2.48,1.712S97.5-1.728,96.408-1.728Z" transform="translate(161.256 93)" fill="#fff"/>
      <g id="truetraveller-logo" transform="translate(53.133 34.9)">
        <g id="Group_2542" data-name="Group 2542" transform="translate(4.5 9.1)">
          <path id="Path_4" data-name="Path 4" d="M7.488,32.473V22.879H5.234a.7.7,0,0,1-.734-.786V20.677a.663.663,0,0,1,.734-.734H7.541l.682-4.194A1.105,1.105,0,0,1,9.376,14.7h.786a1.035,1.035,0,0,1,1.1,1.153V20H16.3a.663.663,0,0,1,.734.734v1.416a.7.7,0,0,1-.734.786H11.263v9.751c0,1.992.944,2.726,2.15,2.726a1.968,1.968,0,0,0,2.15-1.992,3.48,3.48,0,0,0-.052-.682c-.052-.524.157-.839.682-.839h1.678a.764.764,0,0,1,.839.682,6.257,6.257,0,0,1,.157,1.363c0,2.726-1.992,4.771-5.5,4.771C10.372,38.712,7.488,37.191,7.488,32.473Z" transform="translate(-4.5 -11.764)" fill="#ff5722"/>
          <path id="Path_5" data-name="Path 5" d="M35.6,41.358V25.63a1.227,1.227,0,0,1,1.363-1.311h1.1a1.188,1.188,0,0,1,1.311,1.311v2.779C40,25.473,42.1,23.9,44.3,23.9l.786.052c.786.1.891.734.891,1.468v1.049c0,.891-.367,1.258-1,1.153a6.423,6.423,0,0,0-1-.1c-1.311,0-4.614.682-4.614,8.179v5.662a1.188,1.188,0,0,1-1.311,1.311h-1.1A1.2,1.2,0,0,1,35.6,41.358Z" transform="translate(-19.295 -16.141)" fill="#ff5722"/>
          <path id="Path_6" data-name="Path 6" d="M58.5,35.081v-9.07A1.188,1.188,0,0,1,59.811,24.7h1.1a1.227,1.227,0,0,1,1.363,1.311v9.017c0,3.722,1.678,5.138,3.617,5.138,1.887,0,5.715-1.311,5.715-6.868V26.011A1.188,1.188,0,0,1,72.917,24.7h1.1a1.227,1.227,0,0,1,1.363,1.311V41.739a1.227,1.227,0,0,1-1.363,1.311h-1.1a1.188,1.188,0,0,1-1.311-1.311V39.484c-.786,2.569-3.146,3.984-6.134,3.984C61.436,43.469,58.5,40.8,58.5,35.081Z" transform="translate(-30.189 -16.521)" fill="#ff5722"/>
          <path id="Path_7" data-name="Path 7" d="M96.2,33.547a9.618,9.618,0,0,1,9.909-9.647c4.614,0,8.86,2.726,9.332,8.6a1.127,1.127,0,0,1-1.258,1.363H99.975c-.1,3.408,2.726,5.924,6.711,5.924a8.692,8.692,0,0,0,4.981-1.52,1.343,1.343,0,0,1,1.887.21l.262.315a1.323,1.323,0,0,1-.262,2.1,10.635,10.635,0,0,1-6.92,2.254C100.184,43.088,96.2,38.789,96.2,33.547Zm15.518-2.464a5.319,5.319,0,0,0-5.557-3.984,5.919,5.919,0,0,0-5.924,3.984Z" transform="translate(-48.124 -16.141)" fill="#ff5722"/>
          <path id="Path_8" data-name="Path 8" d="M136.888,32.473V22.879h-2.254a.7.7,0,0,1-.734-.786V20.677a.663.663,0,0,1,.734-.734h2.307l.682-4.194a1.105,1.105,0,0,1,1.153-1.049h.786a1.035,1.035,0,0,1,1.1,1.153V20H145.7a.663.663,0,0,1,.734.734v1.416a.7.7,0,0,1-.734.786h-5.033v9.751c0,1.992.944,2.726,2.15,2.726a1.968,1.968,0,0,0,2.15-1.992,3.48,3.48,0,0,0-.052-.682c-.052-.524.157-.839.682-.839h1.678a.764.764,0,0,1,.839.682,6.257,6.257,0,0,1,.157,1.363c0,2.726-1.992,4.771-5.5,4.771C139.772,38.712,136.888,37.191,136.888,32.473Z" transform="translate(-66.059 -11.764)" fill="#fff"/>
          <path id="Path_9" data-name="Path 9" d="M165,41.358V25.63a1.227,1.227,0,0,1,1.363-1.311h1.1a1.188,1.188,0,0,1,1.311,1.311v2.779C169.4,25.473,171.5,23.9,173.7,23.9l.786.052c.786.1.891.734.891,1.468v1.049c0,.891-.367,1.258-1,1.153a6.423,6.423,0,0,0-1-.1c-1.311,0-4.614.682-4.614,8.179v5.662a1.188,1.188,0,0,1-1.311,1.311h-1.1A1.2,1.2,0,0,1,165,41.358Z" transform="translate(-80.854 -16.141)" fill="#fff"/>
          <path id="Path_10" data-name="Path 10" d="M185.3,33.394c0-5.3,3.617-9.594,9.07-9.594a7.555,7.555,0,0,1,6.553,3.3V25.53a1.227,1.227,0,0,1,1.363-1.311h1.1A1.188,1.188,0,0,1,204.7,25.53V41.258a1.188,1.188,0,0,1-1.311,1.311h-1.1a1.227,1.227,0,0,1-1.363-1.311V39.685a7.555,7.555,0,0,1-6.553,3.3C188.917,43.041,185.3,38.689,185.3,33.394Zm15.728,0a6.02,6.02,0,0,0-6.134-6.291c-3.722,0-5.819,2.883-5.819,6.291,0,3.46,2.15,6.291,5.819,6.291C198.512,39.738,200.976,37.064,201.028,33.394Z" transform="translate(-90.512 -16.093)" fill="#fff"/>
          <path id="Path_11" data-name="Path 11" d="M233.835,41.953,227.7,26.12c-.315-.891.052-1.52,1.049-1.52h1.206a1.43,1.43,0,0,1,1.52,1.049l4.876,13.159,4.876-13.159a1.507,1.507,0,0,1,1.52-1.049h1.206c1,0,1.363.577,1.049,1.52l-6.134,15.833A1.592,1.592,0,0,1,237.295,43h-1.887A1.639,1.639,0,0,1,233.835,41.953Z" transform="translate(-110.631 -16.474)" fill="#fff"/>
          <path id="Path_12" data-name="Path 12" d="M262.3,33.547a9.618,9.618,0,0,1,9.909-9.647c4.614,0,8.86,2.726,9.332,8.6a1.127,1.127,0,0,1-1.258,1.363H266.075c-.1,3.408,2.726,5.924,6.711,5.924a8.693,8.693,0,0,0,4.981-1.52,1.343,1.343,0,0,1,1.887.21l.262.315a1.323,1.323,0,0,1-.262,2.1,10.635,10.635,0,0,1-6.92,2.254C266.284,43.088,262.3,38.789,262.3,33.547Zm15.518-2.464a5.319,5.319,0,0,0-5.557-3.984,5.919,5.919,0,0,0-5.924,3.984Z" transform="translate(-127.143 -16.141)" fill="#fff"/>
          <path id="Path_13" data-name="Path 13" d="M304.5,34.317V10.411A1.227,1.227,0,0,1,305.863,9.1h1.1a1.188,1.188,0,0,1,1.311,1.311V34.265a1.188,1.188,0,0,1-1.311,1.311h-1.153A1.129,1.129,0,0,1,304.5,34.317Z" transform="translate(-147.218 -9.1)" fill="#fff"/>
          <path id="Path_14" data-name="Path 14" d="M320.2,34.317V10.411A1.227,1.227,0,0,1,321.563,9.1h1.1a1.188,1.188,0,0,1,1.311,1.311V34.265a1.188,1.188,0,0,1-1.311,1.311h-1.1A1.167,1.167,0,0,1,320.2,34.317Z" transform="translate(-154.687 -9.1)" fill="#fff"/>
          <path id="Path_15" data-name="Path 15" d="M333.1,33.547a9.618,9.618,0,0,1,9.909-9.647c4.614,0,8.86,2.726,9.332,8.6a1.127,1.127,0,0,1-1.258,1.363H336.875c-.1,3.408,2.726,5.924,6.711,5.924a8.693,8.693,0,0,0,4.981-1.52,1.343,1.343,0,0,1,1.887.21l.262.315a1.323,1.323,0,0,1-.262,2.1,10.636,10.636,0,0,1-6.92,2.254C337.084,43.088,333.1,38.789,333.1,33.547Zm15.518-2.464a5.319,5.319,0,0,0-5.557-3.984,5.919,5.919,0,0,0-5.924,3.984Z" transform="translate(-160.824 -16.141)" fill="#fff"/>
          <path id="Path_16" data-name="Path 16" d="M375,41.358V25.63a1.227,1.227,0,0,1,1.363-1.311h1.1a1.188,1.188,0,0,1,1.311,1.311v2.779C379.4,25.473,381.5,23.9,383.7,23.9l.786.052c.786.1.891.734.891,1.468v1.049c0,.891-.367,1.258-1,1.153a6.422,6.422,0,0,0-1-.1c-1.311,0-4.614.682-4.614,8.179v5.662a1.188,1.188,0,0,1-1.311,1.311h-1.1A1.227,1.227,0,0,1,375,41.358Z" transform="translate(-180.757 -16.141)" fill="#fff"/>
        </g>
        <g id="Group_2544" data-name="Group 2544" transform="translate(103.516 13.084)">
          <g id="Group_2543" data-name="Group 2543">
            <path id="Path_17" data-name="Path 17" d="M202.152,35.4h-.157a.781.781,0,0,1-.629-.682l-.577-5.348-5.19.157a.789.789,0,0,1-.734-.524.772.772,0,0,1,.315-.891l14.784-9.8a.565.565,0,0,1,.419-.1.673.673,0,0,1,.524.21.788.788,0,0,1,.157.944l-8.283,15.728A.817.817,0,0,1,202.152,35.4Z" transform="translate(-194.059 -17.414)" fill="#ff5722"/>
            <path id="Path_18" data-name="Path 18" d="M209.687,18.22h0m0,0L201.4,33.949l-.629-6.082-5.872.157,14.784-9.8m0-1.52h-.052a1.288,1.288,0,0,0-.786.262l-14.784,9.8a1.506,1.506,0,0,0,.839,2.779h.052l4.456-.157.472,4.666a1.556,1.556,0,0,0,1.258,1.363,2.272,2.272,0,0,1,.262.052,1.511,1.511,0,0,0,1.363-.839l8.283-15.676a1.737,1.737,0,0,0,.21-.786,1.6,1.6,0,0,0-1.573-1.468Zm0,3.041Z" transform="translate(-193.363 -16.7)" fill="#37474f"/>
          </g>
          <path id="Path_19" data-name="Path 19" d="M211.084,19.6,196.3,29.4l5.872-.157" transform="translate(-194.76 -18.08)" fill="#ff7043"/>
        </g>
      </g>
    </g>
  </g>
</svg>
