<svg height="71" viewBox="0 0 59 71" width="59" xmlns="http://www.w3.org/2000/svg" xmlns:xlink="http://www.w3.org/1999/xlink"><mask id="a" fill="#fff"><path d="m0 .11773418h58.4360508v69.98353162h-58.4360508z" fill="#fff" fill-rule="evenodd"/></mask><g fill="#ff5722" fill-rule="evenodd"><path d="m16.5937954 33.7937532h-3.9166923c-1.4632 0-2.6522769 1.1782405-2.6522769 2.6261012 0 1.4469621 1.1890769 2.6243038 2.6522769 2.6243038h3.9166923c1.4622923 0 2.6522769-1.1773417 2.6522769-2.6243038 0-1.4478607-1.1899846-2.6261012-2.6522769-2.6261012"/><path d="m16.5937954 45.9627038h-3.9166923c-1.4632 0-2.6522769 1.1782405-2.6522769 2.6261013 0 1.4478607 1.1890769 2.6261012 2.6522769 2.6261012h3.9166923c1.4622923 0 2.6522769-1.1782405 2.6522769-2.6261012 0-1.4478608-1.1899846-2.6261013-2.6522769-2.6261013"/><path d="m16.5937954 21.6222861h-3.9166923c-1.4632 0-2.6522769 1.1791392-2.6522769 2.627 0 1.446962 1.1890769 2.6252025 2.6522769 2.6252025h3.9166923c1.4622923 0 2.6522769-1.1782405 2.6522769-2.6252025 0-1.4478608-1.1899846-2.627-2.6522769-2.627"/><path d="m45.2436508 15.1880684v40.9040886c0 .5059873-.2024154.9850126-.5682154 1.349-.3694308.364886-.8532308.5662025-1.3642616.5662025h-36.08167688c-.51375384 0-.99755384-.1986203-1.35790769-.5563165-.36761538-.3657848-.57093846-.8493038-.57093846-1.358886v-40.9040886c0-.514076.20241538-.997595.56912308-1.3615823.36216923-.358595.84415384-.5563165 1.35972307-.5563165h36.08167688c.4747231 0 .9249385.1707595 1.2798462.4826203l.0826.0817848c.3676154.3648861.5700308.8466076.5700308 1.3534937zm-35.95641542-7.17010131v-1.7408481c.05264616-.2076076.18426154-.40263291.37215385-.55541772.28410769-.22827849.67804617-.35410127 1.10829227-.35410127h29.0216462c.4302461 0 .8223692.12582278 1.1092.3576962.1842615.14739241.3104308.33432912.3594461.53025317v1.76241772zm31.97073842 55.23710131v.6884303c-.0517384.2022152-.1824461.3936456-.3721538.5464304-.2850154.2318734-.6744154.3594937-1.0964923.3594937h-29.0216462c-.4266153 0-.81601535-.1267215-1.10012304-.358595-.14069231-.1123417-.31406154-.2992784-.38032308-.564405v-.6713544zm9.2893231-26.0965443h2.5842v-4.2015823h-2.5842zm5.2373846-9.4537849h-5.2364769v-12.5166708c0-1.907114-.7542923-3.7054811-2.1230923-5.0643671l-.6471846-.63181016-.0408462.04044304c-.3667077-.28310127-.7597384-.5311519-1.1745538-.73965823v-2.80135443l-.0190615-.22468355c-.1878924-1.60244303-1.0066308-3.0610886-2.3055385-4.10991139-1.2371846-.99220253-2.8165692-1.53953164-4.4486-1.53953164h-29.0216462c-1.63384612 0-3.21232304.54643038-4.44496919 1.53773417-1.29618462 1.04432912-2.11855385 2.49668355-2.31643077 4.08205064l-.02269231 3.04940506c-.68530769.34331646-1.3098.79358228-1.86530769 1.34270889-1.36607692 1.3570886-2.11855385 3.1536582-2.11855385 5.0589747v40.9040886c0 1.9035189.75247693 3.6991898 2.11855385 5.0571772.5546.5482278 1.17909231.9975949 1.86530769 1.3400126v1.7462405l.02178462.2210886c.19878461 1.5952532 1.02115384 3.0503038 2.31824615 4.1000254 1.23355385.9957974 2.81203077 1.544924 4.4440615 1.544924h29.0216462c1.6392923 0 3.2204923-.550924 4.4522308-1.548519 1.2961846-1.047924 2.1140153-2.5101645 2.3028153-4.1224936l.0181539-1.9412659c.6862154-.3424177 1.3098-.7890886 1.8616769-1.3346202 1.3697077-1.3552912 2.124-3.1527595 2.124-5.0625696v-13.6814304h5.2364769c1.4622923 0 2.6513693-1.1782405 2.6513693-2.6261013v-9.4537848c0-1.4487595-1.189077-2.6261013-2.6513693-2.6261013z" mask="url(#a)" transform="translate(0 .78109)"/><path d="m27.2316769 33.7937532h-3.9176c-1.4622923 0-2.6513692 1.1782405-2.6513692 2.6261012 0 1.4469621 1.1890769 2.6243038 2.6513692 2.6243038h3.9176c1.4613846 0 2.6513693-1.1773417 2.6513693-2.6243038 0-1.4478607-1.1899847-2.6261012-2.6513693-2.6261012"/><path d="m27.2316769 45.9627038h-3.9176c-1.4622923 0-2.6513692 1.1782405-2.6513692 2.6261013 0 1.4478607 1.1890769 2.6261012 2.6513692 2.6261012h3.9176c1.4613846 0 2.6513693-1.1782405 2.6513693-2.6261012 0-1.4478608-1.1899847-2.6261013-2.6513693-2.6261013"/><path d="m37.8686508 45.9627038h-3.9176c-1.4632 0-2.652277 1.1782405-2.652277 2.6261013 0 1.4478607 1.189077 2.6261012 2.652277 2.6261012h3.9176c1.4613846 0 2.6513692-1.1782405 2.6513692-2.6261012 0-1.4478608-1.1899846-2.6261013-2.6513692-2.6261013"/><path d="m37.8686508 33.7937532h-3.9176c-1.4632 0-2.652277 1.1782405-2.652277 2.6261012 0 1.4469621 1.189077 2.6243038 2.652277 2.6243038h3.9176c1.4613846 0 2.6513692-1.1773417 2.6513692-2.6243038 0-1.4478607-1.1899846-2.6261012-2.6513692-2.6261012"/><path d="m37.8686508 21.6222861h-3.9176c-1.4632 0-2.652277 1.1791392-2.652277 2.627 0 1.446962 1.189077 2.6252025 2.652277 2.6252025h3.9176c1.4613846 0 2.6513692-1.1782405 2.6513692-2.6252025 0-1.4478608-1.1899846-2.627-2.6513692-2.627"/><path d="m27.2316769 21.6222861h-3.9176c-1.4622923 0-2.6513692 1.1791392-2.6513692 2.627 0 1.446962 1.1890769 2.6252025 2.6513692 2.6252025h3.9176c1.4613846 0 2.6513693-1.1782405 2.6513693-2.6252025 0-1.4478608-1.1899847-2.627-2.6513693-2.627"/></g></svg>