<svg height="68" viewBox="0 0 84 68" width="84" xmlns="http://www.w3.org/2000/svg" xmlns:xlink="http://www.w3.org/1999/xlink"><mask id="a" fill="#fff"><path d="m.00082136.00036267h83.60356574v67.17856003h-83.60356574z" fill="#fff" fill-rule="evenodd"/></mask><path d="m76.4956387 60.8615413c-.467871.30464-1.0350968.60112-1.5707097.6256-1.688129.0806934-3.3816774.0308267-5.1637419.0308267v-46.46032c1.8407742 0 3.6743226-.1695467 5.4618064.0498667 1.6384517.2030933 2.607613 1.5739733 2.7656775 3.2658133.0298064.3118933.0406451.6274133.0406451.94112.0027097 12.6325867-.0018064 25.2651733.0072258 37.89776.0009033 1.44976-.2303225 2.7952533-1.5409032 3.6493333zm-56.9655484.6491734h44.5651613v-46.5020267h-44.5651613zm11.1710968-52.24757337h22.195871v-3.58586666h-22.195871zm-16.8415484 52.14149337c-1.8895484 0-3.7682581.1505066-5.60903225-.04896-1.41174193-.15232-2.21832258-1.28112-2.53174193-2.6701334-.09754839-.4306666-.12825807-.884-.12825807-1.3255466-.00632258-12.7386667-.0072258-25.4764267-.00451613-38.2141867.00090323-2.22496.93574194-3.56592 2.82258065-4.0863467.10025806-.0272.2032258-.068.30438709-.068 1.69083874-.0045333 3.38167744-.0036266 5.14658064-.0037006zm69.7308387-42.5752534c-.0009032-.78064-.0596129-1.5821333-.2438709-2.3355733-1.0522581-4.2930667-4.7292904-7.13818667-9.2409033-7.15632-4.8828387-.02085333-9.7665806-.00453333-14.6503226-.00453333h-.9285161c0-1.52048.0036129-2.90858667-.0009032-4.29578667-.0090323-3.06181333-1.9464516-5.00842667-5.0020645-5.01024-7.8083871-.00544-15.6176774.04624-23.4251613-.0272-2.8207742-.02538667-5.152 2.23584-4.9939355 5.04832.0767742 1.38176.0126452 2.77077333.0126452 4.28490667h-1.0305807c-4.7536774 0-9.508258.06981333-14.26012902-.01904-5.53587096-.10245334-9.88580645 4.29669333-9.82529032 9.84549333.1363871 12.7386667.04064516 25.4800533.04696774 38.2205333 0 .68.00270968 1.3699734.11109678 2.0381867.72348387 4.47168 4.61277419 7.7429333 9.30774193 7.74656 21.57264519.0172267 43.14438709.02176 64.71522579-.0018133 5.367871-.0063467 9.408-4.1090134 9.4143226-9.4837334.0144516-12.94992.008129-25.89984-.0063226-38.84976z" fill="#ff5722" fill-rule="evenodd" mask="url(#a)"/></svg>