<svg height="72" viewBox="0 0 71 72" width="71" xmlns="http://www.w3.org/2000/svg" xmlns:xlink="http://www.w3.org/1999/xlink"><mask id="a" fill="#fff"><path d="m.00053924 0h70.47603796v71.802h-70.47603796z" fill="#fff" fill-rule="evenodd"/></mask><path d="m58.4119696 65.35449c.9895063.4689 1.7165823.6129 2.1848228.4374v-.6129c0-.5841-.1752532-1.3122-.523962-2.1879-.5248608-1.1691-1.224076-2.2761-2.0976456-3.3264-.7028101-.9936-1.4901013-1.7811-2.3636709-2.3661-.6992152-.5256-1.3418101-.8748-1.9232911-1.0503-.5832785-.1755-.9607469-.2061-1.136-.0873-.1743544.1152-.2498481.4815-.2183924 1.0935.0287595.6129.2183924 1.3005.568 2.0574.4053291.9936 1.0182658 1.9845 1.8352152 2.979 1.1647595 1.4004 2.3915316 2.4228 3.674924 3.0636zm-20.5468607-21.1914-5.2504051-5.7771h-11.1074557c-.8735696 0-1.5727848-.2781-2.0967468-.8343-.5239621-.5535-.7863924-1.269-.7863924-2.1447s.2624303-1.575.7863924-2.1006c.523962-.5247 1.2231772-.7875 2.0967468-.7875h5.8633418l-4.3768355-4.9923c-3.4394557.4653-6.5553671 1.1655-9.3522278 2.1006-2.5092658.8748-4.48917723 1.8414-5.95051901 2.8917-1.45415189 1.0503-2.18392405 2.0124-2.18392405 2.8881 0 1.2258 1.22317722 2.5101 3.67043038 3.8547 2.62879748 1.4004 6.03769618 2.538 10.23298738 3.4137 4.7821645.9909 9.9696582 1.4877 15.5642784 1.4877zm-5.3384811-17.6868c-.936481.0558-1.6914177.0279-2.272-.0873l4.9825823 5.8671h11.630519c.8744684 0 1.588962.2628 2.1416836.7875.5554177.5256.8304303 1.2258.8304303 2.1015 0 .8748-.2750126 1.575-.8304303 2.1006-.5527216.5247-1.2672152.7875-2.1416836.7875h-6.6452405l4.6347722 5.2542c3.8456835-.4653 7.3147974-1.1682 10.4046455-2.1006 2.799557-.8748 5.0131393-1.854 6.6461393-2.9349 1.6321012-1.0782 2.4472531-2.1168 2.4472531-3.1068 0-1.2258-1.2240759-2.511-3.6713291-3.852-2.6225063-1.4031-6.0341012-2.5407-10.2320886-3.4164-4.7201519-.9945-9.8806835-1.4877-15.4771013-1.4877zm-19.4971392-12.2607c.7558355.4662 1.4235949.7884 2.0104684.963.5805822.1746.9868101.2034 1.2240759.0873v-.5247c0-.585-.1752532-1.3446-.5248607-2.2761-.4682406-1.1691-1.1674557-2.2752-2.0976456-3.3291-.6992152-.9342-1.4604431-1.7226-2.2791899-2.3634-.6992152-.5247-1.3543924-.8748-1.96643037-1.0503-.61203798-.1746-1.03624051-.2061-1.26721519-.0873-.11863291.1746-.14289873.5256-.08717722 1.0503.05662026.6408.26153165 1.3725.61203798 2.1879.41162025.9945 1.02275949 1.9566 1.8352152 2.8917.8178481.9909 1.6662532 1.8072 2.5407215 2.4507zm43.4555949 57.0942c-1.162962-.4689-2.3034557-1.1259-3.4088987-1.9701-1.1072405-.8469-2.0976456-1.8252-2.9739114-2.9349-2.5065696-3.4452-3.759405-6.5646-3.759405-9.369 0-.5841.1761519-1.4598.5248607-2.6253l-4.0236329-4.6422c-1.5727848.1746-4.1081139.2628-7.6068861.2628-6.0062405 0-11.6323164-.5571-16.8755316-1.6641-5.5388988-1.1682-9.91483546-2.7999-13.11702534-4.9041-3.49697468-2.2761-5.24411392-4.9608-5.24411392-8.0559 0-3.0942 1.74713924-5.8086 5.24411392-8.1432 3.32082279-2.2194 7.78483544-3.8826 13.37945574-4.9923l-1.1368988-1.1376c-1.7480379.2907-3.6461645-.0594-5.6808987-1.0503-2.04192406-.9945-3.94005064-2.4822-5.68808862-4.4676-1.04882278-1.1655-1.83611392-2.3787-2.36007594-3.6324-.52486076-1.2564-.72977216-2.3787-.61113925-3.3723-.17525316-.4095-.26243037-1.1106-.26243037-2.1006 0-2.3355.66775949-4.086 2.00956962-5.2551.87446835-.7011 1.95474683-1.1097 3.2345443-1.2258 1.28608861-.1188 2.65306326.1161 4.11440506.7002 1.1611646.4662 2.2980633 1.1259 3.4088987 1.9692 1.1045443.8478 2.0976456 1.8261 2.972114 2.9358 1.9223924 2.2752 3.177924 4.7295 3.7576076 7.3557.2309746.9909.1437974 2.4507-.2624304 4.3794l3.4969747 4.0266c4.313924-.3501 7.5233038-.5256 9.6209493-.5256 6.0619621 0 11.6871393.5535 16.8782279 1.6632 5.5371012 1.1097 9.9085443 2.7162 13.1170253 4.8168 3.4960759 2.2761 5.2441139 4.9617 5.2441139 8.0559 0 3.3291-1.9817088 6.1866-5.9460253 8.5806-3.5553924 2.1609-8.4543924 3.7953-14.6907089 4.905l1.4011266 1.7505c1.6303038-.2907 3.4529367.0441 5.4634051 1.0062 2.0131645.9666 3.8924177 2.4669 5.6404557 4.5117 2.2162785 2.6253 3.4996709 5.2983 3.8492785 8.0118.3496076 2.7162-.3496076 4.8015-2.1012405 6.2613-1.748038 1.4598-4.2824684 1.7505-7.6077849.8757z" fill="#ff5722" fill-rule="evenodd" mask="url(#a)"/></svg>