<?xml version="1.0" encoding="utf-8"?>
<!-- Generator: Adobe Illustrator 26.3.1, SVG Export Plug-In . SVG Version: 6.00 Build 0)  -->
<svg version="1.1" id="Layer_1" xmlns="http://www.w3.org/2000/svg" xmlns:xlink="http://www.w3.org/1999/xlink" x="0px" y="0px"
	 viewBox="0 0 75.6 72.1" style="enable-background:new 0 0 75.6 72.1;" xml:space="preserve">
<style type="text/css">
	.st0{fill:#36474F;}
</style>
<g>
	<path class="st0" d="M11.6,22.7c2.6-4.3,6-7.8,10.3-10.3c4.4-2.6,9.3-3.9,14.5-3.9v5.7c-3,0-5.9,0.6-8.6,1.7v9.3h8.6v5.7h-8.6v11.5
		h8.6v5.7h-8.6v10.3c2.8,1.1,5.6,1.7,8.6,1.7v5.7c-5.2,0-10-1.3-14.5-3.9c-4.3-2.6-7.8-6-10.3-10.3c-2.6-4.4-3.9-9.3-3.9-14.5
		C7.6,32,8.9,27.1,11.6,22.7z M22,30.9h-7.9c-0.4,1.9-0.7,3.8-0.8,5.7c-0.1,2,0.2,3.9,0.8,5.7H22V30.9z M16.5,25.2H22v-5.9
		C19.7,20.8,17.8,22.8,16.5,25.2z M22,55v-6.9h-5.5C17.8,50.9,19.6,53.2,22,55L22,55z M53.6,25.7c2.6,0,5,0.6,7.2,1.9
		c2.2,1.3,3.9,3,5.2,5.2C67.3,35,68,37.4,68,40v8.6c0,0.7-0.3,1.3-0.9,1.8c-0.6,0.5-1.2,0.7-2,0.5h-2.9v12c0,0.8-0.3,1.4-0.9,1.9
		c-0.6,0.5-1.2,0.7-2,0.5H47.8c-0.7,0.1-1.4-0.1-2-0.5C45.3,64.4,45,63.8,45,63V51h-2.9c-0.7,0.1-1.4-0.1-2-0.5
		c-0.6-0.5-0.9-1.1-0.9-1.9V40c0-2.6,0.6-5,1.9-7.2c1.3-2.2,3-3.9,5.2-5.2C48.6,26.3,51,25.6,53.6,25.7L53.6,25.7z M62.2,17.1
		c0,1.6-0.4,3-1.2,4.3c-0.8,1.3-1.8,2.3-3.1,3.1c-1.3,0.8-2.7,1.1-4.3,1.1c-1.6,0-3-0.4-4.3-1.1c-1.3-0.8-2.4-1.8-3.1-3.1
		C45.4,20,45,18.6,45,17c0-1.6,0.4-3,1.1-4.3c0.8-1.3,1.8-2.4,3.1-3.1c1.3-0.8,2.8-1.1,4.3-1.1c1.6,0,3,0.4,4.3,1.1
		c1.3,0.8,2.4,1.8,3.1,3.1C61.8,14,62.2,15.4,62.2,17.1L62.2,17.1z M62.2,40c0-1.6-0.4-3-1.1-4.3c-0.8-1.3-1.8-2.4-3.1-3.1
		c-1.3-0.8-2.8-1.1-4.3-1.1c-1.6,0-3,0.4-4.3,1.1c-1.3,0.8-2.4,1.8-3.1,3.1C45.4,37,45,38.5,45,40v5.2h2.9c0.8,0.1,1.5,0.5,2.1,1.1
		c0.6,0.7,0.8,1.4,0.8,2.2v11h5.7v-11c0-0.8,0.2-1.6,0.8-2.2c0.6-0.7,1.3-1,2.1-1.1h2.9V40z M53.6,19.9c0.8,0,1.5-0.3,2-0.9
		c0.6-0.6,0.8-1.3,0.8-2.1c0-0.8-0.3-1.5-0.8-2c-0.6-0.6-1.2-0.8-2-0.8c-0.8,0-1.5,0.3-2,0.8c-0.6,0.6-0.8,1.2-0.8,2
		c0,0.8,0.3,1.5,0.8,2C52.1,19.6,52.8,19.9,53.6,19.9L53.6,19.9z"/>
</g>
</svg>
