<svg height="59" viewBox="0 0 59 59" width="59" xmlns="http://www.w3.org/2000/svg" xmlns:xlink="http://www.w3.org/1999/xlink"><mask id="a" fill="#fff"><path d="m0 0h59v59h-59z" fill="#fff" fill-rule="evenodd"/></mask><path d="m51.837394 19.4499379-6.1447895-6.142235-6.1447895-6.14474819 4.1551678-4.06801597 12.1136546 12.20237246zm1.0379542 21.2925786-11.5113228-11.5112454-5.7954538 4.7574676 14.4517742 9.1756547c.5755242.2898545 1.1803692.3761407 1.8170482.2588585.633328-.1172822 1.0815164-.4758306 1.3412144-1.0806715.2588603-.6056786.1566566-1.1367993-.3032602-1.6000639zm-11.0782136-19.4730295c.5219092-.5780336.7656902-1.2699984.738045-2.0792454-.0309962-.8058961-.3334187-1.4702158-.9114562-1.9896083-.5746865-.5185547-1.2700069-.7631718-2.0759084-.7355268-.8100902.0318338-1.4710635.3342542-1.9896217.9089369l-16.5276826 20.1675075.1725735.2596962.1725735.1725724zm-16.7882183 2.3355907 4.7608505-5.7987657-11.5113227-11.50789446c-.4632677-.46326458-.9952297-.60819184-1.6000747-.43226858-.6056828.17257234-.9667467.58976179-1.0815165 1.25408153-.117283.66431974 0 1.31272261.3459847 1.94604635zm-1.7299237 24.3167833-12.289579-12.2032102c-.5780375-.5746826-1.25492771-.8653749-2.03318394-.8653749s-1.45849741.2906923-2.03569713.8653749l16.35846007 16.361701c.5746865-.5813845.864543-1.2733494.864543-2.0825964 0-.8033828-.2898565-1.4953477-.864543-2.0758944zm35.3951604-3.9792166c-.4046263 1.3286394-1.0965957 2.4403069-2.0759085 3.329976-.9826637.8963709-2.1379008 1.4894836-3.4631983 1.773474-2.0206179.4079744-3.9515981.0871239-5.7988048-.9516611l-16.5285203-10.2069-5.1931221 4.1517889 1.8162105 1.817036c.8092524.809247 1.4434181 1.7416403 1.9066858 2.8114212.4599168 1.0689433.6919695 2.1806107.6919695 3.329976 0 1.1552295-.2320527 2.2677346-.6919695 3.3366779-.4632677 1.0689432-1.0974334 2.0013365-1.9066858 2.8114212l-1.9896217 1.9896083c-.5771997.5746827-1.25409.8645372-2.0331839.8645372-.7774185 0-1.4576597-.2898545-2.0323462-.8645372l-20.51027698-20.3342157c-.57803746-.5813845-.86538072-1.2607834-.86538072-2.0390343 0-.7790888.28734326-1.4526235.86538072-2.0331703l1.98962168-2.0758945c.8059015-.809247 1.74500294-1.4400575 2.81144016-1.9033221 1.06895043-.4632646 2.17727443-.6919648 3.33334935-.6919648 1.15188619 0 2.26104799.2287002 3.32999839.6919648s2.0047009 1.0940751 2.8147911 1.9033221l1.8162105 1.8161983 4.2422923-5.1034501-10.2136706-16.4446362c-1.09659571-1.9033221-1.44258045-3.92057548-1.03795423-6.05511104.28734323-1.32863948.87710903-2.4813557 1.77264823-3.46317504.8938637-.98014388 1.9896217-1.67127097 3.2906248-2.0767322 1.2976522-.4046235 2.5953044-.43226859 3.8921189-.08628617 1.2976522.34598241 2.4386479.97930615 3.4204738 1.90332213l11.1619871 11.16442522c1.0379542-1.2138705 2.3389574-2.0784077 3.8954699-2.5978002 1.5573501-.5185547 3.1297796-.5897618 4.718126-.2161343 1.5841577.3769785 2.9530174 1.1401503 4.1082546 2.2920288 1.152724 1.1560671 1.9184142 2.5274308 2.2928819 4.1124157.376981 1.5883357.3024225 3.1607545-.2161357 4.7172565-.519396 1.5573397-1.3847767 2.8549832-2.5953044 3.8895795l11.1645003 11.2515491c.921509.9273669 1.5581879 2.0390344 1.9041726 3.3366779.3459848 1.2976435.3149886 2.582721-.0871244 3.8493685z" fill="#ff5722" fill-rule="evenodd" mask="url(#a)"/></svg>