<svg height="49" viewBox="0 0 49 49" width="49" xmlns="http://www.w3.org/2000/svg" xmlns:xlink="http://www.w3.org/1999/xlink"><mask id="a" fill="#fff"><path d="m0 .00018148h48.3521111v48.48005552h-48.3521111z" fill="#fff" fill-rule="evenodd"/></mask><path d="m0 24.303637c0-1.2576666.33846296-2.3256851 1.02083333-3.2067777.67964815-.8810926 1.57253704-1.3220926 2.67866667-1.3220926h15.8206481v-15.92409263c0-1.02627777.4655-1.92461111 1.4028519-2.695.935537-.76857407 2.0416667-1.15603703 3.3165741-1.15603703 1.2758148 0 2.3383889.38746296 3.1904444 1.15603703.8484259.77038889 1.2758148 1.66872223 1.2758148 2.695v15.92409263h15.8188334c1.0208333 0 1.9137222.441 2.679574 1.3220926.7658519.8810926 1.1478704 1.9491111 1.1478704 3.2067777 0 1.2585741-.3820185 2.3066297-1.1478704 3.1441667-.7658518.8393519-1.6587407 1.2576667-2.679574 1.2576667h-15.8188334v16.0511296c0 1.1124815-.4056111 2.0108148-1.2122963 2.6968148-.8094074.686-1.8937592 1.0271852-3.2539629 1.0271852-1.3611111 0-2.4872037-.3411852-3.3800926-1.0271852s-1.3393334-1.5843333-1.3393334-2.6968148v-16.0511296h-15.8206481c-1.10612963 0-1.99901852-.3965371-2.67866667-1.1941482-.68237037-.7976111-1.02083333-1.8656296-1.02083333-3.2076852" fill="#ff5722" fill-rule="evenodd" mask="url(#a)"/></svg>