<svg height="59" viewBox="0 0 70 59" width="70" xmlns="http://www.w3.org/2000/svg" xmlns:xlink="http://www.w3.org/1999/xlink"><mask id="a" fill="#fff"><path d="m.00035897.00026818h69.78292223v58.87922882h-69.78292223z" fill="#fff" fill-rule="evenodd"/></mask><path d="m46.4292051 20.2873288-28.9961538-.0026818c-1.2465385 0-2.4302564.5015-3.3303846 1.4106363-.6982052.708-1.1603846 1.6046212-1.3353846 2.5933182h-.0816667l.0008974 17.1609546.0098718.1975606c.0628205 1.2005606.5626923 2.3331818 1.4071795 3.1877878.9019231.9100303 2.0847436 1.4097425 3.3294872 1.4097425l25.3974359-.0026818c.2629487 0 .5115384.0947575.7053846.2672878l.0367949.0375455c.1974359.1975606.3060256.4603788.3060256.7392879v5.4700151c0 .2547727-.0879487.4943485-.251282.6820758l-.0547436.0536363c-.2001282.1984546-.4639744.3075152-.7421795.3075152l-27.9282051.0044697c-2.6573077-.1197879-5.13333338-1.195197-6.9712821-3.0286667-1.82807692-1.8218485-2.83410256-4.2283333-2.83410256-6.7760606v-21.4688485c0-2.5504091 1.00602564-4.9568939 2.83320512-6.7787424 1.82807693-1.8182727 4.27717954-2.8901061 6.90846154-3.0224091h31.590641c1.4053846 0 2.5496154-1.1388788 2.5496154-2.5396818v-2.88474243l13.7083333 9.19237883-13.7083333 9.1923787v-2.8623939c0-1.400803-1.1442308-2.5396818-2.5496154-2.5396818m22.2285898-5.8964243-20.6392308-13.83371208c-.4487179-.36025757-1.0132051-.55692424-1.589359-.55692424-1.406282 0-2.5505128 1.13887879-2.5505128 2.53968182v5.10975758h-28.9414102l-.8364103.00536363v.04559091c-3.724359.2994697-7.1723077 1.8674394-9.7748718 4.46075758-2.78923077 2.7783636-4.32564103 6.4613939-4.32564103 10.368803v21.4688485c0 3.9074091 1.53641026 7.5895455 4.32474359 10.3661212 2.73538462 2.7256212 6.41397434 4.3239849 10.31423074 4.4974091.0978205.0107273.1974359.0169849.2979488.0169849h27.8932051c1.6378205 0 3.1796154-.6373788 4.3426923-1.7941364l.3984615-.4058485-.0107692-.0250303c.9180769-1.0986515 1.4179487-2.462803 1.4179487-3.8984697v-5.4700151c0-1.6260758-.6407692-3.1600758-1.8110256-4.3275606-1.1621795-1.1585455-2.7021795-1.7950303-4.3373077-1.7950303h-25.0447436v-15.7994849l26.0929487.0035758.0053846 5.9205606h.1408975c.07.2020303.1678205.3969091.2898718.5792727.7834615 1.1594394 2.3674359 1.4678485 3.5296153.6901212l20.7783334-13.9338333c.2907692-.1877273.5357692-.4290909.7305128-.7169394.7807692-1.1603334.4684615-2.7381364-.6955128-3.5158637" fill="#ff5722" fill-rule="evenodd" mask="url(#a)"/></svg>