<svg height="71" viewBox="0 0 79 71" width="79" xmlns="http://www.w3.org/2000/svg" xmlns:xlink="http://www.w3.org/1999/xlink"><mask id="a" fill="#fff"><path d="m0 .1h78.683v70.9h-78.683z" fill="#fff" fill-rule="evenodd"/></mask><path d="m39.3412 7.3613c-.329 0-.636.178-.799.464l-31.164 54.537c-.161.283-.16.636.004.918s.469.458.795.458h62.328c.327 0 .631-.176.795-.458s.166-.635.005-.918l-31.164-54.538c-.163-.285-.47-.463-.8-.463m31.164 63.639h-62.328c-2.905 0-5.616-1.562-7.075-4.076-1.46-2.514-1.47-5.643-.029-8.165l31.164-54.538c1.454-2.542 4.176-4.122 7.104-4.122 2.929 0 5.651 1.58 7.104 4.121l31.166 54.54c1.44 2.524 1.429 5.653-.03 8.164-1.457 2.514-4.169 4.076-7.076 4.076" fill="#ff5722" fill-rule="evenodd" mask="url(#a)" transform="translate(0 -.0997)"/></svg>