<svg id="usp-3" xmlns="http://www.w3.org/2000/svg" width="80.45" height="78" viewBox="0 0 80.45 78">
  <g id="TT-Home-01" transform="translate(-826 -643)">
    <g id="usp-3-2" data-name="usp-3" transform="translate(826 643)">
      <path id="Fill-1" d="M72.177,67l-2.889-4.3H65.106a1.7,1.7,0,0,1-1.437-.79L56.444,50.481l-3.7-2.421L43.919,62.829,41,61.111l9.731-16.287a1.7,1.7,0,0,1,1.079-.782,1.721,1.721,0,0,1,1.314.234l5.494,3.593a1.684,1.684,0,0,1,.5.512l6.921,10.949H70.2a1.7,1.7,0,0,1,1.412.75L75,65.132Z" fill="#36474f" fill-rule="evenodd"/>
      <path id="Fill-3" d="M50.113,78,35.173,54.572H30.962a1.713,1.713,0,0,1-1.4-.725l-7.73-10.908-1.714.863-3.179,4.81a1.714,1.714,0,0,1-1.429.77H13.092L5,64.062,2,62.383,10.581,46.81a1.715,1.715,0,0,1,1.5-.89H14.6l2.923-4.42a1.73,1.73,0,0,1,.661-.587l3.432-1.731a1.709,1.709,0,0,1,2.164.543l8.069,11.387H36.11a1.711,1.711,0,0,1,1.443.794L53,76.127Z" fill="#36474f" fill-rule="evenodd"/>
      <path id="Fill-5" d="M53,29a1.774,1.774,0,0,1-1.75-1.8c0-2.018-2.306-3.6-5.25-3.6V20a9.407,9.407,0,0,1,7,2.774A9.407,9.407,0,0,1,60,20v3.6c-2.944,0-5.25,1.582-5.25,3.6A1.773,1.773,0,0,1,53,29" fill="#36474f" fill-rule="evenodd"/>
      <path id="Fill-7" d="M67,12a1.773,1.773,0,0,1-1.749-1.8c0-2.017-2.306-3.6-5.251-3.6V3a9.412,9.412,0,0,1,7,2.774A9.408,9.408,0,0,1,74,3V6.6c-2.945,0-5.25,1.583-5.25,3.6A1.774,1.774,0,0,1,67,12" fill="#36474f" fill-rule="evenodd"/>
      <g id="Group-11" transform="translate(63 30)">
        <path id="Fill-9" d="M8.841,10.863A1.692,1.692,0,0,1,7.12,9.2c0-2.849-2.961-5-6.888-5V.868a11.023,11.023,0,0,1,8.61,3.6A11.02,11.02,0,0,1,17.45.868V4.2c-3.927,0-6.887,2.15-6.887,5a1.693,1.693,0,0,1-1.721,1.666" fill="#36474f" fill-rule="evenodd"/>
      </g>
      <path id="Fill-12" d="M17.5,11.4a5.1,5.1,0,1,0,5.1,5.1,5.106,5.106,0,0,0-5.1-5.1m0,13.6A8.5,8.5,0,1,1,26,16.5,8.51,8.51,0,0,1,17.5,25" fill="#36474f" fill-rule="evenodd"/>
      <path id="Fill-14" d="M15,5h3V0H15Z" fill="#36474f" fill-rule="evenodd"/>
      <path id="Fill-16" d="M7.6,10,4,6.4,6.4,4,10,7.6Z" fill="#36474f" fill-rule="evenodd"/>
      <path id="Fill-17" d="M0,18H5V15H0Z" fill="#36474f" fill-rule="evenodd"/>
      <path id="Fill-18" d="M6.4,30,4,27.6,7.6,24,10,26.4Z" fill="#36474f" fill-rule="evenodd"/>
      <path id="Fill-19" d="M15,34h3V29H15Z" fill="#36474f" fill-rule="evenodd"/>
      <path id="Fill-20" d="M27.6,30,24,26.4,26.4,24,30,27.6Z" fill="#36474f" fill-rule="evenodd"/>
      <path id="Fill-21" d="M29,18h5V15H29Z" fill="#36474f" fill-rule="evenodd"/>
      <path id="Fill-22" d="M26.4,10,24,7.6,27.6,4,30,6.4Z" fill="#36474f" fill-rule="evenodd"/>
    </g>
  </g>
</svg>
