<svg height="72" viewBox="0 0 60 72" width="60" xmlns="http://www.w3.org/2000/svg" xmlns:xlink="http://www.w3.org/1999/xlink"><mask id="a" fill="#fff"><path d="m0 .549h59.451v59.451h-59.451z" fill="#fff" fill-rule="evenodd"/></mask><g fill="#fff" fill-rule="evenodd"><path d="m29.7254 3.678c-14.666 0-26.597 11.931-26.597 26.597s11.931 26.596 26.597 26.596c14.665 0 26.597-11.93 26.597-26.596s-11.932-26.597-26.597-26.597m0 56.322c-16.391 0-29.726-13.335-29.726-29.725 0-16.391 13.335-29.726 29.726-29.726s29.726 13.335 29.726 29.726c0 16.39-13.335 29.725-29.726 29.725" mask="url(#a)" transform="translate(0 11.9666)"/><path d="m29.7254 21.9034c-11.214 0-20.339 9.124-20.339 20.338s9.125 20.339 20.339 20.339 20.338-9.125 20.338-20.339-9.124-20.338-20.338-20.338m0 43.806c-12.94 0-23.468-10.528-23.468-23.468 0-12.941 10.528-23.468 23.468-23.468s23.467 10.527 23.467 23.468c0 12.94-10.527 23.468-23.467 23.468"/><path d="m29.7254 3.1289c-2.588 0-4.693 2.105-4.693 4.693s2.105 4.694 4.693 4.694 4.693-2.106 4.693-4.694-2.105-4.693-4.693-4.693m0 12.516c-4.313 0-7.822-3.509-7.822-7.823 0-4.312 3.509-7.822 7.822-7.822 4.312 0 7.822 3.51 7.822 7.822 0 4.314-3.51 7.823-7.822 7.823"/><path d="m33.0389 45.5616h.016zm-5.49-5.491-5.794 10.137 10.137-5.793 5.793-10.138zm-9.997 15.904c-.406 0-.805-.157-1.107-.458-.499-.498-.601-1.269-.252-1.883l8.85-15.487c.139-.243.339-.443.582-.582l15.487-8.849c.612-.353 1.383-.246 1.883.252.499.498.602 1.27.252 1.882l-8.85 15.487c-.138.244-.338.444-.582.583l-15.487 8.849c-.243.139-.511.206-.776.206z"/><path d="m31.9334 46.667-6.639-6.638 2.212-2.213 6.639 6.639z"/><path d="m29.7254 26.5967c-.865 0-1.564-.7-1.564-1.564v-4.695c0-.864.699-1.564 1.564-1.564.864 0 1.564.7 1.564 1.564v4.695c0 .864-.7 1.564-1.564 1.564"/><path d="m29.7254 65.709c-.865 0-1.564-.7-1.564-1.564v-4.695c0-.864.699-1.564 1.564-1.564.864 0 1.564.7 1.564 1.564v4.695c0 .864-.7 1.564-1.564 1.564"/><path d="m51.6277 43.8057h-4.693c-.865 0-1.565-.699-1.565-1.564s.7-1.565 1.565-1.565h4.693c.865 0 1.564.7 1.564 1.565s-.699 1.564-1.564 1.564"/><path d="m12.5154 43.8057h-4.693c-.865 0-1.565-.699-1.565-1.564s.7-1.565 1.565-1.565h4.693c.865 0 1.565.7 1.565 1.565s-.7 1.564-1.565 1.564"/></g></svg>