<svg id="usp-4" xmlns="http://www.w3.org/2000/svg" width="52" height="75" viewBox="0 0 52 75">
  <g id="TT-Home-01" transform="translate(-1147 -645)">
    <g id="usp-4-2" data-name="usp-4" transform="translate(1147 645)">
      <path id="Fill-1" d="M6.9,35.874c-.092,0-.5-.044-.548-.044a6.525,6.525,0,0,1-1.12-.292c.024,0-.371-.174-.46-.223s-.347-.238-.41-.275c-.125-.11-.245-.225-.358-.347-.02-.021-.055-.064-.087-.1-.063-.092-.125-.187-.182-.283s-.111-.2-.163-.3l-.007-.012a.31.31,0,0,0-.014-.036,5.258,5.258,0,0,1-.2-.725c-.008-.037-.032-.184-.042-.243-.007-.093-.015-.185-.02-.277a7.781,7.781,0,0,1,.02-1.072,4.046,4.046,0,0,1,.112-.761c.076-.393.176-.78.281-1.165a14.8,14.8,0,0,1,.775-2.174A15.27,15.27,0,0,1,6.8,23.9a13.994,13.994,0,0,1,2.98-2.61,14.716,14.716,0,0,1,1.8-1c.017-.009.248-.111.277-.126.151-.061.3-.118.454-.174.323-.118.652-.218.983-.31s.646-.157.972-.217c.035-.007.2-.03.258-.041.123-.014.246-.025.369-.035q-1.421,7.48-2.841,14.957c-.181.128-.37.248-.561.363-.208.126-.423.238-.64.346-.11.055-.221.1-.332.156l-.181.069a10.426,10.426,0,0,1-1.435.423c-.182.041-.368.074-.554.1-.056.006-.191.024-.234.029-.163.017-.327.025-.49.033-.241.012-.484.009-.726,0m7.595.693a1.443,1.443,0,0,0,.576-.684c.007-.017.015-.033.02-.05a.193.193,0,0,1,.007-.021,1.614,1.614,0,0,0,.089-.42q1.626-8.56,3.251-17.119a1.645,1.645,0,0,0-1.147-2.006c-5.715-.887-11.144,2.7-14.279,7.2C.221,27.484-2.28,35.573,3.5,38.334c3.516,1.678,8.063.653,10.99-1.767m21.91,15.375q-.036,9.606-.076,19.215c0,.167,0,.337,0,.507-.032.019-.048.039-.01.039-.061,0-.127.006-.19.006l-1.115,0L32.546,71.7c-.088,0-.136,0-.16,0,.006,0,.006-.008,0-.017V55.141c0-.766.245-2.286-.263-2.954L26.4,44.679a1.859,1.859,0,0,0-3.353.918q-.339,4.663-.68,9.327-4.162,8.4-8.326,16.806l-.028.055a.919.919,0,0,1-.221-.089l-2.579-1.307-.327-.165c-.074-.038-.2-.138-.25-.165l.509-1.028,5.378-10.845q.551-1.113,1.1-2.225a1.51,1.51,0,0,0,.082-.192,2.136,2.136,0,0,0,.328-.93q.941-7.928,1.88-15.858l1.819.23,6.288,1q4.192,5.866,8.382,11.735M10.5,70.343l.042-.085c.018-.034.034-.068.051-.1-.007.075-.063.126-.093.188M23.091,19.717l.07-.026c-.012.007-.017.016,0,.019l.775.146,3.06.572,2.414.453.127.024c.242.045.16.008.3.091q-.892,5.057-1.785,10.114-.486,2.757-.972,5.515l-4.661-.591-2.068-.328q1.366-7.994,2.735-15.99m-.074.025v0l-.007,0,.007,0m6.833,1.212a.029.029,0,0,0,0,.006c-.027-.038-.041-.069,0-.006m21.933,4.182a1.638,1.638,0,0,0-1.846-.737c0-.615,0-1.227,0-1.842a1.644,1.644,0,0,0-3.285,0q0,1.749.007,3.5l-8.938,4.668q-2.338-5.4-4.672-10.8a1.275,1.275,0,0,0-.095-.171A3.739,3.739,0,0,0,30.077,17.7l-2.734-.513c-1.977-.37-4.912-1.43-6.563.168-.964.932-.994,2.3-1.206,3.539q-.5,2.929-1,5.859-.853,4.992-1.707,9.98a2.222,2.222,0,0,0-.026.543c-.007.045-.015.091-.021.137q-1,8.428-2,16.855c-.01.018-.02.033-.029.049q-2.129,4.293-4.257,8.586L8.107,67.8l-.445.9A3.274,3.274,0,0,0,9.23,73.041c1.967,1,4.3,2.735,6.53,1.56,1.033-.544,1.507-2.005,1.992-2.984q2.758-5.566,5.516-11.132L25.339,56.3a1.918,1.918,0,0,0,.192-.646,1.965,1.965,0,0,0,.109-.516q.2-2.778.406-5.558L29.1,53.589V71.8a3.206,3.206,0,0,0,2.441,3.024,10.52,10.52,0,0,0,2.948.139,8.078,8.078,0,0,0,3.02-.247,3.14,3.14,0,0,0,2.107-2.93l.038-9.712.041-10.35a3.7,3.7,0,0,0-1.04-2.26q-1.685-2.361-3.371-4.72l-3.609-5.052a15.538,15.538,0,0,0-1.451-2.016q.691-3.912,1.381-7.827.317-1.8.635-3.595L35.5,33.8a1.659,1.659,0,0,0,2.248.585l8.914-4.655q.01,3.793.019,7.584.029,12.938.06,25.875.013,5.074.024,10.146a1.644,1.644,0,0,0,3.285,0q-.017-7.38-.034-14.761-.031-12.936-.06-25.874l-.011-4.684,1.249-.652a1.634,1.634,0,0,0,.589-2.232M29,3.247a4.682,4.682,0,0,1,4.944,4.315,4.654,4.654,0,0,1-9.289.6A4.686,4.686,0,0,1,29,3.247m-7.615,5.1A7.943,7.943,0,0,0,36.3,11.578a7.924,7.924,0,0,0-1.6-9.5,8.061,8.061,0,0,0-9.656-.871,7.945,7.945,0,0,0-3.668,6.948c0,.067.007.129.015.191" fill="#36474f" fill-rule="evenodd"/>
    </g>
  </g>
</svg>
