<svg xmlns="http://www.w3.org/2000/svg" width="59.452" height="71.967" viewBox="0 0 59.452 71.967">
  <g id="usp-2" transform="translate(0.001 0)">
    <g id="TT-Home-01" transform="translate(-542 -646)">
      <g id="usp-2-2" data-name="usp-2" transform="translate(542 646)">
        <g id="Group-3" transform="translate(0 11.967)">
          <path id="Fill-1" d="M29.725,3.678a26.6,26.6,0,1,0,26.6,26.6,26.627,26.627,0,0,0-26.6-26.6m0,56.322A29.725,29.725,0,1,1,59.451,30.275,29.759,29.759,0,0,1,29.725,60" fill="#36474f" fill-rule="evenodd"/>
        </g>
        <path id="Fill-4" d="M29.725,21.9A20.338,20.338,0,1,0,50.063,42.241,20.362,20.362,0,0,0,29.725,21.9m0,43.806A23.468,23.468,0,1,1,53.192,42.241,23.495,23.495,0,0,1,29.725,65.709" fill="#36474f" fill-rule="evenodd"/>
        <path id="Fill-6" d="M29.725,3.129a4.693,4.693,0,1,0,4.693,4.693,4.7,4.7,0,0,0-4.693-4.693m0,12.516a7.823,7.823,0,1,1,7.822-7.823,7.831,7.831,0,0,1-7.822,7.823" fill="#36474f" fill-rule="evenodd"/>
        <path id="Fill-8" d="M33.039,45.562h0Zm-5.49-5.491L21.755,50.208l10.137-5.793,5.793-10.138Zm-10,15.9a1.564,1.564,0,0,1-1.359-2.341l8.85-15.487a1.563,1.563,0,0,1,.582-.582l15.487-8.849a1.564,1.564,0,0,1,2.135,2.134L34.4,46.337a1.544,1.544,0,0,1-.582.583L18.328,55.769A1.561,1.561,0,0,1,17.552,55.975Z" fill="#36474f" fill-rule="evenodd"/>
        <path id="Fill-10" d="M31.933,46.667l-6.639-6.638,2.212-2.213,6.639,6.639Z" fill="#36474f" fill-rule="evenodd"/>
        <path id="Fill-12" d="M29.725,26.6a1.563,1.563,0,0,1-1.564-1.564V20.338a1.564,1.564,0,0,1,3.128,0v4.695A1.564,1.564,0,0,1,29.725,26.6" fill="#36474f" fill-rule="evenodd"/>
        <path id="Fill-14" d="M29.725,65.709a1.563,1.563,0,0,1-1.564-1.564V59.45a1.564,1.564,0,0,1,3.128,0v4.695a1.564,1.564,0,0,1-1.564,1.564" fill="#36474f" fill-rule="evenodd"/>
        <path id="Fill-16" d="M51.628,43.806H46.935a1.564,1.564,0,1,1,0-3.129h4.693a1.564,1.564,0,0,1,0,3.129" fill="#36474f" fill-rule="evenodd"/>
        <path id="Fill-18" d="M12.515,43.806H7.822a1.564,1.564,0,1,1,0-3.129h4.693a1.564,1.564,0,1,1,0,3.129" fill="#36474f" fill-rule="evenodd"/>
      </g>
    </g>
  </g>
</svg>
