<svg height="75" viewBox="0 0 52 75" width="52" xmlns="http://www.w3.org/2000/svg" xmlns:xlink="http://www.w3.org/1999/xlink"><mask id="a" fill="#fff"><path d="m0 0h52v75h-52z" fill="#fff" fill-rule="evenodd"/></mask><path d="m6.90006213 35.8735376c-.09212255-.0036966-.49597291-.0443589-.54808263-.0443589-.38151762-.0628417-.755591-.162649-1.12035907-.292029.0241938 0-.37128178-.1737388-.45968221-.2227183-.07537299-.0425106-.34708798-.2384288-.41036408-.2753945-.12469112-.1099729-.24472959-.2254908-.35825435-.3474776-.01954115-.0212552-.05490132-.0637658-.08653936-.1035039-.0632761-.0924143-.12469113-.1866768-.18238404-.2827876-.0604845-.0998074-.11073316-.2023872-.16284288-.304967l-.00651372-.0120139c-.00372212-.0120138-.00744425-.0212553-.01395796-.0360415-.08840043-.2365805-.15074599-.4814783-.20378624-.7254519-.00837478-.0369657-.03163805-.1839043-.04187389-.2430495-.00744425-.0933384-.01488849-.1848285-.02047168-.2772427-.02233274-.356719-.00651371-.7152863.02047168-1.0720053.02605486-.3687328.02233274-.2948014.11166369-.7614934.07630353-.3927605.17587032-.7799762.2810203-1.1653437.20657784-.7624175.49225079-1.5544076.77513215-2.1735831.62066403-1.3612618 1.44511431-2.6236405 2.32632697-3.6346523.96030777-1.1015779 1.9010744-1.9028094 2.98049011-2.6097784.57506798-.376126 1.17991308-.7041966 1.80150758-.9962256.0167496-.0092414.2484517-.1108971.2772982-.1256834.150746-.0609934.3024225-.1182902.454099-.1737388.3228942-.1182902.6523021-.2180976.9826405-.3095877.3210332-.0877935.6457884-.1571042.9724047-.2171735.0353602-.0073931.1972725-.0304967.257757-.0406622.1228301-.0138622.2456602-.0249519.3694208-.0351175-.9472804 4.9866729-1.8936302 9.9714974-2.8409105 14.9572461-.1814535.1284558-.3703513.2476702-.5611101.363188-.2084389.1256834-.4233915.2375046-.6402052.3456293-.1098026.0545244-.2214663.1044281-.3321995.15618-.0604845.0240277-.120969.0471313-.1814535.0693107-.4661959.1783595-.94728032.3132843-1.43487845.4232573-.18238404.0406623-.36849019.0739314-.55366582.1044281-.05583185.0055448-.19075881.0240277-.23449376.0286484-.16284289.0166346-.3266163.0249518-.49038972.0332691-.24100748.0120139-.48387601.0092415-.72581402.0009242m7.59499227.6931068c.257757-.1663456.4661959-.3992295.5759986-.6838654.0074442-.0166346.0148885-.0332691.0204717-.0499037.001861-.0073931.0046526-.0138621.0074442-.0212553.0474571-.1349248.0790951-.2763186.089331-.4204848 1.0840683-5.7065798 2.1672062-11.4122355 3.2512745-17.1188153.150746-.7919901-.2112305-1.861223-1.1473444-2.0063133-5.7153201-.8871768-11.14403674 2.6957236-14.27899497 7.2046147-2.79252289 4.0135508-5.29285912 12.10257.49132026 14.8629836 3.51647584 1.6782427 8.06304931.6533687 10.99049911-1.7669605m21.9102779 15.3749585c-.0241938 6.4043074-.0511791 12.8095389-.0763035 19.2147704 0 .1672698-.0009305.337312-.001861.5073542-.0316381.019407-.0483876.038814-.0102359.038814-.061415.0046207-.1265522.0055449-.1898283.0055449-.3712817-.0018483-.7434941-.0027725-1.1147758-.0036966-.8225893-.0018483-1.6442479-.0046207-2.4659066-.0073931-.0884005 0-.1358575.0027724-.1600513.0046207.0055832-.0036966.0055832-.0083173-.0037222-.0166346v-16.5439987c0-.7661141.2447296-2.2863285-.2633402-2.9535593l-5.7162506-7.5086577c-.499695-.6561411-1.2813409-1.0174809-2.0639173-.6773964-.7462857.1617249-1.2320227.8243351-1.2887851 1.5950699-.226119 3.1088153-.4531685 6.2176306-.680218 9.3273701-2.7748428 5.6021517-5.5515467 11.2024551-8.3263895 16.8055309-.0093053.0175588-.0186106.0360416-.0279159.0545245-.0772341-.0175588-.120969-.0397382-.2214664-.0887177-.8598104-.4361953-1.7186903-.8714664-2.5794313-1.3067375-.1088721-.0554485-.2186747-.1099729-.3266163-.1654215-.0744425-.0378898-.2037863-.1376972-.2503128-.1654215.1702871-.3428569.3396437-.6847896.5090003-1.0276464l5.3775375-10.844812c.3675596-.7420864.7360498-1.4841729 1.102679-2.2253351.0325685-.0628417.0586234-.1266075.0818867-.1922217.1768008-.266153.2866034-.5868304.3275468-.9296873.6271777-5.2851708 1.253425-10.57219 1.8796722-15.858285.6076366.0767039 1.2134121.1534077 1.8191877.2301115 2.0964858.3326913 4.1920412.6653826 6.2875965.9971498 2.794384 3.9109709 5.5887679 7.8219419 8.3822213 11.7347612m-25.9087687 18.401525c.013958-.0286484.0279159-.0572968.0418739-.0850211.0176801-.0341933.0344297-.0683865.0511792-.1025798-.0074442.0748555-.0632761.1256834-.0930531.1876009m12.5947342-50.6263733c.029777-.0101656.0521098-.019407.0697898-.025876-.0120969.0073931-.0167495.0157104.0037222.019407.257757.0480554.5164446.097035.7751321.1460145 1.0198618.1903734 2.0397235.3807467 3.0595852.5720442.8049092.1506352 1.6088878.3012705 2.4137969.4528298.0418739.0073932.0846783.0157104.1265522.0240277.241938.045283.1600513.0083173.3024225.090566-.5946092 3.3712718-1.1892183 6.7416194-1.7847581 10.1138153-.3238247 1.8381194-.6485799 3.6762388-.9724046 5.5152823-1.5539864-.1959182-3.1070423-.3936847-4.6610287-.590527l-2.0676394-.3280706c.9109896-5.3295297 1.8229098-10.6599835 2.7348299-15.9895132m-.0744424.0249518-.0009306.0018483c-.0027916.0009242-.0037221.0009242-.0065137.0027725.0027916-.0018483.0046527-.0027725.0074443-.0046208m6.8328875 1.212475c-.0009305.0036965-.0009305.006469-.0009305.006469-.0269854-.0378899-.0409433-.0693107.0009305-.006469m21.9326107 4.1817447c-.3908229-.6635343-1.1454834-.9139769-1.8461731-.7365416-.0009305-.6145547-.0037221-1.2272612-.0046526-1.8418159-.0046527-2.1042724-3.2894264-2.1051966-3.2847737 0 .0027916 1.1662678.0055832 2.3306873.0074442 3.4969551-2.978629 1.556256-5.9591191 3.1115878-8.9377482 4.6678437-1.558639-3.6004591-3.1144865-7.1990699-4.6721951-10.799529-.0269854-.0600693-.0595539-.116442-.0949141-.1709664-.4215304-1.1524057-1.7307873-1.8427401-2.8725485-2.056217l-2.7338995-.5128991c-1.9773779-.369657-4.912272-1.4296484-6.5630336.1681939-.9640299.9324598-.9938069 2.3001907-1.2059679 3.5394657-.3340606 1.9527131-.6681211 3.9072744-1.0021817 5.8590634-.5685543 3.327837-1.1380392 6.6529017-1.7065935 9.9798146-.0325685.1922216-.0390823.3724294-.0260548.5433958-.0074443.045283-.0148885.0905659-.0214022.1367731-.6662601 5.6187862-1.3315896 11.2366484-1.9978496 16.8545105-.0102359.0175587-.0204717.0332691-.0288465.0489796-1.4190594 2.8620692-2.8371884 5.7241385-4.2571783 8.5862078-.8086313 1.6320356-1.61726255 3.263147-2.42682434 4.8961068l-.44479371.8964182c-.80770073 1.6274149-.0390823 3.5357691 1.56794437 4.3490145 1.96714208.9953015 4.29905228 2.7345376 6.52953458 1.5599525 1.0328891-.5443199 1.5074598-2.0053891 1.9922664-2.984056 1.8387288-3.7104321 3.6765271-7.4217883 5.5161865-11.1322203.6904538-1.3936069 1.3809077-2.7881379 2.0713615-4.1826689.1042195-.2070079.166565-.4260297.1916894-.6459756.0576929-.1626491.0958446-.3354637.1088721-.5156715.1349269-1.8519815.2707844-3.7048872.4057114-5.5577929l3.0512104 4.0070818v18.2139241c0 1.504504 1.055222 2.5866748 2.4407823 3.0237942.8877264.2781669 2.0322792.1367731 2.9479215.1386214.9751963.0036966 2.0992775.1284558 3.0195724-.246746 1.253425-.5128991 2.1011386-1.5479387 2.1067217-2.9295317l.0381518-9.7118133.0409434-10.3503958c.0037221-.9564875-.511792-1.5202144-1.0403335-2.2604525-1.1231506-1.5738146-2.2481623-3.1467051-3.371313-4.7195956-1.2031763-1.6847118-2.4063526-3.3684994-3.6085984-5.052287-.3498796-.4897955-.8598105-1.4176345-1.4506975-2.0164789.4606127-2.60793.9202949-5.2167843 1.3809077-7.8265626.2112305-1.1976887.422461-2.3963015.634622-3.5949143 1.0877905 2.5145917 2.175581 5.0301075 3.264302 7.5465475.3647681.842818 1.5325842.9583358 2.2481624.5849822 2.9711848-1.5516352 5.9433001-3.1032704 8.9144849-4.6549057.0065137 2.5284539.0130274 5.0569077.0186106 7.5844374.0195412 8.6250217.0400129 17.2500435.059554 25.8750653.0083748 3.3823614.0167496 6.7647229.0241938 10.1461602.0055832 2.1042725 3.2903569 2.1042725 3.2847737 0-.0111664-4.9201345-.0214022-9.8402691-.0334991-14.7613278-.0204717-8.6240976-.0409434-17.2491194-.0604845-25.8741411l-.0111664-4.6835541 1.2487723-.6524446c.7918817-.4130917 1.0263755-1.4906418.589026-2.2318041m-22.7784631-21.88923878c2.5747786-.15987665 4.7875809 1.83627111 4.94391 4.31482124.1619124 2.55895054-1.8480341 4.75563724-4.3446482 4.91181724-2.5747787.1608008-4.7875809-1.8362711-4.9439101-4.31574534-.0846783-2.56079882 1.7903412-4.75101649 4.3446483-4.91089314m-7.6145335 5.10219063c.2959088 3.43596175 2.6659707 6.36641755 6.0949767 7.18428365 3.4662272.8261834 7.1315879-.8631491 8.8177097-3.9553298 1.7010103-3.11713261.9872932-7.09094527-1.6033045-9.49741229-2.6054862-2.41940501-6.6532952-2.75394459-9.656118-.87054222-2.3654093 1.48324868-3.7602749 4.18451715-3.6681524 6.94770317.0018611.06653825.0074443.12937994.0148885.19129749" fill="#fff" fill-rule="evenodd" mask="url(#a)"/></svg>