<?xml version="1.0" encoding="UTF-8"?>
<svg width="84px" height="68px" viewBox="0 0 84 68" version="1.1" xmlns="http://www.w3.org/2000/svg" xmlns:xlink="http://www.w3.org/1999/xlink">
    <!-- Generator: Sketch 51.3 (57544) - http://www.bohemiancoding.com/sketch -->
    <title>icon-5</title>
    <desc>Created with Sketch.</desc>
    <defs>
        <polygon id="path-1" points="0.000821356469 0.000362666667 83.6043871 0.000362666667 83.6043871 67.1789227 0.000821356469 67.1789227"></polygon>
    </defs>
    <g id="Home-&amp;-Quote" stroke="none" stroke-width="1" fill="none" fill-rule="evenodd">
        <g id="TT-Home-01" transform="translate(-232.000000, -5254.000000)">
            <g id="icon-5" transform="translate(232.000000, 5254.000000)">
                <mask id="mask-2" fill="white">
                    <use xlink:href="#path-1"></use>
                </mask>
                <g id="Clip-2"></g>
                <path d="M76.4956387,60.8615413 C76.0277677,61.1661813 75.4605419,61.4626613 74.924929,61.4871413 C73.2368,61.5678347 71.5432516,61.517968 69.7611871,61.517968 L69.7611871,15.057648 C71.6019613,15.057648 73.4355097,14.8881013 75.2229935,15.1075147 C76.8614452,15.310608 77.8306065,16.681488 77.988671,18.373328 C78.0184774,18.6852213 78.0293161,19.0007413 78.0293161,19.314448 C78.0320258,31.9470347 78.0275097,44.5796213 78.0365419,57.212208 C78.0374452,58.661968 77.8062194,60.0074613 76.4956387,60.8615413 Z M19.5300903,61.5107147 L64.0952516,61.5107147 L64.0952516,15.008688 L19.5300903,15.008688 L19.5300903,61.5107147 Z M30.7011871,9.26314133 L52.8970581,9.26314133 L52.8970581,5.67727467 L30.7011871,5.67727467 L30.7011871,9.26314133 Z M13.8596387,61.4046347 C11.9700903,61.4046347 10.0913806,61.5551413 8.25060645,61.3556747 C6.83886452,61.2033547 6.03228387,60.0745547 5.71886452,58.6855413 C5.62131613,58.2548747 5.59060645,57.8015413 5.59060645,57.3599947 C5.58428387,44.621328 5.58338065,31.883568 5.58609032,19.145808 C5.58699355,16.920848 6.52183226,15.579888 8.40867097,15.0594613 C8.50892903,15.0322613 8.61189677,14.9914613 8.71305806,14.9914613 C10.4038968,14.986928 12.0947355,14.9878347 13.8596387,14.9877607 L13.8596387,61.4046347 Z M83.5904774,18.8293813 C83.5895742,18.0487413 83.5308645,17.247248 83.3466065,16.493808 C82.2943484,12.2007413 78.6173161,9.35562133 74.1057032,9.337488 C69.2228645,9.31663467 64.3391226,9.33295467 59.4553806,9.33295467 L58.5268645,9.33295467 C58.5268645,7.81247467 58.5304774,6.424368 58.5259613,5.037168 C58.516929,1.97535467 56.5795097,0.0287413333 53.5238968,0.026928 C45.7155097,0.021488 37.9062194,0.073168 30.0987355,-0.000272 C27.2779613,-0.0256586667 24.9467355,2.235568 25.1048,5.048048 C25.1815742,6.429808 25.1174452,7.81882133 25.1174452,9.33295467 L24.0868645,9.33295467 C19.3331871,9.33295467 14.5786065,9.402768 9.82673548,9.31391467 C4.29086452,9.21146133 -0.0590709677,13.610608 0.00144516129,19.159408 C0.137832258,31.8980747 0.0420903226,44.6394613 0.0484129032,57.3799413 C0.0484129032,58.0599413 0.0511225806,58.7499147 0.159509677,59.418128 C0.882993548,63.889808 4.77228387,67.1610613 9.46725161,67.164688 C31.0398968,67.1819147 52.6116387,67.186448 74.1824774,67.1628747 C79.5503484,67.156528 83.5904774,63.0538613 83.5968,57.6791413 C83.6112516,44.7292213 83.604929,31.7793013 83.5904774,18.8293813 Z" id="Fill-1" fill="#FF5722" mask="url(#mask-2)"></path>
            </g>
        </g>
    </g>
</svg>