<?xml version="1.0" encoding="UTF-8"?>
<svg width="52px" height="49px" viewBox="0 0 52 49" version="1.1" xmlns="http://www.w3.org/2000/svg" xmlns:xlink="http://www.w3.org/1999/xlink">
    <!-- Generator: Sketch 51.3 (57544) - http://www.bohemiancoding.com/sketch -->
    <title>icon-view-documents</title>
    <desc>Created with Sketch.</desc>
    <defs></defs>
    <g id="FAQs-&amp;-Account" stroke="none" stroke-width="1" fill="none" fill-rule="evenodd">
        <g id="TT-Account" transform="translate(-318.000000, -951.000000)">
            <g id="icon-view-documents" transform="translate(318.000000, 951.000000)">
                <polygon id="Fill-1" fill="#FF5722" points="16.2029385 16.0509799 35.5818684 16.0509799 35.5818684 13.1672106 16.2029385 13.1672106"></polygon>
                <polygon id="Fill-2" fill="#FF5722" points="16.2029385 22.5661625 35.5818684 22.5661625 35.5818684 19.6823931 16.2029385 19.6823931"></polygon>
                <polygon id="Fill-3" fill="#FF5722" points="9.90475271 0.0834507435 9.90475271 24.3818774 12.8115922 24.3818774 12.8115922 2.96722006 38.9731474 2.96722006 38.9731474 24.3818774 41.8799869 24.3818774 41.8799869 0.0834507435"></polygon>
                <g id="Group-9" transform="translate(0.000000, 0.033377)">
                    <path d="M25.8924034,38.874145 C21.1015014,38.874145 17.171885,35.349538 16.4720903,30.7034652 L0,30.7034652 L3.44514308,4.58933196 L6.35198255,4.96315391 L3.33748236,27.8196959 L19.2712691,27.8196959 L19.2712691,29.2615806 C19.2712691,32.9463969 22.2319389,35.9903756 25.8924034,35.9903756 C29.552868,35.9903756 32.5135378,32.9998001 32.5135378,29.2615806 L32.5135378,27.8196959 L48.4473245,27.8196959 L45.4328243,4.96315391 L48.3396638,4.58933196 L51.7848069,30.7034652 L35.3127166,30.7034652 C34.6129219,35.2961349 30.6833055,38.874145 25.8924034,38.874145 Z" id="Fill-4" fill="#FF5722"></path>
                    <polygon id="Clip-7" points="0 48.6469188 51.7848069 48.6469188 51.7848069 0.0500654395 0 0.0500654395"></polygon>
                    <polygon id="Fill-6" fill="#FF5722" points="16.2029385 9.50242043 24.2774926 9.50242043 24.2774926 6.61865111 16.2029385 6.61865111"></polygon>
                    <polygon id="Fill-8" fill="#FF5722" points="48.6088156 34.1212659 48.6088156 45.7097463 3.12216091 45.7097463 3.12216091 34.1212659 0.215321442 34.1212659 0.215321442 48.6469188 51.5156551 48.6469188 51.5156551 34.1212659"></polygon>
                </g>
            </g>
        </g>
    </g>
</svg>