<?xml version="1.0" encoding="UTF-8"?>
<svg width="46px" height="47px" viewBox="0 0 46 47" version="1.1" xmlns="http://www.w3.org/2000/svg" xmlns:xlink="http://www.w3.org/1999/xlink">
    <!-- Generator: Sketch 51.3 (57544) - http://www.bohemiancoding.com/sketch -->
    <title>icon-makechanges</title>
    <desc>Created with Sketch.</desc>
    <defs></defs>
    <g id="FAQs-&amp;-Account" stroke="none" stroke-width="1" fill="none" fill-rule="evenodd">
        <g id="TT-Account" transform="translate(-717.000000, -955.000000)" fill="#FF5722">
            <g id="icon-makechanges" transform="translate(717.000000, 955.000000)">
                <path d="M21.0340948,29.079701 C21.0340948,30.6606403 19.7462931,31.9541361 18.1723132,31.9541361 C16.5983333,31.9541361 15.3105316,30.6606403 15.3105316,29.079701 C15.2628352,27.4987618 16.550637,26.205266 18.1723132,26.205266 C19.7462931,26.205266 21.0340948,27.4987618 21.0340948,29.079701 Z M28.8562979,38.0862641 L6.77288314,42.1583804 L15.0720498,34.2536841 C15.9782807,34.7806638 17.0276006,35.0681073 18.1246169,35.0681073 C21.4633621,35.0681073 24.1343582,32.3373941 24.1343582,29.0317938 C24.1343582,25.6782863 21.4156657,22.9954802 18.1246169,22.9954802 C14.7858716,22.9954802 12.1148755,25.7261935 12.1148755,29.0317938 C12.1148755,30.0857533 12.4010536,31.1397128 12.8780172,32.0020433 L3.91110153,40.5774411 L6.29591954,19.5940654 L18.935455,12.5516996 L17.4091715,9.7730791 L3.33874521,17.6298682 L0,46.661662 L31.1934195,40.9127919 L35.9630556,28.1694633 L33.0058812,27.0675965 L28.8562979,38.0862641 Z" id="Fill-1"></path>
                <path d="M39.2541044,18.9233639 C37.5847318,20.6001177 35.3906992,21.5103555 33.0058812,21.5103555 C30.6687596,21.5103555 28.4270307,20.6001177 26.757658,18.9233639 C25.0882854,17.2466102 24.1820546,15.0428766 24.1820546,12.6475141 C24.1820546,10.3000589 25.0882854,8.04841808 26.757658,6.37166431 L28.6655125,4.45537429 L41.1619588,16.9591667 L39.2541044,18.9233639 Z M28.6655125,-1.42108547e-14 L24.5159291,4.16793079 C22.2742002,6.41957156 20.9863985,9.43772834 20.9863985,12.6475141 C20.9863985,15.8572999 22.2265038,18.8754567 24.5159291,21.1270975 C26.757658,23.3787382 29.7625287,24.672234 32.9581849,24.672234 C36.153841,24.672234 39.1587117,23.4266455 41.4004406,21.1750047 L45.5500239,17.0070739 L28.6655125,-1.42108547e-14 Z" id="Fill-3"></path>
            </g>
        </g>
    </g>
</svg>