<svg xmlns="http://www.w3.org/2000/svg" width="30.046" height="34.504" viewBox="0 0 30.046 34.504">
  <path id="Path_78" data-name="Path 78" d="M1275.02,78.118c-.043,0-.085,0-.127,0a7.766,7.766,0,0,1-7.757-7.757c0-.073,0-.146.005-.219l.008-.246h-6.2l-.1,23.067h-.006l0,.266a4.527,4.527,0,1,1-3.16-4.319l.252.08V82.43l-.168-.023a11.047,11.047,0,1,0,9.455,12.525l0-.013.109-13.008a11.061,11.061,0,0,0,6.788,2.333c.312,0,.635-.015.986-.046l.177-.016V78.11Zm-19.7,26.048-.138-.014.138.014m-.238-.024-.148-.018.148.018m-.236-.029-.158-.023.158.023m-.233-.034-.169-.028.169.028m12.337-33.444c0,.018,0,.036,0,.054,0-.018,0-.036,0-.054m3.418,6.265.026.018-.026-.018m.271.18.011.007-.011-.007m.263.16.01.006-.01-.006m.266.148.032.017-.032-.017m.562.271.031.014-.031-.014m.3.122.038.015-.038-.015m.59.2.047.014-.047-.014m.322.089.039.009-.039-.009m.3.071.03.006-.03-.006m.311.059.057.01-.057-.01m.342.051.029,0-.029,0m.3.031.051,0-.051,0m.338.022.06,0-.06,0m-18.392,19.647q.086,0,.174,0-.088,0-.174,0m-.5-.045.023,0-.023,0m.164.021.051,0-.051,0m.167.015.086,0-.086,0m-1.593,6.1-.18-.034.18.034m-.227-.043-.191-.04.191.04m-.225-.047-.2-.047.2.047m-4.454-2.155a10.838,10.838,0,0,0,4.016,2.048,10.833,10.833,0,0,1-4.245-2.235c.075.064.153.126.229.188m4.233,2.1-.216-.055.216.055m1.724.276.127.01-.127-.01m.256.017.114.006-.114-.006m.267.011.092,0-.092,0" transform="translate(-1245.242 -69.899)" fill="#ff5722"/>
</svg>
