<svg id="Group_2563" data-name="Group 2563" xmlns="http://www.w3.org/2000/svg" xmlns:xlink="http://www.w3.org/1999/xlink" width="70.354" height="65.5" viewBox="0 0 70.354 65.5">
  <defs>
    <clipPath id="clip-path">
      <rect id="Rectangle_384" data-name="Rectangle 384" width="70.354" height="65.5" fill="none" stroke="#ff5722" stroke-width="3"/>
    </clipPath>
  </defs>
  <g id="Group_2562" data-name="Group 2562" clip-path="url(#clip-path)">
    <path id="Path_26" data-name="Path 26" d="M68.6,107.135V113.9a3.289,3.289,0,0,1-3.29,3.29H7.29A3.289,3.289,0,0,1,4,113.9V78.545a3.289,3.289,0,0,1,3.29-3.29H65.308a3.289,3.289,0,0,1,3.29,3.29v6.6" transform="translate(-2.811 -52.884)" fill="none" stroke="#ff5722" stroke-linecap="round" stroke-linejoin="round" stroke-width="3"/>
    <path id="Path_27" data-name="Path 27" d="M182.765,136.391H168.55a6.9,6.9,0,0,1,0-13.792h14.215Z" transform="translate(-113.599 -86.154)" fill="none" stroke="#ff5722" stroke-linecap="round" stroke-linejoin="round" stroke-width="3"/>
    <line id="Line_137" data-name="Line 137" x1="39.823" transform="translate(8.155 29.83)" fill="none" stroke="#ff5722" stroke-linecap="round" stroke-linejoin="round" stroke-width="3"/>
    <line id="Line_138" data-name="Line 138" x1="39.823" transform="translate(8.155 56.993)" fill="none" stroke="#ff5722" stroke-linecap="round" stroke-linejoin="round" stroke-width="3"/>
    <path id="Path_28" data-name="Path 28" d="M13.942,59.968V57.986a4.508,4.508,0,0,1,4.509-4.509h5.988" transform="translate(-9.797 -37.58)" fill="none" stroke="#ff5722" stroke-linecap="round" stroke-linejoin="round" stroke-width="3"/>
    <path id="Path_29" data-name="Path 29" d="M68.073,18.709,91.889,4.578A4.125,4.125,0,0,1,97.54,6.02l4.264,7.188,7.1,11.974" transform="translate(-47.837 -2.811)" fill="none" stroke="#ff5722" stroke-linecap="round" stroke-linejoin="round" stroke-width="3"/>
    <line id="Line_139" data-name="Line 139" x1="15.825" y2="9.329" transform="translate(34.594 4.418)" fill="none" stroke="#ff5722" stroke-linecap="round" stroke-linejoin="round" stroke-width="3"/>
    <line id="Line_140" data-name="Line 140" x1="7.147" y2="4.176" transform="translate(46.821 10.398)" fill="none" stroke="#ff5722" stroke-linecap="round" stroke-linejoin="round" stroke-width="3"/>
  </g>
</svg>
