<svg height="51" viewBox="0 0 43 51" width="43" xmlns="http://www.w3.org/2000/svg" xmlns:xlink="http://www.w3.org/1999/xlink"><mask id="a" fill="#fff"><path d="m0 0h42.9456913v50.999944h-42.9456913z" fill="#fff" fill-rule="evenodd"/></mask><g fill="#ff5722" fill-rule="evenodd"><path d="m6.28926352 14.5945747c-4.05565617 4.0279912-6.28928609 9.3833275-6.28928609 15.0796352s2.23362992 11.0516439 6.28928609 15.0796352c4.05576898 4.027767 9.44792388 6.2460989 15.18362728 6.2460989 5.7355906 0 11.1278583-2.2183319 15.1836273-6.2460989 4.0555433-4.0279913 6.2891732-9.3833275 6.2891732-15.0796352 0-5.0788154-1.7769947-9.8855934-5.0364173-13.7231473l3.2010735-4.4151428-3.6473255-2.60817365-2.8244566 3.89572745c-3.0750079-2.3796263-6.7126273-3.86512745-10.5856746-4.32278239v-4.03718242h8.2396352v-4.46356483h-22.47161944v4.46356483h8.23963514v4.15263297c-4.4389317.69998901-8.53171913 2.76117364-11.77127818 5.97843294m15.18362728-2.1131934c9.5455486 0 17.3112809 7.7126572 17.3112809 17.1928286 0 9.4802835-7.7657323 17.1928286-17.3112809 17.1928286-9.5455485 0-17.31150655-7.7125451-17.31150655-17.1928286 0-9.4801714 7.76595805-17.1928286 17.31150655-17.1928286" mask="url(#a)"/><path d="m21.7598989 33c2.0766462 0 3.7601255-1.6463734 3.7601255-3.6773844 0-1.2031148 5.4799756-9.3226156 5.4799756-9.3226156s-8.3936026 5.6453419-9.2401011 5.6453419c-2.0765329 0-3.7598989 1.6463734-3.7598989 3.6772737 0 2.031011 1.683366 3.6773844 3.7598989 3.6773844"/></g></svg>