<?xml version="1.0" encoding="UTF-8"?>
<svg width="43px" height="51px" viewBox="0 0 43 51" version="1.1" xmlns="http://www.w3.org/2000/svg" xmlns:xlink="http://www.w3.org/1999/xlink">
    <!-- Generator: Sketch 51.3 (57544) - http://www.bohemiancoding.com/sketch -->
    <title>account-timer-icon</title>
    <desc>Created with Sketch.</desc>
    <defs>
        <polygon id="path-1" points="0 0 42.9456913 0 42.9456913 50.999944 0 50.999944"></polygon>
    </defs>
    <g id="FAQs-&amp;-Account" stroke="none" stroke-width="1" fill="none" fill-rule="evenodd">
        <g id="TT-Account" transform="translate(-539.000000, -477.000000)">
            <g id="account-timer-icon" transform="translate(539.000000, 477.000000)">
                <g id="Group-3">
                    <mask id="mask-2" fill="white">
                        <use xlink:href="#path-1"></use>
                    </mask>
                    <g id="Clip-2"></g>
                    <path d="M6.28926352,14.5945747 C2.23360735,18.6225659 -2.25721785e-05,23.9779022 -2.25721785e-05,29.6742099 C-2.25721785e-05,35.3705176 2.23360735,40.7258538 6.28926352,44.7538451 C10.3450325,48.7816121 15.7371874,50.999944 21.4728908,50.999944 C27.2084814,50.999944 32.6007491,48.7816121 36.6565181,44.7538451 C40.7120614,40.7258538 42.9456913,35.3705176 42.9456913,29.6742099 C42.9456913,24.5953945 41.1686966,19.7886165 37.909274,15.9510626 L41.1103475,11.5359198 L37.463022,8.92774615 L34.6385654,12.8234736 C31.5635575,10.4438473 27.9259381,8.95834615 24.0528908,8.50069121 L24.0528908,4.46350879 L32.292526,4.46350879 L32.292526,-5.6043956e-05 L9.82090656,-5.6043956e-05 L9.82090656,4.46350879 L18.0605417,4.46350879 L18.0605417,8.61614176 C13.62161,9.31613077 9.52882257,11.3773154 6.28926352,14.5945747 M21.4728908,12.4813813 C31.0184394,12.4813813 38.7841717,20.1940385 38.7841717,29.6742099 C38.7841717,39.1544934 31.0184394,46.8670385 21.4728908,46.8670385 C11.9273423,46.8670385 4.16138425,39.1544934 4.16138425,29.6742099 C4.16138425,20.1940385 11.9273423,12.4813813 21.4728908,12.4813813" id="Fill-1" fill="#FF5722" mask="url(#mask-2)"></path>
                </g>
                <path d="M21.7598989,33 C23.8365451,33 25.5200244,31.3536266 25.5200244,29.3226156 C25.5200244,28.1195008 31,20 31,20 C31,20 22.6063974,25.6453419 21.7598989,25.6453419 C19.683366,25.6453419 18,27.2917153 18,29.3226156 C18,31.3536266 19.683366,33 21.7598989,33" id="Fill-4" fill="#FF5722"></path>
            </g>
        </g>
    </g>
</svg>