<svg height="47" viewBox="0 0 46 47" width="46" xmlns="http://www.w3.org/2000/svg"><g fill="#ff5722" fill-rule="evenodd"><path d="m21.0340948 29.079701c0 1.5809393-1.2878017 2.8744351-2.8617816 2.8744351s-2.8617816-1.2934958-2.8617816-2.8744351c-.0476964-1.5809392 1.2401054-2.874435 2.8617816-2.874435 1.5739799 0 2.8617816 1.2934958 2.8617816 2.874435zm7.8222031 9.0065631-22.08341476 4.0721163 8.29916666-7.9046963c.9062309.5269797 1.9555508.8144232 3.0525671.8144232 3.3387452 0 6.0097413-2.7307132 6.0097413-6.0363135 0-3.3535075-2.7186925-6.0363136-6.0097413-6.0363136-3.3387453 0-6.0097414 2.7307133-6.0097414 6.0363136 0 1.0539595.2861781 2.107919.7631417 2.9702495l-8.96691567 8.5753978 2.38481801-20.9833757 12.63953546-7.0423658-1.5262835-2.7786205-14.07042629 7.8567891-3.33874521 29.0317938 31.1934195-5.7488701 4.7696361-12.7433286-2.9571744-1.1018668z"/><path d="m39.2541044 18.9233639c-1.6693726 1.6767538-3.8634052 2.5869916-6.2482232 2.5869916-2.3371216 0-4.5788505-.9102378-6.2482232-2.5869916-1.6693726-1.6767537-2.5756034-3.8804873-2.5756034-6.2758498 0-2.3474552.9062308-4.59909602 2.5756034-6.27584979l1.9078545-1.91629002 12.4964463 12.50379241zm-10.5885919-18.9233639-4.1495834 4.16793079c-2.2417289 2.25164077-3.5295306 5.26979755-3.5295306 8.47958331 0 3.2097858 1.2401053 6.2279426 3.5295306 8.4795834 2.2417289 2.2516407 5.2465996 3.5451365 8.4422558 3.5451365 3.1956561 0 6.2005268-1.2455885 8.4422557-3.4972293l4.1495833-4.1679308z"/></g></svg>