<svg height="49" viewBox="0 0 52 49" width="52" xmlns="http://www.w3.org/2000/svg"><g fill="none" fill-rule="evenodd"><g fill="#ff5722"><path d="m16.2029385 16.0509799h19.3789299v-2.8837693h-19.3789299z"/><path d="m16.2029385 22.5661625h19.3789299v-2.8837694h-19.3789299z"/><path d="m9.90475271.08345074v24.29842666h2.90683949v-21.41465734h26.1615552v21.41465734h2.9068395v-24.29842666z"/></g><g transform="translate(0 .033377)"><path d="m25.8924034 38.874145c-4.790902 0-8.7205184-3.524607-9.4203131-8.1706798h-16.4720903l3.44514308-26.11413324 2.90683947.37382195-3.01450019 22.85654199h15.93378674v1.4418847c0 3.6848163 2.9606698 6.728795 6.6211343 6.728795 3.6604646 0 6.6211344-2.9905755 6.6211344-6.728795v-1.4418847h15.9337867l-3.0145002-22.85654199 2.9068395-.37382195 3.4451431 26.11413324h-16.4720903c-.6997947 4.5926697-4.6294111 8.1706798-9.4203132 8.1706798z" fill="#ff5722"/><path d="m0 48.6469188h51.7848069v-48.59685336h-51.7848069z"/><g fill="#ff5722"><path d="m16.2029385 9.50242043h8.0745541v-2.88376932h-8.0745541z"/><path d="m48.6088156 34.1212659v11.5884804h-45.48665469v-11.5884804h-2.90683947v14.5256529h51.30033366v-14.5256529z"/></g></g></g></svg>