<svg width="125" height="124" viewBox="0 0 125 124" fill="none" xmlns="http://www.w3.org/2000/svg">
<g clip-path="url(#clip0_414_2920)">
<path d="M61.2121 123.997C27.0922 124.325 0.0780078 97.9258 0.000147271 62.122C-0.074328 27.5098 28.1078 -0.358745 62.2784 0.00349166C96.7469 0.369114 125.234 28.3866 124.997 61.6887C124.753 95.5155 95.3556 124.23 61.2121 123.997ZM4.39757 54.4473C3.99812 54.708 3.60204 54.9653 3.20258 55.2259C1.70969 76.432 7.55262 94.9907 24.7022 108.607C41.6386 122.057 60.8194 124.176 81.554 117.734C79.401 111.596 79.6176 106.176 83.8424 101.081C85.8702 98.6334 85.0272 96.1688 82.2953 94.2188C79.8004 92.4381 77.0381 91.0264 74.5364 89.2525C71.3238 86.9775 70.1796 83.2434 71.2662 79.4382C73.2432 72.5287 81.7503 66.4993 89.6684 66.391C98.2872 66.2759 102.292 69.1636 104.78 77.3664C105.491 79.7125 105.853 82.1872 106.771 84.4418C108.01 87.4853 109.635 90.3764 111.229 93.6095C119.018 85.1562 124.36 64.0144 121.29 55.5171C113.04 54.9924 110.779 54.383 103.382 50.6997C96.6488 47.3448 88.6359 48.5601 83.1823 53.8176C80.8126 56.0994 78.7138 58.7095 76.141 60.7204C73.6901 62.6366 70.9514 64.4782 68.0367 65.443C63.7375 66.8683 59.1809 63.0767 59.8614 58.9668C60.4605 55.3478 62.099 52.1452 65.1931 49.9244C66.8553 48.7328 68.6901 47.7679 70.2744 46.4849C74.4247 43.1266 74.6718 41.031 71.6962 36.5284C68.4328 31.5925 69.7327 26.9004 75.2134 24.5577C77.9318 23.3965 80.8126 22.6179 83.6325 21.7038C88.4734 20.1398 90.9616 16.4463 92.6779 12.0148C76.9263 0.961556 49.5905 -0.592337 31.8045 11.3073C36.3949 13.8599 41.5811 16.0841 45.9988 19.351C54.4822 25.6207 53.6054 35.6618 44.5025 40.8279C42.0076 42.243 39.3366 43.3602 36.8959 44.8531C33.9338 46.6677 32.2073 49.2981 32.187 52.9577C32.1701 55.6999 32.0584 58.4658 31.6521 61.1707C31.0699 65.0368 32.1396 67.7959 35.6196 69.6375C37.8742 70.8292 40.2777 71.7365 42.6068 72.7893C50.4233 76.3237 53.3515 82.7187 50.0611 90.6439C47.7659 96.1756 46.4118 101.66 46.7909 107.649C46.9771 110.584 45.7415 111.488 42.9521 110.547C29.6718 106.071 17.0178 95.4613 17.6643 78.4937C17.7896 75.2065 16.449 71.7128 15.166 68.5644C13.9812 65.6631 12.1633 62.9446 10.2507 60.4327C8.57158 58.2288 6.37117 56.4244 4.40096 54.4439L4.39757 54.4473ZM43.8458 108.339C43.8458 104.944 43.3989 101.816 43.9643 98.8805C44.5939 95.6136 46.1241 92.516 47.2987 89.3608C49.4924 83.4702 47.9622 79.1302 42.4071 76.1578C39.8918 74.8104 37.1633 73.8693 34.6108 72.5862C29.99 70.2672 28.3448 67.2576 28.7611 62.1389C28.9846 59.3832 29.5635 56.6241 29.4754 53.8853C29.2859 47.8153 32.0076 43.7495 37.2953 41.0987C39.8546 39.8157 42.4612 38.5563 44.814 36.9448C49.3807 33.8134 50.1593 29.6053 47.0956 24.9775C46.097 23.4676 44.8478 21.8596 43.3177 21.0132C39.4111 18.8466 35.2947 17.0591 31.2391 15.1633C28.4768 13.8734 26.2188 14.7096 24.0184 16.6799C15.0238 24.7371 8.56142 34.372 5.07124 45.9906C4.13014 49.1255 3.39216 51.9015 7.56955 53.1846C8.20597 53.3809 8.77469 53.9835 9.24862 54.5082C15.9209 61.9189 20.8702 70.1386 20.8126 80.508C20.7855 85.3864 21.9331 89.8517 24.6819 93.8431C29.4416 100.746 36.2256 104.991 43.8458 108.336V108.339ZM121.178 52.1588C118.213 35.2691 109.178 22.7668 95.2811 13.0812C92.9487 20.2109 88.057 24.0804 81.1884 25.6783C80.1931 25.9085 79.208 26.203 78.2432 26.5348C72.5628 28.4814 71.686 30.9764 74.8952 36.0342C77.6271 40.3438 77.3935 43.5396 73.8119 47.0672C72.143 48.7125 70.0645 49.9346 68.3685 51.5528C66.6217 53.2184 64.8377 54.9653 63.602 56.9999C62.969 58.0392 62.9216 60.4191 63.6359 61.0624C64.7293 62.0543 66.8654 62.7043 68.2703 62.3522C70.1423 61.8816 71.8722 60.4699 73.4226 59.1767C75.3082 57.6025 76.9467 55.727 78.6867 53.9801C87.7422 44.9005 95.403 43.5836 106.991 48.9697C111.364 51.0044 115.924 52.4195 121.178 52.1554V52.1588ZM110.058 96.2602C109.235 95.2243 108.389 94.5201 108.01 93.623C105.755 88.2978 103.443 82.9861 101.466 77.556C99.0726 70.9748 96.5337 68.8251 89.6041 69.5868C83.4192 70.2672 77.8404 72.6268 74.8106 78.6562C72.9792 82.2989 73.8052 85.1799 77.1498 87.4447C78.839 88.5889 80.6772 89.503 82.4206 90.5694C88.927 94.5574 90.0002 98.6537 85.3184 104.707C82.2276 108.702 83.0198 112.334 84.4856 116.468C94.8884 111.982 103.257 105.303 110.054 96.2636L110.058 96.2602Z" fill="#37464F"/>
</g>
<defs>
<clipPath id="clip0_414_2920">
<rect width="125" height="124" fill="white"/>
</clipPath>
</defs>
</svg>
