<svg width="124" height="23" viewBox="0 0 124 23" fill="none" xmlns="http://www.w3.org/2000/svg">
<g clip-path="url(#clip0_61_3823)">
<path d="M2.7459 16.5939V7.64949H0.677559C0.236254 7.64949 0 7.37566 0 6.93125V5.60026C0 5.15584 0.236254 4.91792 0.677559 4.91792H2.81276L3.42346 0.992275C3.52598 0.343611 3.89819 0.00244522 4.50889 0.00244522H5.21988C5.86401 0.00244522 6.23622 0.413191 6.23622 1.06185V4.92017H10.8811C11.3224 4.92017 11.5586 5.16033 11.5586 5.6025V6.9335C11.5586 7.37791 11.3201 7.65174 10.8811 7.65174H6.23622V16.8026C6.23622 18.6454 7.11883 19.3636 8.20203 19.3636C9.28523 19.3636 10.2013 18.7486 10.2013 17.5209C10.2013 17.3839 10.2013 17.146 10.1344 16.8722C10.0675 16.3941 10.2704 16.0866 10.7451 16.0866H12.3053C12.7131 16.0866 13.0185 16.2572 13.0854 16.7016C13.2213 17.2829 13.2213 17.9316 13.2213 17.9653C13.2213 20.5263 11.3915 22.4027 8.13517 22.4027C5.4227 22.4027 2.74367 21.0021 2.74367 16.5984L2.7459 16.5939Z" fill="#FF5722"/>
<path d="M16.2102 21.2421V6.59437C16.2102 5.80879 16.685 5.36438 17.4651 5.36438H18.4814C19.2615 5.36438 19.7028 5.80879 19.7028 6.59437V9.18903C20.28 6.45746 22.2124 4.98955 24.2451 4.98955L24.9918 5.02322C25.7028 5.12646 25.8053 5.70555 25.8053 6.38788V7.37771C25.8053 8.23062 25.4665 8.57179 24.8892 8.43712C24.5839 8.36978 24.2785 8.33387 23.9732 8.33387C22.7518 8.33387 19.7006 8.94887 19.7006 15.9473V21.2398C19.7006 22.0254 19.2593 22.4698 18.4792 22.4698H17.4628C16.6827 22.4698 16.208 22.0254 16.208 21.2398L16.2102 21.2421Z" fill="#FF5722"/>
<path d="M28.7119 14.5781V6.14547C28.7119 5.35989 29.1532 4.91547 29.9333 4.91547H30.9496C31.7297 4.91547 32.2045 5.35989 32.2045 6.14547V14.5444C32.2045 18.0279 33.7646 19.3252 35.5611 19.3252C37.3575 19.3252 40.85 18.0952 40.85 12.9396V6.14547C40.85 5.35989 41.2913 4.91547 42.0714 4.91547H43.0878C43.8678 4.91547 44.3426 5.35989 44.3426 6.14547V21.242C44.3426 22.0276 43.8678 22.472 43.0878 22.472H42.0714C41.2913 22.472 40.85 22.0276 40.85 21.242V18.6766C40.1034 21.067 37.9347 22.398 35.1888 22.398C31.4266 22.398 28.7141 19.9402 28.7141 14.5803L28.7119 14.5781Z" fill="#FF5722"/>
<path d="M47.251 13.5209C47.251 8.53588 51.1157 4.54065 56.4047 4.54065C60.6773 4.54065 64.5755 7.10164 65.0503 12.5648C65.1528 13.384 64.6781 13.8284 63.8645 13.8284H50.7101C50.6076 17.0044 53.2197 19.3252 56.9151 19.3252C58.5756 19.3252 60.0689 18.8808 61.5265 17.891C62.1706 17.4803 62.7122 17.5162 63.2561 18.0616L63.4946 18.3354C64.0362 18.9167 64.0362 19.6327 63.2561 20.2814C61.2903 21.8862 59.0191 22.398 56.8817 22.398C50.9151 22.398 47.2532 18.4027 47.2532 13.5209H47.251ZM61.5912 11.2338C60.7085 8.19471 58.3371 7.54605 56.4716 7.54605C54.5058 7.54605 52.0652 8.33163 51.0132 11.2338H61.5912Z" fill="#FF5722"/>
<path d="M97.7158 21.141V1.64523C97.7158 0.790067 98.1883 0.316475 99.0353 0.316475H99.8533C100.544 0.316475 101.079 0.570105 101.487 1.14021L111.543 14.908V1.64523C111.543 0.790067 112.016 0.316475 112.863 0.316475H114.372C115.221 0.316475 115.722 0.792311 115.722 1.64523V21.141C115.722 21.9962 115.219 22.4698 114.372 22.4698H113.585C112.894 22.4698 112.39 22.2162 111.951 21.6461L101.864 7.78396V21.1388C101.864 21.994 101.391 22.4676 100.544 22.4676H99.0353C98.1861 22.4676 97.7158 21.9917 97.7158 21.1388V21.141Z" fill="white"/>
<path d="M119.853 21.141V1.64523C119.853 0.790067 120.325 0.316475 121.172 0.316475H122.681C123.53 0.316475 124 0.792311 124 1.64523V21.141C124 21.9962 123.528 22.4698 122.681 22.4698H121.172C120.323 22.4698 119.853 21.994 119.853 21.141Z" fill="white"/>
<path d="M87.4516 1.12899L66.7393 13.9249L74.8321 13.9227L75.4829 22.2319L80.335 13.6758L87.4516 1.12899Z" fill="#FF5722"/>
<path d="M79.0228 3.82914H79.1164L84.6149 0.430946C84.0488 0.356878 83.4626 0.314232 82.8564 0.314232H76.1945C75.3453 0.314232 74.875 0.790068 74.875 1.64298V6.44848L79.0228 3.88525V3.82689V3.82914Z" fill="white"/>
<path d="M89.2486 2.09637L87.3631 5.43172C89.0035 6.80311 89.9284 8.94213 89.9284 11.3954C89.9284 15.6689 87.1313 18.9594 82.6068 18.9594H79.6781L77.6855 22.472H82.8586C89.71 22.472 94.1409 17.5027 94.1409 11.3954C94.1409 7.49891 92.3333 4.07154 89.2509 2.09637H89.2486Z" fill="white"/>
</g>
<defs>
<clipPath id="clip0_61_3823">
<rect width="124" height="22.4698" fill="white"/>
</clipPath>
</defs>
</svg>
