<svg width="488" height="624" viewBox="0 0 488 624" fill="none" xmlns="http://www.w3.org/2000/svg">
<g clip-path="url(#clip0_440_2954)">
<path d="M306.906 303.732C305.725 309.551 306.59 315.528 306.906 321.353C307.504 332.503 306.391 338.596 317.32 344.772C334.515 354.486 363.655 360.463 383.206 367.394C428.895 383.593 450.149 401.2 462.844 449.398C469.755 475.634 476.109 514.262 476.927 541.294C476.968 542.765 477.092 544.887 476.879 546.261C476.267 550.177 468.519 551.338 465.441 552.815L464.486 675.179L463.476 676.154C449.215 676.745 434.789 676.257 420.466 676.388C287.967 677.61 154.966 676.532 22.2675 676.93C20.5982 677.006 19.2037 676.25 18.4412 674.794C18.2969 638.055 17.3489 600.979 18.0427 564.178C18.1046 560.887 19.1693 556.58 18.5648 553.255C18.0977 550.685 9.90235 551.056 9.1467 546.261C8.8994 544.702 9.02305 541.975 9.09861 540.298C9.76496 524.766 12.4853 506.183 14.6561 490.63C18.8877 460.335 25.2145 424.585 45.9193 401.001C71.3434 372.038 121.017 363.678 156.024 350.488C163.361 347.726 174.304 343.927 177.739 336.391C180.631 330.037 181.503 309.077 180.651 301.939C180.589 301.404 180.672 300.792 180.163 300.442C175.581 300.229 171.075 300.916 166.466 300.717C119.87 298.697 82.1285 274.625 79.6898 224.854C77.2855 175.743 108.762 100.203 139.379 62.1311C174.503 18.4465 253.867 9.59139 303.08 31.5883C328.023 42.7378 343.047 59.8091 358.489 81.6205C392.404 129.523 418.577 199.725 395.75 257.561C381.015 294.898 343.995 304.756 306.906 303.732ZM314.834 134.517L295.695 89.239C288.173 111.765 271.659 129.901 245.822 123.732C243.913 123.278 239.159 121.108 238.019 121.135C236.878 121.163 233.519 123.299 231.815 123.821C222.555 126.652 213.33 123.684 205.21 119.088L188.565 132.779C199.357 133.569 210.465 133.192 220.982 136.152C226.663 137.753 232.915 140.412 235.587 146.004C242.793 142.892 250.501 142.466 257.865 145.406C265.229 131.687 284.388 133.583 297.708 133.006L314.834 134.517ZM178.357 139.237L154.348 149.782C152.891 162.951 153.441 181.486 164.748 190.464C175.183 198.749 197.969 200.329 210.073 195.61C224.486 189.99 232.496 172.528 231.314 157.668C230.565 148.271 226.945 145.289 218.289 142.837C205.375 139.182 191.642 139.793 178.357 139.23V139.237ZM286.895 140.144C282.162 140.487 269.666 142.108 266.61 145.715C262.385 150.696 262.289 161.818 263.271 167.98C267.551 194.792 290.165 201.882 314.442 197.581C327.494 195.266 335.14 186.858 338.08 174.176C330.901 163.707 324.575 152.681 318.571 141.497C317.678 140.693 309.929 140.075 308.143 139.993C301.644 139.677 293.366 139.69 286.895 140.157V140.144ZM254.931 151.444H239.022C237.545 151.444 238.767 155.752 238.795 156.652C240.038 195.727 211.633 213.636 175.149 203.448C167.338 201.264 159.747 196.97 155.007 190.258C153.888 190.066 154.313 190.746 154.265 191.495C152.115 227.733 167.764 267.385 205.656 276.906C207.923 277.476 215.988 278.342 216.86 279.62C218.317 281.736 217.012 284.779 214.236 284.765C210.877 284.751 204.337 283.089 200.889 282.175C196.142 280.918 191.711 278.871 187.081 277.339C187.789 289.993 188.572 302.723 188.091 315.425C187.844 321.882 187.356 331.088 185.446 337.161C181.901 348.427 170.01 353.517 159.734 356.966C174.51 398.858 228.209 411.464 267.613 402.993C287.623 398.693 309.276 386.829 320.508 369.359C321.559 367.717 327.212 357.516 326.271 356.464C318.797 354.362 307.964 349.718 303.684 342.993C299.666 336.687 299.185 325.798 298.91 318.413C298.464 306.535 299.233 294.644 299.92 282.814C294.575 284.298 287.836 286.764 282.279 286.833C278.315 286.881 277.168 283.515 280.156 281.186C315.06 277.222 331.238 248.356 337.05 216.721C338.575 208.429 340.141 197.348 339.694 189.001C339.667 188.438 340.017 187.634 339.2 187.771C335.174 196.929 325.887 202.377 316.345 204.458C285.068 211.266 255.996 197.925 254.691 163.137C254.567 159.757 255.886 155.91 255.721 153.182C255.687 152.585 255.55 151.637 254.931 151.444ZM82.6781 557.239V504.493C82.6781 502.487 86.683 501.663 88.4279 502.721C88.7645 502.927 90.1315 504.768 90.1315 504.995V669.951L393.874 669.456V504.995C393.874 501.766 401.328 501.127 401.328 504.5V557.995C422.431 556.03 445.32 552.788 465.084 544.929C466.155 544.503 469.061 543.637 469.364 542.73C466.526 513.74 463.518 483.973 456.572 455.67C448.26 421.789 435.394 398.748 402.997 383.401C381.104 373.027 356.415 367.181 333.484 359.432C320.089 397.937 275.664 414.885 237.497 413.208C202.888 411.69 164.116 394.495 152.754 359.439C115.411 373.632 66.569 380.186 43.6867 416.705C26.3342 444.39 21.3401 491.956 18.0496 524.402C17.4107 530.66 16.7925 536.96 16.5314 543.225C37.0301 551.991 59.2942 555.893 81.4347 558.002C81.8812 558.022 82.5613 557.603 82.6712 557.239H82.6781ZM25.5099 555V669.202L26.2587 669.951H81.9362L82.6849 669.202V566.197C82.3689 565.709 82.0049 565.545 81.4416 565.448C77.6565 564.789 72.9714 564.899 69.0764 564.39C54.2932 562.481 39.7848 559.17 25.5168 555H25.5099ZM458.001 555.494C442.469 559.953 426.608 563.099 410.526 564.947C407.703 565.27 403.787 564.72 401.335 566.197V668.707L402.083 669.456H457.266L458.015 668.707V555.501L458.001 555.494Z" fill="#37464F"/>
<path d="M25.5098 554.998C39.7778 559.168 54.2862 562.479 69.0694 564.389C72.9644 564.89 77.6494 564.787 81.4346 565.447C81.9979 565.543 82.3619 565.701 82.6779 566.196V669.2L81.9292 669.949H26.2585L25.5098 669.2V554.998Z" fill="white"/>
<path d="M230.429 237.287C233.552 235.457 235.353 238.148 238.073 239.311C253.077 245.694 266.767 244.115 279.009 233.002C281.126 231.081 285.297 224.571 288.047 227.326C290.798 230.08 287.216 233.438 285.412 235.65C272.638 251.301 253.326 254.985 235.628 245.389C233.562 244.27 225.717 240.045 230.423 237.289L230.429 237.287Z" fill="#37464F"/>
<path d="M233.168 198.316C234.748 197.856 241.411 200.006 244.001 200.206C247.772 200.487 251.509 200.233 255.191 199.477C257.129 199.079 258.956 197.032 260.879 199.237C264.445 203.338 254.724 206.904 251.812 207.542C246.618 208.669 236.122 207.46 232.35 203.414C230.853 201.813 230.894 198.99 233.168 198.323V198.316Z" fill="#37464F"/>
<path d="M193.442 160.512C206.968 159.832 207.243 180.84 193.785 180.84C180.328 180.84 180.301 161.172 193.442 160.512Z" fill="#37464F"/>
<path d="M298.292 158.52C313 155.491 314.538 179.933 299.171 178.312C288.73 177.206 288.613 160.512 298.292 158.52Z" fill="#37464F"/>
</g>
<defs>
<clipPath id="clip0_440_2954">
<rect width="488" height="624" fill="white"/>
</clipPath>
</defs>
</svg>
