<svg width="488" height="624" viewBox="0 0 488 624" fill="none" xmlns="http://www.w3.org/2000/svg">
<g clip-path="url(#clip0_440_2943)">
<path d="M283.013 155.941C290.471 155.489 310.464 156.099 316.558 160.21C319.742 162.362 318.712 166.631 314.609 166.638C309.128 166.638 301.289 164.363 295.099 164.123C287.117 163.815 279.802 165.329 272.134 165.61C269.536 165.706 265.896 165.843 265.549 162.383C265.092 157.86 270.981 157.332 274.158 156.853C277.021 156.421 280.136 156.119 283.02 155.948L283.013 155.941Z" fill="#37464F"/>
<path d="M191.732 155.942C199.163 155.496 209.974 155.661 217.145 157.586C222.449 159.012 223.655 164.158 217.95 165.638C202.291 163.569 186.742 163.719 171.2 166.501C167.662 165.364 168.194 161.444 171.2 159.834C175.658 157.449 186.545 156.243 191.732 155.935V155.942Z" fill="#37464F"/>
<path d="M301.665 38.9714C302.224 36.1345 299.545 29.5288 302.762 28.0486C306.661 26.2533 312.394 30.3648 315.496 32.6809C324.712 39.547 332.183 50.6273 332.469 62.4889C342.074 63.4825 351.345 67.2033 357.814 74.5491C359.736 76.7282 366.076 85.4855 360.868 86.9725C359.702 87.3083 356.546 86.438 356.812 87.8154C373.922 116.438 367.644 152.817 358.319 183.043C361.434 184.462 363.806 184.708 366.587 186.956C378.823 196.851 375.435 220.56 370.5 233.6C366.103 245.208 356.853 257.618 343.158 256.905C339.082 279.381 327.984 300.453 311.528 316.151L310.922 338.648C312.306 357.328 309.381 364.468 328.264 371.766C372.852 389.006 428.961 396.791 450.154 446.032C465.335 481.301 466.862 524.739 472.002 562.516C472.042 567.943 462.731 568.272 462.267 570.794L462.165 686.045L460.188 687.984L26.9493 687.997C25.6405 687.388 24.8361 685.106 24.8566 683.722L24.8975 569.903C24.7407 569.245 16.7174 567.162 16.1039 563.914C15.913 562.9 16.0357 561.105 16.0766 559.974C16.547 547.057 19.226 530.879 21.046 517.852C25.2179 488.003 31.1553 448.903 51.2579 425.516C77.7342 394.714 126.113 386.485 162.187 371.642C172.33 367.469 175.95 364.886 177.129 353.285C178.363 341.122 177.17 328.589 176.87 316.405C159.324 301.364 148.076 279.601 144 256.899C126.44 257.515 116.222 239.089 112.997 224.014C109.862 209.357 109.937 188.902 126.944 183.468C123.529 174.252 120.482 164.919 118.362 155.298C112.009 126.463 111.634 95.7299 130.837 71.6231C134.886 66.5455 139.508 62.4683 144.477 58.35C139.917 56.2326 134.143 55.4788 138.219 49.1061C144.511 39.2797 161.914 35.9769 172.078 32.5918C175.875 31.3241 179.495 29.4602 183.285 28.1583C221.99 14.8646 265.529 21.0112 301.665 38.9714ZM147.408 179.85C150.271 180.241 151.982 177.315 154.389 175.828C168.329 167.214 206.789 166.721 221.302 174.019C225.624 176.191 228.971 179.788 231.663 183.735C239.121 180.268 247.144 179.871 254.568 183.701C258.801 176.677 265.474 173.094 273.252 171.154C288.61 167.331 319.006 167.701 332.579 176.492C334.419 177.685 335.237 179.836 337.998 179.795L338.741 178.671C337.439 170.969 334.146 163.87 332.067 156.387C326.607 136.721 326.307 112.409 308.25 99.485C290.015 111.209 267.397 121.193 245.699 123.811C242.543 124.195 231.793 125.106 229.427 124.113C223.013 121.433 233.858 111.614 232.829 110.627C216.619 117.027 198.479 125.284 180.838 126.326C171.921 126.854 169.235 125.524 173.271 116.513C162.984 119.782 156.045 127.635 153.496 138.105C150.271 151.365 149.951 166.33 147.401 179.836L147.408 179.85ZM182.453 176.561C174.668 177.006 159.828 178.397 155.295 185.579C150.373 193.37 155.057 213.9 159.985 221.444C170.722 237.876 204.015 238.061 216.482 223.548C223.994 214.804 231.575 190.581 220.688 182.495C211.983 176.026 192.999 175.958 182.446 176.568L182.453 176.561ZM263.763 183.948C257.151 190.965 260.846 207.931 264.636 215.853C271.787 230.805 285.768 234.943 301.44 233.861C322.783 232.381 331.467 217.97 332.415 197.755C332.974 185.832 329.975 181.221 318.366 178.521C305.864 175.608 273.13 174.012 263.763 183.948ZM340.718 191.629C339.832 191.814 339.811 192.596 339.729 193.329C339.457 195.768 339.913 198.571 339.682 201.141C338.639 212.865 333.806 227.365 323.799 234.251C310.335 243.516 285.611 243.687 271.746 235.218C257.976 226.81 251.309 207.034 252.809 191.472C247.696 187.559 238.61 187.449 233.586 191.602C234.445 207.616 228.207 227.084 213.817 235.574C201.799 242.659 182.644 242.954 169.754 238.137C153.359 232.011 147.408 216.421 145.949 199.976C144.934 200.38 145.016 201.915 143.659 202.326C137.715 204.108 138.676 195.919 136.904 193.13C134.579 189.471 126.992 190.684 124.04 193.397C112.043 204.423 122.834 248.045 140.837 249.56C143.55 249.786 147.599 247.764 149.385 250.279C152.48 261.73 155.479 273.296 160.837 283.925C192.515 346.713 288.311 350.407 323.553 288.975C330.411 277.017 334.024 263.806 337.582 250.56C339.416 247.662 342.756 249.676 345.346 249.573C362.954 248.902 373.016 207.959 364.379 195.597C362.511 192.924 359.143 190.588 355.776 190.766C354.583 190.828 350.786 192.027 350.016 192.863C348.032 195.008 349.211 204.245 343.029 202.34C340.452 201.545 340.738 193.87 340.731 191.636L340.718 191.629ZM184.512 322.689C184.621 323.6 184.996 324.415 185.023 325.361C185.384 335.79 186.134 358.02 181.308 366.839C179.092 370.882 175.793 373.348 171.826 375.466C170.074 376.398 166.018 377.618 164.975 378.412C164.15 379.036 165.248 381.75 165.575 382.709C184.737 438.947 298.617 439.789 322.251 384.374C322.831 383.01 324.623 379.317 323.901 378.145C323.485 377.48 318.618 375.911 317.445 375.295C308.331 370.498 305.386 363.796 304.173 353.792C302.919 343.479 303.989 332.59 303.621 322.195C273.907 342.828 234.356 346.014 201.274 331.604L184.519 322.689H184.512ZM398.81 575.474C415.457 574.097 432.117 571.719 448.109 566.881C450.318 566.216 463.815 561.858 464.142 560.46C460.774 530.748 458.095 500.166 450.515 471.208C441.769 437.809 429.445 420.452 398.163 405.555C376.887 395.42 354.119 388.294 331.74 381.064C317.289 423.131 267.594 437.576 227.287 432.087C203.087 428.791 176.427 416.8 163.319 395.297C160.592 390.822 158.969 386.306 156.89 381.654C135.99 388.561 114.415 395.489 94.3602 404.582C57.5225 421.274 44.3934 441.126 35.368 480.253C30.6577 500.673 27.7401 522.532 25.4292 543.391C24.7816 549.222 23.9909 555.068 23.8818 560.92C41.6667 569.012 62.2874 573.254 81.7492 574.988C82.8263 575.083 88.825 575.803 88.825 574.748V520.758C88.825 519.606 91.2109 518.03 92.4856 518.03C93.7603 518.03 96.1462 519.606 96.1462 520.758V681.022H390.991V519.291C390.991 516.043 398.803 515.447 398.803 519.785V575.495L398.81 575.474ZM88.8318 582.834C69.7858 581.758 50.7943 578.441 32.6959 572.527V681.001H88.1024L88.8318 680.268V582.834ZM454.946 572.527C436.793 578.325 417.87 581.73 398.81 582.834V681.001H454.217L454.946 680.268V572.527Z" fill="#37464F"/>
<path d="M240.965 280.476C243.953 279.221 245.399 281.479 247.759 282.546C262.959 289.402 278.423 288.291 290.94 276.471C293.397 274.15 296.835 267.848 300.6 270.484C305.238 273.734 296.123 281.752 293.637 283.835C279.457 295.693 257.473 298.026 241.86 287.451C239.265 285.695 237.055 282.114 240.971 280.475L240.965 280.476Z" fill="#37464F"/>
<path d="M229.755 237.869C232.203 237.122 235.931 239.144 238.57 239.609C242.005 240.219 246.061 240.315 249.456 239.514C251.665 238.993 256.539 235.889 257.963 239.253C260.533 245.331 247.302 247.641 243.334 247.627C239.919 247.613 227.656 245.276 227.963 240.5C228.024 239.603 228.876 238.129 229.762 237.862L229.755 237.869Z" fill="#37464F"/>
<path d="M190.729 194.199C205.249 191.711 206.496 214.338 193.981 215.619C180.354 217.017 178.936 196.22 190.729 194.199Z" fill="#37464F"/>
<path d="M301.005 196.713C310.248 205.936 297.856 222.341 287.76 213.22C277.33 203.798 291.23 186.955 301.005 196.713Z" fill="#37464F"/>
</g>
<defs>
<clipPath id="clip0_440_2943">
<rect width="488" height="624" fill="white"/>
</clipPath>
</defs>
</svg>
