<svg width="207" height="202" viewBox="0 0 207 202" fill="none" xmlns="http://www.w3.org/2000/svg">
<g clip-path="url(#clip0_429_2994)">
<g clip-path="url(#clip1_429_2994)">
<path d="M131.589 137.479C131.079 139.991 131.453 142.571 131.589 145.086C131.847 149.899 131.367 152.529 136.084 155.195C143.506 159.388 156.084 161.968 164.522 164.96C184.243 171.953 193.417 179.553 198.896 200.359C201.879 211.684 204.621 228.359 204.974 240.028C204.992 240.662 205.045 241.579 204.954 242.172C204.69 243.862 201.345 244.363 200.017 245.001L199.605 297.822L199.169 298.243C193.013 298.498 186.787 298.287 180.605 298.344C123.415 298.871 66.0083 298.406 8.73243 298.578C8.01192 298.611 7.41001 298.284 7.08089 297.656C7.01863 281.796 6.60945 265.792 6.90892 249.906C6.9356 248.485 7.39519 246.626 7.13426 245.191C6.93264 244.082 3.39533 244.242 3.06918 242.172C2.96244 241.499 3.01581 240.321 3.04842 239.598C3.33603 232.893 4.51019 224.871 5.44715 218.158C7.27362 205.08 10.0044 189.648 18.9411 179.467C29.9147 166.965 51.355 163.356 66.4649 157.662C69.6316 156.47 74.3549 154.83 75.8374 151.577C77.0857 148.834 77.4623 139.786 77.0946 136.705C77.0679 136.474 77.1035 136.21 76.8841 136.059C74.9064 135.967 72.9613 136.263 70.9718 136.177C50.8599 135.305 34.5699 124.914 33.5173 103.43C32.4795 82.2296 46.0654 49.6214 59.2806 33.1868C74.4409 14.3294 108.696 10.5069 129.938 20.0023C140.704 24.8153 147.188 32.1844 153.854 41.5998C168.492 62.278 179.789 92.582 169.936 117.548C163.576 133.666 147.598 137.921 131.589 137.479ZM135.011 64.4338L126.75 44.8885C123.504 54.6122 116.376 62.4411 105.224 59.7781C104.4 59.5824 102.348 58.6453 101.856 58.6571C101.364 58.669 99.9137 59.5912 99.1783 59.8166C95.1814 61.0384 91.1994 59.7573 87.6947 57.7734L80.5104 63.6836C85.1685 64.0246 89.9629 63.8615 94.5024 65.1396C96.9545 65.8306 99.6527 66.9782 100.806 69.3921C103.916 68.0487 107.243 67.8649 110.422 69.1341C113.6 63.2121 121.87 64.0305 127.619 63.7814L135.011 64.4338ZM76.1043 66.4711L65.7414 71.0231C65.1129 76.7079 65.3501 84.7087 70.2305 88.5846C74.7344 92.1609 84.5695 92.843 89.7939 90.8057C96.0146 88.38 99.4719 80.8418 98.9619 74.4275C98.6387 70.3707 97.0761 69.0837 93.3401 68.025C87.7658 66.4474 81.8387 66.7113 76.1043 66.4682V66.4711ZM122.952 66.8626C120.909 67.0108 115.516 67.7107 114.196 69.2676C112.373 71.4175 112.331 76.2186 112.755 78.8786C114.603 90.4528 124.363 93.5132 134.842 91.6568C140.476 90.6574 143.776 87.0277 145.045 81.5535C141.946 77.0341 139.215 72.2745 136.624 67.4468C136.238 67.0998 132.894 66.8329 132.123 66.7973C129.318 66.6609 125.745 66.6668 122.952 66.8685V66.8626ZM109.156 71.7407H102.289C101.651 71.7407 102.179 73.6001 102.191 73.9886C102.727 90.8561 90.467 98.5871 74.7196 94.1893C71.3484 93.2463 68.072 91.3929 66.0261 88.4956C65.5428 88.4126 65.7266 88.7062 65.7059 89.0294C64.7778 104.672 71.5322 121.789 87.8874 125.899C88.8659 126.145 92.3468 126.519 92.7234 127.07C93.352 127.984 92.7886 129.297 91.5908 129.291C90.1408 129.286 87.3181 128.568 85.8297 128.174C83.7808 127.631 81.8684 126.747 79.8699 126.086C80.1753 131.548 80.5133 137.043 80.3058 142.526C80.199 145.314 79.9885 149.288 79.1642 151.909C77.6343 156.772 72.5018 158.97 68.066 160.459C74.4439 178.542 97.6217 183.984 114.629 180.327C123.266 178.471 132.612 173.349 137.46 165.808C137.914 165.099 140.354 160.696 139.948 160.242C136.722 159.335 132.046 157.33 130.199 154.427C128.464 151.704 128.257 147.004 128.138 143.816C127.945 138.689 128.277 133.556 128.574 128.449C126.267 129.09 123.358 130.154 120.96 130.184C119.249 130.205 118.754 128.752 120.043 127.746C135.109 126.035 142.091 113.575 144.6 99.9186C145.258 96.3393 145.934 91.556 145.741 87.9529C145.73 87.7098 145.881 87.3628 145.528 87.4221C143.79 91.3751 139.782 93.7267 135.663 94.6252C122.163 97.564 109.615 91.8051 109.052 76.788C108.999 75.329 109.568 73.6683 109.497 72.491C109.482 72.233 109.423 71.8238 109.156 71.7407ZM34.8071 246.911V224.142C34.8071 223.276 36.5357 222.92 37.2888 223.377C37.4341 223.466 38.0242 224.26 38.0242 224.358V295.565L169.127 295.352V224.358C169.127 222.965 172.344 222.689 172.344 224.145V247.237C181.453 246.389 191.332 244.989 199.863 241.597C200.325 241.413 201.579 241.039 201.71 240.648C200.485 228.133 199.187 215.284 196.189 203.066C192.601 188.441 187.048 178.494 173.064 171.87C163.615 167.392 152.958 164.868 143.061 161.523C137.279 178.145 118.104 185.46 101.63 184.737C86.6925 184.081 69.9577 176.659 65.0536 161.526C48.9355 167.653 27.854 170.482 17.9775 186.246C10.4877 198.197 8.33214 218.73 6.91188 232.736C6.63613 235.437 6.36928 238.157 6.25661 240.861C15.1043 244.645 24.714 246.329 34.2704 247.24C34.4631 247.249 34.7567 247.068 34.8041 246.911H34.8071ZM10.1319 245.944V295.242L10.4551 295.565H34.4869L34.81 295.242V250.778C34.6736 250.567 34.5165 250.496 34.2734 250.454C32.6396 250.17 30.6175 250.217 28.9363 249.998C22.5555 249.173 16.2933 247.744 10.1349 245.944H10.1319ZM196.806 246.157C190.102 248.082 183.255 249.44 176.314 250.238C175.095 250.377 173.405 250.14 172.347 250.778V295.028L172.67 295.352H196.488L196.812 295.028V246.16L196.806 246.157Z" fill="#37464F"/>
<path d="M92.8906 103.793C94.3879 103.348 94.8653 104.662 95.8853 105.43C101.516 109.653 107.416 110.403 113.693 107.007C114.779 106.42 117.198 104.122 118.067 105.56C118.936 106.999 117.088 108.036 116.104 108.778C109.136 114.021 100.662 113.573 94.2338 107.725C93.4836 107.043 90.6312 104.463 92.8876 103.793H92.8906Z" fill="#37464F"/>
<path d="M99.7616 91.9746C100.444 91.7759 103.32 92.7041 104.437 92.7901C106.065 92.9117 107.678 92.802 109.268 92.4758C110.104 92.3038 110.892 91.4201 111.723 92.372C113.261 94.1424 109.066 95.6814 107.809 95.9572C105.567 96.4436 101.037 95.9216 99.4088 94.175C98.7624 93.484 98.7802 92.2652 99.7616 91.9776V91.9746Z" fill="#37464F"/>
<path d="M82.6141 75.6554C88.4523 75.3618 88.5709 84.4302 82.7624 84.4302C76.9539 84.4302 76.942 75.9401 82.6141 75.6554Z" fill="#37464F"/>
<path d="M127.87 74.796C134.218 73.4882 134.882 84.0393 128.249 83.3395C123.742 82.862 123.692 75.656 127.87 74.796Z" fill="#37464F"/>
</g>
</g>
<defs>
<clipPath id="clip0_429_2994">
<rect width="207" height="202" fill="white"/>
</clipPath>
<clipPath id="clip1_429_2994">
<rect width="202" height="283.608" fill="white" transform="translate(3 15)"/>
</clipPath>
</defs>
</svg>
