<?xml version="1.0" encoding="utf-8"?>
<!-- Generator: Adobe Illustrator 26.2.0, SVG Export Plug-In . SVG Version: 6.00 Build 0)  -->
<svg version="1.1" id="Group_3" xmlns="http://www.w3.org/2000/svg" xmlns:xlink="http://www.w3.org/1999/xlink" x="0px" y="0px"
	 viewBox="0 0 1428 215.5" style="enable-background:new 0 0 1428 215.5;" xml:space="preserve">
<style type="text/css">
	.st0{clip-path:url(#SVGID_00000007428215708577398400000017408540043539834029_);}
	.st1{fill:#36474F;}
</style>
<g>
	<defs>
		<rect id="SVGID_1_" x="-97.5" y="0" width="1771.9" height="215.5"/>
	</defs>
	<clipPath id="SVGID_00000052801631578753395740000018325833177507292845_">
		<use xlink:href="#SVGID_1_"  style="overflow:visible;"/>
	</clipPath>
	<g id="Group_2" style="clip-path:url(#SVGID_00000052801631578753395740000018325833177507292845_);">
		<path id="Path_1" class="st1" d="M93.3,117.6L93.3,117.6c2.9,0,5.2-2.3,5.2-5.1c0-2.9-2.3-5.2-5.1-5.2c-0.8,0-1.6,0.2-2.3,0.5
			c-0.1-2.8-0.4-5.7-0.8-8.4c2.8,0.7,5.6-1,6.3-3.7c0.7-2.8-1-5.6-3.7-6.3c-1.5-0.4-3.1-0.1-4.4,0.9c-0.7-2.8-1.5-5.5-2.5-8.1
			c0.1,0,0.2,0,0.2,0c0.7,0,1.4-0.1,2-0.4c2.6-1.1,3.9-4.1,2.8-6.8s-4.1-3.9-6.8-2.8l0,0c-0.7,0.3-1.3,0.7-1.8,1.3
			c-1.2-2.6-2.6-5-4-7.5c2.8-0.4,4.8-3,4.4-5.8c-0.4-2.8-3-4.8-5.8-4.4c-1.6,0.2-3,1.1-3.8,2.5c-1.7-2.3-3.5-4.5-5.4-6.6
			c0.7-0.2,1.4-0.7,1.9-1.2c2-2,2-5.3,0-7.3c-2-1.9-5.3-1.9-7.3,0c-0.5,0.6-1,1.2-1.2,1.9c-2.1-1.9-4.3-3.7-6.6-5.4
			c0.7-0.4,1.2-0.9,1.7-1.6c1.6-2.4,1-5.6-1.4-7.2c-2.4-1.6-5.6-1-7.2,1.4c-0.4,0.7-0.7,1.4-0.8,2.2c-2.4-1.4-4.9-2.8-7.5-4
			c2.1-1.9,2.3-5.2,0.4-7.3s-5.2-2.3-7.3-0.4c-1.2,1-1.8,2.6-1.7,4.1c-2.7-0.9-5.4-1.8-8.1-2.5c0.5-0.6,0.8-1.3,0.9-2
			c0.6-2.8-1.2-5.5-4-6.1c-2.8-0.6-5.5,1.2-6.1,4c0,0,0,0,0,0.1c-0.1,0.7-0.1,1.5,0.1,2.2c-2.8-0.4-5.6-0.7-8.4-0.8
			c0.3-0.7,0.5-1.4,0.5-2.2c0-2.9-2.3-5.2-5.2-5.2c-2.9,0-5.2,2.3-5.2,5.2c0,0.8,0.2,1.5,0.5,2.2c-2.8,0.1-5.7,0.4-8.4,0.8
			c0.2-0.7,0.2-1.5,0.1-2.2c-0.6-2.8-3.3-4.6-6.1-4.1c-1.3,0.3-2.5,1.1-3.3,2.2c-1.2,1.8-1.2,4.2,0.2,5.9c-2.8,0.7-5.5,1.5-8.1,2.5
			c0-0.8-0.1-1.5-0.4-2.2c-1.1-2.6-4.1-3.9-6.8-2.8s-3.9,4.1-2.8,6.8l0,0c0.3,0.7,0.7,1.3,1.3,1.8c-2.6,1.2-5,2.6-7.5,4
			c-0.4-2.8-3-4.8-5.8-4.4c-0.8,0.1-1.5,0.4-2.1,0.8c-2.4,1.6-3,4.7-1.5,7.1c0.4,0.7,1,1.2,1.7,1.6c-2.3,1.7-4.5,3.5-6.6,5.4
			c-0.2-0.7-0.7-1.4-1.2-1.9c-2-2-5.3-2-7.3,0c-2,2-2,5.3,0,7.3c0.6,0.6,1.2,1,2,1.2c-1.9,2.1-3.7,4.3-5.4,6.6
			c-1.5-2.4-4.6-3.2-7.1-1.8c-2.4,1.5-3.2,4.6-1.8,7.1c0.8,1.3,2.1,2.2,3.7,2.5c-1.4,2.4-2.8,4.9-4,7.5c-1-1.1-2.4-1.7-3.8-1.7
			c-2.9,0-5.2,2.3-5.2,5.2c0,2.9,2.3,5.2,5.2,5.2c0.1,0,0.2,0,0.2,0c-0.9,2.6-1.8,5.3-2.5,8.1c-2.3-1.7-5.5-1.2-7.2,1.1
			s-1.2,5.5,1.1,7.2c0.6,0.4,1.3,0.8,2.1,0.9c0.3,0.1,0.7,0.1,1,0.1c0.4,0,0.8-0.1,1.2-0.2c-0.4,2.8-0.7,5.6-0.8,8.4
			c-2.6-1.2-5.7-0.1-6.9,2.5c-1.2,2.6-0.1,5.7,2.5,6.9c0.7,0.3,1.4,0.5,2.2,0.5l0,0c0.8,0,1.5-0.2,2.2-0.5c0.1,2.8,0.4,5.7,0.8,8.4
			c-0.7-0.2-1.5-0.2-2.2-0.1c-2.8,0.5-4.6,3.2-4.1,6c0.5,2.8,3.2,4.6,6,4.1c0,0,0.1,0,0.1,0c0.7-0.2,1.4-0.5,2-0.9
			c0.7,2.8,1.5,5.5,2.5,8.1c-0.1,0-0.2,0-0.2,0c-2.9,0-5.2,2.3-5.2,5.1c0,2.9,2.3,5.2,5.1,5.2c1.5,0,2.9-0.6,3.9-1.7
			c1.2,2.6,2.6,5,4,7.5c-2.8,0.4-4.8,3-4.4,5.8c0.4,2.8,3,4.8,5.8,4.4c1.6-0.2,3-1.1,3.8-2.5c1.7,2.3,3.5,4.5,5.4,6.6
			c-0.7,0.2-1.4,0.6-2,1.2c-2,2-2,5.3,0,7.3c1,1,2.3,1.5,3.7,1.5l0,0c2.2,0,4.2-1.4,4.9-3.5c2.1,1.9,4.3,3.7,6.6,5.4
			c-2.5,1.4-3.3,4.6-1.8,7.1c1.4,2.5,4.6,3.3,7.1,1.8c1.4-0.8,2.3-2.2,2.5-3.7c2.4,1.4,4.9,2.8,7.5,4c-2.1,1.9-2.3,5.2-0.3,7.3
			c1,1.1,2.4,1.7,3.8,1.7l0,0c2.8,0,5.1-2.3,5.2-5.1c0-0.1,0-0.2,0-0.3c2.6,0.9,5.4,1.8,8.1,2.5c-0.5,0.6-0.8,1.3-0.9,2
			c-0.6,2.8,1.3,5.5,4.1,6.1c2.8,0.6,5.5-1.3,6.1-4.1c0.1-0.7,0.1-1.5-0.1-2.2c2.8,0.4,5.6,0.7,8.4,0.8c-0.3,0.7-0.5,1.4-0.5,2.2
			c0,2.9,2.3,5.2,5.2,5.2c2.9,0,5.2-2.3,5.2-5.2c0-0.8-0.2-1.5-0.5-2.2c2.8-0.1,5.7-0.4,8.4-0.8c-0.2,0.7-0.2,1.5-0.1,2.2
			c0.6,2.8,3.3,4.6,6.1,4.1c1.3-0.3,2.5-1.1,3.3-2.2c1.2-1.8,1.2-4.2-0.2-5.9c2.8-0.7,5.5-1.5,8.1-2.5c-0.1,2.8,2.1,5.3,4.9,5.4
			c2.8,0.1,5.3-2.1,5.4-4.9c0.1-1.5-0.5-3-1.7-4c2.6-1.2,5-2.6,7.5-4c0.4,2.8,3,4.8,5.8,4.4s4.8-3,4.4-5.8c-0.2-1.6-1.1-3-2.5-3.8
			c2.3-1.7,4.5-3.5,6.6-5.4c0.9,2.7,3.9,4.1,6.6,3.2c0.7-0.3,1.4-0.7,2-1.2c2-2,2-5.3,0-7.3c-0.6-0.5-1.2-0.9-2-1.2
			c1.9-2.1,3.7-4.3,5.4-6.6c0.9,1.6,2.6,2.5,4.4,2.5l0,0c2.9,0,5.2-2.3,5.2-5.2c0-2.6-1.9-4.8-4.4-5.1c1.4-2.4,2.8-4.9,4-7.5
			c1,1.1,2.4,1.7,3.8,1.7c2.9,0,5.2-2.3,5.2-5.2c0-2.9-2.3-5.2-5.2-5.2c0,0,0,0,0,0c-0.1,0-0.2,0-0.2,0c0.9-2.6,1.8-5.3,2.5-8.1
			c0.9,0.7,2,1,3.1,1c2.9,0,5.2-2.3,5.2-5.2c0-2.5-1.7-4.6-4.2-5.1c-0.7-0.1-1.5-0.1-2.2,0.1c0.4-2.8,0.7-5.6,0.8-8.4
			C91.8,117.4,92.5,117.6,93.3,117.6 M91.1,92.3c0.1,0,0.3,0,0.4,0c1.1,0,2.1,0.9,2.1,2.1c0,1-0.7,1.8-1.7,2c-0.1,0-0.3,0-0.4,0
			c-1.1,0-2.1-0.9-2.1-2.1C89.4,93.3,90.1,92.5,91.1,92.3 M85.4,75c1.1-0.4,2.3,0.1,2.7,1.1c0.4,1.1-0.1,2.3-1.1,2.7l0,0
			c-0.2,0.1-0.5,0.2-0.8,0.2c-1.1,0-2.1-0.9-2.1-2.1C84.2,76.1,84.7,75.3,85.4,75 M76.5,59.2c0.9-0.6,2.2-0.4,2.9,0.6
			s0.4,2.2-0.6,2.9c0,0,0,0,0,0c-0.3,0.2-0.7,0.3-1.1,0.3c-1.1,0-2.1-0.9-2.1-2.1C75.6,60.2,75.9,59.5,76.5,59.2 M50.3,34.1
			c0.6-0.9,1.9-1.2,2.9-0.6s1.2,1.9,0.6,2.9c-0.6,0.9-1.9,1.2-2.9,0.6C50,36.3,49.7,35.1,50.3,34.1C50.3,34.1,50.3,34.1,50.3,34.1
			 M34.1,25.9c0.3-0.8,1.1-1.3,1.9-1.3c0.3,0,0.5,0.1,0.8,0.2c1.1,0.4,1.6,1.6,1.1,2.7c-0.4,1-1.6,1.5-2.7,1.1
			C34.2,28.1,33.7,26.9,34.1,25.9 M16.6,21c0.2-1,1-1.7,2-1.7c0.1,0,0.3,0,0.4,0c1.1,0.2,1.8,1.3,1.6,2.4s-1.3,1.8-2.4,1.6
			C17.1,23.2,16.4,22.1,16.6,21C16.6,21,16.6,21,16.6,21 M-19.3,20.2c0.3-0.5,0.8-0.8,1.3-0.9c0.1,0,0.3,0,0.4,0c1,0,1.8,0.7,2,1.7
			c0.2,1.1-0.5,2.2-1.6,2.4c-0.1,0-0.3,0-0.4,0c-1.1,0-2.1-0.9-2.1-2.1C-19.7,21-19.6,20.6-19.3,20.2 M-35.8,24.8
			c1.1-0.4,2.3,0.1,2.7,1.1c0.4,1.1-0.1,2.3-1.1,2.7s-2.3-0.1-2.7-1.1c0,0,0,0,0,0C-37.4,26.4-36.9,25.2-35.8,24.8 M-52.2,33.5
			c0.3-0.2,0.7-0.4,1.1-0.4c1.1,0,2.1,0.9,2.1,2.1c0,1.1-0.9,2.1-2.1,2.1s-2.1-0.9-2.1-2.1C-53.1,34.6-52.8,33.9-52.2,33.5
			 M-78.7,61.3c-0.2-1.1,0.5-2.2,1.6-2.4c1.1-0.2,2.2,0.5,2.4,1.6c0.1,0.5,0,1.1-0.3,1.6c-0.6,0.9-1.9,1.2-2.9,0.6
			C-78.3,62.3-78.6,61.8-78.7,61.3 M-86,78.8c-1.1-0.4-1.5-1.6-1.1-2.7c0.4-1.1,1.6-1.5,2.7-1.1c1,0.4,1.5,1.6,1.1,2.7
			C-83.8,78.7-85,79.2-86,78.8 M-90.9,96.3c-1.1-0.2-1.9-1.3-1.6-2.4c0.2-1,1.1-1.7,2.1-1.7c0.1,0,0.3,0,0.4,0
			c1.1,0.2,1.8,1.3,1.6,2.4C-88.7,95.8-89.8,96.6-90.9,96.3 M-90.1,132.6c-1.1,0.2-2.2-0.5-2.4-1.6s0.5-2.2,1.6-2.4l0,0
			c0.1,0,0.3,0,0.4,0c1.1,0,2.1,0.9,2.1,2.1C-88.5,131.5-89.2,132.4-90.1,132.6 M-84.5,149.8c-1.1,0.4-2.3-0.1-2.7-1.2
			c-0.4-1,0.1-2.2,1.1-2.6c1-0.5,2.3,0,2.7,1.1C-82.9,148.2-83.4,149.4-84.5,149.8C-84.4,149.8-84.4,149.8-84.5,149.8 M-75.5,165.7
			c-0.9,0.6-2.2,0.4-2.9-0.6c-0.6-0.9-0.4-2.2,0.6-2.9c0.9-0.6,2.2-0.4,2.9,0.6c0,0,0,0,0,0C-74.3,163.8-74.6,165.1-75.5,165.7
			C-75.5,165.7-75.5,165.7-75.5,165.7 M-49.4,190.7c-0.4,0.6-1,0.9-1.7,0.9c-0.4,0-0.8-0.1-1.1-0.3c-0.9-0.6-1.2-1.9-0.6-2.9
			s1.9-1.2,2.9-0.6C-49,188.5-48.7,189.8-49.4,190.7C-49.4,190.7-49.4,190.7-49.4,190.7 M-33.1,199c-0.5,1-1.6,1.5-2.7,1.1
			c-1.1-0.4-1.6-1.6-1.1-2.7c0.3-0.8,1.1-1.3,1.9-1.3c1.1,0,2.1,0.9,2.1,2.1C-33,198.4-33,198.7-33.1,199 M-15.6,203.8
			c-0.2,1.1-1.3,1.8-2.4,1.6c-1.1-0.2-1.8-1.3-1.6-2.4c0.2-1,1-1.7,2-1.7c0.1,0,0.3,0,0.4,0C-16.1,201.7-15.4,202.7-15.6,203.8
			 M20.3,204.6c-0.3,0.5-0.8,0.8-1.3,0.9c-1.1,0.2-2.2-0.5-2.5-1.6c-0.2-1.1,0.5-2.2,1.6-2.5c0,0,0,0,0.1,0c0.1,0,0.3,0,0.4,0
			c1,0,1.8,0.7,2,1.7C20.7,203.6,20.6,204.1,20.3,204.6 M37.9,199c-0.2,0.5-0.6,0.9-1.1,1.1c-1.1,0.4-2.2-0.1-2.7-1.1
			c-0.4-1.1,0.1-2.3,1.1-2.7c1.1-0.4,2.3,0.1,2.7,1.1C38.1,197.9,38.1,198.5,37.9,199 M53.2,191.3c-0.9,0.6-2.2,0.4-2.9-0.6
			s-0.4-2.2,0.6-2.9c0.9-0.6,2.2-0.4,2.9,0.6c0,0,0,0,0,0C54.4,189.4,54.2,190.6,53.2,191.3C53.2,191.3,53.2,191.3,53.2,191.3
			 M79.4,165.1c-0.4,0.6-1,0.9-1.7,0.9l0,0c-1.1,0-2.1-0.9-2.1-2.1s0.9-2.1,2.1-2.1s2.1,0.9,2.1,2.1
			C79.7,164.4,79.6,164.8,79.4,165.1 M87,146c1.1,0.4,1.6,1.6,1.1,2.7c-0.4,1.1-1.6,1.6-2.7,1.1c-1.1-0.4-1.5-1.6-1.1-2.7
			c0.3-0.8,1.1-1.3,1.9-1.3C86.5,145.9,86.8,145.9,87,146 M91.5,128.5c1.1,0,2.1,0.9,2.1,2.1s-0.9,2.1-2.1,2.1c-0.1,0-0.3,0-0.4,0
			c-1.1-0.2-1.8-1.3-1.6-2.4C89.7,129.2,90.5,128.5,91.5,128.5 M93.3,110.4c1.1,0,2.1,0.9,2.1,2.1c0,1.1-0.9,2.1-2.1,2.1l0,1.6v-1.6
			c-1.1,0-2.1-0.9-2.1-2.1C91.3,111.3,92.2,110.4,93.3,110.4L93.3,110.4 M0.5,200.1c-48.4,0-87.6-39.2-87.6-87.6
			s39.2-87.6,87.6-87.6c48.4,0,87.6,39.2,87.6,87.6C88.1,160.8,48.9,200,0.5,200.1 M64.7,45.3c0.4-0.4,0.9-0.6,1.5-0.6
			c1.1,0,2.1,0.9,2.1,2.1c0,0.6-0.2,1.1-0.6,1.5c-0.8,0.8-2.1,0.8-2.9,0c0,0,0,0,0,0C63.9,47.5,63.9,46.1,64.7,45.3 M-1.6,19.6
			c0-1.1,0.9-2.1,2.1-2.1c1.1,0,2.1,0.9,2.1,2.1s-0.9,2.1-2.1,2.1c0,0,0,0,0,0C-0.6,21.7-1.6,20.8-1.6,19.6 M-66.6,45.3
			c0.8-0.8,2.1-0.9,2.9-0.2c0.8,0.8,0.9,2.1,0.2,2.9c0,0.1-0.1,0.1-0.2,0.2c-0.8,0.8-2.1,0.8-2.9,0C-67.4,47.4-67.4,46.1-66.6,45.3
			C-66.6,45.3-66.6,45.3-66.6,45.3 M-92.3,114.5c-1.1,0-2.1-0.9-2.1-2.1c0-1.1,0.9-2.1,2.1-2.1c1.1,0,2.1,0.9,2.1,2.1l0,0
			C-90.3,113.6-91.2,114.5-92.3,114.5 M-63.7,179.5c-0.8,0.8-2.1,0.8-2.9,0c-0.8-0.8-0.8-2.1,0-2.9c0.8-0.8,2.1-0.8,2.9,0
			C-62.9,177.4-62.9,178.7-63.7,179.5C-63.7,179.5-63.7,179.5-63.7,179.5 M2.6,205.2c0,1.1-0.9,2.1-2.1,2.1s-2.1-0.9-2.1-2.1
			c0-1.1,0.9-2.1,2.1-2.1C1.6,203.2,2.6,204.1,2.6,205.2 M67.6,179.5c-0.8,0.8-2.1,0.8-2.9,0c-0.8-0.8-0.8-2.1,0.1-2.9
			c0.8-0.8,2.1-0.8,2.9,0C68.4,177.4,68.4,178.7,67.6,179.5 M0.5,33.7c-43.5,0-78.7,35.2-78.7,78.7s35.2,78.7,78.7,78.7
			s78.7-35.2,78.7-78.7c0,0,0,0,0,0C79.1,69,43.9,33.8,0.5,33.7 M0.5,188c-41.7,0-75.6-33.8-75.6-75.6s33.8-75.6,75.6-75.6
			c41.7,0,75.6,33.8,75.6,75.6C76,154.2,42.2,188,0.5,188"/>
		<path id="Path_2" class="st1" d="M11.9,212.4l-9.7-95.2c2.7-1,4.1-3.9,3.1-6.6s-3.9-4.1-6.6-3.1s-4.1,3.9-3.1,6.6
			c0.5,1.5,1.7,2.6,3.1,3.1l-9.7,95.2h-5.3v3.1h33.5v-3.1H11.9z M0.5,110.4c1.1,0,2.1,0.9,2.1,2.1c0,1.1-0.9,2.1-2.1,2.1
			c-1.1,0-2.1-0.9-2.1-2.1c0,0,0,0,0,0C-1.6,111.3-0.6,110.4,0.5,110.4 M0.5,130.9l8.3,81.5H-7.8L0.5,130.9z"/>
		<path id="Path_3" class="st1" d="M217.4,151.5l-23.4-53h-66.1v117h185.5v-64H217.4z M131,101.6h61l3.7,8.4H131V101.6z M131,113.1
			h66.1l1,2.2H131V113.1z M131,118.5h68.4l11.6,26.3v6.7h-5.7v-10.8c0.2-5-3.7-9.3-8.8-9.5s-9.3,3.7-9.5,8.8c0,0.2,0,0.5,0,0.7v10.8
			h-4.2v-10.8c0-5.2-3.7-9.5-8.2-9.5s-8.2,4.3-8.2,9.5v10.8h-3v-10.8c0-5.3-3-9.5-6.8-9.5s-6.8,4.2-6.8,9.5v10.8h-2.2v-10.8
			c0-5.4-2.3-9.5-5.4-9.5s-5.4,4.1-5.4,9.5v10.8h-1.2v-10.8c0-1.6-0.2-9.5-3.9-9.5c-0.3,0-0.5,0.1-0.8,0.1L131,118.5z M202.2,140.7
			v10.8h-12v-10.8c-0.2-3.3,2.3-6.2,5.7-6.4c3.3-0.2,6.2,2.3,6.4,5.7C202.2,140.2,202.2,140.4,202.2,140.7 M179.7,140.7v10.8h-10.1
			v-10.8c0-3.5,2.3-6.4,5.1-6.4S179.7,137.1,179.7,140.7 M160.4,140.7v10.8H153v-10.8c0-3.4,1.7-6.4,3.7-6.4
			S160.4,137.3,160.4,140.7 M144.6,140.7v10.8h-4.7v-10.8c0-4,1.5-6.4,2.3-6.4S144.6,136.7,144.6,140.7 M131,140.7
			c-0.1-1.9,0.2-3.8,0.8-5.7c0.6,1.8,0.8,3.8,0.8,5.7v10.8H131L131,140.7z M131,154.6h84.4l3,6.8c-4.2,1-7.2,4.8-7.3,9.1v10.8h-5.7
			v-10.8c0.2-5-3.7-9.3-8.8-9.5s-9.3,3.7-9.5,8.8c0,0.2,0,0.5,0,0.7v10.8h-4.2v-10.8c0-5.2-3.7-9.5-8.2-9.5s-8.2,4.3-8.2,9.5v10.8
			h-3v-10.8c0-5.3-3-9.5-6.8-9.5s-6.8,4.2-6.8,9.5v10.8h-2.2v-10.8c0-5.4-2.3-9.5-5.4-9.5s-5.4,4.1-5.4,9.5v10.8h-1.2v-10.8
			c0-1.6-0.2-9.5-3.9-9.5c-0.3,0-0.5,0.1-0.8,0.1L131,154.6z M227.2,181.3h-13v-10.8c0.1-3.1,2.4-5.7,5.5-6.2L227.2,181.3z
			 M227,173.3l-2.8-6.2c1.7,1.1,2.7,3,2.8,5V173.3z M202.2,170.5v10.8h-12v-10.8c-0.2-3.3,2.3-6.2,5.7-6.4c3.3-0.2,6.2,2.3,6.4,5.7
			C202.2,170,202.2,170.3,202.2,170.5 M179.7,170.5v10.8h-10.1v-10.8c0-3.5,2.3-6.4,5.1-6.4S179.7,167,179.7,170.5 M160.4,170.5
			v10.8H153v-10.8c0-3.4,1.7-6.4,3.7-6.4S160.4,167.1,160.4,170.5 M144.6,170.5v10.8h-4.7v-10.8c0-4,1.5-6.4,2.3-6.4
			S144.6,166.5,144.6,170.5 M131,170.5c-0.1-1.9,0.2-3.8,0.8-5.7c0.6,1.8,0.8,3.8,0.8,5.7v10.8H131L131,170.5z M132.5,212.4H131
			v-13.9c-0.1-1.9,0.2-3.8,0.8-5.7c0.6,1.8,0.8,3.8,0.8,5.7L132.5,212.4z M144.6,212.4h-4.7v-13.9c0-4,1.5-6.4,2.3-6.4
			s2.3,2.4,2.3,6.4L144.6,212.4z M160.4,212.4H153v-13.9c0-3.4,1.7-6.4,3.7-6.4s3.7,3,3.7,6.4L160.4,212.4z M179.7,212.4h-10.1
			v-13.9c0-3.5,2.3-6.4,5.1-6.4s5.1,2.9,5.1,6.4L179.7,212.4z M202.2,212.4h-12v-13.9c-0.2-3.3,2.3-6.2,5.7-6.4
			c3.3-0.2,6.2,2.3,6.4,5.7c0,0.2,0,0.5,0,0.7L202.2,212.4z M228.2,212.4h-14v-13.9c0-3.5,3.1-6.4,7-6.4s7,2.9,7,6.4L228.2,212.4z
			 M221.2,189c-5.6,0-10.1,4.3-10.1,9.5v13.9h-5.7v-13.9c0.2-5-3.7-9.3-8.8-9.5c-5-0.2-9.3,3.7-9.5,8.8c0,0.2,0,0.5,0,0.7v13.9h-4.2
			v-13.9c0-5.2-3.7-9.5-8.2-9.5s-8.2,4.3-8.2,9.5v13.9h-3v-13.9c0-5.3-3-9.5-6.8-9.5s-6.8,4.2-6.8,9.5v13.9h-2.2v-13.9
			c0-5.4-2.3-9.5-5.4-9.5s-5.4,4.1-5.4,9.5v13.9h-1.1v-13.9c0-1.6-0.2-9.5-3.9-9.5c-0.3,0-0.5,0.1-0.8,0.1v-4.7h97.6l12.4,28h-9.7
			v-13.9C231.3,193.3,226.7,189,221.2,189 M251.1,212.4h-6.7l-5-11.3c0.7-2.5,3-4.3,5.7-4.3c3.4,0.1,6.1,3,6,6.4L251.1,212.4z
			 M271.6,212.4h-10.1v-9.3c0-3.5,2.3-6.4,5.1-6.4s5,2.9,5,6.4L271.6,212.4z M288.2,212.4h-7.4v-9.3c0-3.4,1.7-6.4,3.7-6.4
			s3.7,3,3.7,6.4L288.2,212.4z M301.3,212.4h-4.7v-9.3c0-4,1.5-6.4,2.3-6.4s2.3,2.4,2.3,6.4V212.4z M310.2,212.4h-1.6v-9.3
			c-0.1-1.9,0.2-3.8,0.8-5.7c0.6,1.8,0.8,3.8,0.8,5.7L310.2,212.4z M310.2,193.8c-0.2-0.1-0.5-0.1-0.8-0.1c-3.7,0-3.9,7.9-3.9,9.5
			v9.3h-1.2v-9.3c0-5.4-2.3-9.5-5.4-9.5s-5.4,4.1-5.4,9.5v9.3h-2.2v-9.3c0-5.3-3-9.5-6.8-9.5s-6.8,4.2-6.8,9.5v9.3h-3v-9.3
			c0-5.2-3.7-9.5-8.2-9.5s-8.2,4.3-8.2,9.5v9.3h-4.2v-9.3c0.1-5.1-4-9.4-9.1-9.5c-2.9,0-5.6,1.4-7.3,3.8l-5.8-13h78.3L310.2,193.8z
			 M239,181.3v-9.3c-0.2-3.3,2.3-6.2,5.7-6.4c3.3-0.2,6.2,2.3,6.4,5.7c0,0.2,0,0.5,0,0.7v9.3H239z M261.5,181.3v-9.3
			c0-3.5,2.3-6.4,5.1-6.4s5,2.9,5,6.4v9.3H261.5z M280.9,181.3v-9.3c0-3.4,1.7-6.4,3.7-6.4s3.7,3,3.7,6.4v9.3H280.9z M296.7,181.3
			v-9.3c0-4,1.5-6.4,2.3-6.4s2.3,2.4,2.3,6.4v9.3H296.7z M310.2,181.3h-1.6v-9.3c-0.1-1.9,0.2-3.8,0.8-5.7c0.6,1.8,0.8,3.8,0.8,5.7
			L310.2,181.3z M310.2,162.7c-0.2-0.1-0.5-0.1-0.8-0.1c-3.7,0-3.9,7.9-3.9,9.5v9.3h-1.2v-9.3c0-5.4-2.3-9.5-5.4-9.5
			s-5.4,4.1-5.4,9.5v9.3h-2.2v-9.3c0-5.3-3-9.5-6.8-9.5s-6.8,4.2-6.8,9.5v9.3h-3v-9.3c0-5.2-3.7-9.5-8.2-9.5s-8.2,4.3-8.2,9.5v9.3
			h-4.2v-9.3c0.2-5-3.7-9.3-8.8-9.5s-9.3,3.7-9.5,8.8c0,0.2,0,0.5,0,0.7v9.3h-5.3l-0.5-1v-8.3c-0.1-4.5-3.3-8.3-7.7-9.2l-3.7-8.3
			h91.4L310.2,162.7z"/>
		<path id="Path_4" class="st1" d="M1546.9,201.1h-9.7l-5.4-11.3h-9.3l-5.4-11.3h-9.3l-5.4-11.3h-9.3l-5.4-11.3h-9.3l-5.4-11.3h-9.3
			l-5.4-11.3h-8.7v-17.2h-46.2v17.2h-8.7l-5.4,11.3h-9.3l-5.4,11.3h-9.3l-5.4,11.3h-9.3l-5.4,11.3h-9.3l-5.4,11.3h-9.3l-5.4,11.3
			h-9.7l-6.9,14.4l255,0L1546.9,201.1z M1515.1,181.7l3.9,8.2h-61.2l-1.6-8.2H1515.1z M1500.4,170.4l3.9,8.2h-48.7l-1.6-8.2H1500.4z
			 M1485.6,159.1l3.9,8.2h-36.2l-1.6-8.2L1485.6,159.1z M1470.9,147.9l3.9,8.2h-23.7l-1.6-8.2L1470.9,147.9z M1456.2,136.6l3.9,8.2
			h-11.2l-1.6-8.2H1456.2z M1406.3,128h40v5.5h-40L1406.3,128z M1446.3,119.4v5.5h-40v-5.5H1446.3z M1396.4,136.6h8.9l-1.6,8.2
			h-11.2L1396.4,136.6z M1381.7,147.9h21.4l-1.6,8.2h-23.7L1381.7,147.9z M1367,159.1h33.9l-1.6,8.2h-36.2L1367,159.1z
			 M1352.2,170.4h46.4l-1.6,8.2h-48.7L1352.2,170.4z M1337.5,181.7h58.9l-1.6,8.2h-61.2L1337.5,181.7z M1390.3,212.4h-86.5l3.9-8.2
			h84.2L1390.3,212.4z M1318.9,201.1l3.9-8.2h71.4l-1.6,8.2H1318.9z M1393.5,212.4l15-75.8h3.2l-11.3,75.8H1393.5z M1403.6,212.4
			l11.3-75.8h23l11.3,75.8L1403.6,212.4z M1452.2,212.4l-11.3-75.8h3.2l15,75.8H1452.2z M1458.5,193h71.4l3.9,8.2h-73.7L1458.5,193z
			 M1460.7,204.2l84.2,0l3.9,8.2l-86.5,0L1460.7,204.2z"/>
		<path id="Path_5" class="st1" d="M914.9,212.4l-49.4-55.1L848,176.8L806.1,130l-39.2,43.7l-22.3-24.9l-57,63.6h-7.2v3.1h241.1
			v-3.1H914.9z M866.1,162.7l44.6,49.7H880L858.1,188L866.1,162.7z M861.8,166l-6.1,19.3l-5.6-6.2L861.8,166z M806.7,135.4l69.1,77
			h-74.2l-14.2-15.9L806.7,135.4z M802.4,138.7L785,193.9L769,176L802.4,138.7z M745.2,154.2l52.2,58.2h-70.6L745.2,154.2z
			 M740.9,157.5l-17.4,54.9h-31.8L740.9,157.5z"/>
		<path id="Path_6" class="st1" d="M1228.1,74.6V60.3c0-8.7-6.6-12.6-11.2-12.6c-4.7,0-11.2,3.9-11.2,12.6v14.2h-59.9
			c0.5,4.6,4.4,8.1,9.1,8.1c2.4,0,4.7-1,6.4-2.7c0.7,2.1,1.9,4.1,3.4,5.7c4.4,4.7,10.4,6.5,15.7,8.2c7.6,2.4,13.5,4.2,13.5,13v13.3
			l1.9,0.8v17.3l3.2,1.6v42.4h-5v7.2h-7v26h59.9v-26h-7v-7.2h-5v-24.4l1.4,0.7v-13.1l3.6-1.1v-37.6c0-8.8,6-10.6,13.5-13
			c5.3-1.6,11.2-3.5,15.7-8.2c1.5-1.7,2.7-3.6,3.4-5.7c1.7,1.7,4,2.7,6.4,2.7c4.6,0,8.6-3.5,9.1-8.1L1228.1,74.6z M1154.8,79.6
			c-1.6,0-3.2-0.7-4.3-1.9h8.7C1158.1,78.9,1156.5,79.6,1154.8,79.6 M1224.4,149.2l8.8-2.7v7.1L1224.4,149.2z M1231.7,156.3v26
			h-29.6v-40.9L1231.7,156.3z M1227,145.1v-4.7l6.2,2.7L1227,145.1z M1224.3,69.4c0.3-0.4,0.5-0.9,0.7-1.4v6.5h-0.7V69.4z
			 M1210.6,57.8l6.3-5.1l6.3,5.1c0.2,0.8,0.3,1.6,0.3,2.5c0,5.9-3,10.9-6.6,10.9c-3.6,0-6.6-5-6.6-10.9
			C1210.3,59.4,1210.4,58.6,1210.6,57.8 M1221.2,72.9v5.3c0,2.7-1.9,5-4.3,5c-2.4,0-4.3-2.3-4.3-5v-5.3
			C1215.1,74.7,1218.6,74.7,1221.2,72.9 M1208.8,68c0.2,0.5,0.5,0.9,0.7,1.4v5.1h-0.7V68z M1181.3,90.9c-5.2-1.6-10.5-3.3-14.3-7.3
			c-1.5-1.7-2.6-3.7-3.2-5.9h9.8c5.8,6,12.7,10.9,20.3,14.2v5.5C1190.8,93.9,1186,92.4,1181.3,90.9 M1177.9,77.7h31.6v0.5
			c0,4.4,3.3,8.1,7.4,8.1c3.4-0.2,6.2-2.5,7-5.8v13.3c-1.6,0.1-3.2,0.2-4.8,0.2C1203.8,94.1,1189.1,88.2,1177.9,77.7 M1197,93.2
			c2.8,1,5.7,1.9,8.6,2.5V122l-8.6-3.9V93.2z M1198.9,136.4v-14l9.8,4.4V96.3c3.5,0.6,7,0.9,10.5,0.9c1.6,0,3.2-0.1,4.8-0.2v52
			L1198.9,136.4z M1243.7,212.4h-53.7v-19.8h53.7V212.4z M1236.7,189.5h-39.6v-4.1h39.6L1236.7,189.5z M1227,137.1V77.7h9.8v63.7
			L1227,137.1z M1266.9,83.6c-3.9,4.1-9.2,5.7-14.3,7.3c-4.7,1.5-9.6,3-12.6,6.5V77.7h30.1C1269.4,79.9,1268.3,81.9,1266.9,83.6
			 M1278.9,79.6c-1.7,0-3.2-0.7-4.4-1.9h8.7C1282.2,78.9,1280.6,79.6,1278.9,79.6"/>
		<path id="Path_7" class="st1" d="M452.4,80.2h4.6v-3.1h-12.7V0h-3.1v27.5c-16.5,13-30.4,30-41.2,49.6h-15.1v3.1h5.1l5.6,5.3
			c-13.6,28-21.2,60.6-21.2,94.6c0,10.8,0.8,21.6,2.3,32.3h-10v3.1h87.4v-3.1h-9.8V87.6L452.4,80.2z M447.8,80.2l-3.5,3.2v-3.2
			H447.8z M441.2,32.7v44.4H434V41.6C436.3,38.5,438.7,35.6,441.2,32.7 M430.9,77.1h-17.7c4.9-11,10.8-21.4,17.7-31.3L430.9,77.1z
			 M430.3,41.4c-8.1,11.1-14.9,23.1-20.4,35.7h-6.3C410.8,64.1,419.8,52,430.3,41.4 M401.8,80.2h6.7c-1.1,2.7-2.2,5.4-3.2,8.2h-7.6
			C399,85.6,400.4,82.9,401.8,80.2 M394.5,80.2h3.8c-0.4,0.8-0.9,1.6-1.3,2.4L394.5,80.2z M396.2,91.5h7.9c-1,2.7-1.9,5.4-2.7,8.2
			h-8.7C393.8,96.9,395,94.2,396.2,91.5 M391.5,102.8h9c-0.8,2.7-1.6,5.4-2.2,8.2h-9.6C389.5,108.2,390.5,105.5,391.5,102.8
			 M387.6,114.1h9.9c-0.7,2.7-1.3,5.4-1.8,8.2h-10.5C385.9,119.5,386.7,116.8,387.6,114.1 M384.3,125.3H395c-0.5,2.7-1,5.4-1.4,8.2
			h-11.2C383,130.8,383.6,128,384.3,125.3 M381.8,136.6h11.4c-0.4,2.7-0.7,5.4-1,8.2h-11.9C380.7,142,381.2,139.3,381.8,136.6
			 M379.8,147.9h12c-0.3,2.7-0.5,5.4-0.6,8.2h-12.5C379.1,153.3,379.4,150.6,379.8,147.9 M378.5,159.2h12.6
			c-0.1,2.7-0.2,5.4-0.2,8.2h-13C378,164.6,378.2,161.9,378.5,159.2 M377.7,170.4h13.1c0,0.1,0,0.1,0,0.2c0,2.7,0.1,5.3,0.1,8h-13.4
			C377.5,175.9,377.6,173.1,377.7,170.4 M377.5,181.7H391c0.1,2.7,0.3,5.5,0.5,8.2h-13.8C377.6,187.2,377.5,184.4,377.5,181.7
			 M377.9,193h13.9c0.2,2.7,0.5,5.5,0.9,8.2h-14.2C378.2,198.4,378,195.7,377.9,193 M379.8,212.4c-0.4-2.7-0.7-5.4-1-8.2h14.3
			c0.4,2.7,0.8,5.5,1.2,8.2H379.8z M430.9,212.4h-33.4c-0.5-2.7-0.9-5.4-1.3-8.2h34.7L430.9,212.4z M430.9,201.1h-35.1
			c-0.3-2.7-0.6-5.4-0.9-8.2h36L430.9,201.1z M430.9,189.9h-36.2c-0.2-2.7-0.4-5.4-0.5-8.2h36.7V189.9z M430.9,178.6H394
			c-0.1-2.6-0.1-5.3-0.1-8c0-0.1,0-0.1,0-0.2h37L430.9,178.6z M430.9,167.3h-36.9c0-2.7,0.1-5.5,0.2-8.2h36.7L430.9,167.3z
			 M430.9,156.1h-36.5c0.2-2.7,0.4-5.5,0.6-8.2h35.9L430.9,156.1z M430.9,144.8h-35.6c0.3-2.7,0.6-5.5,1-8.2h34.6V144.8z
			 M430.9,133.5h-34.1c0.4-2.7,0.9-5.5,1.4-8.2h32.7L430.9,133.5z M430.9,122.2h-32.1c0.6-2.7,1.2-5.5,1.8-8.2h30.2L430.9,122.2z
			 M430.9,111h-29.5c0.7-2.7,1.5-5.5,2.3-8.2h27.2L430.9,111z M430.9,99.7h-26.2c0.9-2.8,1.8-5.5,2.8-8.2h23.4L430.9,99.7z
			 M408.6,88.4c1-2.8,2.2-5.5,3.3-8.2h19v8.2H408.6z M434,80.2h7.2v132.2H434V80.2z"/>
		<path id="Path_8" class="st1" d="M565.3,202.4v-9.1c0-0.7,0-2.7,3.3-4c3.3,1.2,3.3,3.3,3.3,4v9.1L565.3,202.4z M568.6,186.1
			l-0.5,0.2c-3.8,1.2-5.9,3.8-5.9,7.1v9.1h-1.9v-17.7h16.6v17.7h-1.9v-9c0-3.3-2.1-5.9-5.9-7.1L568.6,186.1z M557.1,181.6v20.8h-5.8
			V172c0-9.6,5.8-16.4,17.2-20.2c11.4,3.8,17.2,10.6,17.2,20.2v30.4H580v-20.8L557.1,181.6z M568.6,148.5l-0.5,0.2
			c-13,4.2-19.8,12.3-19.8,23.3v30.4h-4v-55.7h48.7v55.7h-4.1V172c0-11.1-6.9-19.1-19.8-23.3L568.6,148.5z M541.1,143.6v58.8h-4.4
			v-64.1h63.8v64.1H596v-58.8L541.1,143.6z M536.7,124.1h63.8v11.1h-63.8V124.1z M558.8,73.7c3.5-2.6,6.8-5.1,9.8-7.7
			c3,2.6,6.3,5.1,9.8,7.7H558.8z M536,121c-2.2-4.1-3.4-8.7-3.4-13.4c0-13.5,10.7-22.4,22-30.8h28c11.2,8.3,22,17.3,22,30.8
			c0,4.7-1.2,9.3-3.4,13.4H536z M499.4,202.4H492v-10.7c0-3.2,1.2-5.5,3.7-6.8c2.4,1.4,3.7,3.7,3.7,6.8L499.4,202.4z M637.8,191.7
			c0-3.2,1.2-5.5,3.7-6.8c2.4,1.4,3.7,3.7,3.7,6.8v10.7h-7.3V191.7z M524.5,202.4h-11.6v-10.7c0-3.2,2-5.5,5.8-6.9
			c3.8,1.4,5.8,3.7,5.8,6.9V202.4z M612.6,191.7c0-3.2,1.9-5.6,5.8-6.9c3.8,1.4,5.8,3.7,5.8,6.9v10.7h-11.6V191.7z M512.6,119.9
			c1.3-1,2.6-2,3.8-3c1.2,1,2.5,2,3.8,3c4.8,3.6,9.3,7,9.3,12.4c0,1.5-0.3,3-1,4.4h-24.2c-0.6-1.4-1-2.9-1-4.4
			C503.3,126.9,507.8,123.5,512.6,119.9 M633.8,132.3c0,1.5-0.3,3-1,4.4h-24.2c-0.6-1.4-1-2.9-1-4.4c0-5.4,4.5-8.8,9.3-12.4
			c1.3-1,2.6-2,3.8-3c1.2,1,2.5,2,3.8,3C629.3,123.5,633.8,126.9,633.8,132.3 M527.9,143.6h-23v-3.8h23V143.6z M632.2,143.6h-23
			v-3.8h23V143.6z M485.7,146.7h47.8v55.7h-6v-10.7c0-3.3-1.5-7.8-8.4-10l-0.5-0.2l-0.5,0.2c-7,2.3-8.4,6.7-8.4,10v10.7h-7.3v-10.7
			c0-4.7-2.1-8.1-6.1-10l-0.6-0.3l-0.6,0.3c-4,1.8-6.1,5.3-6.1,10v10.7h-3.2L485.7,146.7z M651.4,202.4h-3.2v-10.7
			c0-4.7-2.1-8.1-6.1-10l-0.6-0.3l-0.6,0.3c-4,1.8-6.1,5.3-6.1,10v10.7h-7.3v-10.7c0-3.3-1.5-7.8-8.4-10l-0.5-0.2l-0.5,0.2
			c-7,2.3-8.4,6.7-8.4,10v10.7h-6v-55.7h47.8V202.4z M567,48.1v15.1c-3.4,3.1-7.3,6-11.5,9c-12.8,9.4-26,19.2-26,35.3
			c0,5.4,1.4,10.6,4,15.3v20.7H531v-5c1-2,1.6-4.1,1.6-6.3c0-6.9-5.6-11.2-10.5-14.9c-1.5-1.1-2.9-2.2-4.1-3.3v-6.4h-3.1v6.4
			c-1.2,1.1-2.6,2.2-4.1,3.3c-4.9,3.7-10.5,8-10.5,14.9c0,2.2,0.5,4.4,1.6,6.3v5H492v-23.8h-3.1v23.9h-3.2v-11.2h-3.1v80h-3.4v3.1
			h178.6v-3.1h-3.4v-80h-3.1v11.1h-3.2v-23.9h-3.1v23.9h-9.8v-5c1-2,1.6-4.1,1.6-6.3c0-6.9-5.6-11.2-10.5-14.9
			c-1.5-1.1-2.9-2.2-4.1-3.3v-6.4h-3.1v6.4c-1.2,1.1-2.6,2.2-4.1,3.3c-4.9,3.7-10.5,8-10.5,14.9c0,2.2,0.5,4.4,1.6,6.3v5h-2.6v-20.7
			c2.6-4.7,4-9.9,4-15.3c0-16.2-13.2-25.9-26-35.3c-4.2-3.1-8.1-6-11.5-9V48.1H567z M485.7,205.5h165.7v6.9H485.7V205.5z
			 M562.2,176.1v-7.4c0-3.3,2.1-5.9,5.9-7.1l0.5-0.2l0.5,0.2c3.8,1.2,5.9,3.8,5.9,7.1v7.4H562.2z M568.6,164.7
			c-3.3,1.2-3.3,3.3-3.3,4v4.3h6.5v-4.3C571.8,168,571.8,166,568.6,164.7 M527.6,177.6h-17.8v-13.8c0-3.3,1.5-7.8,8.4-10.1l0.5-0.2
			l0.5,0.2c7,2.3,8.4,6.7,8.4,10.1V177.6z M512.9,174.5h11.6v-10.7c0-3.2-1.9-5.6-5.8-6.9c-3.8,1.4-5.8,3.7-5.8,6.9L512.9,174.5z
			 M609.5,177.6h17.8v-13.8c0-3.3-1.5-7.8-8.4-10.1l-0.5-0.2l-0.5,0.2c-7,2.3-8.4,6.7-8.4,10.1L609.5,177.6z M624.2,174.5h-11.6
			v-10.7c0-3.2,1.9-5.6,5.8-6.9c3.8,1.4,5.8,3.7,5.8,6.9L624.2,174.5z M502.5,177.6h-13.5v-13.8c0-4.7,2.1-8.1,6.1-10l0.6-0.3
			l0.6,0.3c4,1.8,6.1,5.3,6.1,10V177.6z M492,174.5h7.3v-10.7c0-3.2-1.2-5.5-3.7-6.8c-2.4,1.4-3.7,3.7-3.7,6.8L492,174.5z
			 M634.7,177.6h13.5v-13.8c0-4.7-2.1-8.1-6.1-10l-0.6-0.3l-0.6,0.3c-4,1.8-6.1,5.3-6.1,10L634.7,177.6z M645.1,174.5h-7.3v-10.7
			c0-3.2,1.2-5.5,3.7-6.8c2.4,1.4,3.7,3.7,3.7,6.8V174.5z"/>
		<path id="Path_9" class="st1" d="M1118.5,176v-7.2h-5.1v-11.3h-5.2v-25.7h2.1v-3.1h-2.3c-0.8-4.3-4.5-7.4-8.8-7.4h-0.2v-16.8
			c2.9-1.6,4.4-4.3,4.4-8.1c0-5.3-4.9-10.1-8.8-13.8c-1.3-1.2-2.4-2.4-3.6-3.7l-1.2-1.5l-1.2,1.5c-1.1,1.3-2.3,2.5-3.6,3.7
			c-3.9,3.8-8.8,8.5-8.8,13.8c0,3.7,1.5,6.4,4.4,8.1v16.8h-0.2c-0.3,0-0.5,0-0.8,0.1c0.2-0.8,0.2-1.7,0.2-2.5
			c0-6.2-5.7-11.7-10.2-16.1c-1.5-1.4-2.9-2.8-4.2-4.4l-1.2-1.5l-1.2,1.5c-0.2,0.2-0.4,0.4-0.5,0.6l-6.2-31.6h0.8v-3.1h-1.5
			l-4.3-21.6c1.8-1.3,2.8-3.4,2.6-5.6c0-3.5-2.8-6.3-5.4-8.9c-0.8-0.8-1.5-1.5-2-2.2l-1.2-1.5l-1.2,1.5c-0.5,0.7-1.3,1.4-2,2.2
			c-2.5,2.5-5.4,5.4-5.4,8.9c-0.1,2.2,0.9,4.3,2.7,5.6l-4.3,21.6h-1.5v3.1h0.8l-2.8,14c-1.1-1.2-2.3-2.3-3.4-3.4
			c-1.7-1.6-3.3-3.3-4.8-5l-1.2-1.5l-1.2,1.5c-1.5,1.8-3.1,3.4-4.8,5c-5.2,5-11.6,11.3-11.6,18.2c-2.2-2.7-4.6-5.2-7.1-7.6
			c-1.8-1.6-3.4-3.4-5-5.2l-1.2-1.5l-1.2,1.5c-1.6,1.8-3.2,3.5-5,5.2c-5.3,5.2-11.9,11.6-11.9,18.7c0,5.1,2.1,8.7,6.1,10.8v15.1
			c-3.5,0.6-6.2,3.3-6.9,6.8h-2.3v3.1h2.2v14.3h-6.4v11.3h-5.1v7.2h-3.2v39.6h163.9V176H1118.5z M1115.4,171.8v4.1h-20.5l-2.6-4.1
			H1115.4z M1110.3,160.6v8.2h-19.9l-5.1-8.2H1110.3z M1073.4,140.1c2,0,3.6,1.6,3.6,3.6v8.4l-3.3,5.4h-21.7v-13.8
			c0-2,1.6-3.6,3.6-3.6L1073.4,140.1z M1057.1,128.6h14.7v8.4h-14.7V128.6z M1054,137h-13.7v-5.3h2v-3.1h-2v0c0-1.5-0.5-3-1.4-4.3
			h11.2c0.9,1.6,2.3,2.9,3.9,3.8V137z M1040.3,140.1h9.6c-0.7,1.1-1.1,2.3-1.1,3.6v13.8h-8.5V140.1z M1043.6,171.8h21.1l-2.6,4.1
			h-18.6L1043.6,171.8z M1043.6,168.7v-8.2h28.1l-5.1,8.2H1043.6z M1078.5,155.5l12.7,20.5h-25.4L1078.5,155.5z M1105.1,131.7v25.7
			h-21.7l-3.3-5.4v-8.4c0-3.1-2.2-5.8-5.2-6.5v-5.5L1105.1,131.7z M1079.5,96.4c0-4,4.3-8.2,7.8-11.6c0.9-0.9,1.8-1.8,2.6-2.6
			c0.8,0.8,1.7,1.7,2.6,2.6c3.5,3.4,7.8,7.6,7.8,11.6c0,2.8-1,4.5-3.2,5.6h-14.4C1080.5,100.9,1079.5,99.1,1079.5,96.4
			 M1095.9,121.2h-12V105h12V121.2z M1080.7,124.3h18.6c2.6,0,4.9,1.8,5.6,4.3h-30V128c1.5-0.8,2.7-1.9,3.6-3.3
			C1079.2,124.4,1079.9,124.3,1080.7,124.3 M1077,118.7c0,3.4-1.3,5.6-4,6.8h-4.6l8.4-8.4C1076.9,117.6,1077,118.2,1077,118.7
			 M1073.4,110.8c0.8,1,1.5,2,2.2,3.1l-11.6,11.6h-5.3L1073.4,110.8z M1068.6,105.7c0.9,0.9,1.9,1.8,2.8,2.8l-16.5,16.5
			c-1.2-0.7-2-1.8-2.5-3.1L1068.6,105.7z M1064.5,101.6c0.6,0.6,1.2,1.3,1.9,1.9l-14.4,14.4c0.5-4.6,5.3-9.2,9.2-13
			C1062.4,103.7,1063.5,102.6,1064.5,101.6 M1044.6,30.2c0.4-0.4,0.7-0.7,1-1.1c0.3,0.3,0.7,0.7,1,1.1c2.1,2.1,4.5,4.5,4.5,6.7
			c0.1,1.4-0.6,2.7-1.7,3.4h-7.5c-1.2-0.7-1.8-2-1.7-3.4C1040.2,34.7,1042.5,32.3,1044.6,30.2 M1042.7,43.4h5.9l4.1,20.8h-14.1
			L1042.7,43.4z M1038,67.3h15.3l6.8,34.3c-0.3,0.3-0.7,0.7-1.1,1c-4.6,4.4-10.2,9.9-10.2,16.1c0,0.8,0.1,1.7,0.2,2.5h-14.7v-14.5
			c3.9-2.1,6-5.6,6-10.5c0-4.3-2.5-8.4-5.6-12L1038,67.3z M1003.6,128.6v-10.5c4.1-2.1,6.1-5.7,6.1-10.8c0-0.5,0-0.9-0.1-1.4
			c0.4,0.3,0.8,0.5,1.3,0.8v14.6c-3.5,0.7-6,3.7-6,7.3v0L1003.6,128.6z M1004.9,131.7v1.9c-0.4-0.2-0.9-0.3-1.3-0.4v-1.5
			L1004.9,131.7z M1008,131.7h29.1v25.7H1008L1008,131.7z M1008,128.6L1008,128.6c0-2.4,1.9-4.3,4.3-4.3h20.5c2.4,0,4.3,1.9,4.3,4.3
			v0H1008z M1031.2,121.2H1014v-13.9h17.2V121.2z M1027.9,104.2l9.2-9.2c0.1,0.4,0.1,0.8,0.1,1.2c0,4-1.5,6.5-4.7,8L1027.9,104.2z
			 M1033.1,87.2c1.1,1.4,2.1,2.9,2.9,4.5l-12.6,12.6h-7.4L1033.1,87.2z M1027.5,81.1c1.2,1.2,2.5,2.4,3.6,3.7l-19,19
			c-1.6-0.8-2.8-2.2-3.4-3.9L1027.5,81.1z M1018.7,80.1c1.4-1.4,2.7-2.7,3.9-3.9c0.8,0.9,1.7,1.8,2.6,2.7L1008,96.1
			C1008.1,90.5,1013.7,85,1018.7,80.1 M976.6,107.3c0-5.8,5.8-11.5,11-16.5c1.4-1.4,2.8-2.8,4-4c1.2,1.3,2.6,2.6,4,4
			c5.2,5,11,10.7,11,16.5c0,4.1-1.6,6.8-4.9,8.3h-20.2C978.2,114.1,976.6,111.4,976.6,107.3 M1000.5,133.1h-17.8v-14.3h17.8
			L1000.5,133.1z M981.1,136.2h21c1,0,2,0.3,2.8,0.9v3h-29C976.6,137.8,978.7,136.2,981.1,136.2 M975.7,143.2h29.3v14.3h-29.3V143.2
			z M1001.6,212.4H961V209h40.6L1001.6,212.4z M1001.6,205.9H961v-16.6h40.6L1001.6,205.9z M1001.6,186.2H961v-7.1h40.6
			L1001.6,186.2z M1001.6,176h-37.4v-4.1h37.4V176z M1001.6,168.7h-32.3v-8.2h32.3L1001.6,168.7z M1040.5,212.4h-35.7V209h35.7
			L1040.5,212.4z M1040.5,205.9h-35.7v-16.6h35.7L1040.5,205.9z M1040.5,186.2h-35.7v-7.1h35.7L1040.5,186.2z M1040.5,176h-35.7
			v-4.1h35.7L1040.5,176z M1040.5,168.7h-35.7v-8.2h35.7L1040.5,168.7z M1057.5,212.4h-13.9V209h13.9L1057.5,212.4z M1057.5,205.9
			h-13.9v-16.6h13.9L1057.5,205.9z M1057.5,186.2h-13.9v-7.1h13.9L1057.5,186.2z M1087.1,212.4h-17v-21.3c0.2-1.8,1.7-3.1,3.5-2.9
			c1.6-0.1,3,0.9,3.5,2.4h3c0.5-1.5,1.9-2.5,3.5-2.4c1.8-0.1,3.3,1.2,3.5,2.9L1087.1,212.4z M1096.5,212.4h-6.4v-21.3
			c0-3.3-3-6-6.6-6c-1.9,0-3.7,0.7-5,2.1c-1.3-1.3-3.1-2.1-5-2.1c-3.7,0-6.6,2.7-6.6,6v21.3h-6.3v-33.4h35.9L1096.5,212.4z
			 M1118.6,212.4h-19V209h19L1118.6,212.4z M1118.6,205.9h-19v-16.6h19L1118.6,205.9z M1118.6,186.2h-19v-7.1h19L1118.6,186.2z"/>
		<rect id="Rectangle_6" x="-74.6" y="212.4" class="st1" width="1749.1" height="3.1"/>
	</g>
</g>
</svg>
