<svg height="77" viewBox="0 0 74 77" width="74" xmlns="http://www.w3.org/2000/svg"><path d="m1198.43345 1427.33052.00343 19.50982c-.00856 1.69694-.71176 3.23602-1.84442 4.35043-1.1318 1.11863-2.69219 1.80923-4.40829 1.80923h-43.93147l-.00256-.0076c-1.66049 0-3.17127-.64501-4.28938-1.6885l-.12747-.11482c-1.13265-1.11695-1.83329-2.66024-1.83329-4.35887v-60.26271c0-1.6961.70406-3.23855 1.83329-4.35296 1.08304-1.07305 2.5673-1.75267 4.2064-1.80923l.21045-.01098h4.2774v-2.48041c0-1.05869.87173-1.91392 1.94023-1.91392 1.07277 0 1.94108.85523 1.94108 1.91392v2.48041h7.07482v-2.48041c0-1.05869.87088-1.91392 1.94109-1.91392 1.07106 0 1.94022.85523 1.94022 1.91392v2.48041h7.07482v-2.48041c0-1.05869.87088-1.91392 1.94023-1.91392 1.07278 0 1.94023.85523 1.94023 1.91392v2.48041h7.07568v-2.48041c0-1.05869.87002-1.91392 1.93937-1.91392 1.07277 0 1.94023.85523 1.94023 1.91392v2.48041h2.90863c1.7161 0 3.27649.69482 4.40829 1.81177 1.13779 1.12032 1.84442 2.66277 1.84442 4.35634h-.00856l.00257 15.69211 3.43646-3.39136c.86318-.8527 1.98215-1.32717 3.0823-1.39386 1.18997-.07514 2.36027.30731 3.23114 1.16844l6.62741 6.53958c.87002.8586 1.25927 2.01776 1.18227 3.18789-.06758 1.08402-.54665 2.18493-1.4124 3.03762zm6.3836-21.46764c.73742-.72774 1.9599-.75561 2.73411-.06332.77421.68807.80586 1.83794.07101 2.56315l-22.22367 21.93282c-.73571.7269-1.9599.75561-2.73497.06417-.7742-.6906-.80586-1.83879-.06843-2.56484zm-27.19743 27.20433 3.39968-8.21541 23.59072-23.2811c.1788-.17898.39181-.27607.58087-.28873.10694-.00422.19933.01435.24724.06247l6.62654 6.53874c.04791.04896.06844.14014.06245.24398-.01112.19587-.11035.40693-.29257.58338l-23.59329 23.27603-8.22116 3.31706c.1865-.62727.0077-1.33054-.53125-1.80754-.51243-.46265-1.23018-.60279-1.86923-.42888zm-29.36692-48.84335-.13088-.00253c-.59884.03123-1.14207.28535-1.54671.68384-.42774.42297-.69465 1.0131-.69465 1.6598v60.26102c0 .64669.26691 1.23345.69465 1.65557l.07528.07852c.42175.38329.98637.61799 1.59975.61799v-.0076h43.93403c.65616 0 1.25157-.2634 1.68188-.68553.43201-.4255.7032-1.01648.70748-1.66149l-.00428-15.67944-3.86335 3.8101c-.21729.21529-.47564.36641-.74854.4559l-14.23605 5.74429c-.586.24146-1.1874.29464-1.75202.18827-.60226-.11229-1.14891-.39764-1.58691-.82906h-.0077c-.43459-.4255-.72374-.96835-.83923-1.57031-.10522-.55214-.05218-1.14311.18649-1.72058l-.00513-.00422 5.86004-14.16824c.09924-.24399.24723-.45589.42603-.63234l16.5638-16.34894-.00598-19.50644h-.00428c0-.64754-.26434-1.23261-.69037-1.64883-.43031-.42635-1.02572-.68975-1.68188-.68975h-2.90863v2.93293c0 1.057-.86746 1.91476-1.94023 1.91476-1.06935 0-1.93937-.85776-1.93937-1.91476v-2.93293h-7.07568v2.93293c0 1.057-.86745 1.91476-1.94023 1.91476-1.06935 0-1.94023-.85776-1.94023-1.91476v-2.93293h-7.07482v2.93293c0 1.057-.86916 1.91476-1.94022 1.91476-1.07021 0-1.94109-.85776-1.94109-1.91476v-2.93293h-7.07482v2.93293c0 1.057-.86831 1.91476-1.94108 1.91476-1.0685 0-1.94023-.85776-1.94023-1.91476v-2.93293z" fill="#ff5721" fill-rule="evenodd" transform="translate(-1142 -1376)"/></svg>