<svg height="90" viewBox="0 0 65 90" width="65" xmlns="http://www.w3.org/2000/svg" xmlns:xlink="http://www.w3.org/1999/xlink"><mask id="a" fill="#fff"><path d="m0-.00015902h64.2076v89.29275902h-64.2076z" fill="#fff" fill-rule="evenodd"/></mask><path d="m11.2876 60.1157c-2.87 1.908-4.534 4.663-5.497 7.838-1.221 4.026-1.37 8.808-1.355 13.475l.01.208v1.046c0 .595.244 1.137.634 1.532.394.388.936.632 1.531.632h50.987c.595 0 1.134-.244 1.527-.632.393-.395.637-.937.637-1.532v-1.046h.007v-.01c.019-4.663-.11-9.453-1.304-13.503l-.058-.17c-.959-3.171-2.622-5.924-5.483-7.835-5.573 2.386-8.745 3.821-11.043 6.23-2.496 2.61-4.345 6.659-7.461 14.508-.192.594-.638 1.104-1.257 1.361-1.133.471-2.431-.068-2.9-1.2-6.308-15.163-7.208-15.572-17.472-20.217zm39.826-5.788c.614.212 1.225.455 1.826.734 5.372 2.492 8.226 6.672 9.722 11.608l.048.189c1.355 4.603 1.508 9.773 1.489 14.778h.009v1.046c0 1.82-.744 3.474-1.941 4.669-1.194 1.201-2.849 1.941-4.669 1.941h-50.987c-1.823 0-3.474-.74-4.671-1.941-1.199-1.195-1.94-2.849-1.94-4.669v-1.046l.007-.188c-.013-5.016.156-10.186 1.547-14.779 1.498-4.939 4.345-9.118 9.71-11.608.803-.373 1.619-.678 2.438-.935-4.754-7.184-7.296-16.689-6.776-25.804.508-8.901 3.913-17.475 10.981-23.275 2.776-2.276 5.739-3.719 8.135-4.366 1.212-.324 2.327-.462 3.259-.409.981.056 1.827.324 2.476.799 1.973-1.039 4.206-1.3 6.501-.881 2.587.476 5.248 1.837 7.656 3.926 6.402 5.552 10.152 13.87 10.809 23.432.572 8.313-1.205 17.591-5.629 26.779zm-11.913-1.911c.117 1.107.531 2.115 1.166 2.909.732.916 1.748 1.557 2.927 1.768h.011v.006l.706.126c1.032.183 2.082.371 3.106.599-3.731 1.702-6.252 3.172-8.449 5.469-2.357 2.468-4.121 5.716-6.396 11.101-4.817-11.043-6.858-12.686-15.269-16.55 1.054-.237 2.13-.43 3.195-.619l.706-.126.235-.055c1.083-.247 2.017-.861 2.702-1.719.641-.803 1.06-1.823 1.171-2.951 1.924 1.27 4.101 2.06 6.519 2.171l.571.018c2.701 0 5.057-.805 7.099-2.147zm-3.651-6.796c.082-.08.157-.165.232-.253 1.827-.179 3.669-.691 5.372-1.473-.439.725-.917 1.417-1.431 2.061-.159.142-.295.306-.409.488l-.113.13c-1.865 2.103-4.225 3.546-7.099 3.546h-.373c-2.704-.124-5.053-1.635-6.972-3.871-.041-.053-.083-.101-.129-.151-.751-.899-1.436-1.91-2.048-2.993-2.348-4.146-3.606-9.267-3.606-13.372 0-.381.006-.66.012-.832.133-2.887.79-5.196 1.931-7.227.822-1.46 1.911-2.805 3.246-4.131 1.398 1.619 3.205 2.726 5.227 3.53 2.658 1.052 5.588 1.539 8.419 2.01 2.181.362 4.287.712 5.795 1.307.952.374 1.599.823 1.68 1.419.035.668.055 1.299.059 1.887.006.623-.01 1.283-.043 1.966-.045.962-.146 1.926-.292 2.911-.086.56-.179 1.108-.285 1.648-.112.296-.404 1.066-.459 1.122-.716 1.575-2.122 2.944-3.842 3.945-1.458.851-3.123 1.423-4.774 1.625l-.094-.098-.007-.008c-.62-.616-1.472-.997-2.401-.997-.933 0-1.784.381-2.404 1.001l-.008-.004c-.613.619-.997 1.471-.997 2.41 0 .943.384 1.794.997 2.411.618.615 1.47.997 2.412.997.939 0 1.793-.382 2.408-.997zm13.503-10.444v.002c-.012.084-.028.169-.051.251-.071.347-.147.698-.228 1.052-.874 3.83-2.61 8.354-5.32 11.89l.153 3.528c.019.273.104.503.231.663.072.092.153.154.23.169v-.006l.702.126c.654.114 1.308.232 1.963.357 4.361-8.728 6.12-17.532 5.583-25.367-.578-8.381-3.798-15.619-9.281-20.373-1.812-1.574-3.744-2.588-5.557-2.919-1.537-.283-2.987-.051-4.163.774-.081.059-.172.143-.244.207-.299.272-.531.487-.959.647-.087.039-.18.072-.28.097-1.552.42-2.326.039-2.898-1.579-.451-.003-1.047.088-1.745.276-1.876.504-4.228 1.657-6.467 3.498-6.022 4.938-8.928 12.351-9.369 20.096-.498 8.784 2.147 17.948 7.013 24.475l1.068-.189.748-.133c.062-.025.127-.082.186-.156.129-.16.214-.39.231-.663l.155-3.546c-.741-.951-1.417-1.978-2.028-3.057-2.733-4.827-4.199-10.79-4.199-15.564 0-.247.013-.588.032-1.024.167-3.639 1.012-6.584 2.488-9.207 1.432-2.547 3.434-4.735 5.969-6.929l.124-.106c.146-.121.301-.221.477-.306 1.105-.526 2.425-.062 2.955 1.043.883 1.843 2.502 2.979 4.448 3.754 2.194.868 4.895 1.316 7.501 1.748 2.45.406 4.812.8 6.715 1.55 2.447.969 4.147 2.467 4.458 5.047l.01.14c.039.696.065 1.444.068 2.234.003.759-.01 1.495-.045 2.192-.056 1.17-.167 2.272-.325 3.348-.097.64-.212 1.293-.349 1.96z" fill="#fff" fill-rule="evenodd" mask="url(#a)"/></svg>