<svg height="81" viewBox="0 0 77 81" width="77" xmlns="http://www.w3.org/2000/svg" xmlns:xlink="http://www.w3.org/1999/xlink"><mask id="a" fill="#fff"><path d="m.0002.0001h76.9488v80.6608h-76.9488z" fill="#fff" fill-rule="evenodd"/></mask><path d="m38.7912 74.7671 13.858-26.665v-43.776h-29.094c-5.294 0-10.101 2.16-13.584 5.645-3.484 3.483-5.645 8.29-5.645 13.584v19.996c0 .766.295 1.46.772 1.976l.085.082c.528.528 1.255.857 2.059.857h25.237v.003c.099 0 .197.007.295.024 1.183.16 2.005 1.251 1.845 2.431l-3.333 24.1c-.062.44-.033.857.082 1.236.1.348.277.677.524.981l.089.098c.275.316.578.557.899.717l.075.035c.357.161.769.245 1.22.245h2.028c.582 0 1.1-.14 1.531-.4.424-.259.787-.657 1.057-1.169zm17.343-23.996-13.508 25.991c-.629 1.208-1.546 2.179-2.663 2.859-1.116.677-2.396 1.04-3.76 1.04h-2.028c-1.065 0-2.071-.213-2.995-.635l-.151-.073c-.874-.421-1.648-1.015-2.31-1.778l-.116-.144c-.646-.777-1.107-1.625-1.375-2.536-.292-.969-.365-1.999-.218-3.063l2.994-21.642h-22.762c-1.996 0-3.808-.812-5.117-2.123l-.126-.139c-1.237-1.302-1.999-3.059-1.999-4.977v-19.996c0-6.486 2.646-12.379 6.913-16.642 4.266-4.27 10.155-6.913 16.642-6.913h31.258c.103 0 .205.006.307.021h19.666c1.194 0 2.163.959 2.163 2.142v46.463c0 1.183-.969 2.145-2.163 2.145zm10.827-34.778c0 1.184-.968 2.141-2.161 2.141-1.195 0-2.163-.957-2.163-2.141v-5.013c0-1.179.968-2.141 2.163-2.141 1.193 0 2.161.962 2.161 2.141zm-9.985 30.492h15.646v-42.18h-15.646z" fill="#ff5721" fill-rule="evenodd" mask="url(#a)"/></svg>