<svg height="88" viewBox="0 0 113 88" width="113" xmlns="http://www.w3.org/2000/svg" xmlns:xlink="http://www.w3.org/1999/xlink"><mask id="a" fill="#fff"><path d="m.0002-.0002h112.8268v87.666h-112.8268z" fill="#fff" fill-rule="evenodd"/></mask><path d="m28.2792 66.2417h42.834c.77 0 1.471-.292 1.989-.769l.092-.096c.536-.535.865-1.272.865-2.081v-5.375-39.063c0-.817-.324-1.557-.853-2.086l-.012-.007c-.527-.529-1.263-.857-2.081-.857h-34.875-28.231c-.814 0-1.549.332-2.086.864h-.006c-.53.529-.858 1.269-.858 2.086v44.438c0 .769.292 1.467.769 1.988l.095.093c.537.536 1.272.865 2.086.865h1.727v.007c.148 0 .302.015.453.045 1.368.252 2.275 1.563 2.023 2.932l-1.848 9.984 16.202-12.295c.451-.417 1.054-.673 1.715-.673zm69.298-30.287c1.394 0 2.526 1.135 2.526 2.528 0 1.398-1.132 2.53-2.526 2.53h-18.461v14.379h5.431c.662 0 1.264.254 1.715.672l16.207 12.297-1.851-9.986c-.253-1.367.653-2.684 2.025-2.936.151-.024.303-.04.451-.04v-.007h1.729c.818 0 1.553-.329 2.082-.858v-.007c.535-.537.866-1.271.866-2.085v-44.438c0-.817-.326-1.552-.855-2.081l-.011-.007c-.529-.529-1.264-.859-2.082-.859h-63.106c-.814 0-1.55.333-2.085.866l-.096.092c-.477.522-.77 1.22-.77 1.989v2.847h32.347c2.196 0 4.193.898 5.646 2.351l.013.011c1.45 1.457 2.344 3.449 2.344 5.645v.724h18.461c1.394 0 2.526 1.136 2.526 2.529 0 1.397-1.132 2.527-2.526 2.527h-18.461v11.317zm-33.388-6.1h-49.262c-1.394 0-2.528 1.132-2.528 2.529 0 1.393 1.134 2.524 2.528 2.524h49.262c1.397 0 2.529-1.131 2.529-2.524 0-1.397-1.132-2.529-2.529-2.529zm-17.548 16.374h-31.717c-1.397 0-2.529 1.13-2.529 2.525 0 1.396 1.132 2.527 2.529 2.527h31.717c1.397 0 2.529-1.131 2.529-2.527 0-1.395-1.132-2.525-2.529-2.525zm24.472 25.071h-42.002l-20.893 15.855c-1.11.838-2.687.624-3.528-.484-.443-.585-.59-1.302-.469-1.975l2.5-13.5c-1.694-.274-3.21-1.084-4.374-2.244l-.147-.163c-1.361-1.438-2.2-3.376-2.2-5.493v-44.438c0-2.201.903-4.199 2.355-5.652l-.008-.004c1.449-1.448 3.453-2.351 5.66-2.351h25.702v-2.847c0-2.117.841-4.055 2.201-5.493l.147-.164c1.448-1.448 3.454-2.347 5.66-2.347h63.106c2.192 0 4.189.899 5.641 2.345l.015.014c1.45 1.454 2.348 3.452 2.348 5.645v44.438c0 2.207-.898 4.21-2.348 5.658l-.002-.005c-1.165 1.164-2.682 1.972-4.37 2.251l2.505 13.501c.12.668-.029 1.389-.472 1.973-.843 1.106-2.423 1.324-3.527.484l-20.897-15.856h-4.6v2.848c0 2.204-.899 4.207-2.347 5.656l-.163.147c-1.437 1.365-3.375 2.201-5.493 2.201z" fill="#ff5721" fill-rule="evenodd" mask="url(#a)"/></svg>