<svg height="43" viewBox="0 0 55 43" width="55" xmlns="http://www.w3.org/2000/svg"><g fill="#ff5722" fill-rule="evenodd"><path d="m5.39856802 31.8569739v-17.1731542h-4.06443914c-.86873508 0-1.33412888-.5247127-1.33412888-1.3768623v-2.556449c0-.85214961.4653938-1.31178163 1.33412888-1.31178163h4.19888624l1.20175019-7.53715178c.19649961-1.24670104.93078759-1.90157499 2.13253779-1.90157499h1.4003182c1.2658711 0 1.9980907.78706901 1.9980907 2.03377004v7.40495673h9.1341289c.8645982 0 1.3341289.45963202 1.3341289 1.31178163v2.556449c0 .8521496-.4695307 1.3768623-1.3341289 1.3768623h-9.1341289v17.5656719c0 3.5428274 1.7333333 4.9176559 3.8658711 4.9176559 2.0684169 0 3.9341289-1.1816204 3.9341289-3.5407936 0-.2623564 0-.7199546-.1344471-1.2426335-.1303102-.9192641.2688942-1.5110912 1.1996818-1.5110912h3.0674622c.8025458 0 1.4023866.3315046 1.5347653 1.1816204.2668258 1.114506.2668258 2.3591733.2668258 2.4242539 0 4.917656-3.5990453 8.5214965-10.002864 8.5214965-5.3323786 0-10.59856798-2.6866102-10.59856798-11.1430261"/><path d="m34.398568 31.8569739v-17.1731542h-4.0644391c-.8687351 0-1.3341289-.5247127-1.3341289-1.3768623v-2.556449c0-.85214961.4653938-1.31178163 1.3341289-1.31178163h4.1988862l1.2017502-7.53715178c.1964996-1.24670104.9307876-1.90157499 2.1325378-1.90157499h1.4003182c1.2658711 0 1.9980907.78706901 1.9980907 2.03377004v7.40495673h9.1341289c.8645982 0 1.3341289.45963202 1.3341289 1.31178163v2.556449c0 .8521496-.4695307 1.3768623-1.3341289 1.3768623h-9.1341289v17.5656719c0 3.5428274 1.7333333 4.9176559 3.8658711 4.9176559 2.0684169 0 3.9341289-1.1816204 3.9341289-3.5407936 0-.2623564 0-.7199546-.1344471-1.2426335-.1303102-.9192641.2688942-1.5110912 1.1996818-1.5110912h3.0674622c.8025458 0 1.4023866.3315046 1.5347653 1.1816204.2668258 1.114506.2668258 2.3591733.2668258 2.4242539 0 4.917656-3.5990453 8.5214965-10.002864 8.5214965-5.3323786 0-10.598568-2.6866102-10.598568-11.1430261"/></g></svg>