<svg height="88" viewBox="0 0 88 88" width="88" xmlns="http://www.w3.org/2000/svg" xmlns:xlink="http://www.w3.org/1999/xlink"><mask id="a" fill="#fff"><path d="m0 .0004h87.9716v87.972h-87.9716z" fill="#fff" fill-rule="evenodd"/></mask><path d="m-.0004 43.9844c0 12.146 4.925 23.143 12.887 31.102 7.958 7.961 18.955 12.886 31.1 12.886 12.143 0 23.142-4.925 31.103-12.886 7.961-7.959 12.882-18.956 12.882-31.102s-4.921-23.14-12.882-31.103c-7.961-7.958-18.96-12.881-31.103-12.881-24.292 0-43.987 19.693-43.987 43.984zm43.987-39.561c-21.848 0-39.563 17.714-39.563 39.561 0 10.927 4.43 20.818 11.59 27.975 7.155 7.159 17.048 11.589 27.973 11.589s20.817-4.43 27.976-11.589c7.159-7.157 11.585-17.048 11.585-27.975 0-10.923-4.426-20.815-11.585-27.975-7.159-7.159-17.051-11.586-27.976-11.586zm13.01 71.012c4.177-1.73 7.93-4.26 11.057-7.387s5.652-6.877 7.382-11.054c1.666-4.017 2.583-8.415 2.583-13.01 0-4.596-.917-8.989-2.583-13.01-1.73-4.174-4.255-7.926-7.382-11.054s-6.88-5.653-11.061-7.383c-4.014-1.666-8.41-2.584-13.006-2.584-4.594 0-8.989.918-13.008 2.584-4.178 1.73-7.929 4.255-11.056 7.383s-5.656 6.877-7.386 11.058c-1.662 4.017-2.581 8.41-2.581 13.006 0 4.595.919 8.993 2.581 13.01 1.733 4.177 4.259 7.927 7.386 11.054s6.878 5.657 11.056 7.387c4.016 1.662 8.414 2.581 13.008 2.581 4.596 0 8.992-.919 13.01-2.581zm-13.01-1.843c4.024 0 7.852-.796 11.335-2.235 3.609-1.493 6.866-3.696 9.605-6.436 2.739-2.735 4.937-5.994 6.43-9.603 1.444-3.48 2.238-7.308 2.238-11.334 0-4.022-.794-7.852-2.238-11.331-1.493-3.608-3.691-6.867-6.43-9.606s-6-4.939-9.608-6.435c-3.48-1.44-7.308-2.235-11.332-2.235-4.025 0-7.85.795-11.329 2.235-3.61 1.496-6.873 3.696-9.608 6.435-2.739 2.739-4.941 5.998-6.436 9.606-1.438 3.479-2.237 7.309-2.237 11.331 0 4.026.799 7.854 2.237 11.334 1.495 3.609 3.697 6.868 6.436 9.603 2.735 2.74 5.995 4.943 9.603 6.436 3.481 1.439 7.309 2.235 11.334 2.235zm1.712-49.65c1.218 0 2.211.988 2.211 2.212 0 1.222-.993 2.212-2.211 2.212h-7.069c-.07 0-.123.006-.151.018l-.037.017c-.026.017-.054.042-.088.078-.038.047-.067.09-.077.125l-.004.007c-.005.035-.005.088 0 .155l1.517 12.414h11.27c1.219 0 2.21.991 2.21 2.212 0 1.219-.991 2.209-2.21 2.209h-10.729l.099.828c.086.75.058 1.478-.076 2.197-.143.735-.405 1.448-.787 2.142-1.361 2.31-2.566 4.782-3.902 7.117-.032.076-.052.137-.052.186 0 .042.022.102.064.178.039.064.081.109.12.131.039.024.103.037.19.037h22.878c1.223 0 2.213.989 2.213 2.211s-.99 2.212-2.213 2.212h-22.878c-.849 0-1.652-.217-2.367-.62-.71-.409-1.309-.99-1.745-1.727-.43-.732-.658-1.537-.67-2.356-.013-.817.185-1.626.596-2.372l3.898-7.12c.155-.289.263-.57.318-.851.047-.262.058-.546.023-.861l-.162-1.332h-7.958c-1.223 0-2.212-.99-2.212-2.209 0-1.221.989-2.212 2.212-2.212h7.418l-1.452-11.88c-.084-.685-.023-1.358.175-2.002.201-.632.534-1.218.996-1.74.421-.475.905-.846 1.449-1.119l.157-.08c.617-.274 1.275-.417 1.967-.417z" fill="#ff5721" fill-rule="evenodd" mask="url(#a)"/></svg>