<svg width="151" height="264" viewBox="0 0 151 264" fill="none" xmlns="http://www.w3.org/2000/svg">
<g clip-path="url(#clip0_42_50)">
<rect width="151" height="264" fill="white"/>
<path d="M0 0H139C145.627 0 151 5.37258 151 12V252C151 258.627 145.627 264 139 264H12C5.37259 264 0 258.627 0 252V0Z" fill="#CAEFFF"/>
<path d="M139 0.5C145.351 0.500002 150.5 5.64873 150.5 12V252C150.5 258.351 145.351 263.5 139 263.5H12C5.64873 263.5 0.5 258.351 0.5 252V0.5H139Z" stroke="#37464F" stroke-opacity="0.4"/>
<g clip-path="url(#clip1_42_50)">
<path d="M94.439 87.118C94.5983 86.3099 93.8346 84.4282 94.7519 84.0066C95.8635 83.4952 97.4979 84.6664 98.3821 85.3261C101.01 87.282 103.139 90.4383 103.221 93.8172C105.959 94.1002 108.602 95.1601 110.447 97.2526C110.995 97.8733 112.802 100.368 111.317 100.792C110.985 100.887 110.085 100.639 110.161 101.032C115.039 109.185 113.249 119.548 110.59 128.158C111.478 128.562 112.155 128.632 112.948 129.273C116.436 132.091 115.47 138.845 114.063 142.56C112.81 145.866 110.173 149.401 106.268 149.198C105.106 155.601 101.942 161.603 97.251 166.075L97.0781 172.483C97.4726 177.804 96.6389 179.838 102.022 181.917C114.734 186.828 130.73 189.046 136.771 203.072C141.099 213.119 141.535 225.493 143 236.254C143.012 237.8 140.357 237.893 140.225 238.612L140.196 271.442L139.632 271.994L16.121 271.998C15.7479 271.824 15.5186 271.174 15.5244 270.78L15.5361 238.358C15.4914 238.171 13.204 237.577 13.0291 236.652C12.9747 236.363 13.0097 235.852 13.0214 235.53C13.1555 231.85 13.9192 227.242 14.4381 223.531C15.6274 215.028 17.3201 203.89 23.0511 197.228C30.5992 188.454 44.3913 186.11 54.6756 181.882C57.5674 180.693 58.5993 179.957 58.9355 176.653C59.2872 173.188 58.9472 169.618 58.8617 166.147C53.8594 161.863 50.6528 155.663 49.4907 149.196C44.4846 149.372 41.5715 144.123 40.6522 139.829C39.7583 135.654 39.7797 129.827 44.6284 128.279C43.6548 125.654 42.7861 122.995 42.1817 120.255C40.3705 112.041 40.2636 103.286 45.7381 96.4191C46.8924 94.9727 48.21 93.8113 49.6267 92.6382C48.3266 92.035 46.6806 91.8203 47.8427 90.005C49.6365 87.2059 54.5979 86.265 57.4955 85.3008C58.5779 84.9397 59.6098 84.4087 60.6904 84.0378C71.7248 80.251 84.1372 82.002 94.439 87.118ZM50.4624 127.248C51.2786 127.36 51.7664 126.526 52.4524 126.103C56.4266 123.649 67.3911 123.508 71.5286 125.587C72.7607 126.206 73.7149 127.231 74.4825 128.355C76.6085 127.367 78.8959 127.254 81.0122 128.345C82.2191 126.345 84.1216 125.324 86.339 124.771C90.7174 123.682 99.3829 123.788 103.252 126.292C103.777 126.632 104.01 127.245 104.797 127.233L105.009 126.913C104.638 124.719 103.699 122.696 103.106 120.565C101.55 114.963 101.464 108.037 96.3163 104.356C91.1178 107.696 84.6696 110.54 78.4839 111.285C77.5841 111.395 74.5194 111.654 73.8451 111.371C72.0163 110.608 75.1082 107.811 74.8148 107.53C70.1935 109.353 65.0221 111.705 59.9927 112.002C57.4508 112.152 56.6851 111.773 57.8356 109.206C54.903 110.138 52.9246 112.374 52.1978 115.357C51.2786 119.134 51.1873 123.397 50.4604 127.245L50.4624 127.248ZM60.4533 126.311C58.2339 126.438 54.0032 126.835 52.7109 128.88C51.3078 131.1 52.6429 136.948 54.0479 139.097C57.1087 143.778 66.6002 143.83 70.1546 139.696C72.2962 137.205 74.4572 130.305 71.3537 128.002C68.872 126.159 63.4597 126.14 60.4513 126.313L60.4533 126.311ZM83.6338 128.416C81.7488 130.414 82.8021 135.248 83.8826 137.504C85.9212 141.763 89.907 142.942 94.3749 142.634C100.46 142.212 102.935 138.107 103.206 132.349C103.365 128.952 102.51 127.639 99.2002 126.87C95.6361 126.04 86.304 125.585 83.6338 128.416ZM105.573 130.604C105.32 130.657 105.314 130.879 105.291 131.088C105.213 131.783 105.343 132.581 105.277 133.313C104.98 136.653 103.602 140.783 100.749 142.745C96.911 145.384 89.8623 145.433 85.9095 143.02C81.9839 140.625 80.0833 134.992 80.5108 130.559C79.0533 129.444 76.4628 129.413 75.0305 130.596C75.2754 135.158 73.4972 140.703 69.3947 143.122C65.9686 145.14 60.5077 145.224 56.8328 143.852C52.159 142.107 50.4624 137.666 50.0465 132.981C49.7569 133.096 49.7803 133.534 49.3935 133.651C47.6989 134.158 47.9729 131.826 47.4677 131.031C46.805 129.989 44.642 130.334 43.8005 131.107C40.3802 134.248 43.4565 146.674 48.589 147.106C49.3624 147.17 50.5168 146.594 51.026 147.311C51.9083 150.572 52.7633 153.867 54.2908 156.895C63.3217 174.781 90.6319 175.833 100.679 158.333C102.634 154.927 103.664 151.164 104.679 147.391C105.201 146.565 106.154 147.139 106.892 147.11C111.912 146.918 114.78 135.255 112.318 131.734C111.786 130.973 110.826 130.307 109.865 130.358C109.525 130.375 108.443 130.717 108.223 130.955C107.658 131.566 107.994 134.197 106.231 133.655C105.497 133.428 105.578 131.242 105.576 130.606L105.573 130.604ZM61.0402 167.937C61.0713 168.197 61.1782 168.429 61.1859 168.698C61.2889 171.669 61.5027 178.001 60.1268 180.514C59.4952 181.665 58.5546 182.368 57.4236 182.971C56.9241 183.237 55.7678 183.584 55.4705 183.81C55.2353 183.988 55.5482 184.761 55.6415 185.034C61.1043 201.054 93.5703 201.294 100.308 185.509C100.473 185.12 100.984 184.068 100.778 183.734C100.66 183.545 99.2721 183.098 98.9379 182.922C96.3396 181.556 95.5001 179.647 95.1541 176.797C94.7966 173.859 95.1017 170.758 94.9967 167.797C86.5256 173.674 75.2501 174.582 65.8189 170.477L61.0421 167.937H61.0402ZM122.134 239.945C126.88 239.553 131.629 238.875 136.188 237.497C136.818 237.308 140.666 236.066 140.759 235.668C139.799 227.204 139.035 218.493 136.874 210.244C134.381 200.73 130.868 195.786 121.949 191.542C115.884 188.655 109.393 186.625 103.013 184.566C98.8932 196.549 84.726 200.664 73.2348 199.1C66.3359 198.161 58.7353 194.745 54.9982 188.62C54.2209 187.345 53.7584 186.059 53.1656 184.734C47.2072 186.701 41.0565 188.675 35.3391 191.265C24.8371 196.02 21.0941 201.675 18.5211 212.82C17.1782 218.637 16.3465 224.864 15.6877 230.806C15.5031 232.467 15.2776 234.132 15.2465 235.799C20.3168 238.104 26.1955 239.312 31.7438 239.806C32.0509 239.834 33.761 240.039 33.761 239.738V224.358C33.761 224.031 34.4412 223.582 34.8046 223.582C35.168 223.582 35.8482 224.031 35.8482 224.358V270.011H119.905V223.941C119.905 223.016 122.132 222.846 122.132 224.081V239.951L122.134 239.945ZM33.763 242.041C28.3332 241.735 22.919 240.79 17.7593 239.106V270.005H33.555L33.763 269.796V242.041ZM138.138 239.106C132.962 240.757 127.568 241.727 122.134 242.041V270.005H137.93L138.138 269.796V239.106Z" fill="#37464F"/>
<path d="M77.1343 155.913C77.9863 155.555 78.3984 156.198 79.0713 156.502C83.4047 158.455 87.8131 158.139 91.3816 154.772C92.0821 154.111 93.0622 152.316 94.1356 153.066C95.4577 153.992 92.8594 156.276 92.1506 156.869C88.1081 160.247 81.8407 160.912 77.3895 157.899C76.6497 157.399 76.0196 156.379 77.1362 155.912L77.1343 155.913Z" fill="#37464F"/>
<path d="M73.9383 143.776C74.636 143.563 75.699 144.139 76.4511 144.271C77.4306 144.445 78.5869 144.473 79.5547 144.244C80.1843 144.096 81.5739 143.212 81.98 144.17C82.7127 145.901 78.9406 146.559 77.8095 146.555C76.8359 146.551 73.3398 145.886 73.4272 144.525C73.4447 144.27 73.6876 143.85 73.9403 143.774L73.9383 143.776Z" fill="#37464F"/>
<path d="M89.1219 120.438C91.248 120.309 96.9479 120.483 98.6853 121.654C99.5928 122.267 99.2994 123.483 98.1295 123.485C96.567 123.485 94.3321 122.837 92.5675 122.769C90.2919 122.681 88.2066 123.112 86.0203 123.192C85.2799 123.22 84.2421 123.259 84.143 122.273C84.0128 120.985 85.6919 120.834 86.5975 120.698C87.4137 120.575 88.3018 120.489 89.1239 120.44L89.1219 120.438Z" fill="#37464F"/>
<path d="M63.0982 120.438C65.2165 120.311 68.2987 120.358 70.3431 120.906C71.8551 121.312 72.199 122.778 70.5724 123.2C66.1085 122.611 61.6757 122.653 57.2448 123.446C56.2362 123.122 56.3877 122.005 57.2448 121.547C58.5157 120.867 61.6193 120.524 63.0982 120.436V120.438Z" fill="#37464F"/>
<path d="M62.8125 131.336C66.9519 130.627 67.3076 137.073 63.7395 137.438C59.8547 137.836 59.4505 131.912 62.8125 131.336Z" fill="#37464F"/>
<path d="M94.2505 132.052C96.8857 134.68 93.3527 139.353 90.4745 136.754C87.5012 134.071 91.4637 129.273 94.2505 132.052Z" fill="#37464F"/>
</g>
<path d="M58.6281 41.208C57.2068 41.208 55.9241 40.9047 54.7801 40.298C53.6534 39.6913 52.7608 38.8247 52.1021 37.698C51.4608 36.5713 51.1401 35.254 51.1401 33.746C51.1401 32.2553 51.4694 30.9467 52.1281 29.82C52.7868 28.676 53.6881 27.8007 54.8321 27.194C55.9761 26.5873 57.2588 26.284 58.6801 26.284C60.1014 26.284 61.3841 26.5873 62.5281 27.194C63.6721 27.8007 64.5734 28.676 65.2321 29.82C65.8908 30.9467 66.2201 32.2553 66.2201 33.746C66.2201 35.2367 65.8821 36.554 65.2061 37.698C64.5474 38.8247 63.6374 39.6913 62.4761 40.298C61.3321 40.9047 60.0494 41.208 58.6281 41.208ZM58.6281 37.36C59.4774 37.36 60.1968 37.048 60.7861 36.424C61.3928 35.8 61.6961 34.9073 61.6961 33.746C61.6961 32.5847 61.4014 31.692 60.8121 31.068C60.2401 30.444 59.5294 30.132 58.6801 30.132C57.8134 30.132 57.0941 30.444 56.5221 31.068C55.9501 31.6747 55.6641 32.5673 55.6641 33.746C55.6641 34.9073 55.9414 35.8 56.4961 36.424C57.0681 37.048 57.7788 37.36 58.6281 37.36Z" fill="#37464F"/>
<path d="M49.6786 33.512C49.6786 33.928 49.6526 34.3613 49.6006 34.812H39.5386C39.608 35.7133 39.894 36.4067 40.3966 36.892C40.9166 37.36 41.5493 37.594 42.2946 37.594C43.404 37.594 44.1753 37.126 44.6086 36.19H49.3406C49.098 37.1433 48.656 38.0013 48.0146 38.764C47.3906 39.5267 46.602 40.1247 45.6486 40.558C44.6953 40.9913 43.6293 41.208 42.4506 41.208C41.0293 41.208 39.764 40.9047 38.6546 40.298C37.5453 39.6913 36.6786 38.8247 36.0546 37.698C35.4306 36.5713 35.1186 35.254 35.1186 33.746C35.1186 32.238 35.422 30.9207 36.0286 29.794C36.6526 28.6673 37.5193 27.8007 38.6286 27.194C39.738 26.5873 41.012 26.284 42.4506 26.284C43.8546 26.284 45.1026 26.5787 46.1946 27.168C47.2866 27.7573 48.136 28.598 48.7426 29.69C49.3666 30.782 49.6786 32.056 49.6786 33.512ZM45.1286 32.342C45.1286 31.5793 44.8686 30.9727 44.3486 30.522C43.8286 30.0713 43.1786 29.846 42.3986 29.846C41.6533 29.846 41.0206 30.0627 40.5006 30.496C39.998 30.9293 39.686 31.5447 39.5646 32.342H45.1286Z" fill="#37464F"/>
<path d="M28.058 37.568H33.882V41H23.612V22.748H28.058V37.568Z" fill="#37464F"/>
</g>
<defs>
<clipPath id="clip0_42_50">
<rect width="151" height="264" fill="white"/>
</clipPath>
<clipPath id="clip1_42_50">
<rect width="130" height="190" fill="white" transform="translate(13 82)"/>
</clipPath>
</defs>
</svg>
