<svg width="151" height="264" viewBox="0 0 151 264" fill="none" xmlns="http://www.w3.org/2000/svg">
<g clip-path="url(#clip0_42_49)">
<rect width="151" height="264" fill="white"/>
<path d="M0 0H139C145.627 0 151 5.37258 151 12V252C151 258.627 145.627 264 139 264H12C5.37259 264 0 258.627 0 252V0Z" fill="#CADBFF" fill-opacity="0.9"/>
<path d="M139 0.5C145.351 0.500002 150.5 5.64873 150.5 12V252C150.5 258.351 145.351 263.5 139 263.5H12C5.64873 263.5 0.5 258.351 0.5 252V0.5H139Z" stroke="#37464F" stroke-opacity="0.4"/>
<g clip-path="url(#clip1_42_49)">
<path d="M93.1186 169.167C92.7929 170.77 93.0315 172.417 93.1186 174.022C93.2834 177.093 92.9766 178.772 95.9892 180.473C100.729 183.149 108.761 184.796 114.15 186.706C126.744 191.168 132.602 196.019 136.102 209.297C138.006 216.525 139.758 227.167 139.983 234.614C139.995 235.019 140.029 235.604 139.97 235.982C139.802 237.061 137.666 237.381 136.817 237.788L136.554 271.499L136.276 271.767C132.345 271.93 128.368 271.796 124.42 271.832C87.8982 272.168 51.2377 271.871 14.6605 271.981C14.2004 272.002 13.816 271.794 13.6058 271.393C13.5661 261.271 13.3048 251.057 13.496 240.918C13.5131 240.012 13.8066 238.825 13.6399 237.909C13.5112 237.201 11.2522 237.304 11.0439 235.982C10.9757 235.553 11.0098 234.802 11.0306 234.34C11.2143 230.061 11.9642 224.941 12.5625 220.656C13.7289 212.31 15.4729 202.461 21.1799 195.964C28.1879 187.985 41.8799 185.682 51.5293 182.048C53.5516 181.287 56.568 180.241 57.5147 178.164C58.3119 176.414 58.5524 170.64 58.3176 168.673C58.3005 168.526 58.3233 168.357 58.1831 168.261C56.9202 168.202 55.678 168.391 54.4075 168.336C41.5637 167.78 31.1607 161.148 30.4885 147.437C29.8258 133.907 38.5019 113.096 46.9413 102.607C56.6229 90.5723 78.4987 88.1328 92.0639 94.1928C98.9393 97.2644 103.08 101.967 107.337 107.976C116.685 121.173 123.9 140.514 117.608 156.447C113.546 166.733 103.342 169.449 93.1186 169.167ZM95.3038 122.549L90.0284 110.075C87.955 116.281 83.403 121.277 76.2814 119.578C75.755 119.453 74.4447 118.855 74.1304 118.862C73.8161 118.87 72.8901 119.459 72.4205 119.602C69.8681 120.382 67.3251 119.565 65.0869 118.299L60.4989 122.07C63.4736 122.288 66.5355 122.184 69.4345 123C71.0004 123.441 72.7235 124.173 73.4601 125.714C75.4464 124.856 77.5709 124.739 79.6008 125.549C81.6306 121.769 86.9117 122.292 90.5832 122.133L95.3038 122.549ZM57.6851 123.849L51.0673 126.755C50.6659 130.383 50.8173 135.489 53.9341 137.962C56.8103 140.245 63.0912 140.68 66.4275 139.38C70.4001 137.832 72.608 133.021 72.2823 128.927C72.0759 126.338 71.078 125.517 68.6922 124.841C65.1324 123.834 61.3472 124.003 57.6851 123.848V123.849ZM87.6028 124.099C86.2982 124.194 82.8538 124.641 82.0112 125.634C80.8467 127.006 80.8202 130.07 81.091 131.768C82.2706 139.155 88.5041 141.108 95.1958 139.923C98.7935 139.285 100.901 136.969 101.711 133.475C99.7327 130.591 97.9888 127.553 96.3338 124.472C96.0877 124.251 93.9518 124.08 93.4595 124.058C91.6682 123.971 89.3865 123.974 87.6028 124.103V124.099ZM78.7922 127.213H74.4068C73.9997 127.213 74.3368 128.399 74.3444 128.647C74.6871 139.412 66.8574 144.346 56.8009 141.539C54.6479 140.937 52.5556 139.755 51.2491 137.906C50.9404 137.853 51.0578 138.04 51.0446 138.246C50.4519 148.23 54.7653 159.153 65.21 161.777C65.8349 161.934 68.0579 162.172 68.2983 162.524C68.6998 163.107 68.34 163.945 67.575 163.942C66.6491 163.938 64.8464 163.48 63.8959 163.228C62.5875 162.882 61.3662 162.318 60.0899 161.896C60.285 165.382 60.5008 168.889 60.3683 172.388C60.3001 174.167 60.1657 176.703 59.6393 178.376C58.6622 181.48 55.3845 182.883 52.5518 183.833C56.6248 195.374 71.4264 198.846 82.2877 196.513C87.8035 195.328 93.7719 192.06 96.8678 187.247C97.1575 186.795 98.7159 183.984 98.4565 183.694C96.3963 183.115 93.4102 181.836 92.2306 179.983C91.1229 178.246 90.9903 175.246 90.9146 173.212C90.7915 169.939 91.0036 166.663 91.1929 163.404C89.7198 163.813 87.8622 164.492 86.3303 164.511C85.2378 164.525 84.9216 163.597 85.7453 162.956C95.3662 161.864 99.8255 153.911 101.427 145.196C101.848 142.911 102.279 139.859 102.156 137.559C102.149 137.404 102.245 137.183 102.02 137.22C100.91 139.743 98.3504 141.244 95.7203 141.818C87.0991 143.693 79.0857 140.018 78.726 130.434C78.6919 129.503 79.0554 128.443 79.01 127.691C79.0005 127.527 78.9627 127.266 78.7922 127.213ZM31.3122 239.007V224.476C31.3122 223.923 32.4161 223.696 32.897 223.987C32.9898 224.044 33.3666 224.551 33.3666 224.614V270.058L117.091 269.922V224.614C117.091 223.724 119.145 223.548 119.145 224.478V239.215C124.962 238.674 131.271 237.78 136.719 235.615C137.014 235.498 137.815 235.26 137.899 235.01C137.117 227.023 136.287 218.823 134.373 211.025C132.082 201.691 128.535 195.343 119.605 191.115C113.571 188.257 106.765 186.647 100.445 184.512C96.7523 195.12 84.5069 199.789 73.9865 199.327C64.4469 198.909 53.7599 194.172 50.628 184.514C40.3348 188.424 26.8719 190.23 20.5645 200.29C15.7815 207.918 14.4049 221.022 13.4979 229.96C13.3218 231.684 13.1514 233.42 13.0794 235.146C18.7297 237.561 24.8666 238.636 30.9694 239.217C31.0925 239.223 31.28 239.107 31.3103 239.007H31.3122ZM15.5543 238.39V269.852L15.7607 270.058H31.1077L31.3141 269.852V241.475C31.227 241.34 31.1266 241.295 30.9713 241.268C29.928 241.087 28.6366 241.117 27.563 240.977C23.4881 240.451 19.489 239.539 15.5562 238.39H15.5543ZM134.767 238.526C130.485 239.754 126.113 240.621 121.681 241.13C120.902 241.219 119.823 241.068 119.147 241.475V269.716L119.353 269.922H134.564L134.77 269.716V238.528L134.767 238.526Z" fill="#37464F"/>
<path d="M72.038 150.862C72.8986 150.358 73.3951 151.099 74.1448 151.42C78.2807 153.178 82.0541 152.743 85.4286 149.681C86.012 149.152 87.1617 147.359 87.9198 148.118C88.678 148.877 87.6909 149.801 87.1935 150.411C83.6726 154.723 78.3493 155.738 73.4708 153.094C72.9016 152.786 70.7392 151.622 72.0361 150.862L72.038 150.862Z" fill="#37464F"/>
<path d="M72.7932 140.126C73.2287 139.999 75.0654 140.591 75.7793 140.646C76.8188 140.724 77.8489 140.654 78.8638 140.445C79.3978 140.336 79.9015 139.772 80.4317 140.379C81.4144 141.509 78.7351 142.491 77.9322 142.667C76.5007 142.978 73.6074 142.645 72.5679 141.53C72.1551 141.089 72.1665 140.311 72.7932 140.127V140.126Z" fill="#37464F"/>
<path d="M61.843 129.711C65.5713 129.523 65.6471 135.311 61.9376 135.311C58.2282 135.311 58.2207 129.892 61.843 129.711Z" fill="#37464F"/>
<path d="M90.7438 129.162C94.7978 128.327 95.222 135.061 90.9862 134.614C88.108 134.31 88.0758 129.711 90.7438 129.162Z" fill="#37464F"/>
</g>
<path d="M64.9546 33.72C64.9546 32.2293 65.2319 30.9207 65.7866 29.794C66.3586 28.6673 67.1299 27.8007 68.1006 27.194C69.0712 26.5873 70.1546 26.284 71.3506 26.284C72.3732 26.284 73.2659 26.492 74.0286 26.908C74.8086 27.324 75.4066 27.87 75.8226 28.546V26.492H80.2686V41H75.8226V38.946C75.3892 39.622 74.7826 40.168 74.0026 40.584C73.2399 41 72.3472 41.208 71.3246 41.208C70.1459 41.208 69.0712 40.9047 68.1006 40.298C67.1299 39.674 66.3586 38.7987 65.7866 37.672C65.2319 36.528 64.9546 35.2107 64.9546 33.72ZM75.8226 33.746C75.8226 32.6367 75.5106 31.7613 74.8866 31.12C74.2799 30.4787 73.5346 30.158 72.6506 30.158C71.7666 30.158 71.0126 30.4787 70.3886 31.12C69.7819 31.744 69.4786 32.6107 69.4786 33.72C69.4786 34.8293 69.7819 35.7133 70.3886 36.372C71.0126 37.0133 71.7666 37.334 72.6506 37.334C73.5346 37.334 74.2799 37.0133 74.8866 36.372C75.5106 35.7307 75.8226 34.8553 75.8226 33.746Z" fill="#37464F"/>
<path d="M59.1635 28.91C59.6835 28.1127 60.3335 27.4887 61.1135 27.038C61.8935 26.57 62.7601 26.336 63.7135 26.336V31.042H62.4915C61.3821 31.042 60.5501 31.2847 59.9955 31.77C59.4408 32.238 59.1635 33.07 59.1635 34.266V41H54.7175V26.492H59.1635V28.91Z" fill="#37464F"/>
<path d="M44.7668 41.208C43.3454 41.208 42.0628 40.9047 40.9188 40.298C39.7921 39.6913 38.8994 38.8247 38.2408 37.698C37.5994 36.5713 37.2788 35.254 37.2788 33.746C37.2788 32.2553 37.6081 30.9467 38.2668 29.82C38.9254 28.676 39.8268 27.8007 40.9708 27.194C42.1148 26.5873 43.3974 26.284 44.8188 26.284C46.2401 26.284 47.5228 26.5873 48.6668 27.194C49.8108 27.8007 50.7121 28.676 51.3708 29.82C52.0294 30.9467 52.3588 32.2553 52.3588 33.746C52.3588 35.2367 52.0208 36.554 51.3448 37.698C50.6861 38.8247 49.7761 39.6913 48.6148 40.298C47.4708 40.9047 46.1881 41.208 44.7668 41.208ZM44.7668 37.36C45.6161 37.36 46.3354 37.048 46.9248 36.424C47.5314 35.8 47.8348 34.9073 47.8348 33.746C47.8348 32.5847 47.5401 31.692 46.9508 31.068C46.3788 30.444 45.6681 30.132 44.8188 30.132C43.9521 30.132 43.2328 30.444 42.6608 31.068C42.0888 31.6747 41.8028 32.5673 41.8028 33.746C41.8028 34.9073 42.0801 35.8 42.6348 36.424C43.2068 37.048 43.9174 37.36 44.7668 37.36Z" fill="#37464F"/>
<path d="M34.94 41H30.494L23.058 29.742V41H18.612V22.748H23.058L30.494 34.058V22.748H34.94V41Z" fill="#37464F"/>
</g>
<defs>
<clipPath id="clip0_42_49">
<rect width="151" height="264" fill="white"/>
</clipPath>
<clipPath id="clip1_42_49">
<rect width="129" height="181" fill="white" transform="translate(11 91)"/>
</clipPath>
</defs>
</svg>
