<svg width="319" height="587" viewBox="0 0 319 587" fill="none" xmlns="http://www.w3.org/2000/svg">
<g clip-path="url(#clip0_44_1369)">
<g clip-path="url(#clip1_44_1369)">
<path d="M142.918 294.733C141.736 300.552 142.602 306.529 142.918 312.354C143.515 323.504 142.402 329.597 153.332 335.773C170.526 345.487 199.667 351.464 219.217 358.395C264.907 374.594 286.161 392.201 298.856 440.399C305.767 466.635 312.121 505.263 312.938 532.295C312.98 533.766 313.103 535.888 312.89 537.262C312.279 541.178 304.53 542.339 301.453 543.816L300.498 666.18L299.488 667.155C285.227 667.746 270.801 667.258 256.478 667.389C123.978 668.611 -9.02243 667.533 -141.721 667.931C-143.39 668.007 -144.785 667.251 -145.547 665.795C-145.692 629.056 -146.64 591.98 -145.946 555.179C-145.884 551.888 -144.819 547.581 -145.424 544.256C-145.891 541.686 -154.086 542.057 -154.842 537.262C-155.089 535.703 -154.965 532.976 -154.89 531.299C-154.224 515.767 -151.503 497.184 -149.332 481.631C-145.101 451.336 -138.774 415.586 -118.069 392.002C-92.6451 363.039 -42.9716 354.679 -7.96453 341.489C-0.62788 338.727 10.3153 334.928 13.75 327.392C16.6421 321.038 17.5145 300.078 16.6627 292.94C16.6009 292.405 16.6833 291.793 16.175 291.443C11.593 291.23 7.0866 291.917 2.47715 291.718C-44.1188 289.698 -81.86 265.626 -84.2987 215.855C-86.703 166.744 -55.2268 91.2041 -24.6094 53.132C10.5145 9.44746 89.8781 0.592383 139.091 22.5892C164.035 33.7388 179.058 50.8101 194.501 72.6215C228.416 120.524 254.589 190.726 231.761 248.562C217.026 285.899 180.006 295.757 142.918 294.733ZM150.845 125.518L131.707 80.24C124.184 102.766 107.67 120.902 81.8339 114.733C79.9242 114.279 75.1704 112.109 74.0301 112.136C72.8898 112.164 69.5306 114.3 67.8269 114.822C58.5668 117.653 49.341 114.685 41.2213 110.089L24.5764 123.78C35.3684 124.57 46.4764 124.192 56.9937 127.153C62.6748 128.754 68.926 131.413 71.5983 137.005C78.8044 133.893 86.512 133.467 93.8762 136.407C101.24 122.688 120.399 124.584 133.719 124.007L150.845 125.518ZM14.3683 130.238L-9.64069 140.783C-11.097 153.952 -10.5475 172.487 0.759772 181.465C11.1946 189.75 33.9808 191.33 46.0849 186.611C60.4971 180.991 68.507 163.529 67.3255 148.669C66.5767 139.272 62.9564 136.29 54.3008 133.838C41.3861 130.183 27.654 130.794 14.3683 130.231V130.238ZM122.907 131.145C118.174 131.488 105.678 133.109 102.621 136.716C98.3963 141.697 98.3001 152.819 99.2825 158.981C103.562 185.793 126.177 192.883 150.454 188.582C163.506 186.267 171.151 177.859 174.092 165.177C166.913 154.708 160.586 143.682 154.582 132.498C153.689 131.694 145.94 131.076 144.154 130.994C137.656 130.678 129.378 130.691 122.907 131.158V131.145ZM90.9429 142.445H75.033C73.5561 142.445 74.7789 146.753 74.8064 147.653C76.0497 186.728 47.6443 204.637 11.1602 194.449C3.34958 192.265 -4.24125 187.971 -8.98122 181.259C-10.1009 181.067 -9.67504 181.747 -9.72313 182.496C-11.8733 218.734 3.77549 258.386 41.6678 267.907C43.9347 268.477 51.9995 269.343 52.872 270.621C54.3283 272.737 53.0231 275.78 50.2478 275.766C46.8886 275.752 40.3488 274.09 36.9003 273.176C32.1535 271.919 27.7226 269.872 23.0926 268.34C23.8001 280.994 24.5833 293.724 24.1024 306.426C23.8551 312.883 23.3674 322.089 21.4576 328.162C17.913 339.428 6.02182 344.518 -4.25498 347.967C10.5214 389.859 64.2204 402.465 103.624 393.994C123.635 389.694 145.288 377.83 156.519 360.36C157.57 358.718 163.224 348.517 162.283 347.465C154.809 345.363 143.976 340.719 139.696 333.994C135.677 327.688 135.196 316.799 134.922 309.414C134.475 297.536 135.244 285.645 135.931 273.815C130.587 275.299 123.848 277.765 118.29 277.834C114.327 277.882 113.18 274.516 116.168 272.187C151.072 268.223 167.25 239.357 173.061 207.721C174.586 199.43 176.152 188.349 175.706 180.002C175.678 179.439 176.029 178.635 175.211 178.772C171.186 187.93 161.898 193.378 152.356 195.459C121.079 202.267 92.0077 188.926 90.7024 154.138C90.5788 150.758 91.8977 146.911 91.7329 144.183C91.6985 143.586 91.5611 142.638 90.9429 142.445ZM-81.3104 548.24V495.494C-81.3104 493.488 -77.3055 492.664 -75.5606 493.722C-75.224 493.928 -73.857 495.769 -73.857 495.996V660.952L229.886 660.457V495.996C229.886 492.767 237.339 492.128 237.339 495.501V548.996C258.442 547.031 281.332 543.789 301.095 535.93C302.167 535.504 305.073 534.638 305.375 533.731C302.538 504.741 299.529 474.974 292.584 446.671C284.272 412.79 271.405 389.749 239.009 374.402C217.115 364.028 192.426 358.182 169.496 350.433C156.1 388.938 111.675 405.886 73.508 404.209C38.8994 402.691 0.127772 385.496 -11.2344 350.44C-48.5771 364.633 -97.4195 371.187 -120.302 407.706C-137.654 435.391 -142.648 482.957 -145.939 515.403C-146.578 521.661 -147.196 527.961 -147.457 534.226C-126.958 542.992 -104.694 546.894 -82.5538 549.003C-82.1073 549.023 -81.4272 548.604 -81.3173 548.24H-81.3104ZM-138.479 546.001V660.203L-137.73 660.952H-82.0523L-81.3036 660.203V557.198C-81.6196 556.71 -81.9836 556.546 -82.5469 556.449C-86.332 555.79 -91.0171 555.9 -94.9121 555.391C-109.695 553.482 -124.204 550.171 -138.472 546.001H-138.479ZM294.013 546.495C278.481 550.954 262.619 554.1 246.538 555.948C243.714 556.271 239.799 555.721 237.346 557.198V659.708L238.095 660.457H293.278L294.027 659.708V546.502L294.013 546.495Z" fill="#37464F"/>
<path d="M66.4401 228.289C69.5625 226.459 71.3636 229.15 74.0834 230.313C89.0882 236.696 102.778 235.117 115.02 224.004C117.136 222.083 121.307 215.573 124.058 218.328C126.809 221.082 123.227 224.439 121.423 226.652C108.649 242.303 89.337 245.987 71.6384 236.391C69.5732 235.272 61.7281 231.047 66.4334 228.291L66.4401 228.289Z" fill="#37464F"/>
<path d="M69.18 189.317C70.76 188.857 77.4234 191.007 80.0133 191.207C83.7846 191.488 87.5216 191.234 91.2037 190.478C93.1409 190.08 94.9682 188.033 96.8917 190.238C100.457 194.339 90.7366 197.905 87.8239 198.544C82.6306 199.67 72.1339 198.461 68.3625 194.415C66.865 192.814 66.9062 189.991 69.18 189.324V189.317Z" fill="#37464F"/>
<path d="M29.4536 151.513C42.9797 150.833 43.2544 171.841 29.797 171.841C16.3396 171.841 16.3122 152.173 29.4536 151.513Z" fill="#37464F"/>
<path d="M134.303 149.521C149.011 146.492 150.55 170.934 135.182 169.313C124.741 168.207 124.624 151.513 134.303 149.521Z" fill="#37464F"/>
</g>
</g>
<defs>
<clipPath id="clip0_44_1369">
<rect width="319" height="587" fill="white"/>
</clipPath>
<clipPath id="clip1_44_1369">
<rect width="468" height="657" fill="white" transform="translate(-155 11)"/>
</clipPath>
</defs>
</svg>
