<svg width="319" height="587" viewBox="0 0 319 587" fill="none" xmlns="http://www.w3.org/2000/svg">
<g clip-path="url(#clip0_44_1369)">
<g clip-path="url(#clip1_44_1369)">
<g clip-path="url(#clip2_44_1369)">
<path d="M143.784 23.8325C144.339 21.0168 141.678 14.4606 144.874 12.9916C148.747 11.2097 154.443 15.2904 157.524 17.5891C166.679 24.4038 174.101 35.4011 174.386 47.1737C183.927 48.1598 193.137 51.8528 199.564 59.1435C201.473 61.3062 207.771 69.998 202.598 71.4738C201.44 71.807 198.304 70.9433 198.568 72.3103C215.566 100.718 209.329 136.825 200.065 166.824C203.16 168.232 205.516 168.477 208.279 170.708C220.435 180.529 217.069 204.06 212.166 217.003C207.798 228.523 198.609 240.84 185.004 240.133C180.955 262.44 169.93 283.354 153.583 298.935L152.98 321.263C154.355 339.802 151.449 346.889 170.208 354.132C214.503 371.243 270.242 378.969 291.296 427.842C306.377 462.847 307.894 505.958 313 543.453C313.041 548.839 303.79 549.166 303.33 551.668L303.228 666.055L301.264 667.98L-129.124 667.993C-130.424 667.388 -131.224 665.123 -131.203 663.749L-131.163 550.784C-131.318 550.131 -139.289 548.064 -139.898 544.84C-140.088 543.833 -139.966 542.052 -139.925 540.929C-139.458 528.109 -136.797 512.052 -134.989 499.123C-130.844 469.498 -124.946 430.691 -104.976 407.479C-78.6735 376.909 -30.6133 368.741 5.2236 354.01C15.3002 349.868 18.8961 347.304 20.0676 335.79C21.2933 323.718 20.1083 311.279 19.8103 299.186C2.37941 284.258 -8.79424 262.658 -12.8438 240.126C-30.2883 240.738 -40.4394 222.45 -43.6425 207.488C-46.7576 192.94 -46.6831 172.639 -29.7872 167.246C-33.1799 158.099 -36.2069 148.836 -38.313 139.287C-44.6244 110.668 -44.9969 80.1655 -25.9204 56.2395C-21.8979 51.1999 -17.3065 47.1533 -12.3698 43.0658C-16.9002 40.9643 -22.636 40.2162 -18.5864 33.8912C-12.336 24.1385 4.95273 20.8604 15.0496 17.5007C18.8216 16.2425 22.4175 14.3926 26.1827 13.1004C64.6335 -0.09359 107.886 6.00695 143.784 23.8325ZM-9.45789 163.655C-6.61369 164.043 -4.91394 161.139 -2.52346 159.663C11.3251 151.114 49.5322 150.624 63.9496 157.867C68.243 160.023 71.568 163.594 74.2429 167.511C81.6513 164.07 89.6219 163.676 96.9965 167.477C101.202 160.506 107.832 156.949 115.558 155.025C130.815 151.23 161.011 151.597 174.494 160.323C176.323 161.506 177.135 163.642 179.878 163.601L180.616 162.485C179.323 154.841 176.052 147.795 173.986 140.368C168.562 120.849 168.264 96.7193 150.325 83.8925C132.21 95.5291 109.741 105.438 88.1862 108.036C85.0508 108.417 74.3715 109.322 72.0217 108.335C65.6493 105.676 76.4234 95.9303 75.4009 94.951C59.2973 101.303 41.2772 109.498 23.7515 110.532C14.8939 111.056 12.2258 109.736 16.2347 100.793C6.01592 104.037 -0.877887 111.831 -3.41058 122.223C-6.61369 135.383 -6.93197 150.237 -9.46467 163.642L-9.45789 163.655ZM25.3565 160.391C17.623 160.833 2.88052 162.213 -1.6228 169.341C-6.51211 177.074 -1.85981 197.45 3.03628 204.937C13.702 221.246 46.776 221.43 59.1619 207.025C66.6245 198.347 74.1548 174.306 63.3401 166.28C54.6924 159.86 35.8326 159.792 25.3497 160.397L25.3565 160.391ZM106.132 167.722C99.563 174.686 103.233 191.526 106.999 199.388C114.102 214.228 127.992 218.336 143.56 217.261C164.763 215.792 173.39 201.489 174.332 181.426C174.887 169.592 171.907 165.015 160.375 162.336C147.955 159.445 115.436 157.861 106.132 167.722ZM182.58 175.346C181.7 175.53 181.679 176.305 181.598 177.033C181.327 179.454 181.781 182.236 181.551 184.786C180.514 196.423 175.713 210.814 165.772 217.649C152.397 226.844 127.836 227.014 114.062 218.608C100.382 210.263 93.7595 190.635 95.2494 175.19C90.1704 171.306 81.1435 171.198 76.1526 175.319C77.0058 191.213 70.8095 210.535 56.514 218.961C44.5752 225.994 25.5461 226.286 12.7404 221.505C-3.54601 215.425 -9.45789 199.952 -10.9071 183.63C-11.9161 184.031 -11.8348 185.554 -13.1824 185.963C-19.0875 187.731 -18.1327 179.604 -19.8934 176.836C-22.2026 173.204 -29.7397 174.408 -32.672 177.101C-44.5905 188.044 -33.8706 231.339 -15.986 232.842C-13.2908 233.067 -9.26828 231.06 -7.49404 233.556C-4.41959 244.921 -1.43995 256.401 3.88277 266.949C35.3518 329.267 130.517 332.933 165.528 271.962C172.341 260.094 175.93 246.982 179.465 233.835C181.286 230.958 184.605 232.958 187.178 232.856C204.67 232.189 214.665 191.553 206.085 179.284C204.23 176.632 200.884 174.312 197.539 174.489C196.354 174.55 192.582 175.741 191.817 176.57C189.846 178.699 191.018 187.867 184.876 185.976C182.316 185.187 182.6 177.57 182.593 175.353L182.58 175.346ZM27.4016 305.423C27.5099 306.327 27.8824 307.137 27.9095 308.075C28.2684 318.426 29.0133 340.489 24.2188 349.242C22.0179 353.255 18.7403 355.703 14.7991 357.805C13.0587 358.729 9.02941 359.94 7.99331 360.729C7.17391 361.348 8.26419 364.041 8.58924 364.993C27.6251 420.809 140.757 421.646 164.235 366.646C164.81 365.292 166.591 361.627 165.874 360.464C165.46 359.804 160.625 358.247 159.461 357.635C150.407 352.874 147.481 346.222 146.276 336.293C145.03 326.057 146.093 315.25 145.727 304.933C116.208 325.411 76.9178 328.574 44.0537 314.271L27.4084 305.423H27.4016ZM240.29 556.313C256.827 554.946 273.378 552.586 289.264 547.785C291.459 547.125 304.867 542.8 305.192 541.412C301.847 511.923 299.185 481.57 291.655 452.829C282.967 419.68 270.723 402.453 239.647 387.668C218.512 377.609 195.893 370.536 173.661 363.361C159.305 405.113 109.938 419.449 69.8953 414.002C45.8551 410.73 19.3701 398.828 6.34774 377.487C3.63898 373.046 2.02726 368.564 -0.0381732 363.946C-20.8008 370.801 -42.2339 377.677 -62.1569 386.702C-98.7523 403.27 -111.795 422.972 -120.761 461.806C-125.44 482.073 -128.339 503.769 -130.634 524.471C-131.278 530.259 -132.063 536.06 -132.172 541.868C-114.504 549.9 -94.0187 554.11 -74.6849 555.831C-73.6149 555.926 -67.6557 556.64 -67.6557 555.592V502.007C-67.6557 500.864 -65.2855 499.3 -64.0191 499.3C-62.7528 499.3 -60.3826 500.864 -60.3826 502.007V661.07H232.523V500.552C232.523 497.328 240.283 496.736 240.283 501.041V556.334L240.29 556.313ZM-67.6489 563.618C-86.5696 562.55 -105.436 559.258 -123.416 553.389V661.049H-68.3735L-67.6489 660.322V563.618ZM296.057 553.389C278.023 559.143 259.224 562.523 240.29 563.618V661.049H295.332L296.057 660.322V553.389Z" fill="#37464F"/>
<path d="M83.4832 263.527C86.4521 262.282 87.8882 264.523 90.2331 265.582C105.333 272.386 120.695 271.284 133.13 259.552C135.571 257.248 138.986 250.994 142.726 253.61C147.333 256.836 138.279 264.794 135.809 266.861C121.723 278.63 99.8835 280.946 84.3727 270.45C81.7945 268.707 79.5989 265.153 83.4899 263.526L83.4832 263.527Z" fill="#37464F"/>
<path d="M72.3467 221.239C74.7778 220.498 78.482 222.504 81.1028 222.967C84.5158 223.572 88.5451 223.667 91.9175 222.872C94.1116 222.355 98.9535 219.274 100.369 222.613C102.922 228.646 89.7776 230.938 85.8363 230.924C82.4436 230.911 70.2609 228.591 70.5657 223.851C70.6266 222.96 71.4731 221.498 72.3534 221.233L72.3467 221.239Z" fill="#37464F"/>
<path d="M125.256 139.926C132.664 139.477 152.526 140.083 158.58 144.163C161.743 146.299 160.72 150.536 156.643 150.543C151.199 150.543 143.411 148.285 137.262 148.047C129.332 147.741 122.066 149.244 114.448 149.522C111.868 149.618 108.251 149.754 107.906 146.319C107.452 141.83 113.303 141.307 116.459 140.831C119.303 140.402 122.398 140.103 125.262 139.933L125.256 139.926Z" fill="#37464F"/>
<path d="M34.573 139.926C41.9544 139.484 52.6946 139.647 59.8187 141.558C65.0872 142.973 66.2859 148.081 60.6178 149.55C45.0627 147.496 29.616 147.645 14.176 150.407C10.6614 149.278 11.1896 145.387 14.176 143.789C18.6049 141.422 29.4196 140.225 34.573 139.919V139.926Z" fill="#37464F"/>
<path d="M33.5775 177.896C48.0017 175.428 49.241 197.885 36.8077 199.156C23.2707 200.544 21.8621 179.903 33.5775 177.896Z" fill="#37464F"/>
<path d="M143.127 180.392C152.309 189.547 139.998 205.828 129.969 196.776C119.608 187.425 133.416 170.708 143.127 180.392Z" fill="#37464F"/>
</g>
</g>
</g>
<defs>
<clipPath id="clip0_44_1369">
<rect width="319" height="587" fill="white"/>
</clipPath>
<clipPath id="clip1_44_1369">
<rect width="468" height="657" fill="white" transform="translate(-155 11)"/>
</clipPath>
<clipPath id="clip2_44_1369">
<rect width="453" height="662" fill="white" transform="translate(-140 6)"/>
</clipPath>
</defs>
</svg>
