<?xml version="1.0" encoding="utf-8"?>
<!-- Generator: Adobe Illustrator 19.2.0, SVG Export Plug-In . SVG Version: 6.00 Build 0)  -->
<svg version="1.1" id="Layer_1" xmlns="http://www.w3.org/2000/svg" xmlns:xlink="http://www.w3.org/1999/xlink" x="0px" y="0px"
	 viewBox="0 0 100 100" style="enable-background:new 0 0 100 100;" xml:space="preserve">
<style type="text/css">
	.st0{fill:#37474F;}
	.st1{fill:#FF5722;}
	.st2{fill:#FF7043;}
</style>
<g>
	<path class="st0" d="M50,99.9c-27.5,0-50-22.4-50-50S22.4,0,50,0c27.5,0,50,22.4,50,50S77.5,99.9,50,99.9z M50,7.4
		C26.5,7.4,7.4,26.5,7.4,50S26.5,92.5,50,92.5c23.5,0,42.5-19.1,42.5-42.5S73.4,7.4,50,7.4z"/>
</g>
<polygon class="st1" points="43.2,57.5 45.4,79 74.7,23.4 22.4,58.1 "/>
<g>
	<polyline class="st2" points="74.7,23.4 22.4,58.1 43.2,57.5 	"/>
</g>
</svg>
