<svg enable-background="new 0 0 400 70" viewBox="0 0 400 70" xmlns="http://www.w3.org/2000/svg"><path d="m10.2 48.6v-18.3h-4.3c-.9 0-1.4-.6-1.4-1.5v-2.7c0-.9.5-1.4 1.4-1.4h4.4l1.3-8c.2-1.3 1-2 2.2-2h1.5c1.3 0 2.1.8 2.1 2.2v7.9h9.6c.9 0 1.4.5 1.4 1.4v2.7c0 .9-.5 1.5-1.4 1.5h-9.6v18.6c0 3.8 1.8 5.2 4.1 5.2 2.2 0 4.1-1.3 4.1-3.8 0-.3 0-.8-.1-1.3-.1-1 .3-1.6 1.3-1.6h3.2c.8 0 1.5.4 1.6 1.3.3 1.2.3 2.5.3 2.6 0 5.2-3.8 9.1-10.5 9.1-5.7 0-11.2-2.9-11.2-11.9z" fill="#ff5722"/><path d="m35.6 57.2v-30c0-1.6 1-2.5 2.6-2.5h2.1c1.6 0 2.5.9 2.5 2.5v5.3c1.2-5.6 5.2-8.6 9.4-8.6l1.5.1c1.5.2 1.7 1.4 1.7 2.8v2c0 1.7-.7 2.4-1.9 2.2-.6-.1-1.3-.2-1.9-.2-2.5 0-8.8 1.3-8.8 15.6v10.8c0 1.6-.9 2.5-2.5 2.5h-2.1c-1.7 0-2.6-.9-2.6-2.5z" fill="#ff5722"/><path d="m58.5 44.5v-17.3c0-1.6.9-2.5 2.5-2.5h2.1c1.6 0 2.6.9 2.6 2.5v17.2c0 7.1 3.2 9.8 6.9 9.8 3.6 0 10.9-2.5 10.9-13.1v-13.9c0-1.6.9-2.5 2.5-2.5h2.1c1.6 0 2.6.9 2.6 2.5v30c0 1.6-1 2.5-2.6 2.5h-2.1c-1.6 0-2.5-.9-2.5-2.5v-4.3c-1.5 4.9-6 7.6-11.7 7.6-7.7 0-13.3-5.1-13.3-16z" fill="#ff5722"/><path d="m96.2 42.3c0-10.2 8-18.4 18.9-18.4 8.8 0 16.9 5.2 17.8 16.4.2 1.7-.8 2.6-2.4 2.6h-27.1c-.2 6.5 5.2 11.3 12.8 11.3 3.4 0 6.5-.9 9.5-2.9 1.3-.8 2.4-.8 3.6.4l.5.6c1.1 1.2 1.1 2.7-.5 4-4.1 3.3-8.7 4.3-13.2 4.3-12.3-.1-19.9-8.3-19.9-18.3zm29.6-4.7c-1.8-6.2-6.7-7.6-10.6-7.6-4.1 0-9.1 1.6-11.3 7.6z" fill="#ff5722"/><g fill="#fff"><path d="m139.6 48.6v-18.3h-4.3c-.9 0-1.4-.6-1.4-1.5v-2.7c0-.9.5-1.4 1.4-1.4h4.4l1.3-8c.2-1.3 1-2 2.2-2h1.5c1.3 0 2.1.8 2.1 2.2v7.9h9.6c.9 0 1.4.5 1.4 1.4v2.7c0 .9-.5 1.5-1.4 1.5h-9.6v18.6c0 3.8 1.8 5.2 4.1 5.2 2.2 0 4.1-1.3 4.1-3.8 0-.3 0-.8-.1-1.3-.1-1 .3-1.6 1.3-1.6h3.2c.8 0 1.5.4 1.6 1.3.3 1.2.3 2.5.3 2.6 0 5.2-3.8 9.1-10.5 9.1-5.7 0-11.2-2.9-11.2-11.9z"/><path d="m165 57.2v-30c0-1.6 1-2.5 2.6-2.5h2.1c1.6 0 2.5.9 2.5 2.5v5.3c1.2-5.6 5.2-8.6 9.4-8.6l1.5.1c1.5.2 1.7 1.4 1.7 2.8v2c0 1.7-.7 2.4-1.9 2.2-.6-.1-1.3-.2-1.9-.2-2.5 0-8.8 1.3-8.8 15.6v10.8c0 1.6-.9 2.5-2.5 2.5h-2.1c-1.7 0-2.6-.9-2.6-2.5z"/><path d="m185.3 42.1c0-10.1 6.9-18.3 17.3-18.3 4.7 0 9.2 1.6 12.5 6.3v-3c0-1.6 1-2.5 2.6-2.5h2.1c1.6 0 2.5.9 2.5 2.5v30c0 1.6-.9 2.5-2.5 2.5h-2.1c-1.6 0-2.6-.9-2.6-2.5v-3c-3.3 4.7-7.8 6.3-12.5 6.3-10.4.1-17.3-8.2-17.3-18.3zm30 0c-.1-6.9-4.8-12-11.7-12-7.1 0-11.1 5.5-11.1 12 0 6.6 4.1 12 11.1 12 6.9.1 11.6-5 11.7-12z"/><path d="m239.5 57.7-11.7-30.2c-.6-1.7.1-2.9 2-2.9h2.3c1.5 0 2.4.6 2.9 2l9.3 25.1 9.3-25.1c.6-1.4 1.5-2 2.9-2h2.3c1.9 0 2.6 1.1 2 2.9l-11.7 30.2c-.6 1.3-1.5 2-3 2h-3.6c-1.4 0-2.4-.7-3-2z"/><path d="m262.3 42.3c0-10.2 8-18.4 18.9-18.4 8.8 0 16.9 5.2 17.8 16.4.2 1.7-.8 2.6-2.4 2.6h-27.1c-.2 6.5 5.2 11.3 12.8 11.3 3.4 0 6.5-.9 9.5-2.9 1.3-.8 2.4-.8 3.6.4l.5.6c1.1 1.2 1.1 2.7-.5 4-4.1 3.3-8.7 4.3-13.2 4.3-12.3-.1-19.9-8.3-19.9-18.3zm29.6-4.7c-1.8-6.2-6.7-7.6-10.6-7.6-4.1 0-9.1 1.6-11.3 7.6z"/><path d="m304.5 57.2v-45.6c0-1.6 1-2.5 2.6-2.5h2.1c1.6 0 2.5.9 2.5 2.5v45.5c0 1.6-.9 2.5-2.5 2.5h-2.2c-1.6.1-2.5-.8-2.5-2.4z"/><path d="m320.2 57.2v-45.6c0-1.6 1-2.5 2.6-2.5h2.1c1.6 0 2.5.9 2.5 2.5v45.5c0 1.6-.9 2.5-2.5 2.5h-2.1c-1.6.1-2.6-.8-2.6-2.4z"/><path d="m333.1 42.3c0-10.2 8-18.4 18.9-18.4 8.8 0 16.9 5.2 17.8 16.4.2 1.7-.8 2.6-2.4 2.6h-27.1c-.2 6.5 5.2 11.3 12.8 11.3 3.4 0 6.5-.9 9.5-2.9 1.3-.8 2.4-.8 3.6.4l.5.6c1.1 1.2 1.1 2.7-.5 4-4.1 3.3-8.7 4.3-13.2 4.3-12.3-.1-19.9-8.3-19.9-18.3zm29.6-4.7c-1.8-6.2-6.7-7.6-10.6-7.6-4.1 0-9.1 1.6-11.3 7.6z"/><path d="m375 57.2v-30c0-1.6 1-2.5 2.6-2.5h2.1c1.6 0 2.5.9 2.5 2.5v5.3c1.2-5.6 5.2-8.6 9.4-8.6l1.5.1c1.5.2 1.7 1.4 1.7 2.8v2c0 1.7-.7 2.4-1.9 2.2-.6-.1-1.3-.2-1.9-.2-2.5 0-8.8 1.3-8.8 15.6v10.8c0 1.6-.9 2.5-2.5 2.5h-2.1c-1.6 0-2.6-.9-2.6-2.5z"/></g><path d="m208.8 51c-.1 0-.2 0-.3 0-.6-.1-1.1-.6-1.2-1.3l-1.1-10.2s-9.9.3-9.9.3c-.6 0-1.2-.4-1.4-1s0-1.3.6-1.7l28.2-18.7c.2-.2.5-.2.8-.2.4 0 .7.1 1 .4.5.4.6 1.2.3 1.8l-15.8 30c-.2.3-.7.6-1.2.6z" fill="#ff5722"/><path d="m224.5 19.6-15.8 30-1.2-11.6-11.2.3zm0-2.9h-.1c-.6 0-1.1.2-1.5.5l-28.2 18.7c-1.1.7-1.6 2.1-1.2 3.3s1.5 2 2.8 2h.1l8.5-.3.9 8.9c.1 1.3 1.1 2.3 2.4 2.6.2 0 .4.1.5.1 1.1 0 2.1-.6 2.6-1.6l15.8-29.9c.2-.4.4-.9.4-1.5-.1-1.5-1.4-2.8-3-2.8z" fill="#37474f"/><path d="m224.5 19.6-28.2 18.7 11.2-.3" fill="#ff7043"/></svg>