<svg viewBox="0 0 390.3 51.5" xmlns="http://www.w3.org/2000/svg"><g transform="translate(-4.5 -9.1)"><path d="m10.2 48.6v-18.3h-4.3a1.34 1.34 0 0 1 -1.4-1.5v-2.7a1.27 1.27 0 0 1 1.4-1.4h4.4l1.3-8a2.11 2.11 0 0 1 2.2-2h1.5a2 2 0 0 1 2.1 2.2v7.9h9.6a1.27 1.27 0 0 1 1.4 1.4v2.7a1.34 1.34 0 0 1 -1.4 1.5h-9.6v18.6c0 3.8 1.8 5.2 4.1 5.2s4.1-1.3 4.1-3.8a6.64 6.64 0 0 0 -.1-1.3c-.1-1 .3-1.6 1.3-1.6h3.2a1.46 1.46 0 0 1 1.6 1.3 11.93 11.93 0 0 1 .3 2.6c0 5.2-3.8 9.1-10.5 9.1-5.7 0-11.2-2.9-11.2-11.9z" fill="#ff5722"/><path d="m35.6 57.2v-30a2.34 2.34 0 0 1 2.6-2.5h2.1a2.27 2.27 0 0 1 2.5 2.5v5.3c1.2-5.6 5.2-8.6 9.4-8.6l1.5.1c1.5.2 1.7 1.4 1.7 2.8v2c0 1.7-.7 2.4-1.9 2.2a12.25 12.25 0 0 0 -1.9-.2c-2.5 0-8.8 1.3-8.8 15.6v10.8a2.27 2.27 0 0 1 -2.5 2.5h-2.1a2.3 2.3 0 0 1 -2.6-2.5z" fill="#ff5722"/><path d="m58.5 44.5v-17.3a2.27 2.27 0 0 1 2.5-2.5h2.1a2.34 2.34 0 0 1 2.6 2.5v17.2c0 7.1 3.2 9.8 6.9 9.8s10.9-2.5 10.9-13.1v-13.9a2.27 2.27 0 0 1 2.5-2.5h2.1a2.34 2.34 0 0 1 2.6 2.5v30a2.34 2.34 0 0 1 -2.6 2.5h-2.1a2.27 2.27 0 0 1 -2.5-2.5v-4.3c-1.5 4.9-6 7.6-11.7 7.6-7.7 0-13.3-5.1-13.3-16z" fill="#ff5722"/><path d="m96.2 42.3c0-10.2 8-18.4 18.9-18.4 8.8 0 16.9 5.2 17.8 16.4a2.15 2.15 0 0 1 -2.4 2.6h-27.1c-.2 6.5 5.2 11.3 12.8 11.3a16.58 16.58 0 0 0 9.5-2.9 2.56 2.56 0 0 1 3.6.4l.5.6c1.1 1.2 1.1 2.7-.5 4a20.29 20.29 0 0 1 -13.2 4.3c-12.3-.1-19.9-8.3-19.9-18.3zm29.6-4.7c-1.8-6.2-6.7-7.6-10.6-7.6-4.1 0-9.1 1.6-11.3 7.6z" fill="#ff5722"/><path d="m139.6 48.6v-18.3h-4.3a1.34 1.34 0 0 1 -1.4-1.5v-2.7a1.27 1.27 0 0 1 1.4-1.4h4.4l1.3-8a2.11 2.11 0 0 1 2.2-2h1.5a2 2 0 0 1 2.1 2.2v7.9h9.6a1.27 1.27 0 0 1 1.4 1.4v2.7a1.34 1.34 0 0 1 -1.4 1.5h-9.6v18.6c0 3.8 1.8 5.2 4.1 5.2s4.1-1.3 4.1-3.8a6.64 6.64 0 0 0 -.1-1.3c-.1-1 .3-1.6 1.3-1.6h3.2a1.46 1.46 0 0 1 1.6 1.3 11.93 11.93 0 0 1 .3 2.6c0 5.2-3.8 9.1-10.5 9.1-5.7 0-11.2-2.9-11.2-11.9z" fill="#37474f"/><path d="m165 57.2v-30a2.34 2.34 0 0 1 2.6-2.5h2.1a2.27 2.27 0 0 1 2.5 2.5v5.3c1.2-5.6 5.2-8.6 9.4-8.6l1.5.1c1.5.2 1.7 1.4 1.7 2.8v2c0 1.7-.7 2.4-1.9 2.2a12.25 12.25 0 0 0 -1.9-.2c-2.5 0-8.8 1.3-8.8 15.6v10.8a2.27 2.27 0 0 1 -2.5 2.5h-2.1a2.3 2.3 0 0 1 -2.6-2.5z" fill="#37474f"/><path d="m185.3 42.1c0-10.1 6.9-18.3 17.3-18.3a14.41 14.41 0 0 1 12.5 6.3v-3a2.34 2.34 0 0 1 2.6-2.5h2.1a2.27 2.27 0 0 1 2.5 2.5v30a2.27 2.27 0 0 1 -2.5 2.5h-2.1a2.34 2.34 0 0 1 -2.6-2.5v-3a14.41 14.41 0 0 1 -12.5 6.3c-10.4.1-17.3-8.2-17.3-18.3zm30 0c-.1-6.9-4.8-12-11.7-12-7.1 0-11.1 5.5-11.1 12s4.1 12 11.1 12 11.6-5 11.7-12z" fill="#37474f"/><path d="m239.5 57.7-11.7-30.2c-.6-1.7.1-2.9 2-2.9h2.3a2.73 2.73 0 0 1 2.9 2l9.3 25.1 9.3-25.1a2.87 2.87 0 0 1 2.9-2h2.3c1.9 0 2.6 1.1 2 2.9l-11.7 30.2a3 3 0 0 1 -3 2h-3.6a3.13 3.13 0 0 1 -3-2z" fill="#37474f"/><path d="m262.3 42.3c0-10.2 8-18.4 18.9-18.4 8.8 0 16.9 5.2 17.8 16.4a2.15 2.15 0 0 1 -2.4 2.6h-27.1c-.2 6.5 5.2 11.3 12.8 11.3a16.58 16.58 0 0 0 9.5-2.9 2.56 2.56 0 0 1 3.6.4l.5.6c1.1 1.2 1.1 2.7-.5 4a20.29 20.29 0 0 1 -13.2 4.3c-12.3-.1-19.9-8.3-19.9-18.3zm29.6-4.7c-1.8-6.2-6.7-7.6-10.6-7.6-4.1 0-9.1 1.6-11.3 7.6z" fill="#37474f"/><path d="m304.5 57.2v-45.6a2.34 2.34 0 0 1 2.6-2.5h2.1a2.27 2.27 0 0 1 2.5 2.5v45.5a2.27 2.27 0 0 1 -2.5 2.5h-2.2a2.15 2.15 0 0 1 -2.5-2.4z" fill="#37474f"/><path d="m320.2 57.2v-45.6a2.34 2.34 0 0 1 2.6-2.5h2.1a2.27 2.27 0 0 1 2.5 2.5v45.5a2.27 2.27 0 0 1 -2.5 2.5h-2.1a2.23 2.23 0 0 1 -2.6-2.4z" fill="#37474f"/><path d="m333.1 42.3c0-10.2 8-18.4 18.9-18.4 8.8 0 16.9 5.2 17.8 16.4a2.15 2.15 0 0 1 -2.4 2.6h-27.1c-.2 6.5 5.2 11.3 12.8 11.3a16.58 16.58 0 0 0 9.5-2.9 2.56 2.56 0 0 1 3.6.4l.5.6c1.1 1.2 1.1 2.7-.5 4a20.29 20.29 0 0 1 -13.2 4.3c-12.3-.1-19.9-8.3-19.9-18.3zm29.6-4.7c-1.8-6.2-6.7-7.6-10.6-7.6-4.1 0-9.1 1.6-11.3 7.6z" fill="#37474f"/><path d="m375 57.2v-30a2.34 2.34 0 0 1 2.6-2.5h2.1a2.27 2.27 0 0 1 2.5 2.5v5.3c1.2-5.6 5.2-8.6 9.4-8.6l1.5.1c1.5.2 1.7 1.4 1.7 2.8v2c0 1.7-.7 2.4-1.9 2.2a12.25 12.25 0 0 0 -1.9-.2c-2.5 0-8.8 1.3-8.8 15.6v10.8a2.27 2.27 0 0 1 -2.5 2.5h-2.1a2.34 2.34 0 0 1 -2.6-2.5z" fill="#37474f"/><path d="m208.8 51h-.3a1.49 1.49 0 0 1 -1.2-1.3l-1.1-10.2-9.9.3a1.5 1.5 0 0 1 -1.4-1 1.47 1.47 0 0 1 .6-1.7l28.2-18.7a1.08 1.08 0 0 1 .8-.2 1.28 1.28 0 0 1 1 .4 1.5 1.5 0 0 1 .3 1.8l-15.8 30a1.56 1.56 0 0 1 -1.2.6z" fill="#ff5722"/><path d="m224.5 19.6-15.8 30-1.2-11.6-11.2.3zm0-2.9h-.1a2.46 2.46 0 0 0 -1.5.5l-28.2 18.7a2.87 2.87 0 0 0 1.6 5.3h.1l8.5-.3.9 8.9a3 3 0 0 0 2.4 2.6 4.33 4.33 0 0 1 .5.1 2.88 2.88 0 0 0 2.6-1.6l15.8-29.9a3.31 3.31 0 0 0 .4-1.5 3 3 0 0 0 -3-2.8z" fill="#fff"/></g><path d="m220 10.5-28.2 18.7 11.2-.3" fill="#ff7043"/></svg>