<svg enable-background="new 0 0 586 119" viewBox="0 0 586 119" xmlns="http://www.w3.org/2000/svg"><path d="m71 49.2v-21.4h-5c-1.1 0-1.6-.7-1.6-1.8v-3.2c0-1.1.6-1.6 1.6-1.6h5.2l1.5-9.4c.2-1.5 1.2-2.3 2.6-2.3h1.7c1.5 0 2.5.9 2.5 2.6v9.2h11.2c1.1 0 1.6.6 1.6 1.6v3.2c0 1.1-.6 1.8-1.6 1.8h-11.3v21.8c0 4.4 2.1 6.1 4.8 6.1 2.6 0 4.8-1.5 4.8-4.4 0-.4 0-.9-.1-1.5-.1-1.2.4-1.9 1.5-1.9h3.7c.9 0 1.8.5 1.9 1.5.4 1.4.4 2.9.4 3 0 6.1-4.4 10.7-12.3 10.7-6.7 0-13.1-3.4-13.1-14z" fill="#ff5722"/><path d="m100.7 59.3v-35.1c0-1.9 1.2-2.9 3-2.9h2.5c1.9 0 2.9 1.1 2.9 2.9v6.2c1.4-6.6 6.1-10.1 11-10.1l1.8.1c1.8.2 2 1.6 2 3.3v2.3c0 2-.8 2.8-2.2 2.6-.7-.1-1.5-.2-2.2-.2-2.9 0-10.3 1.5-10.3 18.3v12.6c0 1.9-1.1 2.9-2.9 2.9h-2.5c-2 0-3.1-1-3.1-2.9z" fill="#ff5722"/><path d="m127.5 44.4v-20.2c0-1.9 1.1-2.9 2.9-2.9h2.5c1.9 0 3 1.1 3 2.9v20.1c0 8.3 3.7 11.5 8.1 11.5 4.2 0 12.8-2.9 12.8-15.3v-16.3c0-1.9 1.1-2.9 2.9-2.9h2.5c1.9 0 3 1.1 3 2.9v35.1c0 1.9-1.2 2.9-3 2.9h-2.5c-1.9 0-2.9-1.1-2.9-2.9v-5c-1.8 5.7-7 8.9-13.7 8.9-9 0-15.6-6-15.6-18.8z" fill="#ff5722"/><path d="m171.7 41.9c0-11.9 9.4-21.5 22.1-21.5 10.3 0 19.8 6.1 20.8 19.2.2 2-.9 3-2.8 3h-31.7c-.2 7.6 6.1 13.2 15 13.2 4 0 7.6-1.1 11.1-3.4 1.5-.9 2.8-.9 4.2.5l.6.7c1.3 1.4 1.3 3.2-.6 4.7-4.8 3.9-10.2 5-15.5 5-14.3-.1-23.2-9.7-23.2-21.4zm34.6-5.5c-2.1-7.3-7.8-8.9-12.4-8.9-4.8 0-10.7 1.9-13.2 8.9z" fill="#ff5722"/><g fill="#fff"><path d="m222.5 49.2v-21.4h-5c-1.1 0-1.6-.7-1.6-1.8v-3.2c0-1.1.6-1.6 1.6-1.6h5.2l1.5-9.4c.2-1.5 1.2-2.3 2.6-2.3h1.8c1.5 0 2.5.9 2.5 2.6v9.2h11.2c1.1 0 1.6.6 1.6 1.6v3.2c0 1.1-.6 1.8-1.6 1.8h-11.2v21.8c0 4.4 2.1 6.1 4.8 6.1 2.6 0 4.8-1.5 4.8-4.4 0-.4 0-.9-.1-1.5-.1-1.2.4-1.9 1.5-1.9h3.7c.9 0 1.8.5 1.9 1.5.4 1.4.4 2.9.4 3 0 6.1-4.4 10.7-12.3 10.7-6.9 0-13.3-3.4-13.3-14z"/><path d="m252.2 59.3v-35.1c0-1.9 1.2-2.9 3-2.9h2.5c1.9 0 2.9 1.1 2.9 2.9v6.2c1.4-6.6 6.1-10.1 11-10.1l1.8.1c1.8.2 2 1.6 2 3.3v2.3c0 2-.8 2.8-2.2 2.6-.7-.1-1.5-.2-2.2-.2-2.9 0-10.3 1.5-10.3 18.3v12.6c0 1.9-1.1 2.9-2.9 2.9h-2.5c-2 0-3.1-1-3.1-2.9z"/><path d="m276 41.6c0-11.8 8.1-21.4 20.3-21.4 5.5 0 10.8 1.9 14.6 7.4v-3.5c0-1.9 1.2-2.9 3-2.9h2.5c1.9 0 2.9 1.1 2.9 2.9v35.1c0 1.9-1.1 2.9-2.9 2.9h-2.5c-1.9 0-3-1.1-3-2.9v-3.5c-3.9 5.5-9.1 7.4-14.6 7.4-12.3.1-20.3-9.6-20.3-21.5zm35.1 0c-.1-8.1-5.6-14-13.7-14-8.3 0-13 6.4-13 14 0 7.7 4.8 14 13 14 8.1.2 13.6-5.8 13.7-14z"/><path d="m339.4 59.9-13.7-35.4c-.7-2 .1-3.4 2.3-3.4h2.7c1.8 0 2.8.7 3.4 2.3l10.9 29.5 10.9-29.4c.7-1.6 1.8-2.3 3.4-2.3h2.7c2.2 0 3 1.3 2.3 3.4l-13.7 35.4c-.7 1.5-1.8 2.3-3.5 2.3h-4.2c-1.6-.1-2.8-.9-3.5-2.4z"/><path d="m366.1 41.9c0-11.9 9.4-21.5 22.1-21.5 10.3 0 19.8 6.1 20.8 19.2.2 2-.9 3-2.8 3h-31.7c-.2 7.6 6.1 13.2 15 13.2 4 0 7.6-1.1 11.1-3.4 1.5-.9 2.8-.9 4.2.5l.6.7c1.3 1.4 1.3 3.2-.6 4.7-4.8 3.9-10.2 5-15.5 5-14.3-.1-23.2-9.7-23.2-21.4zm34.7-5.5c-2.1-7.3-7.8-8.9-12.4-8.9-4.8 0-10.7 1.9-13.2 8.9z"/><path d="m415.5 59.3v-53.4c0-1.9 1.2-2.9 3-2.9h2.5c1.9 0 2.9 1.1 2.9 2.9v53.3c0 1.9-1.1 2.9-2.9 2.9h-2.6c-1.8.1-2.9-.9-2.9-2.8z"/><path d="m433.9 59.3v-53.4c0-1.9 1.2-2.9 3-2.9h2.5c1.9 0 2.9 1.1 2.9 2.9v53.3c0 1.9-1.1 2.9-2.9 2.9h-2.5c-1.8.1-3-.9-3-2.8z"/><path d="m449 41.9c0-11.9 9.4-21.5 22.1-21.5 10.3 0 19.8 6.1 20.8 19.2.2 2-.9 3-2.8 3h-31.7c-.2 7.6 6.1 13.2 15 13.2 4 0 7.6-1.1 11.1-3.4 1.5-.9 2.8-.9 4.2.5l.6.7c1.3 1.4 1.3 3.2-.6 4.7-4.8 3.9-10.2 5-15.5 5-14.3-.1-23.2-9.7-23.2-21.4zm34.6-5.5c-2.1-7.3-7.8-8.9-12.4-8.9-4.8 0-10.7 1.9-13.2 8.9z"/><path d="m498 59.3v-35.1c0-1.9 1.2-2.9 3-2.9h2.5c1.9 0 2.9 1.1 2.9 2.9v6.2c1.4-6.6 6.1-10.1 11-10.1l1.8.1c1.8.2 2 1.6 2 3.3v2.3c0 2-.8 2.8-2.2 2.6-.7-.1-1.5-.2-2.2-.2-2.9 0-10.3 1.5-10.3 18.3v12.6c0 1.9-1.1 2.9-2.9 2.9h-2.5c-1.9 0-3.1-1-3.1-2.9z"/></g><path d="m303.5 52.1c-.1 0-.2 0-.4 0-.7-.1-1.3-.7-1.4-1.5l-1.3-11.9-11.6.4c-.7 0-1.4-.5-1.6-1.2s0-1.5.7-2l33-21.9c.2-.2.6-.2.9-.2.5 0 .8.1 1.2.5.6.5.7 1.4.4 2.1l-18.5 35.1c-.2.2-.8.6-1.4.6z" fill="#ff5722"/><path d="m321.9 15.3-18.5 35.1-1.4-13.6-13.1.4zm0-3.4h-.1c-.7 0-1.3.2-1.8.6l-33 21.9c-1.3.8-1.9 2.5-1.4 3.9s1.8 2.3 3.3 2.3h.1l10-.4 1.1 10.4c.1 1.5 1.3 2.7 2.8 3 .2 0 .5.1.6.1 1.3 0 2.5-.7 3-1.9l18.5-35c.2-.5.5-1.1.5-1.8-.2-1.6-1.8-3.1-3.6-3.1z" fill="#37474f"/><path d="m321.9 15.3-33.1 21.9 13.2-.4" fill="#ff7043"/><text fill="#fff" font-family="'FilsonSoftBook'" font-size="29.2659" opacity=".6" transform="translate(24.3937 99.9488)">travel insurance designed by travellers</text></svg>